<?xml version="1.0" encoding="utf-8"?>
<!-- Generator: Adobe Illustrator 26.5.0, SVG Export Plug-In . SVG Version: 6.00 Build 0)  -->
<svg version="1.1" id="Layer_1" xmlns="http://www.w3.org/2000/svg" xmlns:xlink="http://www.w3.org/1999/xlink" x="0px" y="0px"
	 viewBox="0 0 120 64" style="enable-background:new 0 0 120 64;" xml:space="preserve">
<style type="text/css">
	.st0{display:none;fill-rule:evenodd;clip-rule:evenodd;fill:#B3B7BC;}
	.st1{display:none;}
	.st2{display:inline;fill:#FFFFFF;}
	.st3{display:inline;}
	.st4{display:inline;fill:#0B7B48;}
	.st5{fill:#D5A724;}
	.st6{fill:#B3B7BC;}
	.st7{display:inline;fill:#B3B7BC;}
	.st8{fill:#FFFFFF;}
</style>
<path class="st0" d="M12,0h10.1l5.6,38.6L33.2,0h69.3l-2.3,11.1H41.7l-8.9,50.7H22.7L12,0z"/>
<path class="st0" d="M104.3,47.5c0.3,6-3.1,15.2-10.7,15.2C84.9,62.6,83,51.8,83,47.3h7.1c0,2.6,2.2,5.2,3.8,5.2
	c1.6,0,3.3-2.1,3.3-3.4c0-1.4-0.5-3.4-3.1-5.2c-8.5-5.1-10.4-10.9-10.4-16c-0.3-6,2.6-14.9,10.1-14.9s9.6,10.5,9.6,14.9h-6.7
	c0-2.5-1.6-4.2-3.3-4.2c-1.6,0-2.7,1.6-2.7,3s0.3,2.6,2.9,4.4C97.1,32.7,104.3,38,104.3,47.5L104.3,47.5z M104.7,59.1
	c0.3,0,0.6,0.1,0.8,0.2c0.3,0.1,0.5,0.3,0.7,0.5s0.4,0.4,0.5,0.7s0.2,0.6,0.2,0.8c0,0.3-0.1,0.6-0.2,0.8c-0.1,0.3-0.3,0.5-0.5,0.7
	s-0.4,0.4-0.7,0.5c-0.3,0.1-0.6,0.2-0.8,0.2c-0.3,0-0.6-0.1-0.8-0.2c-0.3-0.1-0.5-0.3-0.7-0.5s-0.4-0.4-0.5-0.7s-0.2-0.6-0.2-0.8
	C102.5,60.1,103.5,59.1,104.7,59.1v-0.5c-1.5,0-2.7,1.2-2.7,2.7c0,0.4,0.1,0.7,0.2,1s0.3,0.6,0.6,0.9c0.3,0.3,0.6,0.5,0.9,0.6
	s0.7,0.2,1,0.2c1.5,0,2.7-1.2,2.7-2.7c0-0.7-0.3-1.4-0.8-1.9s-1.2-0.8-1.9-0.8C104.7,58.6,104.7,59.1,104.7,59.1z"/>
<path class="st0" d="M104.2,60.3h0.7c0.3,0,0.7,0,0.7,0.4s-0.2,0.4-0.6,0.4h-0.9v0.4h0.6l0.6,1.2h0.7l-0.7-1.2
	c0.5,0,0.8-0.3,0.8-0.8c0-0.3-0.1-0.6-0.3-0.8c-0.2-0.1-0.5-0.1-0.8-0.1h-1.4v2.9h0.6L104.2,60.3L104.2,60.3z M45.2,45.4L48,27.6
	l2.7,17.8H45.2z M43.6,55.4h8.5l1.1,6.4h13.5V36.4L75,61.8h7V14.5h-7.1v24.1L67,14.5h-7.4V59l-7.7-44.5H44l-8.2,47.3h7L43.6,55.4
	L43.6,55.4z"/>
<g class="st1">
	<path class="st2" d="M81.9,62.8c0,0.5,0,0.9,0,1.4c-16.9,0-33.9,0-50.8,0c0-21.3,0-42.7,0-64c16.9,0,33.9,0,50.8,0
		c0,20.8,0,41.6,0,62.4c-0.3,0-0.6,0-0.9,0c0-0.9,0-1.7,0-2.6c-0.2,0-0.3,0-0.4,0c0,1,0,2,0,3c0.4,0,0.8,0,1.2,0
		C81.8,63,81.9,62.9,81.9,62.8z M36.7,20c-0.1,10.6,8.5,19.7,19.6,19.8c11,0.1,19.9-8.8,19.9-19.7c0-11.2-9-19.7-19.5-19.8
		C45.6,0.1,36.6,9.2,36.7,20z M47,46L47,46c0.5,3.9,0.9,7.8,1.3,11.6c0.7,0,1.3,0,2,0c0-0.1,0-0.1,0-0.2c-0.1-1-0.2-2-0.2-3
		c-0.1-1.3-0.2-2.5-0.3-3.8c-0.1-1.5-0.2-3-0.4-4.5c-0.1-0.8-0.3-1.6-0.9-2.2c-0.7-0.8-1.6-0.9-2.5-0.3c-0.6,0.4-0.9,1-1.1,1.7
		c-0.7,2.5-1.4,5-2.1,7.6c-0.1,0.4-0.2,0.8-0.3,1.3c-0.1-0.1-0.1-0.2-0.1-0.3c-0.7-2.7-1.5-5.5-2.2-8.2c-0.2-0.7-0.5-1.3-1-1.8
		c-1-1-2.4-0.8-3.1,0.5c-0.1,0.2-0.2,0.4-0.2,0.6c-0.1,0.4-0.1,0.8-0.2,1.2c-0.1,1.3-0.3,2.6-0.4,3.8c-0.1,1.1-0.2,2.2-0.3,3.3
		c-0.1,1.4-0.3,2.8-0.4,4.3c0,0.1,0,0.1,0,0.2c0.6,0,1.3,0,1.9,0c0.2,0,0.2-0.1,0.2-0.2c0-0.3,0-0.5,0.1-0.8
		c0.2-1.8,0.4-3.5,0.5-5.3c0.2-1.6,0.3-3.2,0.5-4.8c0-0.2,0-0.4,0.1-0.6c0.1,0.1,0.1,0.1,0.1,0.2c0.8,3,1.6,6,2.5,8.9
		c0.2,0.6,0.4,1.1,0.8,1.6c0.6,0.7,1.4,0.8,2.1,0.3c0.6-0.4,1-1,1.2-1.7c0.6-2,1.1-4.1,1.7-6.1C46.4,48,46.7,47,47,46z M56,47.1
		L56,47.1c0.1,0.1,0.2,0.2,0.2,0.2c1.3,3,2.6,5.9,3.9,8.9c0.2,0.5,0.6,1,1.1,1.3c1.1,0.6,2.5,0.1,2.7-1.2c0.1-0.3,0-0.6,0-0.9
		c0-3.6,0-7.3,0-10.9c0-0.2,0-0.3,0-0.5c0-0.3,0-0.6,0-0.9c-0.8,0-1.5,0-2.3,0c0.1,3.8,0.1,7.5,0.2,11.3h-0.1
		c-0.2-0.4-0.4-0.9-0.6-1.3c-1.1-2.6-2.3-5.2-3.4-7.8c-0.3-0.7-0.7-1.4-1.4-1.8c-0.7-0.5-1.4-0.4-2,0.2c-0.4,0.5-0.7,1-0.7,1.7
		c0,4,0,7.9,0,11.9c0,0.1,0,0.2,0,0.3c0.7,0,1.4,0,2.2,0C56,54.1,56,50.6,56,47.1z M70.4,57.6c0-0.1,0-0.2,0-0.2c0-0.9,0-1.8,0-2.7
		c0-1.4,0-2.8,0-4.1c0-1,0-2,0-2.9c0-1.1,0.8-2.1,1.9-2.5s2.3-0.1,3,0.8c0.8,0.9,0.9,2,0.9,3.2c0,0.1-0.1,0.2-0.2,0.2
		c-1.6,0-3.3,0-4.9,0c-0.1,0-0.2,0-0.3,0c0,0.5,0,1,0,1.6c1.8,0,3.6,0,5.4,0c0,2.3,0,4.5,0,6.8c0.7,0,1.5,0,2.2,0c0-0.1,0-0.3,0-0.4
		c0-3,0-6.1,0-9.1c0-1.8-0.8-3.2-2.4-4.2c-2.5-1.5-5.7-1-7.1,1.7c-0.4,0.7-0.7,1.4-0.7,2.2c0,3.1,0,6.3,0,9.4c0,0.1,0,0.2,0,0.3
		C69,57.6,69.7,57.6,70.4,57.6z M77,62L77,62c-0.1-0.6-0.3-1.2-0.4-1.8c0-0.2-0.1-0.2-0.3-0.2c-0.2,0-0.3,0-0.5,0c0,1,0,2,0,3
		c0.1,0,0.3,0,0.4,0c0-0.8,0-1.6,0-2.3l0,0c0.1,0.8,0.3,1.6,0.4,2.3c0.2,0,0.3,0,0.5,0c0.1-0.8,0.3-1.6,0.4-2.4c0,0,0,0,0.1,0
		c0,0.8,0,1.6,0,2.3c0.1,0,0.3,0,0.4,0c0-1,0-2,0-2.9c-0.2,0-0.4,0-0.7,0C77.3,60.7,77.2,61.3,77,62z M74.4,60c-0.2,0-0.3,0-0.4,0
		c0,0.7,0,1.3,0,1.9c-0.2-0.5-0.4-1-0.5-1.6c-0.1-0.4-0.2-0.5-0.7-0.3c0,1,0,1.9,0,2.9c0.1,0,0.3,0,0.4,0c0-0.7,0-1.4,0-2
		c0.2,0.6,0.4,1.1,0.5,1.7c0.1,0.5,0.2,0.5,0.6,0.4C74.4,62,74.4,61,74.4,60z M69.2,60c0,0.7,0,1.3,0,1.9c-0.2-0.5-0.3-1-0.5-1.5
		C68.5,60,68.5,60,68,60c0,1,0,1.9,0,2.9c0.1,0,0.3,0,0.4,0c0-0.7,0-1.4,0-2.1l0,0c0.2,0.6,0.3,1.1,0.5,1.7c0.1,0.4,0.2,0.5,0.6,0.4
		c0-1,0-1.9,0-2.9C69.5,60,69.4,60,69.2,60z M36.5,63c0.1,0,0.3,0,0.4,0c0-0.7,0-1.4,0-2c0.2,0.6,0.4,1.1,0.5,1.7
		c0.1,0.5,0.2,0.5,0.6,0.4c0-1,0-1.9,0-2.9c-0.1,0-0.3,0-0.4,0c0,0.7,0,1.3,0,1.9c-0.2-0.5-0.4-1-0.5-1.6c-0.1-0.4-0.2-0.5-0.7-0.3
		C36.5,61,36.5,62,36.5,63z M54.8,63c0-0.7,0-1.4,0-2.1l0,0c0.2,0.7,0.4,1.4,0.6,2.1c0.2,0,0.4,0,0.5,0c0-1,0-2,0-2.9
		c-0.1,0-0.3,0-0.4,0c0,0.6,0,1.3,0,1.9c-0.1-0.1-0.1-0.2-0.1-0.2c-0.2-0.5-0.3-1-0.4-1.5c0-0.2-0.1-0.3-0.3-0.2c-0.1,0-0.2,0-0.3,0
		c0,1,0,2,0,3C54.6,63,54.7,63,54.8,63z M52.8,61.9C52.8,61.9,52.7,62,52.8,61.9c-0.2-0.6-0.4-1.1-0.6-1.7c0-0.2-0.1-0.2-0.3-0.2
		c-0.1,0-0.2,0-0.3,0c0,1,0,2,0,3c0.1,0,0.3,0,0.4,0c0-0.7,0-1.4,0-2.1l0,0c0.2,0.7,0.4,1.4,0.6,2.1c0.2,0,0.3,0,0.5,0
		c0-1,0-2,0-2.9c-0.1,0-0.3,0-0.4,0C52.8,60.7,52.8,61.3,52.8,61.9z M40.2,61.5L40.2,61.5c0-0.3,0-0.5,0-0.8c0-0.5-0.3-0.7-0.8-0.7
		s-0.8,0.2-0.9,0.7c0,0.6,0,1.2,0,1.8c0,0.4,0.3,0.7,0.8,0.6c0.5,0,0.8-0.2,0.8-0.7C40.2,62,40.2,61.8,40.2,61.5z M43.8,61.5
		c0-0.3,0-0.5,0-0.8c0-0.5-0.3-0.7-0.7-0.8c-0.5,0-0.9,0.2-0.9,0.7c0,0.6,0,1.1,0,1.7c0,0.5,0.3,0.7,0.8,0.7s0.8-0.3,0.8-0.7
		C43.8,62,43.8,61.8,43.8,61.5z M67.6,61.5L67.6,61.5c0-0.3,0-0.5,0-0.8c0-0.5-0.3-0.7-0.8-0.7s-0.8,0.2-0.9,0.7c0,0.6,0,1.1,0,1.7
		c0,0.5,0.3,0.7,0.8,0.7s0.8-0.2,0.8-0.7C67.6,62,67.6,61.8,67.6,61.5z M56.5,60c0,0.8,0,1.5,0,2.3c0,0.5,0.3,0.7,0.8,0.7
		s0.8-0.3,0.8-0.7c0-0.6,0-1.2,0-1.7c0-0.2,0-0.3,0-0.5c-0.2,0-0.3,0-0.5,0c0,0.1,0,0.2,0,0.3c0,0.6,0,1.3,0,1.9
		c0,0.2-0.1,0.4-0.3,0.4S57,62.6,57,62.3c0-0.5,0-0.9,0-1.4c0-0.3,0-0.6,0-0.9C56.8,60,56.7,60,56.5,60z M45.3,61.7
		c0,0.2,0,0.4,0,0.6c0,0.2-0.1,0.3-0.3,0.3s-0.3-0.2-0.3-0.4c0-0.3,0-0.6,0-0.9c0-0.3,0-0.5,0-0.8c0-0.2,0.1-0.3,0.3-0.3
		s0.3,0.1,0.3,0.3c0,0.1,0,0.1,0,0.2c0.2,0,0.3,0,0.4,0c0-0.5-0.1-0.8-0.6-0.8c-0.5-0.1-0.9,0.1-1,0.6c0,0.7,0,1.3,0,2
		c0,0.3,0.2,0.5,0.5,0.5c0.2,0,0.4-0.1,0.6-0.1c0.2,0,0.3,0.1,0.5,0.1c0-0.6,0-1.1,0-1.6c-0.3,0-0.5,0-0.8,0c0,0.1,0,0.2,0,0.3
		C45.1,61.7,45.2,61.7,45.3,61.7z M60.3,63c0.2,0,0.3,0,0.5,0c0-0.5,0-0.9,0-1.3c0.5,0,0.6,0,0.6,0.5c0,0.3,0,0.6,0,0.8
		c0.2,0,0.3,0,0.5,0c-0.2-0.5,0.2-1.1-0.3-1.5c0.3-0.2,0.3-0.6,0.3-0.9c0-0.3-0.2-0.4-0.4-0.5c-0.3,0-0.7,0-1.1,0
		C60.3,61,60.3,62,60.3,63z M47.1,63c0.5,0.1,0.5,0.1,0.5-0.4c0-0.2,0.1-0.3,0.1-0.5c0.1,0,0.1,0,0.2,0c0.3,0,0.4,0,0.4,0.3
		c0,0.2,0.1,0.3,0.1,0.5c0.2,0,0.3,0,0.5,0c-0.2-1-0.4-2-0.6-2.9c-0.2,0-0.5,0-0.7,0C47.4,61,47.2,62,47.1,63z M78.9,60
		c-0.2,1-0.4,2-0.6,2.9c0.5,0.1,0.5,0.1,0.5-0.3c0-0.2,0.1-0.3,0.1-0.5c0.1,0,0.2,0,0.2,0c0.3,0,0.4,0.1,0.4,0.3s0.1,0.4,0.1,0.5
		c0.2,0,0.3,0,0.5,0c-0.2-0.8-0.3-1.6-0.5-2.4C79.6,60,79.6,60,78.9,60z M71.2,60c-0.2,1-0.4,2-0.6,2.9c0.2,0,0.3,0,0.5,0
		c0.1-0.3,0.1-0.6,0.2-0.8c0.1,0,0.1,0,0.2,0c0.3,0,0.4,0.1,0.4,0.3s0.1,0.3,0.1,0.5c0.2,0,0.3,0,0.5,0c-0.2-1-0.4-2-0.6-2.9
		C71.7,60,71.5,60,71.2,60z M36.2,60.8c0-0.6-0.2-0.9-0.7-0.9c-0.6,0-0.8,0.2-0.8,0.8c0,0.5,0,1,0,1.6c0,0.5,0.4,0.8,0.9,0.7
		s0.7-0.4,0.6-0.9c-0.1,0-0.3,0-0.4,0c0,0.1,0,0.2,0,0.3c-0.1,0.1-0.2,0.2-0.3,0.2s-0.3-0.1-0.3-0.2c0-0.6,0-1.2,0-1.8
		c0-0.1,0.2-0.2,0.3-0.2s0.2,0.1,0.3,0.2c0,0.1,0,0.2,0,0.3C35.9,60.8,36,60.8,36.2,60.8z M64.2,62.1c0,0.1,0,0.2,0,0.2
		c0,0.2-0.1,0.3-0.3,0.3s-0.3-0.1-0.3-0.3c0-0.6,0-1.2,0-1.8c0-0.1,0.1-0.2,0.3-0.3c0.2,0,0.3,0.1,0.3,0.3c0,0.1,0,0.2,0,0.2
		c0.2,0,0.3,0,0.4,0c0-0.6-0.2-0.9-0.7-0.9c-0.6,0-0.8,0.2-0.8,0.8c0,0.5,0,1,0,1.5s0.3,0.8,0.9,0.7c0.5-0.1,0.7-0.4,0.6-0.9
		C64.5,62.1,64.3,62.1,64.2,62.1z M51.1,61.6c0-0.1,0-0.2,0-0.4c-0.3,0-0.5,0-0.7,0c0-0.3,0-0.6,0-0.9c0.3,0,0.5,0,0.8,0
		c0-0.1,0-0.2,0-0.3c-0.4,0-0.8,0-1.3,0c0,1,0,2,0,2.9c0.4,0,0.9,0,1.3,0c0-0.1,0-0.2,0-0.3c-0.3,0-0.6,0-0.9,0c0-0.4,0-0.7,0-1
		C50.6,61.6,50.9,61.6,51.1,61.6z M34.2,61.2c-0.3,0-0.5,0-0.8,0c0-0.3,0-0.6,0-0.9c0.3,0,0.5,0,0.8,0c0-0.1,0-0.2,0-0.3
		c-0.4,0-0.8,0-1.3,0c0,1,0,2,0,2.9c0.4,0,0.9,0,1.3,0c0-0.1,0-0.2,0.1-0.3c-0.3,0-0.6,0-0.9,0c0-0.4,0-0.7,0-1c0.3,0,0.5,0,0.7,0
		C34.2,61.5,34.2,61.4,34.2,61.2z M32.7,60c-0.6,0-1.1,0-1.6,0c0,0.1,0,0.2,0,0.3c0.2,0,0.4,0,0.6,0c0,0.9,0,1.7,0,2.6
		c0.2,0,0.3,0,0.5,0c0-0.9,0-1.7,0-2.6c0.2,0,0.4,0,0.5,0C32.7,60.2,32.7,60.1,32.7,60z M59.5,63c0-0.9,0-1.7,0-2.6
		c0.2,0,0.4,0,0.5,0c0-0.1,0-0.2,0-0.3c-0.5,0-1.1,0-1.6,0c0,0.1,0,0.2,0,0.4c0.2,0,0.4,0,0.6,0c0,0.9,0,1.7,0,2.6
		C59.2,63,59.3,63,59.5,63z M40.7,60c0,1,0,2,0,3c0.4,0,0.9,0,1.3,0c0-0.1,0-0.2,0-0.4c-0.3,0-0.6,0-0.9,0c0-0.9,0-1.7,0-2.6
		C41,60,40.8,60,40.7,60z M62.7,63c0-1,0-2,0-2.9c-0.2,0-0.3,0-0.4,0c0,1,0,2,0,2.9C62.4,63,62.6,63,62.7,63z M65,60c0,1,0,2,0,2.9
		c0.2,0,0.3,0,0.4,0c0-1,0-2,0-2.9C65.3,60,65.2,60,65,60z M46.7,63c0-1,0-2,0-2.9c-0.2,0-0.3,0-0.4,0c0,1,0,2,0,2.9
		C46.4,63,46.6,63,46.7,63z M75.4,63c0-1,0-2,0-3c-0.2,0-0.3,0-0.4,0c0,1,0,2,0,3C75.1,63,75.2,63,75.4,63z M47.3,59.4
		c-0.6-0.1-0.8,0.1-1,0.4C46.7,59.9,47,59.6,47.3,59.4z M66.5,59.8c0.4,0.1,0.7-0.2,1-0.4C67.1,59.2,66.8,59.4,66.5,59.8z"/>
	<path class="st3" d="M81.9,62.8c-0.1,0.1-0.1,0.2-0.2,0.2c-0.4,0-0.8,0-1.2,0c0-1,0-2,0-3c0.2,0,0.3,0,0.4,0c0,0.9,0,1.7,0,2.6
		c0.3,0,0.6,0,0.9,0C81.9,62.7,81.9,62.8,81.9,62.8z"/>
	<path class="st4" d="M36.7,20c-0.1-10.9,8.9-19.9,20-19.8C67.2,0.3,76.2,8.8,76.2,20c0,11-8.9,19.8-19.9,19.7
		C45.2,39.8,36.6,30.7,36.7,20z M56.7,10.2c0-0.1,0-0.1,0-0.1c-0.2-1.3-0.4-2.5-0.6-3.8C56,6.1,56,6.1,55.9,6
		c-1.4-0.9-2.8-1.7-4.1-2.6c-0.1-0.1-0.2-0.1-0.3,0c-1.3,1-2.5,2-3.8,3c-0.1,0.1-0.2,0.2-0.1,0.4c0.4,1.6,0.8,3.2,1.2,4.8
		c0,0.1,0.1,0.2,0.2,0.3c0.8,0.6,1.6,1.2,2.4,1.8c0.1,0.1,0.2,0.1,0.3,0c1.6-1.1,3.3-2.3,4.9-3.4C56.6,10.3,56.6,10.2,56.7,10.2z
		 M61.9,28.8c0,0,0.1,0.1,0.1,0.2c1.3,0.9,2.5,1.8,3.8,2.7c0.1,0.1,0.2,0.1,0.3,0.1c1-0.2,2-0.3,2.9-0.5c0.1,0,0.3-0.1,0.4-0.3
		c0.6-1.1,1.1-2.2,1.6-3.2c0.1-0.2,0.1-0.3,0-0.4c-0.4-0.6-0.8-1.2-1.2-1.8c-0.1-0.1-0.2-0.2-0.3-0.3c-1.4-0.6-2.8-1.2-4.3-1.8
		c-0.1-0.1-0.3-0.1-0.4,0c-0.6,0.2-1.2,0.5-1.8,0.7c-0.4,0.1-0.6,0.3-0.6,0.8c0,0.2,0,0.4-0.1,0.5C62.3,26.5,62.1,27.6,61.9,28.8z
		 M55.6,32.7c0,0.7,0,1.3,0,2c0,0.1,0.1,0.3,0.2,0.3c1.1,0.8,2.3,1.5,3.4,2.3c0.1,0,0.2,0.1,0.3,0c1.6-0.8,3.2-1.7,4.8-2.6
		c0.2-0.1,0.2-0.2,0.2-0.4c-0.1-0.4-0.1-0.8-0.1-1.3c0-0.3-0.1-0.4-0.4-0.6c-1.1-0.7-2.2-1.4-3.2-2c-0.2-0.1-0.3-0.3-0.3-0.5
		c0-0.6,0-1.2,0-1.7c0-0.2-0.1-0.3-0.3-0.3c-0.4,0-0.7,0-1.1,0c-0.2,0-0.4,0.1-0.6,0.2c-0.9,0.7-1.9,1.5-2.8,2.2
		c-0.1,0.1-0.2,0.2-0.2,0.4C55.6,31.5,55.6,32.1,55.6,32.7z M71.5,23.9c0.1-0.1,0.2-0.1,0.3-0.2c1-0.9,2.1-1.8,3.1-2.7
		c0.1-0.1,0.2-0.2,0.1-0.4c-0.5-1.3-1-2.6-1.5-3.9c0-0.1-0.2-0.2-0.3-0.2c-1.4-0.3-2.7-0.5-4.1-0.7c-0.1,0-0.3,0-0.4,0.1
		c-0.9,0.9-1.9,1.9-2.8,2.8c-0.1,0.1-0.2,0.2-0.1,0.4c0.5,1.2,1.1,2.3,1.6,3.5c0,0.1,0.2,0.2,0.3,0.2c0.9,0.3,1.8,0.6,2.7,0.9
		C70.8,23.7,71.1,23.8,71.5,23.9z M49.3,28c0-0.6,0-1.1,0-1.7c0-0.1-0.1-0.2-0.1-0.3c-0.9-0.7-1.9-1.3-2.8-2c-0.1,0-0.3,0-0.4,0
		c-1.2,0.4-2.4,0.9-3.6,1.3c-0.2,0.1-0.3,0.2-0.3,0.3c-0.3,1.2-0.6,2.4-0.9,3.6c-0.1,0.2,0,0.3,0.2,0.4c1.3,0.8,2.5,1.5,3.8,2.3
		c0.2,0.1,0.3,0.1,0.5,0c1.2-0.7,2.3-1.3,3.5-2c0.1-0.1,0.2-0.2,0.2-0.4C49.3,29.1,49.3,28.6,49.3,28z M56.5,3.7
		c0.4,0.4,0.7,0.7,1,1c0.1,0.1,0.1,0.2,0.2,0.3c0.1,0.6,0.1,1.3,0.2,1.9c0.1,1.5,0.2,3,0.4,4.5c0,0.2,0.1,0.3,0.3,0.3
		c1.1,0,2.3,0,3.4,0c0.2,0,0.3-0.1,0.4-0.2c0.7-1.2,1.4-2.4,2.2-3.6c0.1-0.2,0.1-0.3,0-0.5c-0.7-1.3-1.4-2.6-2-3.9
		c-0.1-0.2-0.3-0.3-0.5-0.3c-1,0.1-2,0.1-3,0.2C58.1,3.6,57.4,3.6,56.5,3.7z M48.2,17c0.5-0.9,1-1.7,1.5-2.5
		c0.1-0.2,0.1-0.3-0.1-0.5c-0.7-0.5-1.4-1.1-2.1-1.6c-0.2-0.1-0.3-0.3-0.4-0.5c-0.3-1-0.6-2-0.8-3c-0.1-0.2-0.2-0.3-0.4-0.3
		c-0.7,0-1.3,0-2,0c-0.2,0-0.4,0.1-0.5,0.3c-0.7,1.5-1.4,2.9-2.2,4.3c-0.1,0.2-0.1,0.3,0,0.5c0.3,0.6,0.6,1.3,0.9,1.9
		c0.1,0.2,0.2,0.3,0.4,0.3c1.3,0,2.6,0.1,3.9,0.1c0.4,0,0.7,0.1,0.9,0.3C47.7,16.6,47.9,16.8,48.2,17z M70.9,12.2c0-0.4,0-0.8,0-1.3
		c0-0.2-0.1-0.4-0.2-0.6c-0.6-0.7-1.3-1.5-1.9-2.2c-0.1-0.1-0.3-0.2-0.4-0.2c-0.6,0-1.2,0-1.9,0c-0.2,0-0.3,0.1-0.4,0.3
		c-0.8,1.5-1.5,3-2.3,4.5c-0.3,0.6-0.5,1.1-0.4,1.7c0,0.1,0.1,0.3,0.2,0.4c0.6,0.4,1.2,0.8,1.8,1.2c0.2,0.1,0.3,0.1,0.5,0
		c0.8-0.8,1.6-1.5,2.5-2.2c0.2-0.2,0.3-0.2,0.6-0.2c0.6,0.1,1.3,0.2,1.9,0.3c0.2,0,0.3,0,0.3-0.2C70.9,13.1,70.9,12.7,70.9,12.2z
		 M41.1,24.2c0.2-0.1,0.3-0.2,0.5-0.3c1.1-0.6,2.3-1.3,3.4-1.9c0.1-0.1,0.3-0.1,0.5-0.1c0.6,0.1,1.1,0.3,1.7,0.5
		c0.2,0.1,0.3,0,0.3-0.2c0.1-0.4,0.3-0.8,0.4-1.2c0-0.1,0-0.2,0-0.3c-0.7-1-1.4-2-2.1-3c-0.1-0.1-0.2-0.1-0.2-0.2
		c-1.2-0.1-2.5-0.2-3.7-0.2c-0.1,0-0.3,0.1-0.3,0.2c-0.8,1-1.5,1.9-2.2,2.9c-0.1,0.1-0.1,0.2,0,0.4c0.2,0.4,0.5,0.8,0.7,1.2
		C40.3,22.8,40.7,23.5,41.1,24.2z M48.3,33c0.1,0.1,0.1,0.2,0.2,0.3c0.5,0.7,0.9,1.3,1.4,2c0.1,0.2,0.3,0.3,0.5,0.3
		c1.2,0,2.4,0,3.7,0c0.4,0,0.4,0,0.4-0.4c0-1.7,0-3.3,0-5c0-0.2,0.1-0.4,0.3-0.5c0.3-0.2,0.6-0.4,1-0.6c0-0.1-0.1-0.1-0.1-0.2
		c-0.4-0.5-0.7-0.9-1.1-1.4c-0.1-0.1-0.2-0.1-0.4-0.2c-0.8,0-1.6,0-2.5,0c-0.4,0-0.5,0-0.5,0.4c-0.1,1.1-0.1,2.1-0.2,3.2
		c0,0.2-0.1,0.4-0.3,0.5C49.8,31.9,49.1,32.4,48.3,33z"/>
	<path class="st4" d="M47,46c-0.3,1-0.6,2.1-0.8,3.1c-0.6,2-1.1,4.1-1.7,6.1c-0.2,0.7-0.6,1.3-1.2,1.7c-0.7,0.5-1.5,0.4-2.1-0.3
		c-0.4-0.4-0.6-1-0.8-1.6c-0.8-3-1.6-6-2.5-8.9c0-0.1,0-0.1-0.1-0.2c0,0.2-0.1,0.4-0.1,0.6c-0.2,1.6-0.3,3.2-0.5,4.8
		c-0.2,1.8-0.4,3.5-0.5,5.3c0,0.3-0.1,0.5-0.1,0.8c0,0.1,0,0.2-0.2,0.2c-0.6,0-1.2,0-1.9,0c0-0.1,0-0.1,0-0.2
		c0.1-1.4,0.3-2.8,0.4-4.3c0.1-1.1,0.2-2.2,0.3-3.3c0.1-1.3,0.2-2.6,0.4-3.8c0-0.4,0.1-0.8,0.2-1.2c0-0.2,0.1-0.4,0.2-0.6
		c0.7-1.3,2.1-1.5,3.1-0.5c0.5,0.5,0.8,1.1,1,1.8c0.7,2.7,1.5,5.5,2.2,8.2c0,0.1,0.1,0.2,0.1,0.3c0.1-0.4,0.2-0.8,0.3-1.3
		c0.7-2.5,1.4-5,2.1-7.6c0.2-0.7,0.6-1.3,1.1-1.7c0.8-0.7,1.8-0.5,2.5,0.3c0.5,0.7,0.8,1.4,0.9,2.2c0.1,1.5,0.3,3,0.4,4.5
		c0.1,1.3,0.2,2.5,0.3,3.8c0.1,1,0.2,2,0.2,3c0,0,0,0.1,0,0.2c-0.7,0-1.3,0-2,0C47.8,53.7,47.4,49.8,47,46L47,46z"/>
	<path class="st4" d="M56,47.1c0,3.5,0,7,0,10.5c-0.8,0-1.5,0-2.2,0c0-0.1,0-0.2,0-0.3c0-4,0-7.9,0-11.9c0-0.7,0.2-1.2,0.7-1.7
		c0.6-0.6,1.3-0.6,2-0.2c0.6,0.5,1.1,1.1,1.4,1.8c1.1,2.6,2.3,5.2,3.4,7.8c0.2,0.4,0.4,0.9,0.6,1.3H62c-0.1-3.8-0.1-7.5-0.2-11.3
		c0.8,0,1.5,0,2.3,0c0,0.3,0,0.6,0,0.9c0,0.2,0,0.3,0,0.5c0,3.6,0,7.3,0,10.9c0,0.3,0,0.6,0,0.9c-0.3,1.2-1.6,1.8-2.7,1.2
		c-0.5-0.3-0.8-0.7-1.1-1.3c-1.3-3-2.6-5.9-3.9-8.9c0-0.1-0.1-0.2-0.1-0.2C56.1,47,56.1,47,56,47.1z"/>
	<path class="st4" d="M70.4,57.6c-0.7,0-1.4,0-2.1,0c0-0.1,0-0.2,0-0.3c0-3.1,0-6.3,0-9.4c0-0.8,0.3-1.5,0.7-2.2
		c1.5-2.7,4.6-3.2,7.1-1.7c1.5,0.9,2.4,2.3,2.4,4.2c0,3,0,6.1,0,9.1c0,0.1,0,0.2,0,0.4c-0.7,0-1.4,0-2.2,0c0-2.3,0-4.5,0-6.8
		c-1.8,0-3.6,0-5.4,0c0-0.6,0-1,0-1.6c0.1,0,0.2,0,0.3,0c1.6,0,3.3,0,4.9,0c0.1,0,0.2-0.1,0.2-0.2c0.1-1.2-0.1-2.3-0.9-3.2
		c-0.7-0.9-1.9-1.2-3-0.8s-1.9,1.4-1.9,2.5c0,1,0,2,0,2.9c0,1.4,0,2.8,0,4.1c0,0.9,0,1.8,0,2.7C70.4,57.4,70.4,57.5,70.4,57.6z"/>
	<path class="st3" d="M77,62c0.1-0.7,0.3-1.3,0.4-2c0.2,0,0.4,0,0.7,0c0,1,0,1.9,0,2.9c-0.1,0-0.2,0-0.4,0c0-0.8,0-1.6,0-2.3
		c0,0,0,0-0.1,0c-0.1,0.8-0.3,1.6-0.4,2.4c-0.1,0-0.3,0-0.5,0c-0.1-0.8-0.3-1.6-0.4-2.3l0,0c0,0.8,0,1.5,0,2.3c-0.1,0-0.3,0-0.4,0
		c0-1,0-2,0-3c0.2,0,0.3,0,0.5,0s0.2,0.1,0.3,0.2C76.7,60.8,76.9,61.4,77,62L77,62z"/>
	<path class="st3" d="M74.4,60c0,1,0,2,0,2.9c-0.5,0.1-0.5,0.1-0.6-0.4c-0.2-0.6-0.3-1.1-0.5-1.7c0,0.7,0,1.3,0,2
		c-0.1,0-0.3,0-0.4,0c0-1,0-1.9,0-2.9c0.4-0.1,0.5-0.1,0.7,0.3c0.2,0.5,0.3,1,0.5,1.6c0-0.6,0-1.3,0-1.9C74.1,60,74.2,60,74.4,60z"
		/>
	<path class="st3" d="M69.2,60c0.2,0,0.3,0,0.4,0c0,1,0,2,0,2.9C69.1,63,69.1,63,69,62.5c-0.2-0.6-0.3-1.1-0.5-1.7l0,0
		c0,0.7,0,1.4,0,2.1c-0.1,0-0.3,0-0.4,0c0-1,0-2,0-2.9c0.5-0.1,0.5-0.1,0.7,0.4s0.3,1,0.5,1.5C69.2,61.3,69.2,60.7,69.2,60z"/>
	<path class="st3" d="M36.5,63c0-1,0-1.9,0-2.9c0.4-0.1,0.5-0.1,0.7,0.3c0.2,0.5,0.3,1,0.5,1.6c0-0.6,0-1.3,0-1.9c0.1,0,0.3,0,0.4,0
		c0,1,0,1.9,0,2.9c-0.5,0.1-0.5,0.1-0.6-0.4c-0.2-0.6-0.3-1.1-0.5-1.7c0,0.7,0,1.3,0,2C36.8,63,36.7,63,36.5,63z"/>
	<path class="st3" d="M54.8,63c-0.2,0-0.3,0-0.4,0c0-1,0-2,0-3c0.1,0,0.2,0,0.3,0c0.2,0,0.3,0.1,0.3,0.2c0.1,0.5,0.3,1,0.4,1.5
		c0,0.1,0.1,0.2,0.1,0.2c0-0.6,0-1.3,0-1.9c0.1,0,0.3,0,0.4,0c0,1,0,2,0,2.9c-0.2,0-0.3,0-0.5,0c-0.2-0.7-0.4-1.4-0.6-2.1l0,0
		C54.8,61.6,54.8,62.3,54.8,63z"/>
	<path class="st3" d="M52.8,61.9c0-0.6,0-1.3,0-1.9c0.1,0,0.3,0,0.4,0c0,1,0,2,0,2.9c-0.2,0-0.3,0-0.5,0c-0.2-0.7-0.4-1.4-0.6-2.1
		l0,0c0,0.7,0,1.4,0,2.1c-0.1,0-0.3,0-0.4,0c0-1,0-1.9,0-3c0.1,0,0.2,0,0.3,0c0.2,0,0.3,0.1,0.3,0.2C52.4,60.8,52.5,61.4,52.8,61.9
		C52.7,62,52.8,61.9,52.8,61.9z"/>
	<path class="st3" d="M40.2,61.5c0,0.3,0,0.6,0,0.8c0,0.5-0.3,0.7-0.8,0.7s-0.8-0.2-0.8-0.6c0-0.6,0-1.2,0-1.8
		c0-0.5,0.4-0.7,0.9-0.7s0.7,0.3,0.8,0.7C40.2,60.9,40.2,61.2,40.2,61.5L40.2,61.5z M39.1,61.5L39.1,61.5c0,0.3,0,0.5,0,0.8
		c0,0.2,0.1,0.3,0.3,0.4c0.2,0,0.4-0.1,0.4-0.3c0-0.6,0-1.1,0-1.7c0-0.2-0.1-0.3-0.3-0.3s-0.3,0.1-0.3,0.4
		C39,61,39.1,61.2,39.1,61.5z"/>
	<path class="st3" d="M43.8,61.5c0,0.3,0,0.5,0,0.8c0,0.5-0.3,0.7-0.8,0.7s-0.8-0.2-0.8-0.7c0-0.6,0-1.1,0-1.7
		c0-0.5,0.3-0.7,0.9-0.7c0.5,0,0.7,0.3,0.7,0.8C43.8,61,43.8,61.2,43.8,61.5z M42.7,61.5c0,0.3,0,0.6,0,0.8s0.1,0.4,0.3,0.4
		s0.3-0.1,0.3-0.3c0-0.6,0-1.1,0-1.7c0-0.2-0.1-0.3-0.3-0.3s-0.3,0.1-0.3,0.4C42.7,60.9,42.7,61.2,42.7,61.5z"/>
	<path class="st3" d="M67.6,61.5c0,0.3,0,0.6,0,0.8c0,0.5-0.3,0.7-0.8,0.7S66,62.8,66,62.3c0-0.6,0-1.1,0-1.7c0-0.5,0.3-0.7,0.9-0.7
		c0.5,0,0.7,0.3,0.8,0.7C67.6,61,67.6,61.2,67.6,61.5L67.6,61.5z M66.4,61.5c0,0.3,0,0.5,0,0.8c0,0.2,0.1,0.4,0.3,0.4
		c0.2,0,0.3-0.1,0.3-0.3c0-0.5,0-1.1,0-1.6c0-0.2-0.1-0.3-0.4-0.3c-0.2,0-0.3,0.1-0.3,0.4C66.4,60.9,66.4,61.2,66.4,61.5z"/>
	<path class="st3" d="M56.5,60c0.2,0,0.3,0,0.5,0c0,0.3,0,0.6,0,0.9c0,0.5,0,0.9,0,1.4c0,0.2,0.1,0.4,0.3,0.4s0.3-0.2,0.3-0.4
		c0-0.6,0-1.3,0-1.9c0-0.1,0-0.2,0-0.3c0.2,0,0.3,0,0.5,0c0,0.2,0,0.3,0,0.5c0,0.6,0,1.2,0,1.7S57.8,63,57.3,63s-0.8-0.2-0.8-0.7
		C56.5,61.6,56.5,60.8,56.5,60z"/>
	<path class="st3" d="M45.3,61.7c-0.1,0-0.2,0-0.3,0c0-0.1,0-0.2,0-0.3c0.3,0,0.5,0,0.8,0c0,0.5,0,1.1,0,1.6c-0.2,0-0.3-0.1-0.5-0.1
		c-0.1,0-0.4,0.1-0.6,0.1c-0.3,0-0.5-0.2-0.5-0.5c0-0.7,0-1.3,0-2c0-0.4,0.4-0.6,1-0.6c0.4,0.1,0.6,0.3,0.6,0.8c-0.1,0-0.3,0-0.4,0
		c0-0.1,0-0.1,0-0.2c0-0.2-0.1-0.3-0.3-0.3s-0.3,0.1-0.3,0.3c0,0.3,0,0.5,0,0.8s0,0.6,0,0.9c0,0.2,0.1,0.4,0.3,0.4s0.3-0.1,0.3-0.3
		C45.3,62.1,45.3,61.9,45.3,61.7z"/>
	<path class="st3" d="M60.3,63c0-1,0-1.9,0-2.9c0.4,0,0.7,0,1.1,0c0.3,0,0.4,0.2,0.4,0.5s0.1,0.7-0.3,0.9c0.5,0.4,0.1,1,0.3,1.5
		c-0.2,0-0.3,0-0.5,0c0-0.3,0-0.6,0-0.8c0-0.5-0.1-0.5-0.6-0.5c0,0.4,0,0.9,0,1.3C60.6,63,60.5,63,60.3,63z M60.8,61.4
		c0.2-0.1,0.4-0.1,0.5-0.2c0.1-0.2,0.1-0.4,0-0.6c0-0.1-0.3-0.1-0.5-0.2C60.8,60.7,60.8,61,60.8,61.4z"/>
	<path class="st3" d="M47.1,63c0.2-1,0.4-2,0.6-2.9c0.2,0,0.4,0,0.7,0c0.2,1,0.4,1.9,0.6,2.9c-0.2,0-0.3,0-0.5,0
		c0-0.2-0.1-0.3-0.1-0.5c0-0.3-0.2-0.4-0.4-0.3c-0.1,0-0.1,0-0.2,0c0,0.2-0.1,0.3-0.1,0.5C47.5,63,47.5,63,47.1,63z M47.7,61.7
		c0.2,0,0.3,0,0.4,0c-0.1-0.4-0.1-0.8-0.2-1.2c0,0,0,0-0.1,0C47.9,60.9,47.8,61.3,47.7,61.7z"/>
	<path class="st3" d="M78.9,60c0.7-0.1,0.7-0.1,0.8,0.6c0.2,0.8,0.3,1.6,0.5,2.4c-0.2,0-0.3,0-0.5,0c0-0.2-0.1-0.3-0.1-0.5
		c0-0.3-0.1-0.4-0.4-0.3c-0.1,0-0.1,0-0.2,0c0,0.2-0.1,0.3-0.1,0.5C78.8,63,78.8,63,78.4,63C78.6,62,78.7,61,78.9,60z M79.1,61.7
		c0.1,0,0.3,0,0.4,0c-0.1-0.4-0.1-0.8-0.2-1.2l0,0C79.2,60.9,79.1,61.3,79.1,61.7z"/>
	<path class="st3" d="M71.2,60c0.2,0,0.4,0,0.7,0c0.2,1,0.4,2,0.6,2.9c-0.2,0-0.3,0-0.5,0c0-0.2-0.1-0.3-0.1-0.5
		c0-0.3-0.1-0.4-0.4-0.3c-0.1,0-0.1,0-0.2,0c-0.1,0.3-0.1,0.5-0.2,0.8c-0.2,0-0.3,0-0.5,0C70.8,62,71,61,71.2,60z M71.6,60.6
		L71.6,60.6c-0.1,0.4-0.2,0.8-0.2,1.2c0.2,0,0.3,0,0.4,0C71.7,61.3,71.7,60.9,71.6,60.6z"/>
	<path class="st3" d="M36.2,60.8c-0.2,0-0.3,0-0.4,0c0-0.1,0-0.2,0-0.3c-0.1-0.1-0.2-0.2-0.3-0.2s-0.2,0.1-0.3,0.2
		c0,0.6,0,1.2,0,1.8c0,0.1,0.2,0.2,0.3,0.2s0.2-0.1,0.3-0.2c0-0.1,0-0.2,0-0.3c0.2,0,0.3,0,0.4,0c0.1,0.5-0.1,0.8-0.6,0.9
		c-0.5,0.1-0.9-0.2-0.9-0.7s0-1,0-1.6s0.3-0.8,0.8-0.8C36,60,36.2,60.2,36.2,60.8z"/>
	<path class="st3" d="M64.2,62.1c0.2,0,0.3,0,0.4,0c0.1,0.5-0.1,0.9-0.6,0.9c-0.5,0.1-0.9-0.2-0.9-0.7s0-1,0-1.5
		c0-0.6,0.3-0.8,0.8-0.8c0.5,0,0.7,0.3,0.7,0.9c-0.1,0-0.3,0-0.4,0c0-0.1,0-0.2,0-0.2c0-0.2-0.1-0.3-0.3-0.3c-0.1,0-0.2,0.2-0.3,0.3
		c0,0.6,0,1.2,0,1.8c0,0.2,0.1,0.3,0.3,0.3s0.3-0.1,0.3-0.3S64.2,62.2,64.2,62.1z"/>
	<path class="st3" d="M51.1,61.6c-0.3,0-0.5,0-0.8,0c0,0.3,0,0.7,0,1c0.3,0,0.6,0,0.9,0c0,0.1,0,0.2,0,0.3c-0.4,0-0.8,0-1.3,0
		c0-1,0-1.9,0-2.9c0.4,0,0.8,0,1.3,0c0,0.1,0,0.2,0,0.3c-0.3,0-0.5,0-0.8,0c0,0.3,0,0.6,0,0.9c0.2,0,0.5,0,0.7,0
		C51.1,61.4,51.1,61.4,51.1,61.6z"/>
	<path class="st3" d="M34.2,61.2c0,0.1,0,0.2,0,0.4c-0.2,0-0.5,0-0.7,0c0,0.3,0,0.7,0,1c0.3,0,0.6,0,0.9,0c0,0.1,0,0.2-0.1,0.3
		c-0.4,0-0.9,0-1.3,0c0-1,0-2,0-2.9c0.4,0,0.8,0,1.3,0c0,0.1,0,0.2,0,0.3c-0.3,0-0.5,0-0.8,0c0,0.3,0,0.6,0,0.9
		C33.7,61.2,34,61.2,34.2,61.2z"/>
	<path class="st3" d="M32.7,60c0,0.1,0,0.2,0,0.3c-0.2,0-0.3,0-0.5,0c0,0.9,0,1.7,0,2.6c-0.2,0-0.3,0-0.5,0c0-0.8,0-1.7,0-2.6
		c-0.2,0-0.4,0-0.6,0c0-0.1,0-0.2,0-0.3C31.7,60,32.2,60,32.7,60z"/>
	<path class="st3" d="M59.5,63c-0.2,0-0.3,0-0.5,0c0-0.9,0-1.7,0-2.6c-0.2,0-0.4,0-0.6,0c0-0.1,0-0.2,0-0.4c0.5,0,1,0,1.6,0
		c0,0.1,0,0.2,0,0.3c-0.2,0-0.3,0-0.5,0C59.5,61.2,59.5,62.1,59.5,63z"/>
	<path class="st3" d="M40.7,60c0.2,0,0.3,0,0.4,0c0,0.9,0,1.7,0,2.6c0.3,0,0.6,0,0.9,0c0,0.1,0,0.2,0,0.4c-0.4,0-0.9,0-1.3,0
		C40.7,62,40.7,61,40.7,60z"/>
	<path class="st3" d="M62.7,63c-0.2,0-0.3,0-0.4,0c0-1,0-1.9,0-2.9c0.1,0,0.3,0,0.4,0C62.7,61,62.7,62,62.7,63z"/>
	<path class="st3" d="M65,60c0.2,0,0.3,0,0.4,0c0,1,0,2,0,2.9c-0.1,0-0.3,0-0.4,0C65,62,65,61,65,60z"/>
	<path class="st3" d="M46.7,63c-0.2,0-0.3,0-0.4,0c0-1,0-2,0-2.9c0.1,0,0.3,0,0.4,0C46.7,61,46.7,62,46.7,63z"/>
	<path class="st3" d="M75.4,63c-0.1,0-0.3,0-0.4,0c0-1,0-2,0-3c0.1,0,0.3,0,0.4,0C75.4,61,75.4,62,75.4,63z"/>
	<path class="st3" d="M47.3,59.4c-0.3,0.2-0.6,0.5-1,0.4C46.5,59.4,46.8,59.3,47.3,59.4z"/>
	<path class="st3" d="M66.5,59.8c0.3-0.3,0.5-0.5,1-0.4C67.2,59.6,67,59.9,66.5,59.8z"/>
	<g class="st3">
		<path class="st5" d="M56.7,10.2c0,0-0.1,0.1-0.2,0.2c-1.6,1.1-3.3,2.3-4.9,3.4c-0.1,0-0.2,0-0.3,0c-0.8-0.6-1.6-1.2-2.4-1.8
			c-0.1-0.1-0.2-0.2-0.2-0.3c-0.4-1.6-0.8-3.2-1.2-4.8c0-0.2,0-0.3,0.1-0.4c1.3-1,2.5-2,3.8-3c0.1-0.1,0.2-0.1,0.3,0
			c1.4,0.9,2.8,1.7,4.1,2.6c0.1,0,0.2,0.1,0.2,0.2c0.2,1.3,0.4,2.5,0.6,3.8C56.7,10.1,56.7,10.1,56.7,10.2z"/>
		<path class="st5" d="M61.9,28.8c0.2-1.2,0.3-2.3,0.5-3.4c0-0.2,0.1-0.4,0.1-0.5c0-0.4,0.2-0.6,0.6-0.8c0.6-0.2,1.2-0.5,1.8-0.7
			c0.1,0,0.3,0,0.4,0c1.4,0.6,2.8,1.2,4.3,1.8c0.1,0.1,0.2,0.2,0.3,0.3c0.4,0.6,0.8,1.2,1.2,1.8c0.1,0.2,0.1,0.3,0,0.4
			c-0.5,1.1-1.1,2.2-1.6,3.2c-0.1,0.1-0.2,0.2-0.4,0.3c-1,0.2-2,0.3-2.9,0.5c-0.1,0-0.2,0-0.3-0.1c-1.3-0.9-2.5-1.8-3.8-2.7
			C62,28.9,61.9,28.8,61.9,28.8z"/>
		<path class="st5" d="M55.6,32.7c0-0.6,0-1.3,0-1.9c0-0.1,0.1-0.3,0.2-0.4c0.9-0.8,1.8-1.5,2.8-2.2c0.1-0.1,0.4-0.2,0.6-0.2
			c0.4,0,0.7,0,1.1,0c0.2,0,0.3,0.1,0.3,0.3c0,0.6,0,1.2,0,1.7c0,0.2,0.1,0.4,0.3,0.5c1.1,0.7,2.2,1.4,3.2,2
			c0.2,0.1,0.4,0.3,0.4,0.6c0,0.4,0.1,0.9,0.1,1.3c0,0.2,0,0.3-0.2,0.4c-1.6,0.9-3.2,1.7-4.8,2.6c-0.1,0-0.2,0-0.3,0
			c-1.1-0.7-2.3-1.5-3.4-2.3c-0.1-0.1-0.2-0.2-0.2-0.3C55.6,34,55.6,33.4,55.6,32.7z"/>
		<path class="st5" d="M71.5,23.9c-0.4-0.1-0.7-0.2-1-0.3c-0.9-0.3-1.8-0.6-2.7-0.9c-0.1,0-0.2-0.1-0.3-0.2
			c-0.5-1.2-1.1-2.3-1.6-3.5c-0.1-0.2,0-0.3,0.1-0.4c0.9-0.9,1.9-1.9,2.8-2.8c0.1-0.1,0.3-0.1,0.4-0.1c1.4,0.2,2.7,0.5,4.1,0.7
			c0.1,0,0.3,0.1,0.3,0.2c0.5,1.3,1,2.6,1.5,3.9c0.1,0.2,0,0.3-0.1,0.4c-1,0.9-2.1,1.8-3.1,2.7C71.7,23.8,71.6,23.8,71.5,23.9z"/>
		<path class="st5" d="M49.3,28c0,0.5,0,1.1,0,1.6c0,0.2-0.1,0.3-0.2,0.4c-1.2,0.7-2.3,1.3-3.5,2c-0.2,0.1-0.3,0.1-0.5,0
			c-1.3-0.8-2.5-1.5-3.8-2.3c-0.2-0.1-0.3-0.2-0.2-0.4c0.3-1.2,0.6-2.4,0.9-3.6c0-0.2,0.1-0.3,0.3-0.3c1.2-0.4,2.4-0.9,3.6-1.3
			c0.1,0,0.3,0,0.4,0c0.9,0.7,1.9,1.3,2.8,2c0.1,0.1,0.1,0.2,0.1,0.3C49.3,26.9,49.3,27.5,49.3,28z"/>
		<path class="st5" d="M56.5,3.7c0.8-0.1,1.6-0.1,2.4-0.2c1-0.1,2-0.1,3-0.2c0.2,0,0.4,0,0.5,0.3c0.7,1.3,1.3,2.6,2,3.9
			c0.1,0.2,0.1,0.3,0,0.5c-0.7,1.2-1.4,2.4-2.2,3.6c-0.1,0.2-0.2,0.2-0.4,0.2c-1.1,0-2.3,0-3.4,0c-0.2,0-0.3-0.1-0.3-0.3
			c0-1.5-0.1-3-0.3-4.5c-0.1-0.6-0.1-1.3-0.2-1.9c0-0.1-0.1-0.3-0.2-0.3C57.2,4.4,56.9,4.1,56.5,3.7z"/>
		<path class="st5" d="M48.2,17c-0.3-0.2-0.6-0.4-0.8-0.6c-0.3-0.3-0.6-0.3-0.9-0.3c-1.3,0-2.6-0.1-3.9-0.1c-0.2,0-0.4-0.1-0.4-0.3
			c-0.3-0.6-0.6-1.3-0.9-1.9c-0.1-0.2-0.1-0.3,0-0.5c0.7-1.4,1.5-2.9,2.2-4.3c0.1-0.2,0.2-0.3,0.5-0.3c0.7,0,1.3,0,2,0
			c0.2,0,0.3,0.1,0.4,0.3c0.3,1,0.6,2,0.8,3c0.1,0.2,0.2,0.4,0.4,0.5c0.7,0.5,1.4,1.1,2.1,1.6c0.2,0.2,0.2,0.3,0.1,0.5
			C49.2,15.4,48.7,16.2,48.2,17z"/>
		<path class="st5" d="M70.9,12.2c0,0.5,0,0.9,0,1.4c0,0.2,0,0.3-0.3,0.2c-0.6-0.1-1.3-0.2-1.9-0.3c-0.2,0-0.4,0-0.6,0.2
			c-0.8,0.7-1.6,1.5-2.5,2.2c-0.2,0.1-0.3,0.2-0.5,0c-0.6-0.4-1.2-0.8-1.8-1.2c-0.1-0.1-0.2-0.2-0.2-0.4c-0.1-0.6,0.1-1.2,0.4-1.7
			c0.8-1.5,1.6-3,2.3-4.5c0.1-0.2,0.2-0.3,0.4-0.3c0.6,0,1.2,0,1.9,0c0.1,0,0.3,0.1,0.4,0.2c0.6,0.7,1.3,1.5,1.9,2.2
			c0.2,0.2,0.2,0.4,0.2,0.6C70.9,11.4,70.9,11.8,70.9,12.2z"/>
		<path class="st5" d="M41.1,24.2c-0.4-0.7-0.8-1.4-1.2-2.1c-0.2-0.4-0.5-0.8-0.7-1.2c-0.1-0.2-0.1-0.3,0-0.4c0.7-1,1.5-1.9,2.2-2.9
			c0.1-0.1,0.2-0.2,0.3-0.2c1.2,0.1,2.5,0.1,3.7,0.2c0.1,0,0.2,0.1,0.2,0.2c0.7,1,1.4,2,2.1,3c0.1,0.1,0.1,0.2,0,0.3
			c-0.1,0.4-0.3,0.8-0.4,1.2c-0.1,0.2-0.2,0.2-0.3,0.2c-0.6-0.2-1.1-0.3-1.7-0.5c-0.2,0-0.4,0-0.5,0.1c-1.1,0.6-2.3,1.3-3.4,1.9
			C41.4,24,41.3,24.1,41.1,24.2z"/>
		<path class="st5" d="M48.3,33c0.8-0.6,1.6-1.1,2.4-1.6c0.2-0.1,0.3-0.3,0.3-0.5c0.1-1.1,0.1-2.1,0.2-3.2c0-0.4,0-0.4,0.5-0.4
			c0.8,0,1.6,0,2.5,0c0.1,0,0.3,0.1,0.4,0.2c0.4,0.4,0.8,0.9,1.1,1.4c0,0,0.1,0.1,0.1,0.2c-0.3,0.2-0.6,0.4-1,0.6
			c-0.2,0.1-0.3,0.3-0.3,0.5c0,1.7,0,3.3,0,5c0,0.4,0,0.4-0.4,0.4c-1.2,0-2.4,0-3.7,0c-0.2,0-0.4-0.1-0.5-0.3
			c-0.4-0.7-0.9-1.3-1.4-2C48.4,33.2,48.3,33.1,48.3,33z"/>
	</g>
	<path class="st2" d="M39.1,61.5c0-0.3,0-0.5,0-0.8c0-0.2,0.1-0.4,0.3-0.4s0.3,0.1,0.3,0.3c0,0.6,0,1.1,0,1.7c0,0.2-0.1,0.3-0.4,0.3
		c-0.2,0-0.3-0.2-0.3-0.4C39,62,39.1,61.8,39.1,61.5L39.1,61.5z"/>
	<path class="st2" d="M42.7,61.5c0-0.3,0-0.5,0-0.8c0-0.2,0.1-0.4,0.3-0.4s0.3,0.1,0.3,0.3c0,0.6,0,1.1,0,1.7c0,0.2-0.1,0.3-0.3,0.3
		s-0.3-0.2-0.3-0.4C42.7,62,42.7,61.7,42.7,61.5z"/>
	<path class="st2" d="M66.4,61.5c0-0.3,0-0.5,0-0.8c0-0.2,0.1-0.3,0.3-0.4c0.2,0,0.3,0.1,0.4,0.3c0,0.5,0,1.1,0,1.6
		c0,0.2-0.1,0.4-0.3,0.3c-0.2,0-0.3-0.2-0.3-0.4C66.4,62,66.4,61.8,66.4,61.5z"/>
	<path class="st2" d="M60.8,61.4c0-0.4,0-0.7,0-1.1c0.2,0.1,0.4,0.1,0.5,0.2c0.1,0.2,0.1,0.4,0,0.6C61.2,61.2,61,61.3,60.8,61.4z"/>
	<path class="st2" d="M47.7,61.7c0.1-0.4,0.1-0.8,0.2-1.2c0,0,0,0,0.1,0c0.1,0.4,0.1,0.8,0.2,1.2C48,61.7,47.9,61.7,47.7,61.7z"/>
	<path class="st2" d="M79.1,61.7c0.1-0.4,0.1-0.8,0.2-1.2l0,0c0.1,0.4,0.1,0.8,0.2,1.2C79.3,61.7,79.2,61.7,79.1,61.7z"/>
	<path class="st2" d="M71.6,60.6c0.1,0.4,0.1,0.8,0.2,1.2c-0.1,0-0.3,0-0.4,0C71.4,61.3,71.5,60.9,71.6,60.6L71.6,60.6z"/>
</g>
<g class="st1">
	<path class="st6" d="M180.5,74.7c0,0.5,0,0.9,0,1.4c-16.9,0-33.8,0-50.8,0c0-21.3,0-42.6,0-63.9c16.9,0,33.8,0,50.8,0
		c0,20.8,0,41.6,0,62.3c-0.3,0-0.6,0-0.9,0c0-0.9,0-1.7,0-2.6c-0.2,0-0.3,0-0.4,0c0,1,0,2,0,3c0.4,0,0.8,0,1.2,0
		C180.4,74.8,180.5,74.7,180.5,74.7z M135.3,32c0,10.6,8.5,19.7,19.6,19.7c11,0.1,19.9-8.8,19.9-19.7c0-11.2-9-19.7-19.5-19.8
		C144.3,12.1,135.3,21.1,135.3,32z M145.6,57.8C145.7,57.8,145.7,57.8,145.6,57.8c0.5,3.9,0.9,7.7,1.3,11.6c0.7,0,1.3,0,2,0
		c0-0.1,0-0.1,0-0.2c-0.1-1-0.2-2-0.2-3c-0.1-1.3-0.2-2.5-0.3-3.8c-0.1-1.5-0.2-3-0.4-4.5c-0.1-0.8-0.3-1.6-0.9-2.2
		c-0.7-0.8-1.6-0.9-2.5-0.3c-0.6,0.4-0.9,1-1.1,1.7c-0.7,2.5-1.4,5-2.1,7.6c-0.1,0.4-0.2,0.8-0.3,1.2c-0.1-0.1-0.1-0.2-0.1-0.3
		c-0.7-2.7-1.4-5.5-2.2-8.2c-0.2-0.7-0.5-1.3-1-1.8c-1-1-2.4-0.8-3.1,0.5c-0.1,0.2-0.2,0.4-0.2,0.6c-0.1,0.4-0.1,0.8-0.2,1.2
		c-0.1,1.3-0.3,2.6-0.4,3.8c-0.1,1.1-0.2,2.2-0.3,3.3c-0.1,1.4-0.3,2.8-0.4,4.2c0,0.1,0,0.1,0,0.2c0.6,0,1.3,0,1.9,0
		c0.2,0,0.2-0.1,0.2-0.2c0-0.3,0-0.5,0.1-0.8c0.2-1.8,0.4-3.5,0.5-5.3c0.2-1.6,0.3-3.2,0.5-4.8c0-0.2,0-0.4,0.1-0.6
		c0.1,0.1,0.1,0.1,0.1,0.2c0.8,3,1.6,5.9,2.4,8.9c0.2,0.6,0.4,1.1,0.8,1.5c0.6,0.7,1.4,0.8,2.1,0.3c0.6-0.4,1-1,1.2-1.7
		c0.6-2,1.1-4.1,1.7-6.1C145.1,59.9,145.3,58.9,145.6,57.8z M154.7,58.9L154.7,58.9c0.1,0.1,0.2,0.2,0.2,0.2c1.3,3,2.6,5.9,3.9,8.9
		c0.2,0.5,0.6,1,1.1,1.3c1.1,0.6,2.5,0.1,2.7-1.2c0.1-0.3,0-0.6,0-0.9c0-3.6,0-7.2,0-10.9c0-0.2,0-0.3,0-0.5c0-0.3,0-0.6,0-0.9
		c-0.8,0-1.5,0-2.3,0c0.1,3.8,0.1,7.5,0.2,11.3h-0.1c-0.2-0.4-0.4-0.9-0.6-1.3c-1.1-2.6-2.3-5.2-3.4-7.8c-0.3-0.7-0.7-1.4-1.4-1.8
		c-0.7-0.5-1.4-0.4-2,0.2c-0.4,0.5-0.7,1-0.7,1.7c0,4,0,7.9,0,11.9c0,0.1,0,0.2,0,0.3c0.7,0,1.4,0,2.2,0
		C154.7,65.9,154.7,62.4,154.7,58.9z M169,69.5c0-0.1,0-0.2,0-0.2c0-0.9,0-1.8,0-2.7c0-1.4,0-2.8,0-4.1c0-1,0-2,0-2.9
		c0-1.1,0.8-2.1,1.9-2.5c1.1-0.4,2.3-0.1,3,0.8c0.8,0.9,0.9,2,0.9,3.2c0,0.1-0.1,0.2-0.2,0.2c-1.6,0-3.3,0-4.9,0c-0.1,0-0.2,0-0.3,0
		c0,0.5,0,1,0,1.6c1.8,0,3.5,0,5.3,0c0,2.3,0,4.5,0,6.8c0.7,0,1.5,0,2.2,0c0-0.1,0-0.3,0-0.4c0-3,0-6.1,0-9.1c0-1.8-0.8-3.2-2.4-4.2
		c-2.5-1.5-5.6-1-7.1,1.7c-0.4,0.7-0.7,1.4-0.7,2.2c0,3.1,0,6.3,0,9.4c0,0.1,0,0.2,0,0.3C167.6,69.5,168.3,69.5,169,69.5z
		 M175.6,73.9L175.6,73.9c-0.1-0.6-0.3-1.2-0.4-1.8c0-0.2-0.1-0.2-0.3-0.2s-0.3,0-0.5,0c0,1,0,2,0,3c0.1,0,0.3,0,0.4,0
		c0-0.8,0-1.6,0-2.3l0,0c0.1,0.8,0.3,1.6,0.4,2.3c0.2,0,0.3,0,0.5,0c0.1-0.8,0.3-1.6,0.4-2.4c0,0,0,0,0.1,0c0,0.8,0,1.6,0,2.3
		c0.1,0,0.3,0,0.4,0c0-1,0-2,0-2.9c-0.2,0-0.4,0-0.7,0C175.9,72.5,175.8,73.2,175.6,73.9z M173,71.9c-0.2,0-0.3,0-0.4,0
		c0,0.7,0,1.3,0,1.9c-0.2-0.5-0.4-1-0.5-1.6c-0.1-0.4-0.2-0.5-0.7-0.3c0,1,0,1.9,0,2.9c0.1,0,0.3,0,0.4,0c0-0.7,0-1.4,0-2
		c0.2,0.6,0.4,1.1,0.5,1.7c0.1,0.5,0.2,0.5,0.6,0.4C173,73.8,173,72.9,173,71.9z M167.8,71.9c0,0.7,0,1.3,0,1.9
		c-0.2-0.5-0.3-1-0.5-1.5c-0.1-0.5-0.1-0.4-0.7-0.4c0,1,0,1.9,0,2.9c0.1,0,0.3,0,0.4,0c0-0.7,0-1.4,0-2l0,0c0.2,0.6,0.3,1.1,0.5,1.7
		c0.1,0.4,0.2,0.5,0.6,0.4c0-1,0-1.9,0-2.9C168.1,71.9,168,71.9,167.8,71.9z M135.2,74.8c0.1,0,0.3,0,0.4,0c0-0.7,0-1.4,0-2
		c0.2,0.6,0.4,1.1,0.5,1.7c0.1,0.5,0.2,0.5,0.6,0.4c0-1,0-1.9,0-2.9c-0.1,0-0.3,0-0.4,0c0,0.7,0,1.3,0,1.9c-0.2-0.5-0.4-1-0.5-1.6
		c-0.1-0.4-0.2-0.5-0.7-0.3C135.2,72.9,135.2,73.8,135.2,74.8z M153.5,74.8c0-0.7,0-1.4,0-2.1l0,0c0.2,0.7,0.4,1.4,0.6,2.1
		c0.2,0,0.3,0,0.5,0c0-1,0-2,0-2.9c-0.1,0-0.3,0-0.4,0c0,0.6,0,1.3,0,1.9c-0.1-0.1-0.1-0.2-0.1-0.2c-0.1-0.5-0.3-1-0.4-1.5
		c0-0.2-0.1-0.3-0.3-0.2c-0.1,0-0.2,0-0.3,0c0,1,0,2,0,3C153.2,74.8,153.4,74.8,153.5,74.8z M151.4,73.8L151.4,73.8
		c-0.2-0.6-0.4-1.1-0.6-1.7c0-0.2-0.1-0.2-0.3-0.2c-0.1,0-0.2,0-0.3,0c0,1,0,2,0,3c0.1,0,0.3,0,0.4,0c0-0.7,0-1.4,0-2l0,0
		c0.2,0.7,0.4,1.4,0.6,2.1c0.2,0,0.3,0,0.5,0c0-1,0-2,0-2.9c-0.1,0-0.3,0-0.4,0C151.4,72.5,151.4,73.2,151.4,73.8z M138.9,73.3
		L138.9,73.3c0-0.3,0-0.5,0-0.8c0-0.5-0.3-0.7-0.8-0.7s-0.8,0.2-0.9,0.7c0,0.6,0,1.2,0,1.8c0,0.4,0.3,0.7,0.8,0.6
		c0.5,0,0.8-0.2,0.8-0.7C138.9,73.9,138.9,73.6,138.9,73.3z M142.5,73.4c0-0.3,0-0.5,0-0.8c0-0.5-0.3-0.7-0.7-0.8
		c-0.5,0-0.9,0.2-0.9,0.7c0,0.6,0,1.1,0,1.7c0,0.5,0.3,0.7,0.8,0.7s0.8-0.3,0.8-0.7C142.5,73.9,142.5,73.6,142.5,73.4z M166.2,73.3
		L166.2,73.3c0-0.3,0-0.5,0-0.8c0-0.5-0.3-0.7-0.8-0.7s-0.8,0.2-0.9,0.7c0,0.6,0,1.1,0,1.7c0,0.5,0.3,0.7,0.8,0.7s0.8-0.2,0.8-0.7
		C166.2,73.9,166.2,73.6,166.2,73.3z M155.2,71.9c0,0.8,0,1.5,0,2.3c0,0.5,0.3,0.7,0.8,0.7s0.8-0.3,0.8-0.7c0-0.6,0-1.2,0-1.7
		c0-0.2,0-0.3,0-0.5c-0.2,0-0.3,0-0.5,0c0,0.1,0,0.2,0,0.3c0,0.6,0,1.3,0,1.9c0,0.2-0.1,0.4-0.3,0.4c-0.2,0-0.3-0.1-0.3-0.4
		c0-0.5,0-0.9,0-1.4c0-0.3,0-0.6,0-0.9C155.5,71.9,155.3,71.9,155.2,71.9z M144,73.6c0,0.2,0,0.4,0,0.6s-0.1,0.3-0.3,0.3
		s-0.3-0.2-0.3-0.4c0-0.3,0-0.6,0-0.9c0-0.3,0-0.5,0-0.8c0-0.2,0.1-0.3,0.3-0.3s0.3,0.1,0.3,0.3c0,0.1,0,0.1,0,0.2
		c0.2,0,0.3,0,0.4,0c0-0.5-0.1-0.8-0.6-0.8c-0.5-0.1-0.9,0.1-1,0.6c0,0.7,0,1.3,0,2c0,0.3,0.2,0.5,0.5,0.5c0.2,0,0.4-0.1,0.6-0.1
		s0.3,0.1,0.5,0.1c0-0.6,0-1.1,0-1.6c-0.3,0-0.5,0-0.8,0c0,0.1,0,0.2,0,0.3C143.8,73.5,143.9,73.5,144,73.6z M159,74.8
		c0.2,0,0.3,0,0.5,0c0-0.4,0-0.9,0-1.3c0.5,0,0.6,0,0.6,0.5c0,0.3,0,0.6,0,0.8c0.2,0,0.3,0,0.5,0c-0.2-0.5,0.2-1.1-0.3-1.5
		c0.3-0.2,0.3-0.6,0.3-0.9s-0.2-0.4-0.4-0.5c-0.3,0-0.7,0-1.1,0C159,72.9,159,73.8,159,74.8z M145.7,74.8c0.5,0.1,0.5,0.1,0.5-0.4
		c0-0.2,0.1-0.3,0.1-0.5c0.1,0,0.1,0,0.2,0c0.3,0,0.4,0,0.4,0.3c0,0.2,0.1,0.3,0.1,0.5c0.2,0,0.3,0,0.5,0c-0.2-1-0.4-2-0.6-2.9
		c-0.2,0-0.5,0-0.7,0C146.1,72.9,145.9,73.8,145.7,74.8z M177.6,71.9c-0.2,1-0.4,2-0.6,2.9c0.5,0.1,0.5,0.1,0.5-0.3
		c0-0.2,0.1-0.3,0.1-0.5c0.1,0,0.2,0,0.2,0c0.3,0,0.4,0.1,0.4,0.3c0,0.2,0.1,0.4,0.1,0.5c0.2,0,0.3,0,0.5,0
		c-0.2-0.8-0.3-1.6-0.5-2.4C178.2,71.8,178.2,71.8,177.6,71.9z M169.9,71.9c-0.2,1-0.4,2-0.6,2.9c0.2,0,0.3,0,0.5,0
		c0.1-0.3,0.1-0.6,0.2-0.8c0.1,0,0.1,0,0.2,0c0.3,0,0.4,0.1,0.4,0.3c0,0.2,0.1,0.3,0.1,0.5c0.2,0,0.3,0,0.5,0c-0.2-1-0.4-2-0.6-2.9
		C170.3,71.9,170.1,71.9,169.9,71.9z M134.9,72.7c0-0.6-0.2-0.9-0.7-0.9c-0.6,0-0.8,0.2-0.8,0.8c0,0.5,0,1,0,1.6
		c0,0.5,0.4,0.8,0.9,0.7s0.7-0.4,0.6-0.9c-0.1,0-0.3,0-0.4,0c0,0.1,0,0.2,0,0.3c-0.1,0.1-0.2,0.2-0.3,0.2c-0.1,0-0.3-0.1-0.3-0.2
		c0-0.6,0-1.2,0-1.8c0-0.1,0.2-0.2,0.3-0.2c0.1,0,0.2,0.1,0.3,0.2c0,0.1,0,0.2,0,0.3C134.6,72.7,134.7,72.7,134.9,72.7z M162.8,74
		c0,0.1,0,0.2,0,0.2c0,0.2-0.1,0.3-0.3,0.3c-0.2,0-0.3-0.1-0.3-0.3c0-0.6,0-1.2,0-1.8c0-0.1,0.1-0.2,0.3-0.3c0.2,0,0.3,0.1,0.3,0.3
		c0,0.1,0,0.2,0,0.2c0.2,0,0.3,0,0.4,0c0-0.6-0.2-0.9-0.7-0.9c-0.6,0-0.8,0.2-0.8,0.8c0,0.5,0,1,0,1.5s0.3,0.8,0.9,0.7
		c0.5-0.1,0.7-0.4,0.6-0.9C163.1,74,163,74,162.8,74z M149.8,73.4c0-0.1,0-0.2,0-0.4c-0.3,0-0.5,0-0.7,0c0-0.3,0-0.6,0-0.9
		c0.3,0,0.5,0,0.8,0c0-0.1,0-0.2,0-0.3c-0.4,0-0.8,0-1.3,0c0,1,0,2,0,2.9c0.4,0,0.9,0,1.3,0c0-0.1,0-0.2,0-0.3c-0.3,0-0.6,0-0.9,0
		c0-0.4,0-0.7,0-1C149.3,73.4,149.5,73.4,149.8,73.4z M132.9,73.1c-0.3,0-0.5,0-0.8,0c0-0.3,0-0.6,0-0.9c0.3,0,0.5,0,0.8,0
		c0-0.1,0-0.2,0-0.3c-0.4,0-0.8,0-1.3,0c0,1,0,2,0,2.9c0.4,0,0.9,0,1.3,0c0-0.1,0-0.2,0.1-0.3c-0.3,0-0.6,0-0.9,0c0-0.4,0-0.7,0-1
		c0.3,0,0.5,0,0.7,0C132.9,73.3,132.9,73.2,132.9,73.1z M131.4,71.9c-0.6,0-1.1,0-1.6,0c0,0.1,0,0.2,0,0.3c0.2,0,0.4,0,0.6,0
		c0,0.9,0,1.7,0,2.6c0.2,0,0.3,0,0.5,0c0-0.9,0-1.7,0-2.6c0.2,0,0.4,0,0.5,0C131.4,72.1,131.4,72,131.4,71.9z M158.1,74.8
		c0-0.9,0-1.7,0-2.6c0.2,0,0.4,0,0.5,0c0-0.1,0-0.2,0-0.3c-0.5,0-1.1,0-1.6,0c0,0.1,0,0.2,0,0.3c0.2,0,0.4,0,0.6,0
		c0,0.9,0,1.7,0,2.6C157.8,74.8,158,74.8,158.1,74.8z M139.4,71.9c0,1,0,2,0,2.9c0.4,0,0.9,0,1.3,0c0-0.1,0-0.2,0-0.4
		c-0.3,0-0.6,0-0.9,0c0-0.9,0-1.7,0-2.6C139.7,71.9,139.5,71.9,139.4,71.9z M161.4,74.8c0-1,0-2,0-2.9c-0.2,0-0.3,0-0.4,0
		c0,1,0,2,0,2.9C161.1,74.8,161.2,74.8,161.4,74.8z M163.7,71.9c0,1,0,2,0,2.9c0.2,0,0.3,0,0.4,0c0-1,0-2,0-2.9
		C163.9,71.9,163.8,71.9,163.7,71.9z M145.4,74.8c0-1,0-2,0-2.9c-0.2,0-0.3,0-0.4,0c0,1,0,2,0,2.9C145.1,74.8,145.2,74.8,145.4,74.8
		z M174,74.8c0-1,0-2,0-2.9c-0.2,0-0.3,0-0.4,0c0,1,0,2,0,2.9C173.7,74.8,173.9,74.8,174,74.8z M146,71.2c-0.5-0.1-0.8,0.1-1,0.4
		C145.4,71.7,145.6,71.4,146,71.2z M165.2,71.6c0.4,0.1,0.7-0.2,1-0.4C165.7,71.1,165.4,71.3,165.2,71.6z"/>
	<path class="st7" d="M180.5,74.7c0,0.1-0.1,0.2-0.2,0.2c-0.4,0-0.8,0-1.2,0c0-1,0-2,0-3c0.2,0,0.3,0,0.4,0c0,0.9,0,1.7,0,2.6
		c0.3,0,0.6,0,0.9,0C180.5,74.6,180.5,74.6,180.5,74.7z"/>
	<path class="st7" d="M135.3,32c-0.1-10.9,8.9-19.9,20-19.7c10.5,0.1,19.5,8.6,19.5,19.8c0,10.9-8.9,19.8-19.9,19.7
		C143.8,51.7,135.3,42.6,135.3,32z M155.3,22.1c0-0.1,0-0.1,0-0.1c-0.2-1.3-0.4-2.6-0.6-3.8c0-0.1-0.1-0.2-0.2-0.2
		c-1.4-0.9-2.8-1.7-4.1-2.6c-0.1-0.1-0.2-0.1-0.3,0c-1.3,1-2.5,2-3.8,3c-0.2,0.1-0.2,0.2-0.2,0.4c0.4,1.6,0.8,3.2,1.2,4.8
		c0,0.1,0.1,0.2,0.2,0.3c0.8,0.6,1.6,1.2,2.4,1.8c0.1,0.1,0.2,0.1,0.3,0c1.6-1.1,3.3-2.3,4.9-3.4C155.2,22.2,155.3,22.1,155.3,22.1z
		 M160.6,40.7c0,0,0.1,0.1,0.1,0.2c1.3,0.9,2.5,1.8,3.8,2.7c0.1,0.1,0.2,0.1,0.3,0.1c1-0.2,2-0.3,2.9-0.5c0.1,0,0.3-0.1,0.4-0.3
		c0.6-1.1,1.1-2.2,1.6-3.2c0.1-0.2,0.1-0.3,0-0.4c-0.4-0.6-0.8-1.2-1.2-1.8c-0.1-0.1-0.2-0.2-0.3-0.3c-1.4-0.6-2.8-1.2-4.3-1.8
		c-0.1-0.1-0.3-0.1-0.4,0c-0.6,0.2-1.2,0.5-1.8,0.7c-0.3,0-0.6,0.2-0.6,0.6c0,0.2,0,0.3-0.1,0.5C160.9,38.4,160.7,39.5,160.6,40.7z
		 M154.3,44.6c0,0.7,0,1.3,0,2c0,0.1,0.1,0.3,0.2,0.3c1.1,0.8,2.3,1.5,3.4,2.3c0.1,0,0.2,0.1,0.3,0c1.6-0.8,3.2-1.7,4.8-2.6
		c0.2-0.1,0.2-0.2,0.2-0.4c-0.1-0.3-0.1-0.8-0.1-1.2c0-0.3-0.1-0.4-0.4-0.6c-1.1-0.7-2.2-1.4-3.2-2c-0.2-0.1-0.3-0.3-0.3-0.5
		c0-0.6,0-1.2,0-1.7c0-0.2-0.1-0.3-0.3-0.3c-0.4,0-0.7,0-1.1,0c-0.2,0-0.4,0.1-0.5,0.2c-0.9,0.7-1.9,1.5-2.8,2.2
		c-0.1,0.1-0.2,0.2-0.2,0.4C154.3,43.4,154.3,44,154.3,44.6z M170.2,35.8c0.1-0.1,0.2-0.1,0.3-0.2c1-0.9,2.1-1.8,3.1-2.7
		c0.1-0.1,0.2-0.2,0.1-0.4c-0.5-1.3-1-2.6-1.5-3.9c0-0.1-0.2-0.2-0.3-0.2c-1.4-0.3-2.7-0.5-4.1-0.7c-0.1,0-0.3,0-0.4,0.1
		c-0.9,0.9-1.9,1.9-2.8,2.8c-0.1,0.1-0.2,0.2-0.1,0.4c0.5,1.2,1.1,2.3,1.6,3.5c0,0.1,0.2,0.2,0.3,0.2c0.9,0.3,1.8,0.6,2.7,0.9
		C169.5,35.6,169.8,35.7,170.2,35.8z M148,39.9c0-0.6,0-1.1,0-1.7c0-0.1-0.1-0.2-0.1-0.3c-0.9-0.7-1.9-1.3-2.8-2
		c-0.1-0.1-0.3-0.1-0.4,0c-1.2,0.4-2.4,0.9-3.6,1.3c-0.2,0.1-0.3,0.2-0.3,0.3c-0.3,1.2-0.6,2.4-0.9,3.6c-0.1,0.2,0,0.3,0.2,0.4
		c1.3,0.8,2.5,1.5,3.8,2.3c0.2,0.1,0.3,0.1,0.5,0c1.2-0.7,2.3-1.3,3.5-2c0.1-0.1,0.2-0.2,0.2-0.4C148,41,148,40.5,148,39.9z
		 M155.2,15.7c0.4,0.4,0.7,0.7,1,1c0.1,0.1,0.1,0.2,0.2,0.3c0.1,0.6,0.1,1.3,0.2,1.9c0.1,1.5,0.2,3,0.4,4.5c0,0.2,0.1,0.3,0.3,0.3
		c1.1,0,2.3,0,3.4,0c0.2,0,0.3-0.1,0.4-0.2c0.7-1.2,1.4-2.4,2.2-3.6c0.1-0.2,0.1-0.3,0-0.5c-0.7-1.3-1.4-2.6-2-3.9
		c-0.1-0.2-0.3-0.3-0.5-0.3c-1,0.1-2,0.1-3,0.2C156.8,15.5,156,15.6,155.2,15.7z M146.9,29c0.5-0.9,1-1.7,1.5-2.5
		c0.1-0.2,0.1-0.3-0.1-0.5c-0.7-0.5-1.4-1.1-2.1-1.6c-0.2-0.1-0.3-0.3-0.4-0.5c-0.3-1-0.6-2-0.8-3c-0.1-0.2-0.2-0.3-0.4-0.3
		c-0.7,0-1.3,0-2,0c-0.2,0-0.4,0.1-0.5,0.3c-0.7,1.5-1.4,2.9-2.2,4.3c-0.1,0.2-0.1,0.3,0,0.5c0.3,0.6,0.6,1.3,0.9,1.9
		c0.1,0.2,0.2,0.3,0.4,0.3c1.3,0,2.6,0.1,3.8,0.1c0.4,0,0.7,0.1,0.9,0.3C146.3,28.5,146.6,28.7,146.9,29z M169.5,24.1
		c0-0.4,0-0.8,0-1.3c0-0.2-0.1-0.4-0.2-0.6c-0.6-0.7-1.3-1.5-1.9-2.2c-0.1-0.1-0.3-0.2-0.4-0.2c-0.6,0-1.2,0-1.9,0
		c-0.2,0-0.3,0.1-0.4,0.3c-0.8,1.5-1.5,3-2.3,4.5c-0.3,0.6-0.5,1.1-0.4,1.7c0,0.1,0.1,0.3,0.2,0.4c0.6,0.4,1.2,0.8,1.8,1.2
		c0.2,0.1,0.3,0.1,0.5,0c0.8-0.7,1.6-1.5,2.5-2.2c0.2-0.2,0.3-0.2,0.6-0.2c0.6,0.1,1.3,0.2,1.9,0.3c0.2,0,0.3,0,0.3-0.2
		C169.5,25.1,169.5,24.6,169.5,24.1z M139.8,36.1c0.2-0.1,0.3-0.2,0.5-0.3c1.1-0.6,2.3-1.3,3.4-1.9c0.1-0.1,0.3-0.1,0.5-0.1
		c0.6,0.1,1.1,0.3,1.7,0.5c0.2,0.1,0.3,0,0.3-0.2c0.1-0.4,0.3-0.8,0.4-1.2c0-0.1,0-0.2,0-0.3c-0.7-1-1.4-2-2.1-3
		c-0.1-0.1-0.2-0.1-0.2-0.2c-1.2-0.1-2.5-0.2-3.7-0.2c-0.1,0-0.3,0.1-0.3,0.2c-0.8,1-1.5,1.9-2.2,2.9c-0.1,0.1-0.1,0.2,0,0.4
		c0.2,0.4,0.5,0.8,0.7,1.2C139,34.7,139.4,35.4,139.8,36.1z M146.9,44.9c0.1,0.1,0.1,0.2,0.2,0.3c0.5,0.6,0.9,1.3,1.4,1.9
		c0.1,0.2,0.3,0.3,0.5,0.3c1.2,0,2.4,0,3.7,0c0.4,0,0.4,0,0.4-0.4c0-1.6,0-3.3,0-4.9c0-0.2,0.1-0.4,0.3-0.5c0.3-0.2,0.6-0.4,1-0.6
		c0-0.1-0.1-0.1-0.1-0.2c-0.4-0.5-0.7-0.9-1.1-1.4c-0.1-0.1-0.2-0.1-0.4-0.2c-0.8,0-1.6,0-2.5,0c-0.4,0-0.4,0-0.5,0.4
		c-0.1,1-0.1,2.1-0.2,3.1c0,0.2-0.1,0.4-0.3,0.5C148.5,43.8,147.7,44.3,146.9,44.9z"/>
	<path class="st7" d="M145.6,57.8c-0.3,1-0.6,2.1-0.8,3.1c-0.6,2-1.1,4.1-1.7,6.1c-0.2,0.7-0.6,1.3-1.2,1.7
		c-0.7,0.5-1.5,0.4-2.1-0.3c-0.4-0.4-0.6-1-0.8-1.5c-0.8-3-1.6-5.9-2.4-8.9c0-0.1,0-0.1-0.1-0.2c0,0.2-0.1,0.4-0.1,0.6
		c-0.2,1.6-0.3,3.2-0.5,4.8c-0.2,1.8-0.4,3.5-0.5,5.3c0,0.3-0.1,0.5-0.1,0.8c0,0.1,0,0.2-0.2,0.2c-0.6,0-1.2,0-1.9,0
		c0-0.1,0-0.1,0-0.2c0.1-1.4,0.3-2.8,0.4-4.2c0.1-1.1,0.2-2.2,0.3-3.3c0.1-1.3,0.2-2.6,0.4-3.8c0-0.4,0.1-0.8,0.2-1.2
		c0-0.2,0.1-0.4,0.2-0.6c0.7-1.3,2.1-1.5,3.1-0.5c0.5,0.5,0.8,1.1,1,1.8c0.7,2.7,1.5,5.5,2.2,8.2c0,0.1,0.1,0.2,0.1,0.3
		c0.1-0.4,0.2-0.8,0.3-1.2c0.7-2.5,1.4-5,2.1-7.6c0.2-0.7,0.6-1.3,1.1-1.7c0.8-0.7,1.8-0.5,2.5,0.3c0.5,0.7,0.8,1.4,0.9,2.2
		c0.1,1.5,0.2,3,0.4,4.5c0.1,1.3,0.2,2.5,0.3,3.8c0.1,1,0.2,2,0.2,3c0,0,0,0.1,0,0.2c-0.7,0-1.3,0-2,0
		C146.5,65.6,146.1,61.7,145.6,57.8C145.7,57.8,145.7,57.8,145.6,57.8z"/>
	<path class="st7" d="M154.7,58.9c0,3.5,0,7,0,10.5c-0.8,0-1.5,0-2.2,0c0-0.1,0-0.2,0-0.3c0-4,0-7.9,0-11.9c0-0.6,0.2-1.2,0.7-1.7
		c0.6-0.6,1.3-0.6,2-0.2c0.6,0.5,1.1,1.1,1.4,1.8c1.1,2.6,2.3,5.2,3.4,7.8c0.2,0.4,0.4,0.9,0.6,1.3h0.1c-0.1-3.8-0.1-7.5-0.2-11.3
		c0.8,0,1.5,0,2.3,0c0,0.3,0,0.6,0,0.9c0,0.2,0,0.3,0,0.5c0,3.6,0,7.2,0,10.9c0,0.3,0,0.6,0,0.9c-0.3,1.2-1.6,1.8-2.7,1.2
		c-0.5-0.3-0.8-0.7-1.1-1.3c-1.3-3-2.6-5.9-3.9-8.9c0-0.1-0.1-0.2-0.1-0.2C154.8,58.9,154.7,58.9,154.7,58.9z"/>
	<path class="st7" d="M169,69.5c-0.7,0-1.4,0-2.1,0c0-0.1,0-0.2,0-0.3c0-3.1,0-6.3,0-9.4c0-0.8,0.3-1.5,0.7-2.2
		c1.5-2.7,4.6-3.2,7.1-1.7c1.5,0.9,2.4,2.3,2.4,4.2c0,3,0,6.1,0,9.1c0,0.1,0,0.2,0,0.4c-0.7,0-1.4,0-2.2,0c0-2.2,0-4.5,0-6.8
		c-1.8,0-3.6,0-5.3,0c0-0.6,0-1,0-1.6c0.1,0,0.2,0,0.3,0c1.6,0,3.3,0,4.9,0c0.1,0,0.2-0.1,0.2-0.2c0.1-1.2-0.1-2.3-0.9-3.2
		c-0.7-0.9-1.9-1.2-3-0.8c-1.1,0.4-1.9,1.4-1.9,2.5c0,1,0,2,0,2.9c0,1.4,0,2.8,0,4.1c0,0.9,0,1.8,0,2.7C169,69.3,169,69.4,169,69.5z
		"/>
	<path class="st7" d="M175.6,73.9c0.1-0.7,0.3-1.3,0.4-2c0.2,0,0.4,0,0.7,0c0,1,0,1.9,0,2.9c-0.1,0-0.2,0-0.4,0c0-0.8,0-1.6,0-2.3
		c0,0,0,0-0.1,0c-0.1,0.8-0.3,1.6-0.4,2.4c-0.1,0-0.3,0-0.5,0c-0.1-0.8-0.3-1.6-0.4-2.3l0,0c0,0.8,0,1.5,0,2.3c-0.1,0-0.3,0-0.4,0
		c0-1,0-2,0-3c0.2,0,0.3,0,0.5,0s0.2,0.1,0.3,0.2C175.4,72.7,175.5,73.3,175.6,73.9L175.6,73.9z"/>
	<path class="st7" d="M173,71.9c0,1,0,1.9,0,2.9c-0.5,0.1-0.5,0.1-0.6-0.4c-0.2-0.6-0.3-1.1-0.5-1.7c0,0.7,0,1.3,0,2
		c-0.1,0-0.3,0-0.4,0c0-1,0-1.9,0-2.9c0.4-0.1,0.5-0.1,0.7,0.3c0.2,0.5,0.3,1,0.5,1.6c0-0.6,0-1.3,0-1.9
		C172.7,71.9,172.9,71.9,173,71.9z"/>
	<path class="st7" d="M167.8,71.9c0.2,0,0.3,0,0.4,0c0,1,0,1.9,0,2.9c-0.5,0.1-0.5,0.1-0.6-0.4c-0.2-0.6-0.3-1.1-0.5-1.7l0,0
		c0,0.7,0,1.4,0,2c-0.1,0-0.3,0-0.4,0c0-1,0-2,0-2.9c0.5-0.1,0.5-0.1,0.7,0.4s0.3,1,0.5,1.5C167.8,73.2,167.8,72.5,167.8,71.9z"/>
	<path class="st7" d="M135.2,74.8c0-1,0-1.9,0-2.9c0.4-0.1,0.5-0.1,0.7,0.3c0.2,0.5,0.3,1,0.5,1.6c0-0.6,0-1.3,0-1.9
		c0.1,0,0.3,0,0.4,0c0,1,0,1.9,0,2.9c-0.5,0.1-0.5,0.1-0.6-0.4c-0.2-0.6-0.3-1.1-0.5-1.7c0,0.7,0,1.3,0,2
		C135.5,74.8,135.4,74.8,135.2,74.8z"/>
	<path class="st7" d="M153.5,74.8c-0.2,0-0.3,0-0.4,0c0-1,0-2,0-3c0.1,0,0.2,0,0.3,0c0.2,0,0.3,0.1,0.3,0.2c0.1,0.5,0.3,1,0.4,1.5
		c0,0.1,0.1,0.2,0.1,0.2c0-0.6,0-1.3,0-1.9c0.1,0,0.3,0,0.4,0c0,1,0,2,0,2.9c-0.2,0-0.3,0-0.5,0c-0.2-0.7-0.4-1.4-0.6-2.1l0,0
		C153.5,73.4,153.5,74.1,153.5,74.8z"/>
	<path class="st7" d="M151.4,73.8c0-0.6,0-1.3,0-1.9c0.1,0,0.3,0,0.4,0c0,1,0,2,0,2.9c-0.2,0-0.3,0-0.5,0c-0.2-0.7-0.4-1.4-0.6-2.1
		l0,0c0,0.7,0,1.4,0,2c-0.1,0-0.3,0-0.4,0c0-1,0-1.9,0-3c0.1,0,0.2,0,0.3,0c0.2,0,0.3,0.1,0.3,0.2C151,72.7,151.2,73.2,151.4,73.8
		L151.4,73.8z"/>
	<path class="st7" d="M138.9,73.3c0,0.3,0,0.6,0,0.8c0,0.5-0.3,0.7-0.8,0.7s-0.8-0.2-0.8-0.6c0-0.6,0-1.2,0-1.8
		c0-0.5,0.4-0.7,0.9-0.7s0.7,0.3,0.8,0.7C138.9,72.8,138.9,73.1,138.9,73.3L138.9,73.3z M137.7,73.3L137.7,73.3c0,0.3,0,0.5,0,0.8
		c0,0.2,0.1,0.3,0.3,0.4c0.2,0,0.4-0.1,0.4-0.3c0-0.6,0-1.1,0-1.7c0-0.2-0.1-0.3-0.3-0.3s-0.3,0.1-0.3,0.4
		C137.7,72.8,137.7,73.1,137.7,73.3z"/>
	<path class="st7" d="M142.5,73.4c0,0.3,0,0.5,0,0.8c0,0.5-0.3,0.7-0.8,0.7s-0.8-0.2-0.8-0.7c0-0.6,0-1.1,0-1.7
		c0-0.5,0.3-0.7,0.9-0.7c0.5,0,0.7,0.3,0.7,0.8C142.5,72.8,142.5,73.1,142.5,73.4z M141.4,73.3c0,0.3,0,0.6,0,0.8
		c0,0.2,0.1,0.4,0.3,0.4c0.2,0,0.3-0.1,0.3-0.3c0-0.6,0-1.1,0-1.7c0-0.2-0.1-0.3-0.3-0.3c-0.2,0-0.3,0.1-0.3,0.4
		C141.4,72.8,141.4,73.1,141.4,73.3z"/>
	<path class="st7" d="M166.2,73.3c0,0.3,0,0.6,0,0.8c0,0.5-0.3,0.7-0.8,0.7s-0.8-0.2-0.8-0.7c0-0.6,0-1.1,0-1.7
		c0-0.5,0.3-0.7,0.9-0.7c0.5,0,0.7,0.3,0.8,0.7C166.2,72.8,166.2,73.1,166.2,73.3L166.2,73.3z M165,73.3c0,0.3,0,0.5,0,0.8
		c0,0.2,0.1,0.4,0.3,0.4c0.2,0,0.3-0.1,0.3-0.3c0-0.5,0-1.1,0-1.6c0-0.2-0.1-0.3-0.4-0.3c-0.2,0-0.3,0.1-0.3,0.4
		C165,72.8,165,73.1,165,73.3z"/>
	<path class="st7" d="M155.2,71.9c0.2,0,0.3,0,0.5,0c0,0.3,0,0.6,0,0.9c0,0.5,0,0.9,0,1.4c0,0.2,0.1,0.4,0.3,0.4
		c0.2,0,0.3-0.2,0.3-0.4c0-0.6,0-1.3,0-1.9c0-0.1,0-0.2,0-0.3c0.2,0,0.3,0,0.5,0c0,0.2,0,0.3,0,0.5c0,0.6,0,1.2,0,1.7
		s-0.3,0.7-0.8,0.7s-0.8-0.2-0.8-0.7C155.2,73.4,155.2,72.7,155.2,71.9z"/>
	<path class="st7" d="M144,73.6c-0.1,0-0.2,0-0.3,0c0-0.1,0-0.2,0-0.3c0.3,0,0.5,0,0.8,0c0,0.5,0,1.1,0,1.6c-0.2,0-0.3-0.1-0.5-0.1
		c-0.1,0-0.4,0.1-0.6,0.1c-0.3,0-0.5-0.2-0.5-0.5c0-0.7,0-1.3,0-2c0-0.4,0.4-0.6,1-0.6c0.4,0.1,0.6,0.3,0.6,0.8c-0.1,0-0.3,0-0.4,0
		c0-0.1,0-0.1,0-0.2c0-0.2-0.1-0.3-0.3-0.3c-0.2,0-0.3,0.1-0.3,0.3c0,0.3,0,0.5,0,0.8c0,0.3,0,0.6,0,0.9c0,0.2,0.1,0.4,0.3,0.4
		c0.2,0,0.3-0.1,0.3-0.3C144,74,144,73.8,144,73.6z"/>
	<path class="st7" d="M159,74.8c0-1,0-1.9,0-2.9c0.4,0,0.7,0,1.1,0c0.3,0,0.4,0.2,0.4,0.5c0,0.3,0.1,0.7-0.3,0.9
		c0.5,0.4,0.1,1,0.3,1.5c-0.2,0-0.3,0-0.5,0c0-0.3,0-0.6,0-0.8c0-0.5-0.1-0.5-0.6-0.5c0,0.4,0,0.9,0,1.3
		C159.3,74.8,159.1,74.8,159,74.8z M159.4,73.2c0.2-0.1,0.4-0.1,0.5-0.2c0.1-0.2,0.1-0.4,0-0.6c0-0.1-0.3-0.1-0.5-0.2
		C159.4,72.5,159.4,72.8,159.4,73.2z"/>
	<path class="st7" d="M145.7,74.8c0.2-1,0.4-1.9,0.6-2.9c0.2,0,0.4,0,0.7,0c0.2,1,0.4,1.9,0.6,2.9c-0.2,0-0.3,0-0.5,0
		c0-0.2-0.1-0.3-0.1-0.5c0-0.3-0.2-0.4-0.4-0.3c-0.1,0-0.1,0-0.2,0c0,0.2-0.1,0.3-0.1,0.5C146.2,74.9,146.2,74.9,145.7,74.8z
		 M146.4,73.6c0.2,0,0.3,0,0.4,0c-0.1-0.4-0.1-0.8-0.2-1.2c0,0,0,0-0.1,0C146.5,72.8,146.5,73.2,146.4,73.6z"/>
	<path class="st7" d="M177.6,71.9c0.7-0.1,0.7-0.1,0.8,0.6c0.2,0.8,0.3,1.6,0.5,2.4c-0.2,0-0.3,0-0.5,0c0-0.2-0.1-0.3-0.1-0.5
		c0-0.3-0.1-0.4-0.4-0.3c-0.1,0-0.1,0-0.2,0c0,0.2-0.1,0.3-0.1,0.5c-0.1,0.4-0.1,0.4-0.5,0.3C177.2,73.8,177.4,72.9,177.6,71.9z
		 M177.7,73.6c0.1,0,0.3,0,0.4,0c-0.1-0.4-0.1-0.8-0.2-1.2l0,0C177.8,72.8,177.8,73.2,177.7,73.6z"/>
	<path class="st7" d="M169.9,71.9c0.2,0,0.4,0,0.7,0c0.2,1,0.4,1.9,0.6,2.9c-0.2,0-0.3,0-0.5,0c0-0.2-0.1-0.3-0.1-0.5
		c0-0.3-0.1-0.4-0.4-0.3c-0.1,0-0.1,0-0.2,0c-0.1,0.3-0.1,0.5-0.2,0.8c-0.2,0-0.3,0-0.5,0C169.5,73.8,169.7,72.9,169.9,71.9z
		 M170.2,72.4L170.2,72.4c-0.1,0.4-0.2,0.8-0.2,1.2c0.2,0,0.3,0,0.4,0C170.3,73.2,170.3,72.8,170.2,72.4z"/>
	<path class="st7" d="M134.9,72.7c-0.2,0-0.3,0-0.4,0c0-0.1,0-0.2,0-0.3c-0.1-0.1-0.2-0.2-0.3-0.2c-0.1,0-0.2,0.1-0.3,0.2
		c0,0.6,0,1.2,0,1.8c0,0.1,0.2,0.2,0.3,0.2c0.1,0,0.2-0.1,0.3-0.2c0-0.1,0-0.2,0-0.3c0.2,0,0.3,0,0.4,0c0.1,0.5-0.1,0.8-0.6,0.9
		s-0.9-0.2-0.9-0.7s0-1,0-1.6s0.3-0.8,0.8-0.8C134.7,71.8,134.9,72.1,134.9,72.7z"/>
	<path class="st7" d="M162.8,74c0.2,0,0.3,0,0.4,0c0.1,0.5-0.1,0.9-0.6,0.9c-0.5,0.1-0.8-0.2-0.9-0.7c0-0.5,0-1,0-1.5
		c0-0.6,0.3-0.8,0.8-0.8s0.7,0.3,0.7,0.9c-0.1,0-0.3,0-0.4,0c0-0.1,0-0.2,0-0.2c0-0.2-0.1-0.3-0.3-0.3c-0.1,0-0.2,0.2-0.3,0.3
		c0,0.6,0,1.2,0,1.8c0,0.2,0.1,0.3,0.3,0.3c0.2,0,0.3-0.1,0.3-0.3C162.8,74.1,162.8,74.1,162.8,74z"/>
	<path class="st7" d="M149.8,73.4c-0.3,0-0.5,0-0.8,0c0,0.3,0,0.7,0,1c0.3,0,0.6,0,0.9,0c0,0.1,0,0.2,0,0.3c-0.4,0-0.8,0-1.3,0
		c0-1,0-1.9,0-2.9c0.4,0,0.8,0,1.3,0c0,0.1,0,0.2,0,0.3c-0.3,0-0.5,0-0.8,0c0,0.3,0,0.6,0,0.9c0.2,0,0.5,0,0.7,0
		C149.8,73.2,149.8,73.3,149.8,73.4z"/>
	<path class="st7" d="M132.9,73.1c0,0.1,0,0.2,0,0.4c-0.2,0-0.5,0-0.7,0c0,0.3,0,0.7,0,1c0.3,0,0.6,0,0.9,0c0,0.1,0,0.2-0.1,0.3
		c-0.4,0-0.9,0-1.3,0c0-1,0-2,0-2.9c0.4,0,0.8,0,1.3,0c0,0.1,0,0.2,0,0.3c-0.3,0-0.5,0-0.8,0c0,0.3,0,0.6,0,0.9
		C132.4,73.1,132.7,73.1,132.9,73.1z"/>
	<path class="st7" d="M131.4,71.9c0,0.1,0,0.2,0,0.3c-0.2,0-0.3,0-0.5,0c0,0.9,0,1.7,0,2.6c-0.2,0-0.3,0-0.5,0c0-0.8,0-1.7,0-2.6
		c-0.2,0-0.4,0-0.6,0c0-0.1,0-0.2,0-0.3C130.4,71.9,130.9,71.9,131.4,71.9z"/>
	<path class="st7" d="M158.1,74.8c-0.2,0-0.3,0-0.5,0c0-0.9,0-1.7,0-2.6c-0.2,0-0.4,0-0.6,0c0-0.1,0-0.2,0-0.3c0.5,0,1,0,1.6,0
		c0,0.1,0,0.2,0,0.3c-0.2,0-0.3,0-0.5,0C158.1,73.1,158.1,73.9,158.1,74.8z"/>
	<path class="st7" d="M139.4,71.9c0.2,0,0.3,0,0.4,0c0,0.9,0,1.7,0,2.6c0.3,0,0.6,0,0.9,0c0,0.1,0,0.2,0,0.4c-0.4,0-0.9,0-1.3,0
		C139.4,73.8,139.4,72.9,139.4,71.9z"/>
	<path class="st7" d="M161.4,74.8c-0.2,0-0.3,0-0.4,0c0-1,0-1.9,0-2.9c0.1,0,0.3,0,0.4,0C161.4,72.9,161.4,73.8,161.4,74.8z"/>
	<path class="st7" d="M163.7,71.9c0.2,0,0.3,0,0.4,0c0,1,0,2,0,2.9c-0.1,0-0.3,0-0.4,0C163.7,73.8,163.7,72.9,163.7,71.9z"/>
	<path class="st7" d="M145.4,74.8c-0.2,0-0.3,0-0.4,0c0-1,0-1.9,0-2.9c0.1,0,0.3,0,0.4,0C145.4,72.9,145.4,73.8,145.4,74.8z"/>
	<path class="st7" d="M174,74.8c-0.1,0-0.3,0-0.4,0c0-1,0-2,0-2.9c0.1,0,0.3,0,0.4,0C174,72.9,174,73.8,174,74.8z"/>
	<path class="st7" d="M146,71.2c-0.3,0.2-0.6,0.5-1,0.4C145.2,71.3,145.4,71.2,146,71.2z"/>
	<path class="st7" d="M165.2,71.6c0.3-0.3,0.5-0.5,1-0.4C165.8,71.4,165.6,71.7,165.2,71.6z"/>
	<g class="st3">
		<path class="st8" d="M155.3,22.1c0,0-0.1,0.1-0.2,0.2c-1.6,1.1-3.3,2.3-4.9,3.4c-0.1,0-0.2,0-0.3,0c-0.8-0.6-1.6-1.2-2.4-1.8
			c-0.1-0.1-0.2-0.2-0.2-0.3c-0.4-1.6-0.8-3.2-1.2-4.8c0-0.2,0-0.3,0.1-0.4c1.3-1,2.5-2,3.8-3c0.1-0.1,0.2-0.1,0.3,0
			c1.4,0.9,2.8,1.7,4.1,2.6c0.1,0,0.2,0.1,0.2,0.2c0.2,1.3,0.4,2.5,0.6,3.8C155.3,22,155.3,22,155.3,22.1z"/>
		<path class="st8" d="M160.6,40.7c0.2-1.2,0.3-2.3,0.5-3.4c0-0.2,0.1-0.4,0.1-0.5c0-0.4,0.2-0.6,0.6-0.8c0.6-0.2,1.2-0.5,1.8-0.7
			c0.1,0,0.3,0,0.4,0c1.4,0.6,2.8,1.2,4.3,1.8c0.1,0.1,0.2,0.2,0.3,0.3c0.4,0.6,0.8,1.2,1.2,1.8c0.1,0.2,0.1,0.3,0,0.4
			c-0.5,1.1-1.1,2.2-1.6,3.2c-0.1,0.1-0.2,0.2-0.4,0.3c-1,0.2-2,0.3-2.9,0.5c-0.1,0-0.2,0-0.3-0.1c-1.3-0.9-2.5-1.8-3.8-2.7
			C160.6,40.8,160.6,40.7,160.6,40.7z"/>
		<path class="st8" d="M154.3,44.6c0-0.6,0-1.3,0-1.9c0-0.1,0.1-0.3,0.2-0.4c0.9-0.8,1.8-1.5,2.8-2.2c0.1-0.1,0.4-0.2,0.5-0.2
			c0.4,0,0.7,0,1.1,0c0.2,0,0.3,0.1,0.3,0.3c0,0.6,0,1.2,0,1.7c0,0.2,0.1,0.4,0.3,0.5c1.1,0.7,2.2,1.4,3.2,2
			c0.2,0.1,0.4,0.3,0.4,0.6c0,0.4,0.1,0.9,0.1,1.3c0,0.2,0,0.3-0.2,0.4c-1.6,0.8-3.2,1.7-4.8,2.6c-0.1,0-0.2,0-0.3,0
			c-1.1-0.7-2.3-1.5-3.4-2.3c-0.1-0.1-0.2-0.2-0.2-0.3C154.3,45.9,154.3,45.3,154.3,44.6z"/>
		<path class="st8" d="M170.2,35.8c-0.4-0.1-0.7-0.2-1-0.3c-0.9-0.3-1.8-0.6-2.7-0.9c-0.1,0-0.2-0.1-0.3-0.2
			c-0.5-1.2-1.1-2.3-1.6-3.5c-0.1-0.2,0-0.3,0.1-0.4c0.9-0.9,1.9-1.9,2.8-2.8c0.1-0.1,0.3-0.1,0.4-0.1c1.4,0.2,2.7,0.5,4.1,0.7
			c0.1,0,0.3,0.1,0.3,0.2c0.5,1.3,1,2.6,1.5,3.9c0.1,0.2,0,0.3-0.1,0.4c-1,0.9-2.1,1.8-3.1,2.7C170.3,35.7,170.2,35.7,170.2,35.8z"
			/>
		<path class="st8" d="M148,39.9c0,0.5,0,1.1,0,1.6c0,0.2-0.1,0.3-0.2,0.4c-1.2,0.7-2.3,1.3-3.5,2c-0.2,0.1-0.3,0.1-0.5,0
			c-1.3-0.8-2.5-1.5-3.8-2.3c-0.2-0.1-0.3-0.2-0.2-0.4c0.3-1.2,0.6-2.4,0.9-3.6c0-0.2,0.1-0.3,0.3-0.3c1.2-0.4,2.4-0.9,3.6-1.3
			c0.1,0,0.3,0,0.4,0c0.9,0.7,1.9,1.3,2.8,2c0.1,0.1,0.1,0.2,0.1,0.3C148,38.8,148,39.4,148,39.9z"/>
		<path class="st8" d="M155.2,15.7c0.8-0.1,1.6-0.1,2.4-0.2c1-0.1,2-0.1,3-0.2c0.2,0,0.4,0,0.5,0.3c0.7,1.3,1.3,2.6,2,3.9
			c0.1,0.2,0.1,0.3,0,0.5c-0.7,1.2-1.4,2.4-2.2,3.6c-0.1,0.2-0.2,0.2-0.4,0.2c-1.1,0-2.3,0-3.4,0c-0.2,0-0.3-0.1-0.3-0.3
			c-0.1-1.5-0.2-3-0.4-4.5c-0.1-0.6-0.1-1.3-0.2-1.9c0-0.1-0.1-0.3-0.2-0.3C155.9,16.4,155.5,16,155.2,15.7z"/>
		<path class="st8" d="M146.9,29c-0.3-0.2-0.6-0.4-0.8-0.6c-0.3-0.3-0.6-0.3-0.9-0.3c-1.3,0-2.6-0.1-3.8-0.1c-0.2,0-0.3-0.1-0.4-0.3
			c-0.3-0.6-0.6-1.3-0.9-1.9c-0.1-0.2-0.1-0.3,0-0.5c0.7-1.4,1.5-2.9,2.2-4.3c0.1-0.2,0.2-0.3,0.5-0.3c0.7,0,1.3,0,2,0
			c0.2,0,0.3,0.1,0.4,0.3c0.3,1,0.6,2,0.8,3c0.1,0.2,0.2,0.4,0.4,0.5c0.7,0.5,1.4,1.1,2.1,1.6c0.2,0.2,0.2,0.3,0.1,0.5
			C147.9,27.3,147.4,28.1,146.9,29z"/>
		<path class="st8" d="M169.5,24.1c0,0.5,0,0.9,0,1.4c0,0.2,0,0.3-0.3,0.2c-0.6-0.1-1.3-0.2-1.9-0.3c-0.2,0-0.4,0-0.6,0.2
			c-0.8,0.7-1.6,1.5-2.5,2.2c-0.2,0.1-0.3,0.2-0.5,0c-0.6-0.4-1.2-0.8-1.8-1.2c-0.1-0.1-0.2-0.2-0.2-0.4c-0.1-0.6,0.1-1.2,0.4-1.7
			c0.8-1.5,1.6-3,2.3-4.5c0.1-0.2,0.2-0.3,0.4-0.3c0.6,0,1.2,0,1.9,0c0.1,0,0.3,0.1,0.4,0.2c0.6,0.7,1.3,1.5,1.9,2.2
			c0.2,0.2,0.2,0.4,0.2,0.6C169.5,23.3,169.5,23.7,169.5,24.1z"/>
		<path class="st8" d="M139.8,36.1c-0.4-0.7-0.8-1.4-1.2-2.1c-0.2-0.4-0.5-0.8-0.7-1.2c-0.1-0.2-0.1-0.3,0-0.4
			c0.7-1,1.5-1.9,2.2-2.9c0.1-0.1,0.2-0.2,0.3-0.2c1.2,0.1,2.5,0.1,3.7,0.2c0.1,0,0.2,0.1,0.2,0.2c0.7,1,1.4,2,2.1,3
			c0.1,0.1,0.1,0.2,0,0.3c-0.1,0.4-0.3,0.8-0.4,1.2c-0.1,0.2-0.2,0.2-0.3,0.2c-0.6-0.2-1.1-0.3-1.7-0.5c-0.2,0-0.4,0-0.5,0.1
			c-1.1,0.6-2.3,1.3-3.4,1.9C140.1,36,140,36,139.8,36.1z"/>
		<path class="st8" d="M146.9,44.9c0.8-0.6,1.6-1.1,2.4-1.6c0.2-0.1,0.3-0.3,0.3-0.5c0.1-1,0.1-2.1,0.2-3.1c0-0.4,0-0.4,0.5-0.4
			c0.8,0,1.6,0,2.5,0c0.1,0,0.3,0.1,0.4,0.2c0.4,0.4,0.8,0.9,1.1,1.4c0,0,0.1,0.1,0.1,0.2c-0.3,0.2-0.6,0.4-1,0.6
			c-0.2,0.1-0.3,0.3-0.3,0.5c0,1.6,0,3.3,0,4.9c0,0.4,0,0.4-0.4,0.4c-1.2,0-2.4,0-3.7,0c-0.2,0-0.4-0.1-0.5-0.3
			c-0.4-0.7-0.9-1.3-1.4-1.9C147,45.1,147,45,146.9,44.9z"/>
	</g>
	<path class="st7" d="M137.7,73.3c0-0.3,0-0.5,0-0.8c0-0.2,0.1-0.4,0.3-0.4c0.2,0,0.3,0.1,0.3,0.3c0,0.6,0,1.1,0,1.7
		c0,0.2-0.1,0.3-0.4,0.3c-0.2,0-0.3-0.2-0.3-0.4C137.7,73.9,137.7,73.6,137.7,73.3L137.7,73.3z"/>
	<path class="st7" d="M141.4,73.3c0-0.3,0-0.5,0-0.8c0-0.2,0.1-0.4,0.3-0.4c0.2,0,0.3,0.1,0.3,0.3c0,0.6,0,1.1,0,1.7
		c0,0.2-0.1,0.3-0.3,0.3c-0.2,0-0.3-0.2-0.3-0.4C141.4,73.9,141.4,73.6,141.4,73.3z"/>
	<path class="st7" d="M165,73.3c0-0.3,0-0.5,0-0.8c0-0.2,0.1-0.3,0.3-0.4c0.2,0,0.3,0.1,0.4,0.3c0,0.5,0,1.1,0,1.6
		c0,0.2-0.1,0.4-0.3,0.3c-0.2,0-0.3-0.2-0.3-0.4C165,73.9,165,73.6,165,73.3z"/>
	<path class="st7" d="M159.4,73.2c0-0.4,0-0.7,0-1.1c0.2,0.1,0.4,0.1,0.5,0.2c0.1,0.2,0.1,0.4,0,0.6
		C159.9,73.1,159.6,73.1,159.4,73.2z"/>
	<path class="st7" d="M146.4,73.6c0.1-0.4,0.1-0.8,0.2-1.2c0,0,0,0,0.1,0c0.1,0.4,0.1,0.8,0.2,1.2C146.7,73.6,146.6,73.6,146.4,73.6
		z"/>
	<path class="st7" d="M177.7,73.6c0.1-0.4,0.1-0.8,0.2-1.2l0,0c0.1,0.4,0.1,0.8,0.2,1.2C178,73.6,177.8,73.6,177.7,73.6z"/>
	<path class="st7" d="M170.2,72.4c0.1,0.4,0.1,0.8,0.2,1.2c-0.1,0-0.3,0-0.4,0C170,73.2,170.1,72.8,170.2,72.4L170.2,72.4z"/>
</g>
<image style="display:none;overflow:visible;enable-background:new    ;" width="908" height="1143" xlink:href="../../../../../../../../Pictures/Diseos Personales/Diseo de tarjeta de Presentacion/MNA.png"  transform="matrix(0.1171 0 0 0.1171 120 -21.5436)">
</image>
<g>
	<path class="st6" d="M85.4,12.4c0.8,0.5,1.5,1,2.3,1.4c1.6,0.9,3.5,1.3,5.3,1.7c2,0.5,3.7,1.4,5,3.1c0.2,0.2,0.4,0.3,0.6,0.2
		c0.6-0.1,1.3-0.3,1.9-0.3c1.5,0,3-0.2,4.4-0.6c0.1,0,0.2,0,0.4-0.1c0.2,1.4,0.2,2.6-0.7,3.8c-0.4,0.6-0.9,1.1-1.4,1.6
		c-0.2,0.2-0.3,0.4-0.1,0.7c1.2,1.5,2.5,2.9,3.6,4.4c1.2,1.6,2.3,3.3,3.4,5c1.1,1.7,1.7,3.7,2.2,5.6c0.1,0.2,0.2,0.5,0.3,0.7
		c0.1,0,0.1,0,0.2,0c0.2-0.3,0.4-0.5,0.5-0.8c1.2-3.1,2.2-6.3,2-9.8c-0.2-2.7-0.5-5.4-1.7-7.9c-1.9-3.9-4.6-7-8.3-9.2
		c-1.9-1.1-3.8-2.1-5.9-2.5c-0.9-0.2-1.9-0.3-2.9-0.4c-2.9-0.2-5.7,0.1-8.5,1c-1.7,0.6-3.4,1.1-5,2.1c-2.8,1.8-5.3,4.1-6.9,7.1
		c-0.3,0.5-0.5,1-0.7,1.6c-0.3,0.7-0.7,1-1.5,0.9c-1.1,0-2.3,0-3.4,0c-0.8,0-1.1,0.3-1.1,1.1c0,0.6,0.3,1,0.9,1
		c0.9,0.1,1.8,0.2,2.6,0.2c1.8,0,3.1,1.4,3.3,2.8c0.3,1.6,0.2,3.2-0.1,4.7c-0.3,1.3-1.1,2.5-2.9,2.6c-1.7,0.1-3.3,0.2-5,0.2
		c-1.5,0-1.7-0.7-1.7-2.3c0-0.3,0.1-0.7,0.2-1c0.2-0.6,0.6-1,1.3-1.1c0.5,0,1,0,1.5,0c1.1,0,2.2-0.1,3.3-0.1c0.1,0,0.2,0,0.3,0
		c0.5-0.4,0.3-1,0.3-1.5c0-0.4-0.3-0.5-0.6-0.6c-1-0.1-2-0.1-3-0.2c-1.8-0.2-2.8-1.2-3.1-3c-0.3-1.5-0.3-3,0.2-4.5
		c0.6-1.8,1.5-2.9,3.7-2.9c0.8,0,1.6,0,2.3,0c0.2,0,0.4-0.1,0.5-0.3c1-2.1,2.7-3.4,4.5-4.7c2.3-1.7,4.8-3.2,7.4-4.3
		c1.9-0.8,3.8-1.3,5.9-1.4C94,6.6,96.8,6.6,99.6,7c2.2,0.4,4.2,1.3,6.2,2.3c3.2,1.7,5.6,4.3,7.8,7.1c2.4,3.1,3.6,6.6,4,10.4
		c0.4,3.2,0.3,6.4-0.7,9.5c-1,3.3-2.5,6.3-4.9,8.8c-2.8,3-5.8,5.9-8.8,8.6c-1.6,1.4-2.7,3.2-3.6,5.1c-0.1,0.2-0.2,0.4-0.3,0.6
		c0,0-0.1,0-0.1,0c-0.3-2.1,0-4.2,1.2-6c1.6-2.3,3.3-4.6,4.9-6.8c1-1.3,2-2.6,2.8-4c0.9-1.4,0.8-3.1,0.6-4.7c-0.4-3-1.6-5.8-3-8.4
		c-0.1-0.2-0.2-0.3-0.3-0.4c0,0-0.1,0-0.1,0c0,0.2-0.1,0.3-0.1,0.5c0.2,2.9-0.5,5.4-2.9,7.3c-1.8,1.4-3.4,3-4.5,5
		c-1.1,2.1-1.7,4.4-1.9,6.7c-0.1,1.3-0.3,2.5-0.4,3.8c0,0.2-0.1,0.4-0.2,0.5c-0.1,0-0.1,0-0.2,0c0-0.2-0.1-0.4-0.1-0.5
		c0.2-1.4,0-2.7-0.3-4c-0.4-1.4-1.4-2.4-2.6-3.2c-1.7-1.1-3.4-1.9-5.5-2c-0.4,0-0.9,0-1.3,0.1c-0.4,0.1-0.6-0.1-0.8-0.4
		c-1.4-1.9-2.8-3.7-4.1-5.6c-0.4-0.5-0.8-1-1.1-1.5c-0.3-0.5-0.4-0.9,0.1-1.3c0.9-0.9,1.9-1.7,2.8-2.6c1.7-1.5,3.3-3,5-4.5
		c2-1.9,4-3.9,6.1-5.7c1.3-1.2,0.6-3-0.6-3.5c-1.2-0.4-2.5-0.9-3.6-1.5c-1.1-0.6-2.2-1.4-2.9-2.6c-0.3-0.6-0.5-1.2-0.8-1.8
		C85.3,12.4,85.3,12.4,85.4,12.4z"/>
	<path class="st6" d="M13.8,26c0,2.3,0,4.5,0,6.8c0,1.3-1,2-2.2,1.7c-0.3-0.1-0.6-0.3-0.8-0.6c-1-1.6-1.9-3.2-2.8-4.7
		c-0.2-0.4-0.4-0.9-0.7-1.3c-0.1-0.2-0.3-0.3-0.5-0.5c-0.1,0.2-0.2,0.5-0.2,0.7c0,1.5,0,3,0,4.4c0,0.1,0,0.2,0,0.3
		c0,1.2-0.7,1.8-1.8,1.8c-1,0-1.8-0.7-1.8-1.8c0-4.5,0-9,0-13.4c0-1.4,0.8-2.1,2.2-1.9c0.6,0.1,0.8,0.5,1.1,0.9
		c0.6,1,1.1,2.1,1.7,3.1c0.6,1,1.1,2,1.7,3.1c0.1,0.1,0.2,0.2,0.3,0.3c0.1-0.2,0.2-0.3,0.2-0.5c0-1.7,0-3.4,0-5.1
		c0-1.8,1.6-2.2,2.9-1.6c0.5,0.2,0.7,0.8,0.7,1.3C13.8,21.3,13.8,23.7,13.8,26C13.8,26,13.8,26,13.8,26z"/>
	<path class="st6" d="M43.6,27.5c0,1.8,0,3.6,0,5.4c0,0.7-0.4,1.3-1.1,1.5c-0.6,0.2-1.8,0.1-2-0.4c-0.2-0.4-0.4-0.9-0.4-1.4
		C40,31.2,40,29.8,40,28.4c0-2.5,0-5,0.1-7.5c0-0.5,0-1,0-1.5c0-1.5,0.3-2,1.8-2c1.7-0.1,3.3-0.1,5,0.1c1.7,0.1,2.8,1.2,3.4,2.7
		c1,2.5,0.4,4.7-1.4,6.6c-0.4,0.4-0.4,0.7-0.2,1.1c0.6,1.1,1.1,2.3,1.6,3.5c0.5,1-0.2,2.6-1,2.9c-0.8,0.3-1.5,0.2-1.9-0.6
		c-0.6-1.2-1.2-2.5-1.8-3.7c-0.3-0.7-0.6-1.4-0.9-2.1c-0.3-0.7-0.4-1.3-0.2-2c0.1-0.6,0.5-0.9,1.1-1.1c0.4-0.1,0.8-0.2,1.2-0.4
		c0.9-0.4,1.2-1.6,0.5-2.4c-0.2-0.2-0.5-0.4-0.7-0.4c-0.8-0.1-1.6,0-2.4,0c-0.4,0-0.4,0.2-0.4,0.5C43.6,23.9,43.6,25.7,43.6,27.5
		C43.6,27.5,43.6,27.5,43.6,27.5z"/>
	<path class="st6" d="M23,23.6c0-1.3,0-2.7,0-4c0-0.3,0-0.7,0.1-1c0.3-1,1-1.3,2-1.2c0.8,0.1,1.4,0.9,1.4,1.7c0,2.9,0.1,5.9,0.1,8.8
		c0,1.6-0.3,3.1-1.2,4.5c-0.7,1-1.6,1.7-2.7,2c-1.3,0.3-2.6,0.3-3.8-0.2c-1.7-0.7-2.8-2.1-3.2-3.9c-0.3-1.2-0.3-2.4-0.3-3.7
		c-0.1-2.3,0-4.5,0-6.8c0-0.3,0.1-0.7,0.1-1c0.1-0.8,0.9-1.4,1.7-1.4c0.9,0.1,1.6,0.8,1.7,1.6c0,0.6,0,1.1,0,1.7
		c0,2.4,0,4.7,0.1,7.1c0.1,1.8,1.7,2.8,3.2,2c0.4-0.2,0.7-0.5,0.7-1C23,27,23,25.3,23,23.6C23,23.6,23,23.6,23,23.6z"/>
	<path class="st6" d="M58.5,31.1c-0.5,0-1.1,0-1.6,0c-0.4,0-0.5,0.1-0.6,0.5c-0.2,0.6-0.4,1.3-0.7,1.9c-0.3,0.8-1.3,1.2-2,0.9
		c-1-0.3-1.7-1.2-1.4-2.1c0.6-2,1.3-4,2-6c0.8-2.3,1.7-4.7,2.6-7c0.1-0.3,0.2-0.6,0.4-0.9c0.3-0.7,1-1.1,1.7-1.1
		c0.8,0,1.2,0.5,1.4,1.2c0.7,2.1,1.5,4.3,2.2,6.4c0.7,2.2,1.5,4.4,2.2,6.6c0.3,0.8,0.3,1.7-0.3,2.4c-0.8,1-2.5,0.7-3-0.5
		c-0.2-0.6-0.4-1.2-0.6-1.8c-0.1-0.4-0.3-0.6-0.7-0.5C59.6,31.1,59,31.1,58.5,31.1z M58.7,24.5c-0.1,0.1-0.2,0.2-0.2,0.2
		c-0.3,0.9-0.6,1.8-0.9,2.7c-0.1,0.3,0.2,0.4,0.4,0.4c0.5,0,0.9,0,1.4,0c0.3,0,0.5-0.1,0.4-0.5c-0.2-0.5-0.3-1-0.5-1.5
		C59.1,25.4,58.9,25,58.7,24.5z"/>
	<path class="st6" d="M31.7,27.7c0-1.7,0-3.3,0-5c0-0.8-0.1-0.8-0.8-0.9c-0.5,0-1,0-1.4-0.1c-0.3-0.1-0.6-0.3-0.8-0.5
		c-0.4-0.8-0.6-1.7-0.3-2.6c0.2-0.7,0.6-1.1,1.4-1.1c2.5,0,4.9,0,7.4,0c0.6,0,1.2,0.5,1.3,1.1c0.1,0.7,0.1,1.5,0,2.2
		c-0.1,0.7-0.6,1-1.3,1c-0.5,0-0.9,0-1.4-0.1c-0.4,0-0.5,0.1-0.5,0.5c0,1.4,0,2.8,0,4.2c0,2.1,0.1,4.2,0,6.3c0,1-0.5,1.6-1.5,1.7
		c-0.8,0.1-1.6-0.3-1.8-1.1c-0.1-0.3-0.1-0.6-0.1-0.9C31.7,30.9,31.7,29.3,31.7,27.7z"/>
	<path class="st6" d="M67.1,46.2c-0.5-0.2-0.5-0.6-0.5-1.1c0.2-1.2,0.8-2.1,1.7-2.8c0.3-0.2,0.7-0.3,1.1-0.4
		c0.4-0.1,0.8-0.1,1.2-0.2c-0.2,0.9-0.5,1.7-0.7,2.5c-0.2,0.8-0.3,1.6-0.3,2.3c0,1.3-0.9,2.3-2.2,2.2c-0.3,0-0.6,0.1-0.8,0
		c-0.3-0.1-0.7-0.3-0.8-0.6c-0.1-0.2-0.1-0.7,0.1-1C66.3,46.8,66.7,46.5,67.1,46.2z M69,45.7c-0.1,0-0.1-0.1-0.2-0.1
		c-0.2,0.2-0.5,0.3-0.7,0.5c-0.5,0.4-1,0.7-1.4,1.2c-0.1,0.2-0.1,0.6,0,0.8c0.1,0.3,0.4,0.5,0.8,0.3c0.5-0.1,0.9-0.4,1.1-0.9
		C68.8,46.9,68.8,46.3,69,45.7z M69.6,42.6c-0.5-0.2-1,0-1.2,0.3c-0.3,0.4-0.5,0.9-0.7,1.4c-0.1,0.4-0.3,0.9,0.1,1.2
		c0.3,0.2,0.9-0.2,1.1-0.8C69.2,44,69.4,43.3,69.6,42.6z"/>
	<path class="st6" d="M48.5,42.6c-0.8,0.3-1.2,0.7-1.5,1.3c-0.2,0.5-0.3,1-0.4,1.5c-0.2,0.8-0.2,0.8-1.1,0.7
		c0.2-0.8,0.4-1.6,0.5-2.4c0.2-0.8,0.4-1.6,0.6-2.5c0.2-1.1,0.8-1.9,1.9-2.2c0.2-0.1,0.5-0.1,0.8,0c0.1,0,0.3,0.2,0.3,0.3
		c0,0.1-0.2,0.3-0.3,0.4c-0.2,0-0.5,0-0.7-0.1c-0.4-0.1-0.7,0-0.8,0.4c-0.2,0.8-0.4,1.6-0.6,2.4c0,0.1,0,0.1,0,0.3
		c0.2-0.2,0.4-0.3,0.5-0.4c0.4-0.2,0.7-0.4,1.1-0.5c0.5-0.1,0.6,0.2,0.5,0.7c-0.2,0.7-0.4,1.4-0.6,2.1c-0.1,0.3-0.1,0.5-0.1,0.8
		c0,0,0.1,0,0.1,0.1c0.2-0.1,0.3-0.3,0.5-0.4c0.1-0.1,0.3-0.1,0.4-0.1c0,0.1,0,0.3-0.1,0.4c-0.3,0.3-0.6,0.5-1,0.7
		c-0.5,0.3-1,0-0.8-0.6c0.2-0.8,0.4-1.5,0.6-2.3C48.4,43.1,48.4,42.9,48.5,42.6z"/>
	<path class="st6" d="M36.1,40.6c-0.9-0.1-1.7,0-2.3,0.5c-0.6,0.4-0.7,1.1-0.3,1.6c0.2,0.2,0.4,0.4,0.1,0.6
		c-0.2,0.2-0.7,0.1-0.8-0.2c-0.3-0.5-0.2-1.1,0.1-1.6c0.5-0.9,1.3-1.4,2.4-1.5c1,0,1.9,0.1,2.9,0.1c0.4,0,0.7,0,0.7-0.5
		c0-0.1,0.1-0.3,0.2-0.3c0.2,0,0.4,0,0.6,0.1c0.1,0,0.1,0.3,0.1,0.4c-0.3,0.2-0.5,0.5-0.8,0.6c-0.4,0.1-0.9,0.1-1.3,0.1
		c-0.2,0-0.4,0.2-0.4,0.3c-0.4,1.5-0.8,3.1-1.2,4.7C35.7,46,35.9,46,36.3,46c0.2,0,0.5-0.1,0.7,0c-1,0.5-2.1-0.1-3.1,0.2
		c0-0.1,0-0.1,0-0.2c0.1-0.1,0.2-0.2,0.4-0.2c0.4-0.1,0.7-0.3,0.8-0.8C35.3,43.6,35.7,42.1,36.1,40.6z"/>
	<path class="st6" d="M73.8,45c0.5-0.7,0.6-1.4,0.5-2.2c0-0.1-0.1-0.3-0.1-0.4c0-0.3,0-0.5,0.4-0.5c0.3,0,0.5,0.1,0.5,0.5
		c-0.1,0.7-0.2,1.4-0.4,2c-0.5,1.3-1.1,2.6-2.1,3.6c-0.6,0.6-1.4,0.8-2.3,0.7c-0.1,0-0.3-0.2-0.3-0.3c0-0.1,0.2-0.3,0.3-0.4
		c0.3-0.1,0.6,0,0.8,0c0.3,0,0.6-0.1,0.8-0.2c0.7-0.5,1.1-1.2,1-2c-0.1-0.9-0.3-1.8-0.6-2.7c-0.2-0.5-0.3-0.5-0.8-0.2
		c-0.1,0.1-0.3,0-0.5,0.1c0.1-0.1,0.1-0.3,0.2-0.4c1.2-1,1.5-0.9,2,0.6C73.5,43.7,73.6,44.3,73.8,45z"/>
	<path class="st6" d="M51.3,42.7c-0.4,0.1-0.6,0.6-1,0.3c0.4-0.7,1.1-1.1,2-1c0,0.2,0,0.5,0,0.8c0.2-0.2,0.4-0.3,0.6-0.4
		c0.4-0.2,0.7-0.4,1.1-0.5c0.5-0.1,0.7,0.2,0.5,0.7c-0.2,0.7-0.4,1.3-0.6,1.9c-0.1,0.3-0.1,0.6-0.2,0.9c0,0,0.1,0.1,0.1,0.1
		c0.2-0.1,0.3-0.3,0.5-0.4c0.1-0.1,0.3-0.1,0.4-0.1c0,0.2,0,0.4-0.1,0.4c-0.3,0.2-0.6,0.5-0.9,0.6c-0.2,0.1-0.6,0.1-0.7,0
		c-0.2-0.1-0.2-0.5-0.2-0.7c0.1-0.6,0.3-1.3,0.5-1.9c0.1-0.3,0.1-0.5,0.2-0.9c-0.2,0.1-0.4,0.1-0.5,0.2c-0.6,0.4-1,0.9-1.2,1.6
		c-0.1,0.3-0.2,0.7-0.2,1c-0.2,0.8-0.2,0.8-1.1,0.7C50.8,45,51,43.9,51.3,42.7z"/>
	<path class="st6" d="M57.8,41.9c0.9,0.1,1.4,0.5,1.4,1.4c0.1,1.6-1.2,3-2.6,3c-0.8,0-1.2-0.4-1.3-1.2c-0.1-1,0.6-2.5,1.5-2.9
		C57.1,42,57.4,42,57.8,41.9z M58.1,43.8C58,43.4,58,43,57.9,42.6c-0.2-0.4-0.5-0.5-0.8-0.1c-0.6,0.6-1,2.2-0.6,3
		c0.2,0.5,0.7,0.5,1,0.1C57.9,45,58.1,44.4,58.1,43.8z"/>
	<path class="st6" d="M63.8,46.3c-0.9,0-1.4-0.4-1.4-1.2c-0.1-1.2,0.6-2.5,1.6-3c0.6-0.2,1.2-0.3,1.7,0.1c0.5,0.4,0.6,1,0.5,1.6
		c-0.2,1.2-0.8,2-2,2.4C64,46.2,63.8,46.3,63.8,46.3z M65.3,43.7c0,0-0.1,0-0.1-0.1c0-0.3,0-0.5-0.1-0.8c-0.1-0.2-0.3-0.5-0.5-0.6
		c-0.2,0-0.5,0.2-0.6,0.4c-0.6,0.8-0.6,1.7-0.4,2.6c0,0.2,0.3,0.5,0.5,0.5c0.2,0,0.5-0.1,0.6-0.3C64.9,44.9,65,44.3,65.3,43.7z"/>
	<path class="st6" d="M60.8,45.5c0.3-0.2,0.5-0.5,0.8-0.7c0.1-0.1,0.3-0.1,0.4-0.1c0,0.1,0,0.4-0.1,0.4c-0.4,0.4-0.9,0.7-1.3,1
		c-0.6,0.3-0.9,0-0.8-0.6c0.2-1.2,0.5-2.4,0.8-3.6c0.1-0.5,0.3-1,0.4-1.5c0.4-1,1.3-1.6,2.4-1.4c0.2,0,0.3,0.2,0.5,0.3
		c-0.1,0.1-0.3,0.3-0.4,0.4c-0.2,0.1-0.4,0-0.5,0c-0.6-0.1-0.8-0.1-1,0.6c-0.3,1.2-0.6,2.5-0.9,3.7c-0.1,0.5-0.2,0.9-0.3,1.4
		C60.7,45.5,60.7,45.5,60.8,45.5z"/>
	<path class="st6" d="M38.1,45c0.1-0.9,0.5-1.8,1.3-2.6c0.5-0.5,1.1-0.5,1.7-0.4c0.4,0.1,0.6,0.9,0.2,1.2c-0.5,0.4-1.1,0.8-1.6,1.1
		c-0.4,0.2-0.5,0.4-0.5,0.8c0.1,0.4,0.3,0.6,0.7,0.4c0.3-0.2,0.5-0.4,0.8-0.5c0.1-0.1,0.3-0.1,0.5-0.1c0,0.1,0,0.3-0.1,0.4
		c-0.4,0.3-0.9,0.7-1.4,0.9C38.6,46.6,38.1,46.2,38.1,45z M39.3,43.9c0.1,0,0.1,0.1,0.2,0.1c0.5-0.2,0.9-0.5,1.1-1.1
		c0-0.2-0.1-0.4-0.2-0.6c-0.2,0.1-0.5,0.1-0.5,0.2C39.6,43,39.4,43.4,39.3,43.9z"/>
	<path class="st6" d="M41.9,44.8c0.1-0.8,0.5-1.7,1.4-2.5c0.5-0.5,1.1-0.4,1.7-0.3c0.1,0,0.3,0.3,0.3,0.5c0,0.1-0.3,0.3-0.4,0.3
		c-0.2,0-0.4,0-0.6-0.1c-0.4-0.3-0.7-0.1-1,0.3c-0.4,0.6-0.6,1.3-0.5,2.1c0,0.6,0.4,0.8,0.9,0.6c0.3-0.1,0.5-0.3,0.8-0.4
		c0.1,0,0.2,0,0.3,0c0,0.1,0,0.3-0.1,0.3c-0.6,0.3-1.1,0.7-1.7,0.8C42.2,46.4,41.8,46,41.9,44.8z"/>
	<path class="st6" d="M69,45.7c-0.1,0.6-0.2,1.2-0.4,1.8c-0.2,0.5-0.6,0.8-1.1,0.9c-0.4,0.1-0.7-0.1-0.8-0.3c-0.1-0.2-0.1-0.7,0-0.8
		c0.4-0.4,0.9-0.8,1.4-1.2c0.2-0.2,0.5-0.3,0.7-0.5C68.8,45.6,68.9,45.7,69,45.7z"/>
	<path class="st6" d="M39.3,43.9c0.2-0.4,0.3-0.9,0.5-1.3c0.1-0.1,0.4-0.2,0.5-0.2c0.1,0.2,0.2,0.4,0.2,0.6
		c-0.1,0.6-0.6,0.8-1.1,1.1C39.4,43.9,39.3,43.9,39.3,43.9z"/>
</g>
</svg>
