<?xml version="1.0" encoding="utf-8"?>
<!-- Generator: Adobe Illustrator 26.5.0, SVG Export Plug-In . SVG Version: 6.00 Build 0)  -->
<svg version="1.1" id="Layer_1" xmlns="http://www.w3.org/2000/svg" xmlns:xlink="http://www.w3.org/1999/xlink" x="0px" y="0px"
	 viewBox="0 0 120 64" style="enable-background:new 0 0 120 64;" xml:space="preserve">
<style type="text/css">
	.st0{display:none;fill-rule:evenodd;clip-rule:evenodd;fill:#B3B7BC;}
	.st1{display:none;}
	.st2{display:inline;fill:#FFFFFF;}
	.st3{display:inline;}
	.st4{display:inline;fill:#0B7B48;}
	.st5{fill:#D5A724;}
	.st6{display:inline;fill:#B3B7BC;}
	.st7{fill:#FFFFFF;}
	.st8{fill:#F86C00;}
	.st9{fill:#FECD01;}
	.st10{fill:#FECD00;}
	.st11{fill:#EF5300;}
	.st12{fill:#F05201;}
	.st13{fill:#F05301;}
	.st14{fill:#EE5301;}
	.st15{fill:#EF5301;}
	.st16{fill:#F27003;}
	.st17{fill:#F15301;}
	.st18{fill:#F17002;}
	.st19{fill:#EE7003;}
	.st20{fill:#F07003;}
	.st21{fill:#F36E01;}
	.st22{fill:#E57000;}
	.st23{fill:#ED7106;}
	.st24{fill:#E36C01;}
	.st25{fill:#ED750B;}
	.st26{fill:#E67006;}
	.st27{fill:#EE730C;}
	.st28{fill:#F17004;}
	.st29{fill:#EA7309;}
	.st30{fill:#EC7209;}
	.st31{fill:#F07105;}
	.st32{fill:#EC7005;}
	.st33{fill:#DA6A01;}
	.st34{fill:#F16F03;}
	.st35{fill:#EB7309;}
	.st36{fill:#F27002;}
	.st37{fill:#EB5701;}
	.st38{fill:#DC6B05;}
	.st39{fill:#EF7600;}
	.st40{fill:#E57608;}
	.st41{fill:#EF7106;}
	.st42{fill:#E7750C;}
	.st43{fill:#D86904;}
	.st44{fill:#E46F00;}
	.st45{fill:#ED7207;}
	.st46{fill:#DB8026;}
	.st47{fill:#EF7004;}
	.st48{fill:#E7770E;}
	.st49{fill:#E37812;}
	.st50{fill:#E8710D;}
	.st51{fill:#EE7209;}
	.st52{fill:#E06903;}
	.st53{fill:#EC760D;}
	.st54{fill:#ED7208;}
	.st55{fill:#E76900;}
	.st56{fill:#E87611;}
	.st57{fill:#E6760F;}
	.st58{fill:#ED8123;}
	.st59{fill:#E47817;}
	.st60{fill:#E47916;}
	.st61{fill:#DF7F2A;}
	.st62{fill:#EED558;}
	.st63{fill:#DE7E20;}
	.st64{fill:#E9750D;}
	.st65{fill:#DD7A1C;}
	.st66{fill:#CE6C0B;}
	.st67{fill:#E7750E;}
	.st68{fill:#DF8D34;}
	.st69{fill:#E77B17;}
	.st70{fill:#E48026;}
	.st71{fill:#E85E12;}
	.st72{fill:#E08428;}
	.st73{fill:#D36A00;}
	.st74{fill:#DE8128;}
	.st75{fill:#E57817;}
	.st76{fill:#E37E23;}
	.st77{fill:#E47F25;}
	.st78{fill:#D56100;}
	.st79{fill:#E07B23;}
	.st80{fill:#D26C00;}
	.st81{fill:#E5852A;}
	.st82{fill:#FCDD60;}
	.st83{fill:#E58634;}
	.st84{fill:#E7944F;}
	.st85{fill:#D2680A;}
	.st86{fill:#E37915;}
	.st87{fill:#E47E24;}
	.st88{fill:#CD9150;}
	.st89{fill:#E0592F;}
	.st90{fill:#D06300;}
	.st91{fill:#FC7200;}
	.st92{fill:#E96B00;}
	.st93{fill:#FE6700;}
	.st94{fill:#E76600;}
	.st95{fill:#EB7300;}
	.st96{fill:#FEFDFC;}
	.st97{fill:#EC7100;}
	.st98{fill:#FEFDFD;}
	.st99{fill:#DF5A00;}
	.st100{fill:#FEFEFD;}
	.st101{fill:#FEFEFE;}
	.st102{fill:#FDFBF9;}
</style>
<path class="st0" d="M12,0h10.1l5.6,38.6L33.2,0h69.3l-2.3,11.1H41.7l-8.9,50.7H22.7L12,0z"/>
<path class="st0" d="M104.3,47.5c0.3,6-3.1,15.2-10.7,15.2C84.9,62.6,83,51.8,83,47.3h7.1c0,2.6,2.2,5.2,3.8,5.2
	c1.6,0,3.3-2.1,3.3-3.4c0-1.4-0.5-3.4-3.1-5.2c-8.5-5.1-10.4-10.9-10.4-16c-0.3-6,2.6-14.9,10.1-14.9s9.6,10.5,9.6,14.9h-6.7
	c0-2.5-1.6-4.2-3.3-4.2c-1.6,0-2.7,1.6-2.7,3s0.3,2.6,2.9,4.4C97.1,32.7,104.3,38,104.3,47.5L104.3,47.5z M104.7,59.1
	c0.3,0,0.6,0.1,0.8,0.2c0.3,0.1,0.5,0.3,0.7,0.5s0.4,0.4,0.5,0.7s0.2,0.6,0.2,0.8c0,0.3-0.1,0.6-0.2,0.8c-0.1,0.3-0.3,0.5-0.5,0.7
	s-0.4,0.4-0.7,0.5c-0.3,0.1-0.6,0.2-0.8,0.2c-0.3,0-0.6-0.1-0.8-0.2c-0.3-0.1-0.5-0.3-0.7-0.5s-0.4-0.4-0.5-0.7s-0.2-0.6-0.2-0.8
	C102.5,60.1,103.5,59.1,104.7,59.1v-0.5c-1.5,0-2.7,1.2-2.7,2.7c0,0.4,0.1,0.7,0.2,1s0.3,0.6,0.6,0.9c0.3,0.3,0.6,0.5,0.9,0.6
	s0.7,0.2,1,0.2c1.5,0,2.7-1.2,2.7-2.7c0-0.7-0.3-1.4-0.8-1.9s-1.2-0.8-1.9-0.8C104.7,58.6,104.7,59.1,104.7,59.1z"/>
<path class="st0" d="M104.2,60.3h0.7c0.3,0,0.7,0,0.7,0.4s-0.2,0.4-0.6,0.4h-0.9v0.4h0.6l0.6,1.2h0.7l-0.7-1.2
	c0.5,0,0.8-0.3,0.8-0.8c0-0.3-0.1-0.6-0.3-0.8c-0.2-0.1-0.5-0.1-0.8-0.1h-1.4v2.9h0.6L104.2,60.3L104.2,60.3z M45.2,45.4L48,27.6
	l2.7,17.8H45.2z M43.6,55.4h8.5l1.1,6.4h13.5V36.4L75,61.8h7V14.5h-7.1v24.1L67,14.5h-7.4V59l-7.7-44.5H44l-8.2,47.3h7L43.6,55.4
	L43.6,55.4z"/>
<g class="st1">
	<path class="st2" d="M81.9,62.8c0,0.5,0,0.9,0,1.4c-16.9,0-33.9,0-50.8,0c0-21.3,0-42.7,0-64c16.9,0,33.9,0,50.8,0
		c0,20.8,0,41.6,0,62.4c-0.3,0-0.6,0-0.9,0c0-0.9,0-1.7,0-2.6c-0.2,0-0.3,0-0.4,0c0,1,0,2,0,3c0.4,0,0.8,0,1.2,0
		C81.8,63,81.9,62.9,81.9,62.8z M36.7,20c-0.1,10.6,8.5,19.7,19.6,19.8c11,0.1,19.9-8.8,19.9-19.7c0-11.2-9-19.7-19.5-19.8
		C45.6,0.1,36.6,9.2,36.7,20z M47,46L47,46c0.5,3.9,0.9,7.8,1.3,11.6c0.7,0,1.3,0,2,0c0-0.1,0-0.1,0-0.2c-0.1-1-0.2-2-0.2-3
		c-0.1-1.3-0.2-2.5-0.3-3.8c-0.1-1.5-0.2-3-0.4-4.5c-0.1-0.8-0.3-1.6-0.9-2.2c-0.7-0.8-1.6-0.9-2.5-0.3c-0.6,0.4-0.9,1-1.1,1.7
		c-0.7,2.5-1.4,5-2.1,7.6c-0.1,0.4-0.2,0.8-0.3,1.3c-0.1-0.1-0.1-0.2-0.1-0.3c-0.7-2.7-1.5-5.5-2.2-8.2c-0.2-0.7-0.5-1.3-1-1.8
		c-1-1-2.4-0.8-3.1,0.5c-0.1,0.2-0.2,0.4-0.2,0.6c-0.1,0.4-0.1,0.8-0.2,1.2c-0.1,1.3-0.3,2.6-0.4,3.8c-0.1,1.1-0.2,2.2-0.3,3.3
		c-0.1,1.4-0.3,2.8-0.4,4.3c0,0.1,0,0.1,0,0.2c0.6,0,1.3,0,1.9,0c0.2,0,0.2-0.1,0.2-0.2c0-0.3,0-0.5,0.1-0.8
		c0.2-1.8,0.4-3.5,0.5-5.3c0.2-1.6,0.3-3.2,0.5-4.8c0-0.2,0-0.4,0.1-0.6c0.1,0.1,0.1,0.1,0.1,0.2c0.8,3,1.6,6,2.5,8.9
		c0.2,0.6,0.4,1.1,0.8,1.6c0.6,0.7,1.4,0.8,2.1,0.3c0.6-0.4,1-1,1.2-1.7c0.6-2,1.1-4.1,1.7-6.1C46.4,48,46.7,47,47,46z M56,47.1
		L56,47.1c0.1,0.1,0.2,0.2,0.2,0.2c1.3,3,2.6,5.9,3.9,8.9c0.2,0.5,0.6,1,1.1,1.3c1.1,0.6,2.5,0.1,2.7-1.2c0.1-0.3,0-0.6,0-0.9
		c0-3.6,0-7.3,0-10.9c0-0.2,0-0.3,0-0.5c0-0.3,0-0.6,0-0.9c-0.8,0-1.5,0-2.3,0c0.1,3.8,0.1,7.5,0.2,11.3h-0.1
		c-0.2-0.4-0.4-0.9-0.6-1.3c-1.1-2.6-2.3-5.2-3.4-7.8c-0.3-0.7-0.7-1.4-1.4-1.8c-0.7-0.5-1.4-0.4-2,0.2c-0.4,0.5-0.7,1-0.7,1.7
		c0,4,0,7.9,0,11.9c0,0.1,0,0.2,0,0.3c0.7,0,1.4,0,2.2,0C56,54.1,56,50.6,56,47.1z M70.4,57.6c0-0.1,0-0.2,0-0.2c0-0.9,0-1.8,0-2.7
		c0-1.4,0-2.8,0-4.1c0-1,0-2,0-2.9c0-1.1,0.8-2.1,1.9-2.5s2.3-0.1,3,0.8c0.8,0.9,0.9,2,0.9,3.2c0,0.1-0.1,0.2-0.2,0.2
		c-1.6,0-3.3,0-4.9,0c-0.1,0-0.2,0-0.3,0c0,0.5,0,1,0,1.6c1.8,0,3.6,0,5.4,0c0,2.3,0,4.5,0,6.8c0.7,0,1.5,0,2.2,0c0-0.1,0-0.3,0-0.4
		c0-3,0-6.1,0-9.1c0-1.8-0.8-3.2-2.4-4.2c-2.5-1.5-5.7-1-7.1,1.7c-0.4,0.7-0.7,1.4-0.7,2.2c0,3.1,0,6.3,0,9.4c0,0.1,0,0.2,0,0.3
		C69,57.6,69.7,57.6,70.4,57.6z M77,62L77,62c-0.1-0.6-0.3-1.2-0.4-1.8c0-0.2-0.1-0.2-0.3-0.2c-0.2,0-0.3,0-0.5,0c0,1,0,2,0,3
		c0.1,0,0.3,0,0.4,0c0-0.8,0-1.6,0-2.3l0,0c0.1,0.8,0.3,1.6,0.4,2.3c0.2,0,0.3,0,0.5,0c0.1-0.8,0.3-1.6,0.4-2.4c0,0,0,0,0.1,0
		c0,0.8,0,1.6,0,2.3c0.1,0,0.3,0,0.4,0c0-1,0-2,0-2.9c-0.2,0-0.4,0-0.7,0C77.3,60.7,77.2,61.3,77,62z M74.4,60c-0.2,0-0.3,0-0.4,0
		c0,0.7,0,1.3,0,1.9c-0.2-0.5-0.4-1-0.5-1.6c-0.1-0.4-0.2-0.5-0.7-0.3c0,1,0,1.9,0,2.9c0.1,0,0.3,0,0.4,0c0-0.7,0-1.4,0-2
		c0.2,0.6,0.4,1.1,0.5,1.7c0.1,0.5,0.2,0.5,0.6,0.4C74.4,62,74.4,61,74.4,60z M69.2,60c0,0.7,0,1.3,0,1.9c-0.2-0.5-0.3-1-0.5-1.5
		C68.5,60,68.5,60,68,60c0,1,0,1.9,0,2.9c0.1,0,0.3,0,0.4,0c0-0.7,0-1.4,0-2.1l0,0c0.2,0.6,0.3,1.1,0.5,1.7c0.1,0.4,0.2,0.5,0.6,0.4
		c0-1,0-1.9,0-2.9C69.5,60,69.4,60,69.2,60z M36.5,63c0.1,0,0.3,0,0.4,0c0-0.7,0-1.4,0-2c0.2,0.6,0.4,1.1,0.5,1.7
		c0.1,0.5,0.2,0.5,0.6,0.4c0-1,0-1.9,0-2.9c-0.1,0-0.3,0-0.4,0c0,0.7,0,1.3,0,1.9c-0.2-0.5-0.4-1-0.5-1.6c-0.1-0.4-0.2-0.5-0.7-0.3
		C36.5,61,36.5,62,36.5,63z M54.8,63c0-0.7,0-1.4,0-2.1l0,0c0.2,0.7,0.4,1.4,0.6,2.1c0.2,0,0.4,0,0.5,0c0-1,0-2,0-2.9
		c-0.1,0-0.3,0-0.4,0c0,0.6,0,1.3,0,1.9c-0.1-0.1-0.1-0.2-0.1-0.2c-0.2-0.5-0.3-1-0.4-1.5c0-0.2-0.1-0.3-0.3-0.2c-0.1,0-0.2,0-0.3,0
		c0,1,0,2,0,3C54.6,63,54.7,63,54.8,63z M52.8,61.9C52.8,61.9,52.7,62,52.8,61.9c-0.2-0.6-0.4-1.1-0.6-1.7c0-0.2-0.1-0.2-0.3-0.2
		c-0.1,0-0.2,0-0.3,0c0,1,0,2,0,3c0.1,0,0.3,0,0.4,0c0-0.7,0-1.4,0-2.1l0,0c0.2,0.7,0.4,1.4,0.6,2.1c0.2,0,0.3,0,0.5,0
		c0-1,0-2,0-2.9c-0.1,0-0.3,0-0.4,0C52.8,60.7,52.8,61.3,52.8,61.9z M40.2,61.5L40.2,61.5c0-0.3,0-0.5,0-0.8c0-0.5-0.3-0.7-0.8-0.7
		s-0.8,0.2-0.9,0.7c0,0.6,0,1.2,0,1.8c0,0.4,0.3,0.7,0.8,0.6c0.5,0,0.8-0.2,0.8-0.7C40.2,62,40.2,61.8,40.2,61.5z M43.8,61.5
		c0-0.3,0-0.5,0-0.8c0-0.5-0.3-0.7-0.7-0.8c-0.5,0-0.9,0.2-0.9,0.7c0,0.6,0,1.1,0,1.7c0,0.5,0.3,0.7,0.8,0.7s0.8-0.3,0.8-0.7
		C43.8,62,43.8,61.8,43.8,61.5z M67.6,61.5L67.6,61.5c0-0.3,0-0.5,0-0.8c0-0.5-0.3-0.7-0.8-0.7s-0.8,0.2-0.9,0.7c0,0.6,0,1.1,0,1.7
		c0,0.5,0.3,0.7,0.8,0.7s0.8-0.2,0.8-0.7C67.6,62,67.6,61.8,67.6,61.5z M56.5,60c0,0.8,0,1.5,0,2.3c0,0.5,0.3,0.7,0.8,0.7
		s0.8-0.3,0.8-0.7c0-0.6,0-1.2,0-1.7c0-0.2,0-0.3,0-0.5c-0.2,0-0.3,0-0.5,0c0,0.1,0,0.2,0,0.3c0,0.6,0,1.3,0,1.9
		c0,0.2-0.1,0.4-0.3,0.4S57,62.6,57,62.3c0-0.5,0-0.9,0-1.4c0-0.3,0-0.6,0-0.9C56.8,60,56.7,60,56.5,60z M45.3,61.7
		c0,0.2,0,0.4,0,0.6c0,0.2-0.1,0.3-0.3,0.3s-0.3-0.2-0.3-0.4c0-0.3,0-0.6,0-0.9c0-0.3,0-0.5,0-0.8c0-0.2,0.1-0.3,0.3-0.3
		s0.3,0.1,0.3,0.3c0,0.1,0,0.1,0,0.2c0.2,0,0.3,0,0.4,0c0-0.5-0.1-0.8-0.6-0.8c-0.5-0.1-0.9,0.1-1,0.6c0,0.7,0,1.3,0,2
		c0,0.3,0.2,0.5,0.5,0.5c0.2,0,0.4-0.1,0.6-0.1c0.2,0,0.3,0.1,0.5,0.1c0-0.6,0-1.1,0-1.6c-0.3,0-0.5,0-0.8,0c0,0.1,0,0.2,0,0.3
		C45.1,61.7,45.2,61.7,45.3,61.7z M60.3,63c0.2,0,0.3,0,0.5,0c0-0.5,0-0.9,0-1.3c0.5,0,0.6,0,0.6,0.5c0,0.3,0,0.6,0,0.8
		c0.2,0,0.3,0,0.5,0c-0.2-0.5,0.2-1.1-0.3-1.5c0.3-0.2,0.3-0.6,0.3-0.9c0-0.3-0.2-0.4-0.4-0.5c-0.3,0-0.7,0-1.1,0
		C60.3,61,60.3,62,60.3,63z M47.1,63c0.5,0.1,0.5,0.1,0.5-0.4c0-0.2,0.1-0.3,0.1-0.5c0.1,0,0.1,0,0.2,0c0.3,0,0.4,0,0.4,0.3
		c0,0.2,0.1,0.3,0.1,0.5c0.2,0,0.3,0,0.5,0c-0.2-1-0.4-2-0.6-2.9c-0.2,0-0.5,0-0.7,0C47.4,61,47.2,62,47.1,63z M78.9,60
		c-0.2,1-0.4,2-0.6,2.9c0.5,0.1,0.5,0.1,0.5-0.3c0-0.2,0.1-0.3,0.1-0.5c0.1,0,0.2,0,0.2,0c0.3,0,0.4,0.1,0.4,0.3s0.1,0.4,0.1,0.5
		c0.2,0,0.3,0,0.5,0c-0.2-0.8-0.3-1.6-0.5-2.4C79.6,60,79.6,60,78.9,60z M71.2,60c-0.2,1-0.4,2-0.6,2.9c0.2,0,0.3,0,0.5,0
		c0.1-0.3,0.1-0.6,0.2-0.8c0.1,0,0.1,0,0.2,0c0.3,0,0.4,0.1,0.4,0.3s0.1,0.3,0.1,0.5c0.2,0,0.3,0,0.5,0c-0.2-1-0.4-2-0.6-2.9
		C71.7,60,71.5,60,71.2,60z M36.2,60.8c0-0.6-0.2-0.9-0.7-0.9c-0.6,0-0.8,0.2-0.8,0.8c0,0.5,0,1,0,1.6c0,0.5,0.4,0.8,0.9,0.7
		s0.7-0.4,0.6-0.9c-0.1,0-0.3,0-0.4,0c0,0.1,0,0.2,0,0.3c-0.1,0.1-0.2,0.2-0.3,0.2s-0.3-0.1-0.3-0.2c0-0.6,0-1.2,0-1.8
		c0-0.1,0.2-0.2,0.3-0.2s0.2,0.1,0.3,0.2c0,0.1,0,0.2,0,0.3C35.9,60.8,36,60.8,36.2,60.8z M64.2,62.1c0,0.1,0,0.2,0,0.2
		c0,0.2-0.1,0.3-0.3,0.3s-0.3-0.1-0.3-0.3c0-0.6,0-1.2,0-1.8c0-0.1,0.1-0.2,0.3-0.3c0.2,0,0.3,0.1,0.3,0.3c0,0.1,0,0.2,0,0.2
		c0.2,0,0.3,0,0.4,0c0-0.6-0.2-0.9-0.7-0.9c-0.6,0-0.8,0.2-0.8,0.8c0,0.5,0,1,0,1.5s0.3,0.8,0.9,0.7c0.5-0.1,0.7-0.4,0.6-0.9
		C64.5,62.1,64.3,62.1,64.2,62.1z M51.1,61.6c0-0.1,0-0.2,0-0.4c-0.3,0-0.5,0-0.7,0c0-0.3,0-0.6,0-0.9c0.3,0,0.5,0,0.8,0
		c0-0.1,0-0.2,0-0.3c-0.4,0-0.8,0-1.3,0c0,1,0,2,0,2.9c0.4,0,0.9,0,1.3,0c0-0.1,0-0.2,0-0.3c-0.3,0-0.6,0-0.9,0c0-0.4,0-0.7,0-1
		C50.6,61.6,50.9,61.6,51.1,61.6z M34.2,61.2c-0.3,0-0.5,0-0.8,0c0-0.3,0-0.6,0-0.9c0.3,0,0.5,0,0.8,0c0-0.1,0-0.2,0-0.3
		c-0.4,0-0.8,0-1.3,0c0,1,0,2,0,2.9c0.4,0,0.9,0,1.3,0c0-0.1,0-0.2,0.1-0.3c-0.3,0-0.6,0-0.9,0c0-0.4,0-0.7,0-1c0.3,0,0.5,0,0.7,0
		C34.2,61.5,34.2,61.4,34.2,61.2z M32.7,60c-0.6,0-1.1,0-1.6,0c0,0.1,0,0.2,0,0.3c0.2,0,0.4,0,0.6,0c0,0.9,0,1.7,0,2.6
		c0.2,0,0.3,0,0.5,0c0-0.9,0-1.7,0-2.6c0.2,0,0.4,0,0.5,0C32.7,60.2,32.7,60.1,32.7,60z M59.5,63c0-0.9,0-1.7,0-2.6
		c0.2,0,0.4,0,0.5,0c0-0.1,0-0.2,0-0.3c-0.5,0-1.1,0-1.6,0c0,0.1,0,0.2,0,0.4c0.2,0,0.4,0,0.6,0c0,0.9,0,1.7,0,2.6
		C59.2,63,59.3,63,59.5,63z M40.7,60c0,1,0,2,0,3c0.4,0,0.9,0,1.3,0c0-0.1,0-0.2,0-0.4c-0.3,0-0.6,0-0.9,0c0-0.9,0-1.7,0-2.6
		C41,60,40.8,60,40.7,60z M62.7,63c0-1,0-2,0-2.9c-0.2,0-0.3,0-0.4,0c0,1,0,2,0,2.9C62.4,63,62.6,63,62.7,63z M65,60c0,1,0,2,0,2.9
		c0.2,0,0.3,0,0.4,0c0-1,0-2,0-2.9C65.3,60,65.2,60,65,60z M46.7,63c0-1,0-2,0-2.9c-0.2,0-0.3,0-0.4,0c0,1,0,2,0,2.9
		C46.4,63,46.6,63,46.7,63z M75.4,63c0-1,0-2,0-3c-0.2,0-0.3,0-0.4,0c0,1,0,2,0,3C75.1,63,75.2,63,75.4,63z M47.3,59.4
		c-0.6-0.1-0.8,0.1-1,0.4C46.7,59.9,47,59.6,47.3,59.4z M66.5,59.8c0.4,0.1,0.7-0.2,1-0.4C67.1,59.2,66.8,59.4,66.5,59.8z"/>
	<path class="st3" d="M81.9,62.8c-0.1,0.1-0.1,0.2-0.2,0.2c-0.4,0-0.8,0-1.2,0c0-1,0-2,0-3c0.2,0,0.3,0,0.4,0c0,0.9,0,1.7,0,2.6
		c0.3,0,0.6,0,0.9,0C81.9,62.7,81.9,62.8,81.9,62.8z"/>
	<path class="st4" d="M36.7,20c-0.1-10.9,8.9-19.9,20-19.8C67.2,0.3,76.2,8.8,76.2,20c0,11-8.9,19.8-19.9,19.7
		C45.2,39.8,36.6,30.7,36.7,20z M56.7,10.2c0-0.1,0-0.1,0-0.1c-0.2-1.3-0.4-2.5-0.6-3.8C56,6.1,56,6.1,55.9,6
		c-1.4-0.9-2.8-1.7-4.1-2.6c-0.1-0.1-0.2-0.1-0.3,0c-1.3,1-2.5,2-3.8,3c-0.1,0.1-0.2,0.2-0.1,0.4c0.4,1.6,0.8,3.2,1.2,4.8
		c0,0.1,0.1,0.2,0.2,0.3c0.8,0.6,1.6,1.2,2.4,1.8c0.1,0.1,0.2,0.1,0.3,0c1.6-1.1,3.3-2.3,4.9-3.4C56.6,10.3,56.6,10.2,56.7,10.2z
		 M61.9,28.8c0,0,0.1,0.1,0.1,0.2c1.3,0.9,2.5,1.8,3.8,2.7c0.1,0.1,0.2,0.1,0.3,0.1c1-0.2,2-0.3,2.9-0.5c0.1,0,0.3-0.1,0.4-0.3
		c0.6-1.1,1.1-2.2,1.6-3.2c0.1-0.2,0.1-0.3,0-0.4c-0.4-0.6-0.8-1.2-1.2-1.8c-0.1-0.1-0.2-0.2-0.3-0.3c-1.4-0.6-2.8-1.2-4.3-1.8
		c-0.1-0.1-0.3-0.1-0.4,0c-0.6,0.2-1.2,0.5-1.8,0.7c-0.4,0.1-0.6,0.3-0.6,0.8c0,0.2,0,0.4-0.1,0.5C62.3,26.5,62.1,27.6,61.9,28.8z
		 M55.6,32.7c0,0.7,0,1.3,0,2c0,0.1,0.1,0.3,0.2,0.3c1.1,0.8,2.3,1.5,3.4,2.3c0.1,0,0.2,0.1,0.3,0c1.6-0.8,3.2-1.7,4.8-2.6
		c0.2-0.1,0.2-0.2,0.2-0.4c-0.1-0.4-0.1-0.8-0.1-1.3c0-0.3-0.1-0.4-0.4-0.6c-1.1-0.7-2.2-1.4-3.2-2c-0.2-0.1-0.3-0.3-0.3-0.5
		c0-0.6,0-1.2,0-1.7c0-0.2-0.1-0.3-0.3-0.3c-0.4,0-0.7,0-1.1,0c-0.2,0-0.4,0.1-0.6,0.2c-0.9,0.7-1.9,1.5-2.8,2.2
		c-0.1,0.1-0.2,0.2-0.2,0.4C55.6,31.5,55.6,32.1,55.6,32.7z M71.5,23.9c0.1-0.1,0.2-0.1,0.3-0.2c1-0.9,2.1-1.8,3.1-2.7
		c0.1-0.1,0.2-0.2,0.1-0.4c-0.5-1.3-1-2.6-1.5-3.9c0-0.1-0.2-0.2-0.3-0.2c-1.4-0.3-2.7-0.5-4.1-0.7c-0.1,0-0.3,0-0.4,0.1
		c-0.9,0.9-1.9,1.9-2.8,2.8c-0.1,0.1-0.2,0.2-0.1,0.4c0.5,1.2,1.1,2.3,1.6,3.5c0,0.1,0.2,0.2,0.3,0.2c0.9,0.3,1.8,0.6,2.7,0.9
		C70.8,23.7,71.1,23.8,71.5,23.9z M49.3,28c0-0.6,0-1.1,0-1.7c0-0.1-0.1-0.2-0.1-0.3c-0.9-0.7-1.9-1.3-2.8-2c-0.1,0-0.3,0-0.4,0
		c-1.2,0.4-2.4,0.9-3.6,1.3c-0.2,0.1-0.3,0.2-0.3,0.3c-0.3,1.2-0.6,2.4-0.9,3.6c-0.1,0.2,0,0.3,0.2,0.4c1.3,0.8,2.5,1.5,3.8,2.3
		c0.2,0.1,0.3,0.1,0.5,0c1.2-0.7,2.3-1.3,3.5-2c0.1-0.1,0.2-0.2,0.2-0.4C49.3,29.1,49.3,28.6,49.3,28z M56.5,3.7
		c0.4,0.4,0.7,0.7,1,1c0.1,0.1,0.1,0.2,0.2,0.3c0.1,0.6,0.1,1.3,0.2,1.9c0.1,1.5,0.2,3,0.4,4.5c0,0.2,0.1,0.3,0.3,0.3
		c1.1,0,2.3,0,3.4,0c0.2,0,0.3-0.1,0.4-0.2c0.7-1.2,1.4-2.4,2.2-3.6c0.1-0.2,0.1-0.3,0-0.5c-0.7-1.3-1.4-2.6-2-3.9
		c-0.1-0.2-0.3-0.3-0.5-0.3c-1,0.1-2,0.1-3,0.2C58.1,3.6,57.4,3.6,56.5,3.7z M48.2,17c0.5-0.9,1-1.7,1.5-2.5
		c0.1-0.2,0.1-0.3-0.1-0.5c-0.7-0.5-1.4-1.1-2.1-1.6c-0.2-0.1-0.3-0.3-0.4-0.5c-0.3-1-0.6-2-0.8-3c-0.1-0.2-0.2-0.3-0.4-0.3
		c-0.7,0-1.3,0-2,0c-0.2,0-0.4,0.1-0.5,0.3c-0.7,1.5-1.4,2.9-2.2,4.3c-0.1,0.2-0.1,0.3,0,0.5c0.3,0.6,0.6,1.3,0.9,1.9
		c0.1,0.2,0.2,0.3,0.4,0.3c1.3,0,2.6,0.1,3.9,0.1c0.4,0,0.7,0.1,0.9,0.3C47.7,16.6,47.9,16.8,48.2,17z M70.9,12.2c0-0.4,0-0.8,0-1.3
		c0-0.2-0.1-0.4-0.2-0.6c-0.6-0.7-1.3-1.5-1.9-2.2c-0.1-0.1-0.3-0.2-0.4-0.2c-0.6,0-1.2,0-1.9,0c-0.2,0-0.3,0.1-0.4,0.3
		c-0.8,1.5-1.5,3-2.3,4.5c-0.3,0.6-0.5,1.1-0.4,1.7c0,0.1,0.1,0.3,0.2,0.4c0.6,0.4,1.2,0.8,1.8,1.2c0.2,0.1,0.3,0.1,0.5,0
		c0.8-0.8,1.6-1.5,2.5-2.2c0.2-0.2,0.3-0.2,0.6-0.2c0.6,0.1,1.3,0.2,1.9,0.3c0.2,0,0.3,0,0.3-0.2C70.9,13.1,70.9,12.7,70.9,12.2z
		 M41.1,24.2c0.2-0.1,0.3-0.2,0.5-0.3c1.1-0.6,2.3-1.3,3.4-1.9c0.1-0.1,0.3-0.1,0.5-0.1c0.6,0.1,1.1,0.3,1.7,0.5
		c0.2,0.1,0.3,0,0.3-0.2c0.1-0.4,0.3-0.8,0.4-1.2c0-0.1,0-0.2,0-0.3c-0.7-1-1.4-2-2.1-3c-0.1-0.1-0.2-0.1-0.2-0.2
		c-1.2-0.1-2.5-0.2-3.7-0.2c-0.1,0-0.3,0.1-0.3,0.2c-0.8,1-1.5,1.9-2.2,2.9c-0.1,0.1-0.1,0.2,0,0.4c0.2,0.4,0.5,0.8,0.7,1.2
		C40.3,22.8,40.7,23.5,41.1,24.2z M48.3,33c0.1,0.1,0.1,0.2,0.2,0.3c0.5,0.7,0.9,1.3,1.4,2c0.1,0.2,0.3,0.3,0.5,0.3
		c1.2,0,2.4,0,3.7,0c0.4,0,0.4,0,0.4-0.4c0-1.7,0-3.3,0-5c0-0.2,0.1-0.4,0.3-0.5c0.3-0.2,0.6-0.4,1-0.6c0-0.1-0.1-0.1-0.1-0.2
		c-0.4-0.5-0.7-0.9-1.1-1.4c-0.1-0.1-0.2-0.1-0.4-0.2c-0.8,0-1.6,0-2.5,0c-0.4,0-0.5,0-0.5,0.4c-0.1,1.1-0.1,2.1-0.2,3.2
		c0,0.2-0.1,0.4-0.3,0.5C49.8,31.9,49.1,32.4,48.3,33z"/>
	<path class="st4" d="M47,46c-0.3,1-0.6,2.1-0.8,3.1c-0.6,2-1.1,4.1-1.7,6.1c-0.2,0.7-0.6,1.3-1.2,1.7c-0.7,0.5-1.5,0.4-2.1-0.3
		c-0.4-0.4-0.6-1-0.8-1.6c-0.8-3-1.6-6-2.5-8.9c0-0.1,0-0.1-0.1-0.2c0,0.2-0.1,0.4-0.1,0.6c-0.2,1.6-0.3,3.2-0.5,4.8
		c-0.2,1.8-0.4,3.5-0.5,5.3c0,0.3-0.1,0.5-0.1,0.8c0,0.1,0,0.2-0.2,0.2c-0.6,0-1.2,0-1.9,0c0-0.1,0-0.1,0-0.2
		c0.1-1.4,0.3-2.8,0.4-4.3c0.1-1.1,0.2-2.2,0.3-3.3c0.1-1.3,0.2-2.6,0.4-3.8c0-0.4,0.1-0.8,0.2-1.2c0-0.2,0.1-0.4,0.2-0.6
		c0.7-1.3,2.1-1.5,3.1-0.5c0.5,0.5,0.8,1.1,1,1.8c0.7,2.7,1.5,5.5,2.2,8.2c0,0.1,0.1,0.2,0.1,0.3c0.1-0.4,0.2-0.8,0.3-1.3
		c0.7-2.5,1.4-5,2.1-7.6c0.2-0.7,0.6-1.3,1.1-1.7c0.8-0.7,1.8-0.5,2.5,0.3c0.5,0.7,0.8,1.4,0.9,2.2c0.1,1.5,0.3,3,0.4,4.5
		c0.1,1.3,0.2,2.5,0.3,3.8c0.1,1,0.2,2,0.2,3c0,0,0,0.1,0,0.2c-0.7,0-1.3,0-2,0C47.8,53.7,47.4,49.8,47,46L47,46z"/>
	<path class="st4" d="M56,47.1c0,3.5,0,7,0,10.5c-0.8,0-1.5,0-2.2,0c0-0.1,0-0.2,0-0.3c0-4,0-7.9,0-11.9c0-0.7,0.2-1.2,0.7-1.7
		c0.6-0.6,1.3-0.6,2-0.2c0.6,0.5,1.1,1.1,1.4,1.8c1.1,2.6,2.3,5.2,3.4,7.8c0.2,0.4,0.4,0.9,0.6,1.3H62c-0.1-3.8-0.1-7.5-0.2-11.3
		c0.8,0,1.5,0,2.3,0c0,0.3,0,0.6,0,0.9c0,0.2,0,0.3,0,0.5c0,3.6,0,7.3,0,10.9c0,0.3,0,0.6,0,0.9c-0.3,1.2-1.6,1.8-2.7,1.2
		c-0.5-0.3-0.8-0.7-1.1-1.3c-1.3-3-2.6-5.9-3.9-8.9c0-0.1-0.1-0.2-0.1-0.2C56.1,47,56.1,47,56,47.1z"/>
	<path class="st4" d="M70.4,57.6c-0.7,0-1.4,0-2.1,0c0-0.1,0-0.2,0-0.3c0-3.1,0-6.3,0-9.4c0-0.8,0.3-1.5,0.7-2.2
		c1.5-2.7,4.6-3.2,7.1-1.7c1.5,0.9,2.4,2.3,2.4,4.2c0,3,0,6.1,0,9.1c0,0.1,0,0.2,0,0.4c-0.7,0-1.4,0-2.2,0c0-2.3,0-4.5,0-6.8
		c-1.8,0-3.6,0-5.4,0c0-0.6,0-1,0-1.6c0.1,0,0.2,0,0.3,0c1.6,0,3.3,0,4.9,0c0.1,0,0.2-0.1,0.2-0.2c0.1-1.2-0.1-2.3-0.9-3.2
		c-0.7-0.9-1.9-1.2-3-0.8s-1.9,1.4-1.9,2.5c0,1,0,2,0,2.9c0,1.4,0,2.8,0,4.1c0,0.9,0,1.8,0,2.7C70.4,57.4,70.4,57.5,70.4,57.6z"/>
	<path class="st3" d="M77,62c0.1-0.7,0.3-1.3,0.4-2c0.2,0,0.4,0,0.7,0c0,1,0,1.9,0,2.9c-0.1,0-0.2,0-0.4,0c0-0.8,0-1.6,0-2.3
		c0,0,0,0-0.1,0c-0.1,0.8-0.3,1.6-0.4,2.4c-0.1,0-0.3,0-0.5,0c-0.1-0.8-0.3-1.6-0.4-2.3l0,0c0,0.8,0,1.5,0,2.3c-0.1,0-0.3,0-0.4,0
		c0-1,0-2,0-3c0.2,0,0.3,0,0.5,0s0.2,0.1,0.3,0.2C76.7,60.8,76.9,61.4,77,62L77,62z"/>
	<path class="st3" d="M74.4,60c0,1,0,2,0,2.9c-0.5,0.1-0.5,0.1-0.6-0.4c-0.2-0.6-0.3-1.1-0.5-1.7c0,0.7,0,1.3,0,2
		c-0.1,0-0.3,0-0.4,0c0-1,0-1.9,0-2.9c0.4-0.1,0.5-0.1,0.7,0.3c0.2,0.5,0.3,1,0.5,1.6c0-0.6,0-1.3,0-1.9C74.1,60,74.2,60,74.4,60z"
		/>
	<path class="st3" d="M69.2,60c0.2,0,0.3,0,0.4,0c0,1,0,2,0,2.9C69.1,63,69.1,63,69,62.5c-0.2-0.6-0.3-1.1-0.5-1.7l0,0
		c0,0.7,0,1.4,0,2.1c-0.1,0-0.3,0-0.4,0c0-1,0-2,0-2.9c0.5-0.1,0.5-0.1,0.7,0.4s0.3,1,0.5,1.5C69.2,61.3,69.2,60.7,69.2,60z"/>
	<path class="st3" d="M36.5,63c0-1,0-1.9,0-2.9c0.4-0.1,0.5-0.1,0.7,0.3c0.2,0.5,0.3,1,0.5,1.6c0-0.6,0-1.3,0-1.9c0.1,0,0.3,0,0.4,0
		c0,1,0,1.9,0,2.9c-0.5,0.1-0.5,0.1-0.6-0.4c-0.2-0.6-0.3-1.1-0.5-1.7c0,0.7,0,1.3,0,2C36.8,63,36.7,63,36.5,63z"/>
	<path class="st3" d="M54.8,63c-0.2,0-0.3,0-0.4,0c0-1,0-2,0-3c0.1,0,0.2,0,0.3,0c0.2,0,0.3,0.1,0.3,0.2c0.1,0.5,0.3,1,0.4,1.5
		c0,0.1,0.1,0.2,0.1,0.2c0-0.6,0-1.3,0-1.9c0.1,0,0.3,0,0.4,0c0,1,0,2,0,2.9c-0.2,0-0.3,0-0.5,0c-0.2-0.7-0.4-1.4-0.6-2.1l0,0
		C54.8,61.6,54.8,62.3,54.8,63z"/>
	<path class="st3" d="M52.8,61.9c0-0.6,0-1.3,0-1.9c0.1,0,0.3,0,0.4,0c0,1,0,2,0,2.9c-0.2,0-0.3,0-0.5,0c-0.2-0.7-0.4-1.4-0.6-2.1
		l0,0c0,0.7,0,1.4,0,2.1c-0.1,0-0.3,0-0.4,0c0-1,0-1.9,0-3c0.1,0,0.2,0,0.3,0c0.2,0,0.3,0.1,0.3,0.2C52.4,60.8,52.5,61.4,52.8,61.9
		C52.7,62,52.8,61.9,52.8,61.9z"/>
	<path class="st3" d="M40.2,61.5c0,0.3,0,0.6,0,0.8c0,0.5-0.3,0.7-0.8,0.7s-0.8-0.2-0.8-0.6c0-0.6,0-1.2,0-1.8
		c0-0.5,0.4-0.7,0.9-0.7s0.7,0.3,0.8,0.7C40.2,60.9,40.2,61.2,40.2,61.5L40.2,61.5z M39.1,61.5L39.1,61.5c0,0.3,0,0.5,0,0.8
		c0,0.2,0.1,0.3,0.3,0.4c0.2,0,0.4-0.1,0.4-0.3c0-0.6,0-1.1,0-1.7c0-0.2-0.1-0.3-0.3-0.3s-0.3,0.1-0.3,0.4
		C39,61,39.1,61.2,39.1,61.5z"/>
	<path class="st3" d="M43.8,61.5c0,0.3,0,0.5,0,0.8c0,0.5-0.3,0.7-0.8,0.7s-0.8-0.2-0.8-0.7c0-0.6,0-1.1,0-1.7
		c0-0.5,0.3-0.7,0.9-0.7c0.5,0,0.7,0.3,0.7,0.8C43.8,61,43.8,61.2,43.8,61.5z M42.7,61.5c0,0.3,0,0.6,0,0.8s0.1,0.4,0.3,0.4
		s0.3-0.1,0.3-0.3c0-0.6,0-1.1,0-1.7c0-0.2-0.1-0.3-0.3-0.3s-0.3,0.1-0.3,0.4C42.7,60.9,42.7,61.2,42.7,61.5z"/>
	<path class="st3" d="M67.6,61.5c0,0.3,0,0.6,0,0.8c0,0.5-0.3,0.7-0.8,0.7S66,62.8,66,62.3c0-0.6,0-1.1,0-1.7c0-0.5,0.3-0.7,0.9-0.7
		c0.5,0,0.7,0.3,0.8,0.7C67.6,61,67.6,61.2,67.6,61.5L67.6,61.5z M66.4,61.5c0,0.3,0,0.5,0,0.8c0,0.2,0.1,0.4,0.3,0.4
		c0.2,0,0.3-0.1,0.3-0.3c0-0.5,0-1.1,0-1.6c0-0.2-0.1-0.3-0.4-0.3c-0.2,0-0.3,0.1-0.3,0.4C66.4,60.9,66.4,61.2,66.4,61.5z"/>
	<path class="st3" d="M56.5,60c0.2,0,0.3,0,0.5,0c0,0.3,0,0.6,0,0.9c0,0.5,0,0.9,0,1.4c0,0.2,0.1,0.4,0.3,0.4s0.3-0.2,0.3-0.4
		c0-0.6,0-1.3,0-1.9c0-0.1,0-0.2,0-0.3c0.2,0,0.3,0,0.5,0c0,0.2,0,0.3,0,0.5c0,0.6,0,1.2,0,1.7S57.8,63,57.3,63s-0.8-0.2-0.8-0.7
		C56.5,61.6,56.5,60.8,56.5,60z"/>
	<path class="st3" d="M45.3,61.7c-0.1,0-0.2,0-0.3,0c0-0.1,0-0.2,0-0.3c0.3,0,0.5,0,0.8,0c0,0.5,0,1.1,0,1.6c-0.2,0-0.3-0.1-0.5-0.1
		c-0.1,0-0.4,0.1-0.6,0.1c-0.3,0-0.5-0.2-0.5-0.5c0-0.7,0-1.3,0-2c0-0.4,0.4-0.6,1-0.6c0.4,0.1,0.6,0.3,0.6,0.8c-0.1,0-0.3,0-0.4,0
		c0-0.1,0-0.1,0-0.2c0-0.2-0.1-0.3-0.3-0.3s-0.3,0.1-0.3,0.3c0,0.3,0,0.5,0,0.8s0,0.6,0,0.9c0,0.2,0.1,0.4,0.3,0.4s0.3-0.1,0.3-0.3
		C45.3,62.1,45.3,61.9,45.3,61.7z"/>
	<path class="st3" d="M60.3,63c0-1,0-1.9,0-2.9c0.4,0,0.7,0,1.1,0c0.3,0,0.4,0.2,0.4,0.5s0.1,0.7-0.3,0.9c0.5,0.4,0.1,1,0.3,1.5
		c-0.2,0-0.3,0-0.5,0c0-0.3,0-0.6,0-0.8c0-0.5-0.1-0.5-0.6-0.5c0,0.4,0,0.9,0,1.3C60.6,63,60.5,63,60.3,63z M60.8,61.4
		c0.2-0.1,0.4-0.1,0.5-0.2c0.1-0.2,0.1-0.4,0-0.6c0-0.1-0.3-0.1-0.5-0.2C60.8,60.7,60.8,61,60.8,61.4z"/>
	<path class="st3" d="M47.1,63c0.2-1,0.4-2,0.6-2.9c0.2,0,0.4,0,0.7,0c0.2,1,0.4,1.9,0.6,2.9c-0.2,0-0.3,0-0.5,0
		c0-0.2-0.1-0.3-0.1-0.5c0-0.3-0.2-0.4-0.4-0.3c-0.1,0-0.1,0-0.2,0c0,0.2-0.1,0.3-0.1,0.5C47.5,63,47.5,63,47.1,63z M47.7,61.7
		c0.2,0,0.3,0,0.4,0c-0.1-0.4-0.1-0.8-0.2-1.2c0,0,0,0-0.1,0C47.9,60.9,47.8,61.3,47.7,61.7z"/>
	<path class="st3" d="M78.9,60c0.7-0.1,0.7-0.1,0.8,0.6c0.2,0.8,0.3,1.6,0.5,2.4c-0.2,0-0.3,0-0.5,0c0-0.2-0.1-0.3-0.1-0.5
		c0-0.3-0.1-0.4-0.4-0.3c-0.1,0-0.1,0-0.2,0c0,0.2-0.1,0.3-0.1,0.5C78.8,63,78.8,63,78.4,63C78.6,62,78.7,61,78.9,60z M79.1,61.7
		c0.1,0,0.3,0,0.4,0c-0.1-0.4-0.1-0.8-0.2-1.2l0,0C79.2,60.9,79.1,61.3,79.1,61.7z"/>
	<path class="st3" d="M71.2,60c0.2,0,0.4,0,0.7,0c0.2,1,0.4,2,0.6,2.9c-0.2,0-0.3,0-0.5,0c0-0.2-0.1-0.3-0.1-0.5
		c0-0.3-0.1-0.4-0.4-0.3c-0.1,0-0.1,0-0.2,0c-0.1,0.3-0.1,0.5-0.2,0.8c-0.2,0-0.3,0-0.5,0C70.8,62,71,61,71.2,60z M71.6,60.6
		L71.6,60.6c-0.1,0.4-0.2,0.8-0.2,1.2c0.2,0,0.3,0,0.4,0C71.7,61.3,71.7,60.9,71.6,60.6z"/>
	<path class="st3" d="M36.2,60.8c-0.2,0-0.3,0-0.4,0c0-0.1,0-0.2,0-0.3c-0.1-0.1-0.2-0.2-0.3-0.2s-0.2,0.1-0.3,0.2
		c0,0.6,0,1.2,0,1.8c0,0.1,0.2,0.2,0.3,0.2s0.2-0.1,0.3-0.2c0-0.1,0-0.2,0-0.3c0.2,0,0.3,0,0.4,0c0.1,0.5-0.1,0.8-0.6,0.9
		c-0.5,0.1-0.9-0.2-0.9-0.7s0-1,0-1.6s0.3-0.8,0.8-0.8C36,60,36.2,60.2,36.2,60.8z"/>
	<path class="st3" d="M64.2,62.1c0.2,0,0.3,0,0.4,0c0.1,0.5-0.1,0.9-0.6,0.9c-0.5,0.1-0.9-0.2-0.9-0.7s0-1,0-1.5
		c0-0.6,0.3-0.8,0.8-0.8c0.5,0,0.7,0.3,0.7,0.9c-0.1,0-0.3,0-0.4,0c0-0.1,0-0.2,0-0.2c0-0.2-0.1-0.3-0.3-0.3c-0.1,0-0.2,0.2-0.3,0.3
		c0,0.6,0,1.2,0,1.8c0,0.2,0.1,0.3,0.3,0.3s0.3-0.1,0.3-0.3S64.2,62.2,64.2,62.1z"/>
	<path class="st3" d="M51.1,61.6c-0.3,0-0.5,0-0.8,0c0,0.3,0,0.7,0,1c0.3,0,0.6,0,0.9,0c0,0.1,0,0.2,0,0.3c-0.4,0-0.8,0-1.3,0
		c0-1,0-1.9,0-2.9c0.4,0,0.8,0,1.3,0c0,0.1,0,0.2,0,0.3c-0.3,0-0.5,0-0.8,0c0,0.3,0,0.6,0,0.9c0.2,0,0.5,0,0.7,0
		C51.1,61.4,51.1,61.4,51.1,61.6z"/>
	<path class="st3" d="M34.2,61.2c0,0.1,0,0.2,0,0.4c-0.2,0-0.5,0-0.7,0c0,0.3,0,0.7,0,1c0.3,0,0.6,0,0.9,0c0,0.1,0,0.2-0.1,0.3
		c-0.4,0-0.9,0-1.3,0c0-1,0-2,0-2.9c0.4,0,0.8,0,1.3,0c0,0.1,0,0.2,0,0.3c-0.3,0-0.5,0-0.8,0c0,0.3,0,0.6,0,0.9
		C33.7,61.2,34,61.2,34.2,61.2z"/>
	<path class="st3" d="M32.7,60c0,0.1,0,0.2,0,0.3c-0.2,0-0.3,0-0.5,0c0,0.9,0,1.7,0,2.6c-0.2,0-0.3,0-0.5,0c0-0.8,0-1.7,0-2.6
		c-0.2,0-0.4,0-0.6,0c0-0.1,0-0.2,0-0.3C31.7,60,32.2,60,32.7,60z"/>
	<path class="st3" d="M59.5,63c-0.2,0-0.3,0-0.5,0c0-0.9,0-1.7,0-2.6c-0.2,0-0.4,0-0.6,0c0-0.1,0-0.2,0-0.4c0.5,0,1,0,1.6,0
		c0,0.1,0,0.2,0,0.3c-0.2,0-0.3,0-0.5,0C59.5,61.2,59.5,62.1,59.5,63z"/>
	<path class="st3" d="M40.7,60c0.2,0,0.3,0,0.4,0c0,0.9,0,1.7,0,2.6c0.3,0,0.6,0,0.9,0c0,0.1,0,0.2,0,0.4c-0.4,0-0.9,0-1.3,0
		C40.7,62,40.7,61,40.7,60z"/>
	<path class="st3" d="M62.7,63c-0.2,0-0.3,0-0.4,0c0-1,0-1.9,0-2.9c0.1,0,0.3,0,0.4,0C62.7,61,62.7,62,62.7,63z"/>
	<path class="st3" d="M65,60c0.2,0,0.3,0,0.4,0c0,1,0,2,0,2.9c-0.1,0-0.3,0-0.4,0C65,62,65,61,65,60z"/>
	<path class="st3" d="M46.7,63c-0.2,0-0.3,0-0.4,0c0-1,0-2,0-2.9c0.1,0,0.3,0,0.4,0C46.7,61,46.7,62,46.7,63z"/>
	<path class="st3" d="M75.4,63c-0.1,0-0.3,0-0.4,0c0-1,0-2,0-3c0.1,0,0.3,0,0.4,0C75.4,61,75.4,62,75.4,63z"/>
	<path class="st3" d="M47.3,59.4c-0.3,0.2-0.6,0.5-1,0.4C46.5,59.4,46.8,59.3,47.3,59.4z"/>
	<path class="st3" d="M66.5,59.8c0.3-0.3,0.5-0.5,1-0.4C67.2,59.6,67,59.9,66.5,59.8z"/>
	<g class="st3">
		<path class="st5" d="M56.7,10.2c0,0-0.1,0.1-0.2,0.2c-1.6,1.1-3.3,2.3-4.9,3.4c-0.1,0-0.2,0-0.3,0c-0.8-0.6-1.6-1.2-2.4-1.8
			c-0.1-0.1-0.2-0.2-0.2-0.3c-0.4-1.6-0.8-3.2-1.2-4.8c0-0.2,0-0.3,0.1-0.4c1.3-1,2.5-2,3.8-3c0.1-0.1,0.2-0.1,0.3,0
			c1.4,0.9,2.8,1.7,4.1,2.6c0.1,0,0.2,0.1,0.2,0.2c0.2,1.3,0.4,2.5,0.6,3.8C56.7,10.1,56.7,10.1,56.7,10.2z"/>
		<path class="st5" d="M61.9,28.8c0.2-1.2,0.3-2.3,0.5-3.4c0-0.2,0.1-0.4,0.1-0.5c0-0.4,0.2-0.6,0.6-0.8c0.6-0.2,1.2-0.5,1.8-0.7
			c0.1,0,0.3,0,0.4,0c1.4,0.6,2.8,1.2,4.3,1.8c0.1,0.1,0.2,0.2,0.3,0.3c0.4,0.6,0.8,1.2,1.2,1.8c0.1,0.2,0.1,0.3,0,0.4
			c-0.5,1.1-1.1,2.2-1.6,3.2c-0.1,0.1-0.2,0.2-0.4,0.3c-1,0.2-2,0.3-2.9,0.5c-0.1,0-0.2,0-0.3-0.1c-1.3-0.9-2.5-1.8-3.8-2.7
			C62,28.9,61.9,28.8,61.9,28.8z"/>
		<path class="st5" d="M55.6,32.7c0-0.6,0-1.3,0-1.9c0-0.1,0.1-0.3,0.2-0.4c0.9-0.8,1.8-1.5,2.8-2.2c0.1-0.1,0.4-0.2,0.6-0.2
			c0.4,0,0.7,0,1.1,0c0.2,0,0.3,0.1,0.3,0.3c0,0.6,0,1.2,0,1.7c0,0.2,0.1,0.4,0.3,0.5c1.1,0.7,2.2,1.4,3.2,2
			c0.2,0.1,0.4,0.3,0.4,0.6c0,0.4,0.1,0.9,0.1,1.3c0,0.2,0,0.3-0.2,0.4c-1.6,0.9-3.2,1.7-4.8,2.6c-0.1,0-0.2,0-0.3,0
			c-1.1-0.7-2.3-1.5-3.4-2.3c-0.1-0.1-0.2-0.2-0.2-0.3C55.6,34,55.6,33.4,55.6,32.7z"/>
		<path class="st5" d="M71.5,23.9c-0.4-0.1-0.7-0.2-1-0.3c-0.9-0.3-1.8-0.6-2.7-0.9c-0.1,0-0.2-0.1-0.3-0.2
			c-0.5-1.2-1.1-2.3-1.6-3.5c-0.1-0.2,0-0.3,0.1-0.4c0.9-0.9,1.9-1.9,2.8-2.8c0.1-0.1,0.3-0.1,0.4-0.1c1.4,0.2,2.7,0.5,4.1,0.7
			c0.1,0,0.3,0.1,0.3,0.2c0.5,1.3,1,2.6,1.5,3.9c0.1,0.2,0,0.3-0.1,0.4c-1,0.9-2.1,1.8-3.1,2.7C71.7,23.8,71.6,23.8,71.5,23.9z"/>
		<path class="st5" d="M49.3,28c0,0.5,0,1.1,0,1.6c0,0.2-0.1,0.3-0.2,0.4c-1.2,0.7-2.3,1.3-3.5,2c-0.2,0.1-0.3,0.1-0.5,0
			c-1.3-0.8-2.5-1.5-3.8-2.3c-0.2-0.1-0.3-0.2-0.2-0.4c0.3-1.2,0.6-2.4,0.9-3.6c0-0.2,0.1-0.3,0.3-0.3c1.2-0.4,2.4-0.9,3.6-1.3
			c0.1,0,0.3,0,0.4,0c0.9,0.7,1.9,1.3,2.8,2c0.1,0.1,0.1,0.2,0.1,0.3C49.3,26.9,49.3,27.5,49.3,28z"/>
		<path class="st5" d="M56.5,3.7c0.8-0.1,1.6-0.1,2.4-0.2c1-0.1,2-0.1,3-0.2c0.2,0,0.4,0,0.5,0.3c0.7,1.3,1.3,2.6,2,3.9
			c0.1,0.2,0.1,0.3,0,0.5c-0.7,1.2-1.4,2.4-2.2,3.6c-0.1,0.2-0.2,0.2-0.4,0.2c-1.1,0-2.3,0-3.4,0c-0.2,0-0.3-0.1-0.3-0.3
			c0-1.5-0.1-3-0.3-4.5c-0.1-0.6-0.1-1.3-0.2-1.9c0-0.1-0.1-0.3-0.2-0.3C57.2,4.4,56.9,4.1,56.5,3.7z"/>
		<path class="st5" d="M48.2,17c-0.3-0.2-0.6-0.4-0.8-0.6c-0.3-0.3-0.6-0.3-0.9-0.3c-1.3,0-2.6-0.1-3.9-0.1c-0.2,0-0.4-0.1-0.4-0.3
			c-0.3-0.6-0.6-1.3-0.9-1.9c-0.1-0.2-0.1-0.3,0-0.5c0.7-1.4,1.5-2.9,2.2-4.3c0.1-0.2,0.2-0.3,0.5-0.3c0.7,0,1.3,0,2,0
			c0.2,0,0.3,0.1,0.4,0.3c0.3,1,0.6,2,0.8,3c0.1,0.2,0.2,0.4,0.4,0.5c0.7,0.5,1.4,1.1,2.1,1.6c0.2,0.2,0.2,0.3,0.1,0.5
			C49.2,15.4,48.7,16.2,48.2,17z"/>
		<path class="st5" d="M70.9,12.2c0,0.5,0,0.9,0,1.4c0,0.2,0,0.3-0.3,0.2c-0.6-0.1-1.3-0.2-1.9-0.3c-0.2,0-0.4,0-0.6,0.2
			c-0.8,0.7-1.6,1.5-2.5,2.2c-0.2,0.1-0.3,0.2-0.5,0c-0.6-0.4-1.2-0.8-1.8-1.2c-0.1-0.1-0.2-0.2-0.2-0.4c-0.1-0.6,0.1-1.2,0.4-1.7
			c0.8-1.5,1.6-3,2.3-4.5c0.1-0.2,0.2-0.3,0.4-0.3c0.6,0,1.2,0,1.9,0c0.1,0,0.3,0.1,0.4,0.2c0.6,0.7,1.3,1.5,1.9,2.2
			c0.2,0.2,0.2,0.4,0.2,0.6C70.9,11.4,70.9,11.8,70.9,12.2z"/>
		<path class="st5" d="M41.1,24.2c-0.4-0.7-0.8-1.4-1.2-2.1c-0.2-0.4-0.5-0.8-0.7-1.2c-0.1-0.2-0.1-0.3,0-0.4c0.7-1,1.5-1.9,2.2-2.9
			c0.1-0.1,0.2-0.2,0.3-0.2c1.2,0.1,2.5,0.1,3.7,0.2c0.1,0,0.2,0.1,0.2,0.2c0.7,1,1.4,2,2.1,3c0.1,0.1,0.1,0.2,0,0.3
			c-0.1,0.4-0.3,0.8-0.4,1.2c-0.1,0.2-0.2,0.2-0.3,0.2c-0.6-0.2-1.1-0.3-1.7-0.5c-0.2,0-0.4,0-0.5,0.1c-1.1,0.6-2.3,1.3-3.4,1.9
			C41.4,24,41.3,24.1,41.1,24.2z"/>
		<path class="st5" d="M48.3,33c0.8-0.6,1.6-1.1,2.4-1.6c0.2-0.1,0.3-0.3,0.3-0.5c0.1-1.1,0.1-2.1,0.2-3.2c0-0.4,0-0.4,0.5-0.4
			c0.8,0,1.6,0,2.5,0c0.1,0,0.3,0.1,0.4,0.2c0.4,0.4,0.8,0.9,1.1,1.4c0,0,0.1,0.1,0.1,0.2c-0.3,0.2-0.6,0.4-1,0.6
			c-0.2,0.1-0.3,0.3-0.3,0.5c0,1.7,0,3.3,0,5c0,0.4,0,0.4-0.4,0.4c-1.2,0-2.4,0-3.7,0c-0.2,0-0.4-0.1-0.5-0.3
			c-0.4-0.7-0.9-1.3-1.4-2C48.4,33.2,48.3,33.1,48.3,33z"/>
	</g>
	<path class="st2" d="M39.1,61.5c0-0.3,0-0.5,0-0.8c0-0.2,0.1-0.4,0.3-0.4s0.3,0.1,0.3,0.3c0,0.6,0,1.1,0,1.7c0,0.2-0.1,0.3-0.4,0.3
		c-0.2,0-0.3-0.2-0.3-0.4C39,62,39.1,61.8,39.1,61.5L39.1,61.5z"/>
	<path class="st2" d="M42.7,61.5c0-0.3,0-0.5,0-0.8c0-0.2,0.1-0.4,0.3-0.4s0.3,0.1,0.3,0.3c0,0.6,0,1.1,0,1.7c0,0.2-0.1,0.3-0.3,0.3
		s-0.3-0.2-0.3-0.4C42.7,62,42.7,61.7,42.7,61.5z"/>
	<path class="st2" d="M66.4,61.5c0-0.3,0-0.5,0-0.8c0-0.2,0.1-0.3,0.3-0.4c0.2,0,0.3,0.1,0.4,0.3c0,0.5,0,1.1,0,1.6
		c0,0.2-0.1,0.4-0.3,0.3c-0.2,0-0.3-0.2-0.3-0.4C66.4,62,66.4,61.8,66.4,61.5z"/>
	<path class="st2" d="M60.8,61.4c0-0.4,0-0.7,0-1.1c0.2,0.1,0.4,0.1,0.5,0.2c0.1,0.2,0.1,0.4,0,0.6C61.2,61.2,61,61.3,60.8,61.4z"/>
	<path class="st2" d="M47.7,61.7c0.1-0.4,0.1-0.8,0.2-1.2c0,0,0,0,0.1,0c0.1,0.4,0.1,0.8,0.2,1.2C48,61.7,47.9,61.7,47.7,61.7z"/>
	<path class="st2" d="M79.1,61.7c0.1-0.4,0.1-0.8,0.2-1.2l0,0c0.1,0.4,0.1,0.8,0.2,1.2C79.3,61.7,79.2,61.7,79.1,61.7z"/>
	<path class="st2" d="M71.6,60.6c0.1,0.4,0.1,0.8,0.2,1.2c-0.1,0-0.3,0-0.4,0C71.4,61.3,71.5,60.9,71.6,60.6L71.6,60.6z"/>
</g>
<g class="st1">
	<path class="st6" d="M81.4,63c0,0.5,0,0.9,0,1.4c-16.9,0-33.8,0-50.8,0c0-21.3,0-42.6,0-63.9c16.9,0,33.8,0,50.8,0
		c0,20.8,0,41.6,0,62.3c-0.3,0-0.6,0-0.9,0c0-0.9,0-1.7,0-2.6c-0.2,0-0.3,0-0.4,0c0,1,0,2,0,3c0.4,0,0.8,0,1.2,0
		C81.3,63.1,81.4,63,81.4,63z M36.2,20.3c0,10.6,8.5,19.7,19.6,19.7c11,0.1,19.9-8.8,19.9-19.7c0-11.2-9-19.7-19.5-19.8
		C45.2,0.4,36.2,9.4,36.2,20.3z M46.5,46.1C46.6,46.1,46.6,46.1,46.5,46.1c0.5,3.9,0.9,7.7,1.3,11.6c0.7,0,1.3,0,2,0
		c0-0.1,0-0.1,0-0.2c-0.1-1-0.2-2-0.2-3c-0.1-1.3-0.2-2.5-0.3-3.8c-0.1-1.5-0.2-3-0.4-4.5c-0.1-0.8-0.3-1.6-0.9-2.2
		c-0.7-0.8-1.6-0.9-2.5-0.3c-0.6,0.4-0.9,1-1.1,1.7c-0.7,2.5-1.4,5-2.1,7.6c-0.1,0.4-0.2,0.8-0.3,1.2c-0.1-0.1-0.1-0.2-0.1-0.3
		c-0.7-2.7-1.4-5.5-2.2-8.2c-0.2-0.7-0.5-1.3-1-1.8c-1-1-2.4-0.8-3.1,0.5c-0.1,0.2-0.2,0.4-0.2,0.6c-0.1,0.4-0.1,0.8-0.2,1.2
		c-0.1,1.3-0.3,2.6-0.4,3.8c-0.1,1.1-0.2,2.2-0.3,3.3c-0.1,1.4-0.3,2.8-0.4,4.2c0,0.1,0,0.1,0,0.2c0.6,0,1.3,0,1.9,0
		c0.2,0,0.2-0.1,0.2-0.2c0-0.3,0-0.5,0.1-0.8c0.2-1.8,0.4-3.5,0.5-5.3c0.2-1.6,0.3-3.2,0.5-4.8c0-0.2,0-0.4,0.1-0.6
		c0.1,0.1,0.1,0.1,0.1,0.2c0.8,3,1.6,5.9,2.4,8.9c0.2,0.6,0.4,1.1,0.8,1.5c0.6,0.7,1.4,0.8,2.1,0.3c0.6-0.4,1-1,1.2-1.7
		c0.6-2,1.1-4.1,1.7-6.1C46,48.2,46.2,47.2,46.5,46.1z M55.6,47.2L55.6,47.2c0.1,0.1,0.2,0.2,0.2,0.2c1.3,3,2.6,5.9,3.9,8.9
		c0.2,0.5,0.6,1,1.1,1.3c1.1,0.6,2.5,0.1,2.7-1.2c0.1-0.3,0-0.6,0-0.9c0-3.6,0-7.2,0-10.9c0-0.2,0-0.3,0-0.5c0-0.3,0-0.6,0-0.9
		c-0.8,0-1.5,0-2.3,0c0.1,3.8,0.1,7.5,0.2,11.3h-0.1c-0.2-0.4-0.4-0.9-0.6-1.3c-1.1-2.6-2.3-5.2-3.4-7.8c-0.3-0.7-0.7-1.4-1.4-1.8
		c-0.7-0.5-1.4-0.4-2,0.2c-0.4,0.5-0.7,1-0.7,1.7c0,4,0,7.9,0,11.9c0,0.1,0,0.2,0,0.3c0.7,0,1.4,0,2.2,0
		C55.6,54.2,55.6,50.7,55.6,47.2z M69.9,57.8c0-0.1,0-0.2,0-0.2c0-0.9,0-1.8,0-2.7c0-1.4,0-2.8,0-4.1c0-1,0-2,0-2.9
		c0-1.1,0.8-2.1,1.9-2.5s2.3-0.1,3,0.8c0.8,0.9,0.9,2,0.9,3.2c0,0.1-0.1,0.2-0.2,0.2c-1.6,0-3.3,0-4.9,0c-0.1,0-0.2,0-0.3,0
		c0,0.5,0,1,0,1.6c1.8,0,3.5,0,5.3,0c0,2.3,0,4.5,0,6.8c0.7,0,1.5,0,2.2,0c0-0.1,0-0.3,0-0.4c0-3,0-6.1,0-9.1c0-1.8-0.8-3.2-2.4-4.2
		c-2.5-1.5-5.6-1-7.1,1.7c-0.4,0.7-0.7,1.4-0.7,2.2c0,3.1,0,6.3,0,9.4c0,0.1,0,0.2,0,0.3C68.5,57.8,69.2,57.8,69.9,57.8z M76.5,62.2
		L76.5,62.2c-0.1-0.6-0.3-1.2-0.4-1.8c0-0.2-0.1-0.2-0.3-0.2c-0.2,0-0.3,0-0.5,0c0,1,0,2,0,3c0.1,0,0.3,0,0.4,0c0-0.8,0-1.6,0-2.3
		l0,0c0.1,0.8,0.3,1.6,0.4,2.3c0.2,0,0.3,0,0.5,0c0.1-0.8,0.3-1.6,0.4-2.4c0,0,0,0,0.1,0c0,0.8,0,1.6,0,2.3c0.1,0,0.3,0,0.4,0
		c0-1,0-2,0-2.9c-0.2,0-0.4,0-0.7,0C76.8,60.8,76.7,61.5,76.5,62.2z M73.9,60.2c-0.2,0-0.3,0-0.4,0c0,0.7,0,1.3,0,1.9
		c-0.2-0.5-0.4-1-0.5-1.6c-0.1-0.4-0.2-0.5-0.7-0.3c0,1,0,1.9,0,2.9c0.1,0,0.3,0,0.4,0c0-0.7,0-1.4,0-2c0.2,0.6,0.4,1.1,0.5,1.7
		c0.1,0.5,0.2,0.5,0.6,0.4C73.9,62.1,73.9,61.2,73.9,60.2z M68.7,60.2c0,0.7,0,1.3,0,1.9c-0.2-0.5-0.3-1-0.5-1.5
		c-0.1-0.5-0.1-0.4-0.7-0.4c0,1,0,1.9,0,2.9c0.1,0,0.3,0,0.4,0c0-0.7,0-1.4,0-2l0,0c0.2,0.6,0.3,1.1,0.5,1.7
		c0.1,0.4,0.2,0.5,0.6,0.4c0-1,0-1.9,0-2.9C69,60.2,68.9,60.2,68.7,60.2z M36.1,63.1c0.1,0,0.3,0,0.4,0c0-0.7,0-1.4,0-2
		c0.2,0.6,0.4,1.1,0.5,1.7c0.1,0.5,0.2,0.5,0.6,0.4c0-1,0-1.9,0-2.9c-0.1,0-0.3,0-0.4,0c0,0.7,0,1.3,0,1.9c-0.2-0.5-0.4-1-0.5-1.6
		c-0.1-0.4-0.2-0.5-0.7-0.3C36.1,61.2,36.1,62.1,36.1,63.1z M54.4,63.1c0-0.7,0-1.4,0-2.1l0,0c0.2,0.7,0.4,1.4,0.6,2.1
		c0.2,0,0.3,0,0.5,0c0-1,0-2,0-2.9c-0.1,0-0.3,0-0.4,0c0,0.6,0,1.3,0,1.9C55,62,55,61.9,55,61.9c-0.1-0.5-0.3-1-0.4-1.5
		c0-0.2-0.1-0.3-0.3-0.2c-0.1,0-0.2,0-0.3,0c0,1,0,2,0,3C54.1,63.1,54.3,63.1,54.4,63.1z M52.3,62.1L52.3,62.1
		c-0.2-0.6-0.4-1.1-0.6-1.7c0-0.2-0.1-0.2-0.3-0.2c-0.1,0-0.2,0-0.3,0c0,1,0,2,0,3c0.1,0,0.3,0,0.4,0c0-0.7,0-1.4,0-2l0,0
		c0.2,0.7,0.4,1.4,0.6,2.1c0.2,0,0.3,0,0.5,0c0-1,0-2,0-2.9c-0.1,0-0.3,0-0.4,0C52.3,60.8,52.3,61.5,52.3,62.1z M39.8,61.6
		L39.8,61.6c0-0.3,0-0.5,0-0.8c0-0.5-0.3-0.7-0.8-0.7s-0.8,0.2-0.9,0.7c0,0.6,0,1.2,0,1.8c0,0.4,0.3,0.7,0.8,0.6
		c0.5,0,0.8-0.2,0.8-0.7C39.8,62.2,39.8,61.9,39.8,61.6z M43.4,61.7c0-0.3,0-0.5,0-0.8c0-0.5-0.3-0.7-0.7-0.8
		c-0.5,0-0.9,0.2-0.9,0.7c0,0.6,0,1.1,0,1.7c0,0.5,0.3,0.7,0.8,0.7s0.8-0.3,0.8-0.7C43.4,62.2,43.4,61.9,43.4,61.7z M67.1,61.6
		L67.1,61.6c0-0.3,0-0.5,0-0.8c0-0.5-0.3-0.7-0.8-0.7s-0.8,0.2-0.9,0.7c0,0.6,0,1.1,0,1.7c0,0.5,0.3,0.7,0.8,0.7S67,63,67,62.5
		C67.1,62.2,67.1,61.9,67.1,61.6z M56.1,60.2c0,0.8,0,1.5,0,2.3c0,0.5,0.3,0.7,0.8,0.7s0.8-0.3,0.8-0.7c0-0.6,0-1.2,0-1.7
		c0-0.2,0-0.3,0-0.5c-0.2,0-0.3,0-0.5,0c0,0.1,0,0.2,0,0.3c0,0.6,0,1.3,0,1.9c0,0.2-0.1,0.4-0.3,0.4s-0.3-0.1-0.3-0.4
		c0-0.5,0-0.9,0-1.4c0-0.3,0-0.6,0-0.9C56.4,60.2,56.2,60.2,56.1,60.2z M44.9,61.9c0,0.2,0,0.4,0,0.6c0,0.2-0.1,0.3-0.3,0.3
		s-0.3-0.2-0.3-0.4c0-0.3,0-0.6,0-0.9c0-0.3,0-0.5,0-0.8c0-0.2,0.1-0.3,0.3-0.3s0.3,0.1,0.3,0.3c0,0.1,0,0.1,0,0.2
		c0.2,0,0.3,0,0.4,0c0-0.5-0.1-0.8-0.6-0.8c-0.5-0.1-0.9,0.1-1,0.6c0,0.7,0,1.3,0,2c0,0.3,0.2,0.5,0.5,0.5c0.2,0,0.4-0.1,0.6-0.1
		c0.2,0,0.3,0.1,0.5,0.1c0-0.6,0-1.1,0-1.6c-0.3,0-0.5,0-0.8,0c0,0.1,0,0.2,0,0.3C44.7,61.8,44.8,61.8,44.9,61.9z M59.9,63.1
		c0.2,0,0.3,0,0.5,0c0-0.4,0-0.9,0-1.3c0.5,0,0.6,0,0.6,0.5c0,0.3,0,0.6,0,0.8c0.2,0,0.3,0,0.5,0c-0.2-0.5,0.2-1.1-0.3-1.5
		c0.3-0.2,0.3-0.6,0.3-0.9c0-0.3-0.2-0.4-0.4-0.5c-0.3,0-0.7,0-1.1,0C59.9,61.2,59.9,62.1,59.9,63.1z M46.6,63.1
		c0.5,0.1,0.5,0.1,0.5-0.4c0-0.2,0.1-0.3,0.1-0.5c0.1,0,0.1,0,0.2,0c0.3,0,0.4,0,0.4,0.3c0,0.2,0.1,0.3,0.1,0.5c0.2,0,0.3,0,0.5,0
		c-0.2-1-0.4-2-0.6-2.9c-0.2,0-0.5,0-0.7,0C47,61.2,46.8,62.1,46.6,63.1z M78.5,60.2c-0.2,1-0.4,2-0.6,2.9c0.5,0.1,0.5,0.1,0.5-0.3
		c0-0.2,0.1-0.3,0.1-0.5c0.1,0,0.2,0,0.2,0c0.3,0,0.4,0.1,0.4,0.3s0.1,0.4,0.1,0.5c0.2,0,0.3,0,0.5,0c-0.2-0.8-0.3-1.6-0.5-2.4
		C79.1,60.1,79.1,60.1,78.5,60.2z M70.8,60.2c-0.2,1-0.4,2-0.6,2.9c0.2,0,0.3,0,0.5,0c0.1-0.3,0.1-0.6,0.2-0.8c0.1,0,0.1,0,0.2,0
		c0.3,0,0.4,0.1,0.4,0.3s0.1,0.3,0.1,0.5c0.2,0,0.3,0,0.5,0c-0.2-1-0.4-2-0.6-2.9C71.2,60.2,71,60.2,70.8,60.2z M35.8,61
		c0-0.6-0.2-0.9-0.7-0.9c-0.6,0-0.8,0.2-0.8,0.8c0,0.5,0,1,0,1.6c0,0.5,0.4,0.8,0.9,0.7s0.7-0.4,0.6-0.9c-0.1,0-0.3,0-0.4,0
		c0,0.1,0,0.2,0,0.3c-0.1,0.1-0.2,0.2-0.3,0.2s-0.3-0.1-0.3-0.2c0-0.6,0-1.2,0-1.8c0-0.1,0.2-0.2,0.3-0.2s0.2,0.1,0.3,0.2
		c0,0.1,0,0.2,0,0.3C35.5,61,35.6,61,35.8,61z M63.7,62.3c0,0.1,0,0.2,0,0.2c0,0.2-0.1,0.3-0.3,0.3s-0.3-0.1-0.3-0.3
		c0-0.6,0-1.2,0-1.8c0-0.1,0.1-0.2,0.3-0.3c0.2,0,0.3,0.1,0.3,0.3c0,0.1,0,0.2,0,0.2c0.2,0,0.3,0,0.4,0c0-0.6-0.2-0.9-0.7-0.9
		c-0.6,0-0.8,0.2-0.8,0.8c0,0.5,0,1,0,1.5s0.3,0.8,0.9,0.7c0.5-0.1,0.7-0.4,0.6-0.9C64,62.3,63.9,62.3,63.7,62.3z M50.7,61.7
		c0-0.1,0-0.2,0-0.4c-0.3,0-0.5,0-0.7,0c0-0.3,0-0.6,0-0.9c0.3,0,0.5,0,0.8,0c0-0.1,0-0.2,0-0.3c-0.4,0-0.8,0-1.3,0c0,1,0,2,0,2.9
		c0.4,0,0.9,0,1.3,0c0-0.1,0-0.2,0-0.3c-0.3,0-0.6,0-0.9,0c0-0.4,0-0.7,0-1C50.2,61.7,50.4,61.7,50.7,61.7z M33.8,61.4
		c-0.3,0-0.5,0-0.8,0c0-0.3,0-0.6,0-0.9c0.3,0,0.5,0,0.8,0c0-0.1,0-0.2,0-0.3c-0.4,0-0.8,0-1.3,0c0,1,0,2,0,2.9c0.4,0,0.9,0,1.3,0
		c0-0.1,0-0.2,0.1-0.3c-0.3,0-0.6,0-0.9,0c0-0.4,0-0.7,0-1c0.3,0,0.5,0,0.7,0C33.8,61.6,33.8,61.5,33.8,61.4z M32.3,60.2
		c-0.6,0-1.1,0-1.6,0c0,0.1,0,0.2,0,0.3c0.2,0,0.4,0,0.6,0c0,0.9,0,1.7,0,2.6c0.2,0,0.3,0,0.5,0c0-0.9,0-1.7,0-2.6
		c0.2,0,0.4,0,0.5,0C32.3,60.4,32.3,60.3,32.3,60.2z M59,63.1c0-0.9,0-1.7,0-2.6c0.2,0,0.4,0,0.5,0c0-0.1,0-0.2,0-0.3
		c-0.5,0-1.1,0-1.6,0c0,0.1,0,0.2,0,0.3c0.2,0,0.4,0,0.6,0c0,0.9,0,1.7,0,2.6C58.7,63.1,58.9,63.1,59,63.1z M40.3,60.2
		c0,1,0,2,0,2.9c0.4,0,0.9,0,1.3,0c0-0.1,0-0.2,0-0.4c-0.3,0-0.6,0-0.9,0c0-0.9,0-1.7,0-2.6C40.6,60.2,40.4,60.2,40.3,60.2z
		 M62.3,63.1c0-1,0-2,0-2.9c-0.2,0-0.3,0-0.4,0c0,1,0,2,0,2.9C62,63.1,62.1,63.1,62.3,63.1z M64.6,60.2c0,1,0,2,0,2.9
		c0.2,0,0.3,0,0.4,0c0-1,0-2,0-2.9C64.8,60.2,64.7,60.2,64.6,60.2z M46.3,63.1c0-1,0-2,0-2.9c-0.2,0-0.3,0-0.4,0c0,1,0,2,0,2.9
		C46,63.1,46.1,63.1,46.3,63.1z M74.9,63.1c0-1,0-2,0-2.9c-0.2,0-0.3,0-0.4,0c0,1,0,2,0,2.9C74.6,63.1,74.8,63.1,74.9,63.1z
		 M46.9,59.5c-0.5-0.1-0.8,0.1-1,0.4C46.3,60,46.5,59.7,46.9,59.5z M66.1,59.9c0.4,0.1,0.7-0.2,1-0.4C66.6,59.4,66.3,59.6,66.1,59.9
		z"/>
	<path class="st6" d="M81.4,63c0,0.1-0.1,0.2-0.2,0.2c-0.4,0-0.8,0-1.2,0c0-1,0-2,0-3c0.2,0,0.3,0,0.4,0c0,0.9,0,1.7,0,2.6
		c0.3,0,0.6,0,0.9,0C81.4,62.9,81.4,62.9,81.4,63z"/>
	<path class="st6" d="M36.2,20.3c-0.1-10.9,8.9-19.9,20-19.7c10.5,0.1,19.5,8.6,19.5,19.8c0,10.9-8.9,19.8-19.9,19.7
		C44.7,40,36.2,30.9,36.2,20.3z M56.2,10.4c0-0.1,0-0.1,0-0.1C56,9,55.8,7.7,55.6,6.5c0-0.1-0.1-0.2-0.2-0.2
		c-1.4-0.9-2.8-1.7-4.1-2.6c-0.1-0.1-0.2-0.1-0.3,0c-1.3,1-2.5,2-3.8,3C47,6.8,47,6.9,47,7.1c0.4,1.6,0.8,3.2,1.2,4.8
		c0,0.1,0.1,0.2,0.2,0.3c0.8,0.6,1.6,1.2,2.4,1.8c0.1,0.1,0.2,0.1,0.3,0c1.6-1.1,3.3-2.3,4.9-3.4C56.1,10.5,56.2,10.4,56.2,10.4z
		 M61.5,29c0,0,0.1,0.1,0.1,0.2c1.3,0.9,2.5,1.8,3.8,2.7c0.1,0.1,0.2,0.1,0.3,0.1c1-0.2,2-0.3,2.9-0.5c0.1,0,0.3-0.1,0.4-0.3
		c0.6-1.1,1.1-2.2,1.6-3.2c0.1-0.2,0.1-0.3,0-0.4c-0.4-0.6-0.8-1.2-1.2-1.8c-0.1-0.1-0.2-0.2-0.3-0.3c-1.4-0.6-2.8-1.2-4.3-1.8
		c-0.1-0.1-0.3-0.1-0.4,0c-0.6,0.2-1.2,0.5-1.8,0.7c-0.3,0-0.6,0.2-0.6,0.6c0,0.2,0,0.3-0.1,0.5C61.8,26.7,61.6,27.8,61.5,29z
		 M55.2,32.9c0,0.7,0,1.3,0,2c0,0.1,0.1,0.3,0.2,0.3c1.1,0.8,2.3,1.5,3.4,2.3c0.1,0,0.2,0.1,0.3,0c1.6-0.8,3.2-1.7,4.8-2.6
		c0.2-0.1,0.2-0.2,0.2-0.4C64,34.2,64,33.7,64,33.3c0-0.3-0.1-0.4-0.4-0.6c-1.1-0.7-2.2-1.4-3.2-2c-0.2-0.1-0.3-0.3-0.3-0.5
		c0-0.6,0-1.2,0-1.7c0-0.2-0.1-0.3-0.3-0.3c-0.4,0-0.7,0-1.1,0c-0.2,0-0.4,0.1-0.5,0.2c-0.9,0.7-1.9,1.5-2.8,2.2
		c-0.1,0.1-0.2,0.2-0.2,0.4C55.2,31.7,55.2,32.3,55.2,32.9z M71.1,24.1c0.1-0.1,0.2-0.1,0.3-0.2c1-0.9,2.1-1.8,3.1-2.7
		c0.1-0.1,0.2-0.2,0.1-0.4c-0.5-1.3-1-2.6-1.5-3.9c0-0.1-0.2-0.2-0.3-0.2c-1.4-0.3-2.7-0.5-4.1-0.7c-0.1,0-0.3,0-0.4,0.1
		c-0.9,0.9-1.9,1.9-2.8,2.8c-0.1,0.1-0.2,0.2-0.1,0.4c0.5,1.2,1.1,2.3,1.6,3.5c0,0.1,0.2,0.2,0.3,0.2c0.9,0.3,1.8,0.6,2.7,0.9
		C70.4,23.9,70.7,24,71.1,24.1z M48.9,28.2c0-0.6,0-1.1,0-1.7c0-0.1-0.1-0.2-0.1-0.3c-0.9-0.7-1.9-1.3-2.8-2c-0.1-0.1-0.3-0.1-0.4,0
		c-1.2,0.4-2.4,0.9-3.6,1.3c-0.2,0.1-0.3,0.2-0.3,0.3c-0.3,1.2-0.6,2.4-0.9,3.6c-0.1,0.2,0,0.3,0.2,0.4c1.3,0.8,2.5,1.5,3.8,2.3
		c0.2,0.1,0.3,0.1,0.5,0c1.2-0.7,2.3-1.3,3.5-2c0.1-0.1,0.2-0.2,0.2-0.4C48.9,29.3,48.9,28.8,48.9,28.2z M56.1,4
		c0.4,0.4,0.7,0.7,1,1c0.1,0.1,0.1,0.2,0.2,0.3c0.1,0.6,0.1,1.3,0.2,1.9c0.1,1.5,0.2,3,0.4,4.5c0,0.2,0.1,0.3,0.3,0.3
		c1.1,0,2.3,0,3.4,0c0.2,0,0.3-0.1,0.4-0.2c0.7-1.2,1.4-2.4,2.2-3.6c0.1-0.2,0.1-0.3,0-0.5c-0.7-1.3-1.4-2.6-2-3.9
		c-0.1-0.2-0.3-0.3-0.5-0.3c-1,0.1-2,0.1-3,0.2C57.7,3.8,56.9,3.9,56.1,4z M47.8,17.3c0.5-0.9,1-1.7,1.5-2.5
		c0.1-0.2,0.1-0.3-0.1-0.5c-0.7-0.5-1.4-1.1-2.1-1.6c-0.2-0.1-0.3-0.3-0.4-0.5c-0.3-1-0.6-2-0.8-3c-0.1-0.2-0.2-0.3-0.4-0.3
		c-0.7,0-1.3,0-2,0c-0.2,0-0.4,0.1-0.5,0.3c-0.7,1.5-1.4,2.9-2.2,4.3c-0.1,0.2-0.1,0.3,0,0.5c0.3,0.6,0.6,1.3,0.9,1.9
		c0.1,0.2,0.2,0.3,0.4,0.3c1.3,0,2.6,0.1,3.8,0.1c0.4,0,0.7,0.1,0.9,0.3C47.2,16.8,47.5,17,47.8,17.3z M70.4,12.4c0-0.4,0-0.8,0-1.3
		c0-0.2-0.1-0.4-0.2-0.6c-0.6-0.7-1.3-1.5-1.9-2.2c-0.1-0.1-0.3-0.2-0.4-0.2c-0.6,0-1.2,0-1.9,0c-0.2,0-0.3,0.1-0.4,0.3
		c-0.8,1.5-1.5,3-2.3,4.5c-0.3,0.6-0.5,1.1-0.4,1.7c0,0.1,0.1,0.3,0.2,0.4c0.6,0.4,1.2,0.8,1.8,1.2c0.2,0.1,0.3,0.1,0.5,0
		c0.8-0.7,1.6-1.5,2.5-2.2c0.2-0.2,0.3-0.2,0.6-0.2c0.6,0.1,1.3,0.2,1.9,0.3c0.2,0,0.3,0,0.3-0.2C70.4,13.4,70.4,12.9,70.4,12.4z
		 M40.7,24.4c0.2-0.1,0.3-0.2,0.5-0.3c1.1-0.6,2.3-1.3,3.4-1.9c0.1-0.1,0.3-0.1,0.5-0.1c0.6,0.1,1.1,0.3,1.7,0.5
		c0.2,0.1,0.3,0,0.3-0.2c0.1-0.4,0.3-0.8,0.4-1.2c0-0.1,0-0.2,0-0.3c-0.7-1-1.4-2-2.1-3c-0.1-0.1-0.2-0.1-0.2-0.2
		c-1.2-0.1-2.5-0.2-3.7-0.2c-0.1,0-0.3,0.1-0.3,0.2c-0.8,1-1.5,1.9-2.2,2.9c-0.1,0.1-0.1,0.2,0,0.4c0.2,0.4,0.5,0.8,0.7,1.2
		C39.9,23,40.3,23.7,40.7,24.4z M47.8,33.2c0.1,0.1,0.1,0.2,0.2,0.3c0.5,0.6,0.9,1.3,1.4,1.9c0.1,0.2,0.3,0.3,0.5,0.3
		c1.2,0,2.4,0,3.7,0c0.4,0,0.4,0,0.4-0.4c0-1.6,0-3.3,0-4.9c0-0.2,0.1-0.4,0.3-0.5c0.3-0.2,0.6-0.4,1-0.6c0-0.1-0.1-0.1-0.1-0.2
		c-0.4-0.5-0.7-0.9-1.1-1.4c-0.1-0.1-0.2-0.1-0.4-0.2c-0.8,0-1.6,0-2.5,0c-0.4,0-0.4,0-0.5,0.4c-0.1,1-0.1,2.1-0.2,3.1
		c0,0.2-0.1,0.4-0.3,0.5C49.4,32.1,48.6,32.6,47.8,33.2z"/>
	<path class="st6" d="M46.5,46.1c-0.3,1-0.6,2.1-0.8,3.1c-0.6,2-1.1,4.1-1.7,6.1c-0.2,0.7-0.6,1.3-1.2,1.7c-0.7,0.5-1.5,0.4-2.1-0.3
		c-0.4-0.4-0.6-1-0.8-1.5c-0.8-3-1.6-5.9-2.4-8.9c0-0.1,0-0.1-0.1-0.2c0,0.2-0.1,0.4-0.1,0.6c-0.2,1.6-0.3,3.2-0.5,4.8
		c-0.2,1.8-0.4,3.5-0.5,5.3c0,0.3-0.1,0.5-0.1,0.8c0,0.1,0,0.2-0.2,0.2c-0.6,0-1.2,0-1.9,0c0-0.1,0-0.1,0-0.2
		c0.1-1.4,0.3-2.8,0.4-4.2c0.1-1.1,0.2-2.2,0.3-3.3c0.1-1.3,0.2-2.6,0.4-3.8c0-0.4,0.1-0.8,0.2-1.2c0-0.2,0.1-0.4,0.2-0.6
		c0.7-1.3,2.1-1.5,3.1-0.5c0.5,0.5,0.8,1.1,1,1.8c0.7,2.7,1.5,5.5,2.2,8.2c0,0.1,0.1,0.2,0.1,0.3c0.1-0.4,0.2-0.8,0.3-1.2
		c0.7-2.5,1.4-5,2.1-7.6c0.2-0.7,0.6-1.3,1.1-1.7c0.8-0.7,1.8-0.5,2.5,0.3c0.5,0.7,0.8,1.4,0.9,2.2c0.1,1.5,0.2,3,0.4,4.5
		c0.1,1.3,0.2,2.5,0.3,3.8c0.1,1,0.2,2,0.2,3c0,0,0,0.1,0,0.2c-0.7,0-1.3,0-2,0C47.4,53.9,47,50,46.5,46.1
		C46.6,46.1,46.6,46.1,46.5,46.1z"/>
	<path class="st6" d="M55.6,47.2c0,3.5,0,7,0,10.5c-0.8,0-1.5,0-2.2,0c0-0.1,0-0.2,0-0.3c0-4,0-7.9,0-11.9c0-0.6,0.2-1.2,0.7-1.7
		c0.6-0.6,1.3-0.6,2-0.2c0.6,0.5,1.1,1.1,1.4,1.8c1.1,2.6,2.3,5.2,3.4,7.8c0.2,0.4,0.4,0.9,0.6,1.3h0.1c-0.1-3.8-0.1-7.5-0.2-11.3
		c0.8,0,1.5,0,2.3,0c0,0.3,0,0.6,0,0.9c0,0.2,0,0.3,0,0.5c0,3.6,0,7.2,0,10.9c0,0.3,0,0.6,0,0.9c-0.3,1.2-1.6,1.8-2.7,1.2
		c-0.5-0.3-0.8-0.7-1.1-1.3c-1.3-3-2.6-5.9-3.9-8.9c0-0.1-0.1-0.2-0.1-0.2C55.7,47.2,55.6,47.2,55.6,47.2z"/>
	<path class="st6" d="M69.9,57.8c-0.7,0-1.4,0-2.1,0c0-0.1,0-0.2,0-0.3c0-3.1,0-6.3,0-9.4c0-0.8,0.3-1.5,0.7-2.2
		c1.5-2.7,4.6-3.2,7.1-1.7c1.5,0.9,2.4,2.3,2.4,4.2c0,3,0,6.1,0,9.1c0,0.1,0,0.2,0,0.4c-0.7,0-1.4,0-2.2,0c0-2.2,0-4.5,0-6.8
		c-1.8,0-3.6,0-5.3,0c0-0.6,0-1,0-1.6c0.1,0,0.2,0,0.3,0c1.6,0,3.3,0,4.9,0c0.1,0,0.2-0.1,0.2-0.2c0.1-1.2-0.1-2.3-0.9-3.2
		c-0.7-0.9-1.9-1.2-3-0.8s-1.9,1.4-1.9,2.5c0,1,0,2,0,2.9c0,1.4,0,2.8,0,4.1c0,0.9,0,1.8,0,2.7C69.9,57.6,69.9,57.7,69.9,57.8z"/>
	<path class="st6" d="M76.5,62.2c0.1-0.7,0.3-1.3,0.4-2c0.2,0,0.4,0,0.7,0c0,1,0,1.9,0,2.9c-0.1,0-0.2,0-0.4,0c0-0.8,0-1.6,0-2.3
		c0,0,0,0-0.1,0c-0.1,0.8-0.3,1.6-0.4,2.4c-0.1,0-0.3,0-0.5,0c-0.1-0.8-0.3-1.6-0.4-2.3l0,0c0,0.8,0,1.5,0,2.3c-0.1,0-0.3,0-0.4,0
		c0-1,0-2,0-3c0.2,0,0.3,0,0.5,0s0.2,0.1,0.3,0.2C76.3,61,76.4,61.6,76.5,62.2L76.5,62.2z"/>
	<path class="st6" d="M73.9,60.2c0,1,0,1.9,0,2.9c-0.5,0.1-0.5,0.1-0.6-0.4c-0.2-0.6-0.3-1.1-0.5-1.7c0,0.7,0,1.3,0,2
		c-0.1,0-0.3,0-0.4,0c0-1,0-1.9,0-2.9c0.4-0.1,0.5-0.1,0.7,0.3c0.2,0.5,0.3,1,0.5,1.6c0-0.6,0-1.3,0-1.9
		C73.6,60.2,73.8,60.2,73.9,60.2z"/>
	<path class="st6" d="M68.7,60.2c0.2,0,0.3,0,0.4,0c0,1,0,1.9,0,2.9c-0.5,0.1-0.5,0.1-0.6-0.4c-0.2-0.6-0.3-1.1-0.5-1.7l0,0
		c0,0.7,0,1.4,0,2c-0.1,0-0.3,0-0.4,0c0-1,0-2,0-2.9c0.5-0.1,0.5-0.1,0.7,0.4s0.3,1,0.5,1.5C68.7,61.5,68.7,60.8,68.7,60.2z"/>
	<path class="st6" d="M36.1,63.1c0-1,0-1.9,0-2.9c0.4-0.1,0.5-0.1,0.7,0.3c0.2,0.5,0.3,1,0.5,1.6c0-0.6,0-1.3,0-1.9
		c0.1,0,0.3,0,0.4,0c0,1,0,1.9,0,2.9c-0.5,0.1-0.5,0.1-0.6-0.4c-0.2-0.6-0.3-1.1-0.5-1.7c0,0.7,0,1.3,0,2
		C36.4,63.1,36.3,63.1,36.1,63.1z"/>
	<path class="st6" d="M54.4,63.1c-0.2,0-0.3,0-0.4,0c0-1,0-2,0-3c0.1,0,0.2,0,0.3,0c0.2,0,0.3,0.1,0.3,0.2c0.1,0.5,0.3,1,0.4,1.5
		c0,0.1,0.1,0.2,0.1,0.2c0-0.6,0-1.3,0-1.9c0.1,0,0.3,0,0.4,0c0,1,0,2,0,2.9c-0.2,0-0.3,0-0.5,0c-0.2-0.7-0.4-1.4-0.6-2.1l0,0
		C54.4,61.7,54.4,62.4,54.4,63.1z"/>
	<path class="st6" d="M52.3,62.1c0-0.6,0-1.3,0-1.9c0.1,0,0.3,0,0.4,0c0,1,0,2,0,2.9c-0.2,0-0.3,0-0.5,0c-0.2-0.7-0.4-1.4-0.6-2.1
		l0,0c0,0.7,0,1.4,0,2c-0.1,0-0.3,0-0.4,0c0-1,0-1.9,0-3c0.1,0,0.2,0,0.3,0c0.2,0,0.3,0.1,0.3,0.2C51.9,61,52.1,61.5,52.3,62.1
		L52.3,62.1z"/>
	<path class="st6" d="M39.8,61.6c0,0.3,0,0.6,0,0.8c0,0.5-0.3,0.7-0.8,0.7s-0.8-0.2-0.8-0.6c0-0.6,0-1.2,0-1.8
		c0-0.5,0.4-0.7,0.9-0.7s0.7,0.3,0.8,0.7C39.8,61.1,39.8,61.4,39.8,61.6L39.8,61.6z M38.6,61.6L38.6,61.6c0,0.3,0,0.5,0,0.8
		c0,0.2,0.1,0.3,0.3,0.4c0.2,0,0.4-0.1,0.4-0.3c0-0.6,0-1.1,0-1.7c0-0.2-0.1-0.3-0.3-0.3s-0.3,0.1-0.3,0.4
		C38.6,61.1,38.6,61.4,38.6,61.6z"/>
	<path class="st6" d="M43.4,61.7c0,0.3,0,0.5,0,0.8c0,0.5-0.3,0.7-0.8,0.7s-0.8-0.2-0.8-0.7c0-0.6,0-1.1,0-1.7
		c0-0.5,0.3-0.7,0.9-0.7c0.5,0,0.7,0.3,0.7,0.8C43.4,61.1,43.4,61.4,43.4,61.7z M42.3,61.6c0,0.3,0,0.6,0,0.8s0.1,0.4,0.3,0.4
		s0.3-0.1,0.3-0.3c0-0.6,0-1.1,0-1.7c0-0.2-0.1-0.3-0.3-0.3s-0.3,0.1-0.3,0.4C42.3,61.1,42.3,61.4,42.3,61.6z"/>
	<path class="st6" d="M67.1,61.6c0,0.3,0,0.6,0,0.8c0,0.5-0.3,0.7-0.8,0.7s-0.8-0.2-0.8-0.7c0-0.6,0-1.1,0-1.7
		c0-0.5,0.3-0.7,0.9-0.7c0.5,0,0.7,0.3,0.8,0.7C67.1,61.1,67.1,61.4,67.1,61.6L67.1,61.6z M65.9,61.6c0,0.3,0,0.5,0,0.8
		c0,0.2,0.1,0.4,0.3,0.4c0.2,0,0.3-0.1,0.3-0.3c0-0.5,0-1.1,0-1.6c0-0.2-0.1-0.3-0.4-0.3c-0.2,0-0.3,0.1-0.3,0.4
		C65.9,61.1,65.9,61.4,65.9,61.6z"/>
	<path class="st6" d="M56.1,60.2c0.2,0,0.3,0,0.5,0c0,0.3,0,0.6,0,0.9c0,0.5,0,0.9,0,1.4c0,0.2,0.1,0.4,0.3,0.4s0.3-0.2,0.3-0.4
		c0-0.6,0-1.3,0-1.9c0-0.1,0-0.2,0-0.3c0.2,0,0.3,0,0.5,0c0,0.2,0,0.3,0,0.5c0,0.6,0,1.2,0,1.7s-0.3,0.7-0.8,0.7s-0.8-0.2-0.8-0.7
		C56.1,61.7,56.1,61,56.1,60.2z"/>
	<path class="st6" d="M44.9,61.9c-0.1,0-0.2,0-0.3,0c0-0.1,0-0.2,0-0.3c0.3,0,0.5,0,0.8,0c0,0.5,0,1.1,0,1.6c-0.2,0-0.3-0.1-0.5-0.1
		c-0.1,0-0.4,0.1-0.6,0.1c-0.3,0-0.5-0.2-0.5-0.5c0-0.7,0-1.3,0-2c0-0.4,0.4-0.6,1-0.6c0.4,0.1,0.6,0.3,0.6,0.8c-0.1,0-0.3,0-0.4,0
		c0-0.1,0-0.1,0-0.2c0-0.2-0.1-0.3-0.3-0.3s-0.3,0.1-0.3,0.3c0,0.3,0,0.5,0,0.8s0,0.6,0,0.9c0,0.2,0.1,0.4,0.3,0.4s0.3-0.1,0.3-0.3
		C44.9,62.3,44.9,62.1,44.9,61.9z"/>
	<path class="st6" d="M59.9,63.1c0-1,0-1.9,0-2.9c0.4,0,0.7,0,1.1,0c0.3,0,0.4,0.2,0.4,0.5s0.1,0.7-0.3,0.9c0.5,0.4,0.1,1,0.3,1.5
		c-0.2,0-0.3,0-0.5,0c0-0.3,0-0.6,0-0.8c0-0.5-0.1-0.5-0.6-0.5c0,0.4,0,0.9,0,1.3C60.2,63.1,60,63.1,59.9,63.1z M60.3,61.5
		c0.2-0.1,0.4-0.1,0.5-0.2c0.1-0.2,0.1-0.4,0-0.6c0-0.1-0.3-0.1-0.5-0.2C60.3,60.8,60.3,61.1,60.3,61.5z"/>
	<path class="st6" d="M46.6,63.1c0.2-1,0.4-1.9,0.6-2.9c0.2,0,0.4,0,0.7,0c0.2,1,0.4,1.9,0.6,2.9c-0.2,0-0.3,0-0.5,0
		c0-0.2-0.1-0.3-0.1-0.5c0-0.3-0.2-0.4-0.4-0.3c-0.1,0-0.1,0-0.2,0c0,0.2-0.1,0.3-0.1,0.5C47.1,63.2,47.1,63.2,46.6,63.1z
		 M47.3,61.9c0.2,0,0.3,0,0.4,0c-0.1-0.4-0.1-0.8-0.2-1.2c0,0,0,0-0.1,0C47.4,61.1,47.4,61.5,47.3,61.9z"/>
	<path class="st6" d="M78.5,60.2c0.7-0.1,0.7-0.1,0.8,0.6c0.2,0.8,0.3,1.6,0.5,2.4c-0.2,0-0.3,0-0.5,0c0-0.2-0.1-0.3-0.1-0.5
		c0-0.3-0.1-0.4-0.4-0.3c-0.1,0-0.1,0-0.2,0c0,0.2-0.1,0.3-0.1,0.5c-0.1,0.4-0.1,0.4-0.5,0.3C78.1,62.1,78.3,61.2,78.5,60.2z
		 M78.6,61.9c0.1,0,0.3,0,0.4,0c-0.1-0.4-0.1-0.8-0.2-1.2l0,0C78.7,61.1,78.7,61.5,78.6,61.9z"/>
	<path class="st6" d="M70.8,60.2c0.2,0,0.4,0,0.7,0c0.2,1,0.4,1.9,0.6,2.9c-0.2,0-0.3,0-0.5,0c0-0.2-0.1-0.3-0.1-0.5
		c0-0.3-0.1-0.4-0.4-0.3c-0.1,0-0.1,0-0.2,0c-0.1,0.3-0.1,0.5-0.2,0.8c-0.2,0-0.3,0-0.5,0C70.4,62.1,70.6,61.2,70.8,60.2z
		 M71.1,60.7L71.1,60.7c-0.1,0.4-0.2,0.8-0.2,1.2c0.2,0,0.3,0,0.4,0C71.2,61.5,71.2,61.1,71.1,60.7z"/>
	<path class="st6" d="M35.8,61c-0.2,0-0.3,0-0.4,0c0-0.1,0-0.2,0-0.3c-0.1-0.1-0.2-0.2-0.3-0.2s-0.2,0.1-0.3,0.2c0,0.6,0,1.2,0,1.8
		c0,0.1,0.2,0.2,0.3,0.2s0.2-0.1,0.3-0.2c0-0.1,0-0.2,0-0.3c0.2,0,0.3,0,0.4,0c0.1,0.5-0.1,0.8-0.6,0.9c-0.5,0.1-0.9-0.2-0.9-0.7
		s0-1,0-1.6s0.3-0.8,0.8-0.8C35.6,60.1,35.8,60.4,35.8,61z"/>
	<path class="st6" d="M63.7,62.3c0.2,0,0.3,0,0.4,0c0.1,0.5-0.1,0.9-0.6,0.9c-0.5,0.1-0.8-0.2-0.9-0.7c0-0.5,0-1,0-1.5
		c0-0.6,0.3-0.8,0.8-0.8s0.7,0.3,0.7,0.9c-0.1,0-0.3,0-0.4,0c0-0.1,0-0.2,0-0.2c0-0.2-0.1-0.3-0.3-0.3c-0.1,0-0.2,0.2-0.3,0.3
		c0,0.6,0,1.2,0,1.8c0,0.2,0.1,0.3,0.3,0.3s0.3-0.1,0.3-0.3C63.7,62.4,63.7,62.4,63.7,62.3z"/>
	<path class="st6" d="M50.7,61.7c-0.3,0-0.5,0-0.8,0c0,0.3,0,0.7,0,1c0.3,0,0.6,0,0.9,0c0,0.1,0,0.2,0,0.3c-0.4,0-0.8,0-1.3,0
		c0-1,0-1.9,0-2.9c0.4,0,0.8,0,1.3,0c0,0.1,0,0.2,0,0.3c-0.3,0-0.5,0-0.8,0c0,0.3,0,0.6,0,0.9c0.2,0,0.5,0,0.7,0
		C50.7,61.5,50.7,61.6,50.7,61.7z"/>
	<path class="st6" d="M33.8,61.4c0,0.1,0,0.2,0,0.4c-0.2,0-0.5,0-0.7,0c0,0.3,0,0.7,0,1c0.3,0,0.6,0,0.9,0c0,0.1,0,0.2-0.1,0.3
		c-0.4,0-0.9,0-1.3,0c0-1,0-2,0-2.9c0.4,0,0.8,0,1.3,0c0,0.1,0,0.2,0,0.3c-0.3,0-0.5,0-0.8,0c0,0.3,0,0.6,0,0.9
		C33.3,61.4,33.6,61.4,33.8,61.4z"/>
	<path class="st6" d="M32.3,60.2c0,0.1,0,0.2,0,0.3c-0.2,0-0.3,0-0.5,0c0,0.9,0,1.7,0,2.6c-0.2,0-0.3,0-0.5,0c0-0.8,0-1.7,0-2.6
		c-0.2,0-0.4,0-0.6,0c0-0.1,0-0.2,0-0.3C31.3,60.2,31.8,60.2,32.3,60.2z"/>
	<path class="st6" d="M59,63.1c-0.2,0-0.3,0-0.5,0c0-0.9,0-1.7,0-2.6c-0.2,0-0.4,0-0.6,0c0-0.1,0-0.2,0-0.3c0.5,0,1,0,1.6,0
		c0,0.1,0,0.2,0,0.3c-0.2,0-0.3,0-0.5,0C59,61.4,59,62.2,59,63.1z"/>
	<path class="st6" d="M40.3,60.2c0.2,0,0.3,0,0.4,0c0,0.9,0,1.7,0,2.6c0.3,0,0.6,0,0.9,0c0,0.1,0,0.2,0,0.4c-0.4,0-0.9,0-1.3,0
		C40.3,62.1,40.3,61.2,40.3,60.2z"/>
	<path class="st6" d="M62.3,63.1c-0.2,0-0.3,0-0.4,0c0-1,0-1.9,0-2.9c0.1,0,0.3,0,0.4,0C62.3,61.2,62.3,62.1,62.3,63.1z"/>
	<path class="st6" d="M64.6,60.2c0.2,0,0.3,0,0.4,0c0,1,0,2,0,2.9c-0.1,0-0.3,0-0.4,0C64.6,62.1,64.6,61.2,64.6,60.2z"/>
	<path class="st6" d="M46.3,63.1c-0.2,0-0.3,0-0.4,0c0-1,0-1.9,0-2.9c0.1,0,0.3,0,0.4,0C46.3,61.2,46.3,62.1,46.3,63.1z"/>
	<path class="st6" d="M74.9,63.1c-0.1,0-0.3,0-0.4,0c0-1,0-2,0-2.9c0.1,0,0.3,0,0.4,0C74.9,61.2,74.9,62.1,74.9,63.1z"/>
	<path class="st6" d="M46.9,59.5c-0.3,0.2-0.6,0.5-1,0.4C46.1,59.6,46.3,59.5,46.9,59.5z"/>
	<path class="st6" d="M66.1,59.9c0.3-0.3,0.5-0.5,1-0.4C66.7,59.7,66.5,60,66.1,59.9z"/>
	<g class="st3">
		<path class="st7" d="M56.2,10.4c0,0-0.1,0.1-0.2,0.2c-1.6,1.1-3.3,2.3-4.9,3.4c-0.1,0-0.2,0-0.3,0c-0.8-0.6-1.6-1.2-2.4-1.8
			c-0.1-0.1-0.2-0.2-0.2-0.3c-0.4-1.6-0.8-3.2-1.2-4.8c0-0.2,0-0.3,0.1-0.4c1.3-1,2.5-2,3.8-3c0.1-0.1,0.2-0.1,0.3,0
			c1.4,0.9,2.8,1.7,4.1,2.6c0.1,0,0.2,0.1,0.2,0.2c0.2,1.3,0.4,2.5,0.6,3.8C56.2,10.3,56.2,10.3,56.2,10.4z"/>
		<path class="st7" d="M61.5,29c0.2-1.2,0.3-2.3,0.5-3.4c0-0.2,0.1-0.4,0.1-0.5c0-0.4,0.2-0.6,0.6-0.8c0.6-0.2,1.2-0.5,1.8-0.7
			c0.1,0,0.3,0,0.4,0c1.4,0.6,2.8,1.2,4.3,1.8c0.1,0.1,0.2,0.2,0.3,0.3c0.4,0.6,0.8,1.2,1.2,1.8c0.1,0.2,0.1,0.3,0,0.4
			c-0.5,1.1-1.1,2.2-1.6,3.2c-0.1,0.1-0.2,0.2-0.4,0.3c-1,0.2-2,0.3-2.9,0.5c-0.1,0-0.2,0-0.3-0.1c-1.3-0.9-2.5-1.8-3.8-2.7
			C61.5,29.1,61.5,29,61.5,29z"/>
		<path class="st7" d="M55.2,32.9c0-0.6,0-1.3,0-1.9c0-0.1,0.1-0.3,0.2-0.4c0.9-0.8,1.8-1.5,2.8-2.2c0.1-0.1,0.4-0.2,0.5-0.2
			c0.4,0,0.7,0,1.1,0c0.2,0,0.3,0.1,0.3,0.3c0,0.6,0,1.2,0,1.7c0,0.2,0.1,0.4,0.3,0.5c1.1,0.7,2.2,1.4,3.2,2
			c0.2,0.1,0.4,0.3,0.4,0.6c0,0.4,0.1,0.9,0.1,1.3c0,0.2,0,0.3-0.2,0.4c-1.6,0.8-3.2,1.7-4.8,2.6c-0.1,0-0.2,0-0.3,0
			c-1.1-0.7-2.3-1.5-3.4-2.3c-0.1-0.1-0.2-0.2-0.2-0.3C55.2,34.2,55.2,33.6,55.2,32.9z"/>
		<path class="st7" d="M71.1,24.1c-0.4-0.1-0.7-0.2-1-0.3c-0.9-0.3-1.8-0.6-2.7-0.9c-0.1,0-0.2-0.1-0.3-0.2
			c-0.5-1.2-1.1-2.3-1.6-3.5c-0.1-0.2,0-0.3,0.1-0.4c0.9-0.9,1.9-1.9,2.8-2.8c0.1-0.1,0.3-0.1,0.4-0.1c1.4,0.2,2.7,0.5,4.1,0.7
			c0.1,0,0.3,0.1,0.3,0.2c0.5,1.3,1,2.6,1.5,3.9c0.1,0.2,0,0.3-0.1,0.4c-1,0.9-2.1,1.8-3.1,2.7C71.2,24,71.1,24,71.1,24.1z"/>
		<path class="st7" d="M48.9,28.2c0,0.5,0,1.1,0,1.6c0,0.2-0.1,0.3-0.2,0.4c-1.2,0.7-2.3,1.3-3.5,2c-0.2,0.1-0.3,0.1-0.5,0
			c-1.3-0.8-2.5-1.5-3.8-2.3c-0.2-0.1-0.3-0.2-0.2-0.4c0.3-1.2,0.6-2.4,0.9-3.6c0-0.2,0.1-0.3,0.3-0.3c1.2-0.4,2.4-0.9,3.6-1.3
			c0.1,0,0.3,0,0.4,0c0.9,0.7,1.9,1.3,2.8,2c0.1,0.1,0.1,0.2,0.1,0.3C48.9,27.1,48.9,27.7,48.9,28.2z"/>
		<path class="st7" d="M56.1,4c0.8-0.1,1.6-0.1,2.4-0.2c1-0.1,2-0.1,3-0.2c0.2,0,0.4,0,0.5,0.3c0.7,1.3,1.3,2.6,2,3.9
			c0.1,0.2,0.1,0.3,0,0.5c-0.7,1.2-1.4,2.4-2.2,3.6c-0.1,0.2-0.2,0.2-0.4,0.2c-1.1,0-2.3,0-3.4,0c-0.2,0-0.3-0.1-0.3-0.3
			c-0.1-1.5-0.2-3-0.4-4.5c-0.1-0.6-0.1-1.3-0.2-1.9c0-0.1-0.1-0.3-0.2-0.3C56.8,4.7,56.4,4.3,56.1,4z"/>
		<path class="st7" d="M47.8,17.3c-0.3-0.2-0.6-0.4-0.8-0.6c-0.3-0.3-0.6-0.3-0.9-0.3c-1.3,0-2.6-0.1-3.8-0.1
			c-0.2,0-0.3-0.1-0.4-0.3c-0.3-0.6-0.6-1.3-0.9-1.9c-0.1-0.2-0.1-0.3,0-0.5c0.7-1.4,1.5-2.9,2.2-4.3C43.3,9.1,43.4,9,43.7,9
			c0.7,0,1.3,0,2,0c0.2,0,0.3,0.1,0.4,0.3c0.3,1,0.6,2,0.8,3c0.1,0.2,0.2,0.4,0.4,0.5c0.7,0.5,1.4,1.1,2.1,1.6
			c0.2,0.2,0.2,0.3,0.1,0.5C48.8,15.6,48.3,16.4,47.8,17.3z"/>
		<path class="st7" d="M70.4,12.4c0,0.5,0,0.9,0,1.4c0,0.2,0,0.3-0.3,0.2c-0.6-0.1-1.3-0.2-1.9-0.3c-0.2,0-0.4,0-0.6,0.2
			c-0.8,0.7-1.6,1.5-2.5,2.2c-0.2,0.1-0.3,0.2-0.5,0c-0.6-0.4-1.2-0.8-1.8-1.2c-0.1-0.1-0.2-0.2-0.2-0.4c-0.1-0.6,0.1-1.2,0.4-1.7
			c0.8-1.5,1.6-3,2.3-4.5C65.4,8.1,65.5,8,65.7,8c0.6,0,1.2,0,1.9,0c0.1,0,0.3,0.1,0.4,0.2c0.6,0.7,1.3,1.5,1.9,2.2
			c0.2,0.2,0.2,0.4,0.2,0.6C70.4,11.6,70.4,12,70.4,12.4z"/>
		<path class="st7" d="M40.7,24.4c-0.4-0.7-0.8-1.4-1.2-2.1c-0.2-0.4-0.5-0.8-0.7-1.2c-0.1-0.2-0.1-0.3,0-0.4c0.7-1,1.5-1.9,2.2-2.9
			c0.1-0.1,0.2-0.2,0.3-0.2c1.2,0.1,2.5,0.1,3.7,0.2c0.1,0,0.2,0.1,0.2,0.2c0.7,1,1.4,2,2.1,3c0.1,0.1,0.1,0.2,0,0.3
			c-0.1,0.4-0.3,0.8-0.4,1.2c-0.1,0.2-0.2,0.2-0.3,0.2c-0.6-0.2-1.1-0.3-1.7-0.5c-0.2,0-0.4,0-0.5,0.1c-1.1,0.6-2.3,1.3-3.4,1.9
			C41,24.3,40.9,24.3,40.7,24.4z"/>
		<path class="st7" d="M47.8,33.2c0.8-0.6,1.6-1.1,2.4-1.6c0.2-0.1,0.3-0.3,0.3-0.5c0.1-1,0.1-2.1,0.2-3.1c0-0.4,0-0.4,0.5-0.4
			c0.8,0,1.6,0,2.5,0c0.1,0,0.3,0.1,0.4,0.2c0.4,0.4,0.8,0.9,1.1,1.4c0,0,0.1,0.1,0.1,0.2c-0.3,0.2-0.6,0.4-1,0.6
			c-0.2,0.1-0.3,0.3-0.3,0.5c0,1.6,0,3.3,0,4.9c0,0.4,0,0.4-0.4,0.4c-1.2,0-2.4,0-3.7,0c-0.2,0-0.4-0.1-0.5-0.3
			c-0.4-0.7-0.9-1.3-1.4-1.9C47.9,33.4,47.9,33.3,47.8,33.2z"/>
	</g>
	<path class="st6" d="M38.6,61.6c0-0.3,0-0.5,0-0.8c0-0.2,0.1-0.4,0.3-0.4s0.3,0.1,0.3,0.3c0,0.6,0,1.1,0,1.7c0,0.2-0.1,0.3-0.4,0.3
		c-0.2,0-0.3-0.2-0.3-0.4C38.6,62.2,38.6,61.9,38.6,61.6L38.6,61.6z"/>
	<path class="st6" d="M42.3,61.6c0-0.3,0-0.5,0-0.8c0-0.2,0.1-0.4,0.3-0.4s0.3,0.1,0.3,0.3c0,0.6,0,1.1,0,1.7c0,0.2-0.1,0.3-0.3,0.3
		s-0.3-0.2-0.3-0.4C42.3,62.2,42.3,61.9,42.3,61.6z"/>
	<path class="st6" d="M65.9,61.6c0-0.3,0-0.5,0-0.8c0-0.2,0.1-0.3,0.3-0.4c0.2,0,0.3,0.1,0.4,0.3c0,0.5,0,1.1,0,1.6
		c0,0.2-0.1,0.4-0.3,0.3c-0.2,0-0.3-0.2-0.3-0.4C65.9,62.2,65.9,61.9,65.9,61.6z"/>
	<path class="st6" d="M60.3,61.5c0-0.4,0-0.7,0-1.1c0.2,0.1,0.4,0.1,0.5,0.2c0.1,0.2,0.1,0.4,0,0.6C60.8,61.4,60.5,61.4,60.3,61.5z"
		/>
	<path class="st6" d="M47.3,61.9c0.1-0.4,0.1-0.8,0.2-1.2c0,0,0,0,0.1,0c0.1,0.4,0.1,0.8,0.2,1.2C47.6,61.9,47.5,61.9,47.3,61.9z"/>
	<path class="st6" d="M78.6,61.9c0.1-0.4,0.1-0.8,0.2-1.2l0,0c0.1,0.4,0.1,0.8,0.2,1.2C78.9,61.9,78.7,61.9,78.6,61.9z"/>
	<path class="st6" d="M71.1,60.7c0.1,0.4,0.1,0.8,0.2,1.2c-0.1,0-0.3,0-0.4,0C70.9,61.5,71,61.1,71.1,60.7L71.1,60.7z"/>
</g>
<image style="display:none;overflow:visible;enable-background:new    ;" width="908" height="1143" xlink:href="../../../../../../../../Pictures/Diseos Personales/Diseo de tarjeta de Presentacion/MNA.png"  transform="matrix(0.1171 0 0 0.1171 120 -21.5436)">
</image>
<g>
	<path class="st8" d="M87.7,26.5c1.1-1.1,2.3-2.2,3.5-3.3c0.3-0.2,0.5-0.4,0.7-0.6c0.1,0,0.1-0.2,0.2-0.2c0.6-0.4,1.1-0.8,1.2-1.6
		c0-1.3-0.7-2-1.9-2.3c-1.3-0.4-2.5-0.8-3.6-1.6c0,0,0,0-0.1-0.1c-0.1-0.2-0.3-0.3-0.5-0.4c-1.2-0.9-2.1-2-2.3-3.5
		c0.1-0.1,0.2-0.1,0.3,0c1.6,1.2,3.4,2,5.2,2.5c0.2,0.1,0.4,0.2,0.7,0.3c0.1,0,0.2,0,0.2,0.2c0,0.2-0.2,0-0.2,0.1
		c0.3,0,0.6-0.3,0.9-0.2c1,0.1,1.9,0.5,2.7,1c1,0.5,1.9,1.2,2.5,2.1c0.2,0.3,0.4,0.3,0.7,0.2c0.6-0.2,1.2-0.3,1.9-0.3
		c1.4,0,2.8-0.2,4.2-0.6c0.6-0.2,0.6-0.1,0.6,0.5c0,0.3,0,0.5,0,0.8c-0.2-0.1-0.1-0.3-0.1-0.4c0-0.1,0-0.3,0-0.5c0,0.3,0,0.7,0,1
		c0,0.1,0,0.1,0.1,0.1c0.1,0.6-0.1,1.2-0.5,1.8c-0.4,0.7-1,1.3-1.6,1.9c-0.1,0.1-0.2,0.2-0.3,0.3c-0.1,0-0.2,0-0.3,0
		c0.2,0.3,0.4,0.4,0.6,0.6c1.1,1,1.9,2.3,2.8,3.4c0.3,0.4,0.1,0.7-0.2,1c0.3-0.1,0.6-0.3,0.8-0.1c0,0,0.1,0.1,0.1,0.1
		c0,0.3,0.3,0.4,0.4,0.7c0,0.1-0.1,0.2,0,0.3c0.1,0.3,0,0.6,0,1c0,0.2-0.3,0.4,0.2,0.4c0.1,0.1,0.2,0.1,0.3,0.3
		c0.1,0.1,0.1,0.3,0,0.4c-0.1,0.2-0.2,0.3-0.3,0.1c-0.2-0.3-0.5-0.2-0.7-0.4c-0.1-0.1-0.1-0.2-0.1-0.3c0-0.2-0.1-0.3-0.3-0.2
		c-0.2-0.1-0.1-0.3-0.2-0.4c0-0.1,0-0.1,0-0.2c0.2-0.2,0.4-0.4,0.4-0.6c0-0.1,0.2-0.3,0-0.3c-0.2-0.1-0.2,0.1-0.3,0.2
		c-0.2,0-0.4,0.3-0.5,0.2c-0.2-0.1-0.2-0.4-0.4-0.6c-0.1-0.1-0.1-0.3-0.2-0.4c0.1,0.2-0.1,0.4-0.1,0.6c0,0.2,0,0.3,0,0.5
		c0,0.1,0,0.1,0,0.2c0.2,0.4-0.1,0.9,0,1.3c-0.2,1.6-0.5,3.2-1.8,4.4c-0.4,0.2-0.7,0.7-1.1,1c-0.1,0.1-0.2,0.2-0.3,0.1
		c-0.3,0-0.4,0.1-0.5,0.4c0,0.2-0.2,0.4-0.3,0.5c-0.3,0.1-0.4,0.3-0.6,0.6l0,0c-0.2,0.1-0.3,0.2-0.5,0.4C99,38.8,99,39,98.8,38.9
		c-0.2-0.2-0.2-0.4-0.1-0.7c-0.2,0.2-0.2,0.4,0,0.7c0.2,0.1,0.1,0.2,0,0.3c-0.2,0.3-0.5,0.5-0.7,0.9c-0.8,1.1-1.4,2.2-1.8,3.4
		c-0.5,1.3-0.8,2.6-1,4c-0.2,1.5-0.3,3-0.5,4.5c0,0.1-0.1,0.2-0.1,0.3c0,0.1-0.1,0.2-0.2,0.2c-0.1,0-0.2-0.1-0.2-0.2
		c0-0.1,0-0.2,0-0.2c0.2-1.1,0-2.2-0.2-3.3c0-0.2,0-0.3,0-0.5c-0.1-0.4-0.2-0.9-0.5-1.2c-0.7-1.2-1.8-2-3-2.7
		c-0.1-0.1-0.3-0.2-0.4-0.3c-0.7-0.4-1.3-0.8-2.1-0.9c-0.7-0.1-1.4-0.1-2.1-0.3c-0.3-0.1-0.6,0.1-0.9,0.1c-0.5,0-0.9,0-1.2-0.4
		c-0.4-0.3-0.6-0.8-0.9-1.2c-0.1-0.1-0.2-0.3-0.3-0.4c-0.6-0.7-1.1-1.4-1.6-2.1c-0.1-0.1-0.1-0.3-0.2-0.4c-0.1-0.1-0.2-0.3-0.1-0.4
		c0.1-0.1,0.3-0.1,0.5,0c0.2,0.1,0.3,0.3,0.3,0.5c0,0.2,0.1,0.2,0.2,0.3C82,38.9,82,39,82,39.2c0-0.1-0.1-0.2-0.2-0.3
		c-0.1-0.1-0.2-0.2-0.3-0.3c-0.1-0.5-0.3-0.6-0.8-0.5c-0.1,0-0.2,0.1-0.3,0.1c-0.6-0.8-1.2-1.6-1.8-2.4c-0.3-0.5-0.2-0.9,0.3-1.5
		c0.2-0.1,0.3-0.3,0.4-0.4l0,0c0.2-0.1,0.3-0.2,0.4-0.4c0.5-0.6,1.2-1.1,1.8-1.6c0.1-0.1,0.3-0.2,0.4-0.3c0.2-0.1,0.3-0.3,0.5-0.4
		c0.5-0.6,1.1-1,1.7-1.6c0.9-0.8,1.8-1.7,2.7-2.5c0.1-0.1,0.2-0.1,0.3-0.2l0,0C87.5,26.8,87.5,26.6,87.7,26.5z"/>
	<path class="st8" d="M105.9,31.4c0.4-0.1,0.6,0.1,0.8,0.5c0.2-0.2,0.1-0.4,0.1-0.6c0.1-0.2,0-0.4-0.2-0.6c-0.1-0.1-0.2-0.2-0.3-0.4
		c0-0.2,0-0.4,0.1-0.5c0.2-0.1,0.3,0.1,0.4,0.2c0.1,0.2,0.2,0.3,0.3,0.5c0.2,0.2,0.3,0.5,0.6,0.6l0,0c0.1,0.2,0.2,0.4,0.4,0.6l0,0
		c0.2,0.3,0.3,0.7,0.6,1c0.9,1.4,1.5,2.9,1.9,4.4c0.1,0.7,0.3,1.3,0.5,2c0.1,0.2,0.1,0.4,0.3,0.4c0.2,0,0.2-0.2,0.3-0.4
		c0.2-0.4,0.3-0.8,0.5-1.2c0.1-0.1,0.1-0.2,0.1-0.3c0.2-0.7,0.5-1.5,0.7-2.2c0.2-0.4,0.3-0.9,0.6-1.3c0.1-0.2-0.1-0.4-0.1-0.6
		c0-0.3,0.2-0.6,0.2-0.9c0.2-1.2,0.1-2.3,0.1-3.5c0-0.2,0-0.5,0.1-0.7c0-0.1,0.1-0.1,0-0.2c-0.4-1-0.3-2-0.5-3
		c-0.3-1.3-0.7-2.6-1.3-3.8c-0.1-0.3-0.2-0.6-0.5-0.8c-1.1-1.8-2.2-3.5-3.7-5.1c-0.1-0.1-0.2-0.3-0.4-0.4c-0.3-0.3-0.6-0.5-0.9-0.8
		c-0.1-0.2-0.3-0.3-0.5-0.4c0,0-0.1,0-0.1,0c-0.1-0.1-0.2-0.3-0.4-0.3l0,0c-0.1-0.1-0.2-0.1-0.3-0.2c-1-0.6-1.9-1.2-2.9-1.8
		c-2.1-1.2-4.4-1.8-6.8-1.9c-0.1,0-0.3,0-0.4-0.1c0,0,0.1-0.1,0.2-0.1c0.2,0,0.4,0,0.6,0c-1.4,0-2.8,0-4.2,0c0.1,0,0.3-0.1,0.5,0.1
		c-1,0.1-2,0.2-3,0.5c-0.3,0.1-0.7,0.1-1,0.2c-0.4,0.1-0.9,0-1.3,0.4l0,0c-0.1,0.1-0.2,0-0.3,0c-0.1-0.1-0.2-0.1-0.2-0.2
		c0-0.1,0.2,0,0.3-0.1c0.1-0.1,0.1-0.1,0.2-0.1c-0.1,0-0.2,0.1-0.2,0.1c-0.1,0-0.2,0-0.2,0c-0.2,0.6-0.8,0.6-1.3,0.9
		c-0.7,0.3-1.4,0.7-2.1,1C82.1,13,81,13.9,80,14.8c0,0-0.1,0.1-0.2,0.1c-0.9,0.4-1.4,1.2-1.9,1.9c-1.1,1.3-2,2.8-2.6,4.3
		c-0.3,0.7-0.8,1-1.6,1c-1.3,0-2.6,0-3.8,0c-0.1,0.1-0.2,0.2-0.3,0.3c-0.3,1-0.1,1.4,0.9,1.6c0.4,0.2,0.9,0.1,1.4,0.1
		c0.9,0,1.8,0.1,2.7,0.4c0.5,0.4,1,0.8,1.2,1.4c0.1,0.3,0.1,0.5,0.3,0.8c0,0.2,0,0.3,0.1,0.5c0.1,0.9,0.1,1.9,0,2.8
		c0,0.2,0,0.4,0,0.6l0,0c-0.1,1-0.5,1.9-1.1,2.7c-0.3,0.5-0.8,0.6-1.3,0.7c-1.9,0.4-3.9,0.4-5.8,0.2c-0.9-0.1-1.2-0.5-1.4-1.4
		c-0.1-0.7-0.1-1.3,0.2-2c0.1-0.3,0.3-0.5,0.6-0.6c0.4-0.1,0.9-0.2,1.3-0.2c1.4,0,2.8-0.1,4.2-0.1c0.3-0.1,0.4-0.2,0.4-0.5
		c0-0.2,0-0.4,0-0.6c0.1-0.8-0.2-1.1-1-1.1c-0.6,0-1.2,0.1-1.9,0c-0.3-0.1-0.6-0.1-0.8-0.3c-0.2-0.2-0.5,0-0.8-0.2
		c0.2,0.2,0.5,0,0.7,0.1c0.2,0.2,0.2,0.3-0.1,0.3c-0.4,0.1-0.7-0.1-1.1-0.3c-0.3-0.2-0.5-0.4-0.9-0.5c0,0-0.1-0.1-0.1-0.1
		c-0.1-0.2-0.2-0.3-0.3-0.4c-0.6-1-0.7-2.1-0.8-3.2c-0.1-1.3,0.2-2.4,0.7-3.6c0.6-1.3,1.7-2,3.1-2c0.8,0,1.6,0,2.4,0
		c0.2,0,0.4-0.1,0.5-0.3c0.9-1.7,2.2-2.9,3.7-4c1.2-0.9,2.4-1.7,3.7-2.5c0.1,0,0.1-0.1,0.2-0.1c0.1-0.1,0.3-0.1,0.4-0.2l0,0
		c0.1-0.1,0.2-0.1,0.3-0.2c0.4-0.2,0.7-0.5,1.1-0.6c0.3-0.1,0.6-0.2,0.8-0.4l0,0c0.1,0,0.2-0.1,0.3-0.2c1.5-0.7,3-1.3,4.6-1.6
		c0.3-0.1,0.7-0.1,1-0.1c0.5-0.1,1-0.2,1.5-0.2c1.4,0,2.8,0,4.2,0c1.3,0,2.6,0.1,3.8,0.4c0.3,0.1,0.6,0,0.9,0.1
		c0.9,0.1,1.7,0.4,2.5,0.8c1.9,0.8,3.7,1.7,5.3,3c0.1,0.1,0.3,0.2,0.4,0.3c0.2,0.2,0.4,0.4,0.6,0.5c0.3,0.3,0.7,0.6,1,1
		c0.6,0.8,1.4,1.5,2.1,2.3c1.1,1.3,2.1,2.7,2.8,4.3c0.3,0.7,0.7,1.4,0.9,2.2c0.2,0.8,0.5,1.5,0.7,2.3c0.1,0.6,0.2,1.2,0.3,1.8
		c0.1,0.7,0.2,1.3,0.1,2c-0.1,0.5,0.1,1,0.1,1.4c0,2,0,4-0.6,5.9c-0.2,0.5-0.3,1-0.5,1.5c-0.1,0.3-0.2,0.6-0.7,0.7
		c0.1,0.2,0.4,0.1,0.2,0.4c-0.5,0.8-0.7,1.7-1.2,2.5c-0.4,0.6-0.7,1.3-1.1,1.9c-1.7,2.5-4,4.4-6,6.5c-0.5,0.6-1.1,1.1-1.7,1.6
		c-0.1,0.1-0.2,0.2-0.4,0.3c-0.6,0.7-1.3,1.2-2,1.9c-0.6,0.3-1,0.8-1.3,1.4c-1,1.3-1.8,2.7-2.5,4.1c-0.2,0.1-0.3,0-0.3-0.2
		c0-1.6,0-3.1,0.8-4.5c0-0.1,0,0,0,0c0.6-0.3,0.5-1.1,0.9-1.6c0.3-0.4,0.5-0.8,0.7-1.2c0.8-1.3,1.9-2.5,2.8-3.8
		c0.7-0.9,1.4-1.9,2.1-2.8c0.2-0.2,0.4-0.5,0.5-0.8c0.5-0.9,1.1-1.7,1.3-2.7c0.3-1.6,0.1-3.1-0.3-4.6c-0.2-1.2-0.7-2.3-1.1-3.5
		c-0.1-0.3,0.3-0.1,0.3-0.3c-0.1,0.1-0.2,0.1-0.3,0C106,32.2,105.7,31.9,105.9,31.4z"/>
	<path class="st8" d="M5,18.3c0.7-0.9,2.2-0.9,2.8,0.1c0.5,0.9,1,1.8,1.5,2.7c0.6,1.2,1.3,2.4,1.9,3.6c0.1,0.1,0.1,0.3,0.3,0.2
		c0.2-0.1,0.1-0.2,0.1-0.4c0-1.4-0.1-2.9-0.1-4.3c0-0.5,0-1,0.2-1.5c0.3-0.9,1.3-1.2,2.3-1c0.6,0.2,1,0.5,1.1,1.1
		c-0.1,0.5,0,1,0,1.5c0,4.1,0,8.2,0,12.4c0,0.2,0.1,0.4-0.1,0.5c-0.1-0.3-0.1-0.7-0.1-1c0-3.9,0-7.8,0-11.7c0-0.1,0-0.3,0-0.4
		c0,0,0,0,0,0c0,0,0,0,0,0c0,0.9,0,1.7,0,2.6c0,3.3,0,6.6,0,9.9c0.1,0.2,0,0.4,0.1,0.7c0.2,0.5-0.2,0.7-0.5,1
		c-0.7,0.5-1.7,0.4-2.3-0.3C11,32.2,10,30.3,9,28.3c-0.1-0.2-0.2-0.5-0.4-0.7c0-0.1-0.1-0.2-0.2-0.1c-0.1,0-0.1,0.1-0.2,0.2
		c0,0.2,0,0.4,0,0.6c0,1.4,0,2.7,0,4.1c0,0.1,0,0.3,0,0.4c-0.1,1.3-1.3,2-2.5,1.5c0-0.1-0.1-0.1-0.2-0.2c-0.6-0.3-0.7-0.7-0.7-1.3
		c-0.1-2.5-0.1-5,0-7.5c0-1.5,0.1-2.9,0.1-4.4c0-0.8,0-1.6,0.1-2.4C5,18.5,5,18.4,5,18.3z"/>
	<path class="st8" d="M45,26.1c0.1-0.5,0.5-1,1-1.1c0.4-0.1,0.8-0.2,1.2-0.4c0.8-0.4,1-1.4,0.6-2.1C47.6,22.2,47.4,22,47,22
		c-0.8-0.1-1.5,0-2.3,0c-0.3,0-0.4,0.2-0.4,0.5c0,3.1,0,6.3,0,9.4c0,0.4,0,0.9-0.1,1.3c-0.1,0.7-0.7,1.3-1.4,1.3c-0.3,0-0.6,0-0.9,0
		c-0.8-0.2-1.1-0.6-1.2-1.5c-0.1-1.8-0.1-3.5,0-5.3c0.1-2.7,0-5.4,0-8.1c0-1.1,0.4-1.7,1.5-1.7c1.8,0,3.6-0.1,5.4,0.1
		c0.4,0,0.8,0.2,1.1,0.5c1.5,1,2.2,2.5,2.3,4.3c0,0.4-0.1,0.8,0,1.2c-0.1,1.1-0.7,1.9-1.2,2.7c-0.1,0.2-0.3,0.4-0.5,0.6
		C49,27.4,49,27.7,49.2,28c0.5,1.2,1.1,2.3,1.6,3.5c0.5,1-0.1,2.3-1.1,2.8c-0.6,0.3-1.3,0.1-1.7-0.4c-0.6-0.8-1-1.8-1.4-2.7
		c-0.2-0.5-0.5-1.1-0.7-1.6c-0.1-0.6-0.5-1.1-0.7-1.7C45,27.3,44.9,26.7,45,26.1z"/>
	<path class="st8" d="M20.2,23.4c0,0.1,0,0.2,0,0.4c0.1,1.3,0,2.6,0,3.9c0,0.3,0,0.7,0.1,1c0.2,0.8,0.7,1.2,1.5,1.4
		c0.6,0,1.2,0.1,1.8-0.3c0.3-0.2,0.5-0.5,0.5-0.9c0.1-1.2,0.1-2.4,0.1-3.5c0-1.8,0-3.6,0-5.3c0-0.7,0.1-1.3,0.7-1.8
		c0.4-0.2,0.8-0.3,1.3-0.3c0.8,0,1.5,0.7,1.5,1.5c0.2,2.9,0.1,5.7,0.1,8.6c0,0.1,0,0.2,0,0.2c0,1.6-0.3,3.2-1.3,4.6
		c-0.8,1.1-1.8,1.7-3.1,1.8c-1.1,0.1-2.2,0.1-3.2-0.3c-1.6-0.8-2.5-2.1-3-3.7c-0.4-1.3-0.3-2.6-0.3-3.9c-0.1-2.1,0-4.2,0-6.3
		c0-0.6,0-1.3,0.5-1.9c0.1-0.1,0.2-0.1,0.3-0.2c0.4-0.5,1.1-0.5,1.8-0.2c0.2,0.1,0.4,0.2,0.6,0.4c0,0,0,0,0,0.1
		c0.4,0.6,0.4,1.2,0.4,1.9c-0.1,0.9,0,1.8-0.1,2.7C20.1,23.2,20.1,23.3,20.2,23.4z"/>
	<path class="st8" d="M60.7,31.2c-1.1,0-2.3,0-3.4,0c-0.4,0-0.6,0.2-0.6,0.5c-0.1,0.5-0.3,0.9-0.5,1.3c-0.2,0.1-0.1,0.3-0.2,0.5
		c0,0.1,0,0.2-0.1,0.2c-0.2,0.2-0.4,0.4-0.6,0.6c-0.4,0.2-0.7,0.3-1.2,0.2c-0.6-0.2-1.1-0.6-1.5-1.2c-0.2-0.3-0.2-0.6-0.1-0.9
		c0.4-1.9,1.1-3.6,1.8-5.4c0.1-0.2,0.1-0.4,0.2-0.5c0.1-0.1,0.1-0.2,0.1-0.3c0.6-1.6,1.2-3.2,1.8-4.8c0.4-1,0.6-2,1.1-2.9
		c0.1-0.2,0.3-0.3,0.5-0.5c0.3-0.2,0.6-0.3,0.9-0.4c0.9-0.1,1.4,0.3,1.7,1.2c1,3,2,6,3.1,9c0.3,0.9,0.6,1.9,0.9,2.8
		c0,0.2,0,0.3,0.1,0.5c0.4,0.9,0.5,1.8,0,2.7c-0.2,0.1-0.3,0.2-0.4,0.4c-0.1,0.1-0.3,0.2-0.5,0.2c-0.1,0-0.3-0.1-0.4-0.1
		c-0.7,0.2-1.1-0.2-1.5-0.7c-0.3-0.3-0.5-0.8-0.4-1.3c0-0.1,0-0.2-0.1-0.2c-0.3-0.1-0.3-0.3-0.4-0.6C61,31.4,60.9,31.2,60.7,31.2z"
		/>
	<path class="st9" d="M40.5,35.4c7.7,0,15.4,0,23.2,0c4.1,0,8.1,0,12.2,0c0.5,0,0.6,0.1,0.6,0.6c0,0.9,0,0.9-0.9,0.9
		c-23.4,0-46.8,0-70.2,0c-0.2,0-0.5,0.1-0.6-0.2c-0.1-0.4-0.1-0.8,0-1.2c0.1-0.2,0.2-0.1,0.3-0.1c2.8,0,5.6,0,8.4,0
		c3.5,0,7,0,10.5,0c3.3,0,6.7,0,10,0C36.2,35.4,38.3,35.4,40.5,35.4C40.5,35.4,40.5,35.4,40.5,35.4z"/>
	<path class="st8" d="M35.9,33.2C35.9,33.2,35.9,33.3,35.9,33.2c-0.3,0.3-0.6,0.1-0.9,0.2c0.2,0,0.5-0.1,0.5,0.2
		c0.1,0.3-0.2,0.4-0.4,0.5c-0.3,0.1-0.6,0.2-0.8,0.3c-0.5,0.1-0.8-0.1-1.2-0.4c-0.3-0.2-0.3-0.6-0.6-0.8c0-0.1,0-0.2,0-0.3
		c-0.1-0.2,0-0.4,0-0.5c0-2.8,0-5.7,0-8.5c0-0.4,0.1-0.9,0-1.3c0-0.4-0.1-0.5-0.6-0.5c-0.6,0-1.2,0.1-1.7,0
		c-0.4-0.1-0.6-0.3-0.8-0.7c-0.4-1-0.6-2,0.1-3c0.2-0.1,0.3-0.3,0.5-0.4c0.1,0,0.1-0.1,0.2-0.1c1.3,0,2.6-0.2,3.9-0.1
		c0.1,0.1,0.3,0.1,0.5,0.1c1.1,0,2.2,0,3.2,0c0.2,0,0.3,0,0.5,0l0,0c0.2,0.1,0.3,0.3,0.5,0.4c0.6,0.8,0.6,2.6,0,3.4
		c-0.2,0.3-0.5,0.4-0.9,0.4c-0.5,0-0.9,0-1.3-0.1c-0.5-0.1-0.7,0.1-0.7,0.5c-0.1,0.1-0.1,0.2-0.1,0.3c0.2,1.8,0.1,3.6,0.1,5.4
		c0,1.2,0.1,2.3,0.1,3.5C36,32.3,36,32.7,35.9,33.2z"/>
	<path class="st10" d="M102.5,39.4c0.8-0.8,1.7-1.7,2.3-2.7c0.1-0.1,0.2-0.3,0.3-0.3c0.2,0,0.1,0.3,0.1,0.4c0.1,0.9,0.2,1.9,0,2.8
		c-0.2,1.2-0.8,2.2-1.3,3.3c-1,1.9-2.6,3.4-4,5c-0.7,0.8-1,1.7-1.6,2.6c-0.3,0.5-0.6,1-0.8,1.6c-0.2,0.1-0.4,0.1-0.3-0.2
		c0.2-1.5,0.2-3,0.5-4.4c0.4-2.4,1.4-4.5,3.1-6.2c0.5-0.4,0.9-0.9,1.4-1.4C102.3,39.6,102.4,39.5,102.5,39.4z"/>
	<path class="st11" d="M67.1,45.9c-0.5-0.2-0.6-0.6-0.5-1.1c0.3-1.3,0.9-2.4,2.1-3c0.2-0.1,0.5-0.1,0.8-0.1c0.2,0,0.4,0,0.6-0.1
		c0.1-0.1,0.4-0.1,0.5,0c0.2,0.1,0,0.3,0,0.4c-0.4,1.5-0.9,3-0.9,4.5c0,1.2-1.1,2-2,1.9c-0.3,0-0.6,0-0.9,0c-0.4,0-0.8-0.2-0.9-0.6
		c-0.2-0.3-0.1-0.7,0.2-1C66.3,46.3,66.8,46.2,67.1,45.9z"/>
	<path class="st12" d="M47.9,42.4c0.2,0,0.3-0.2,0.5-0.3c0.2-0.1,0.4-0.3,0.7-0.4c0.3-0.2,0.7-0.2,0.9,0c0.3,0.2,0.2,0.5,0.1,0.8
		c-0.2,0.6-0.4,1.3-0.6,1.9c-0.1,0.2-0.1,0.5-0.1,0.7c0.3,0,0.3-0.3,0.5-0.4c0.1-0.1,0.3-0.1,0.4,0c0.1,0.1,0.1,0.3-0.1,0.4
		c-0.4,0.3-0.8,0.7-1.3,0.8c-0.4,0-0.6-0.2-0.6-0.6c0-0.6,0.2-1.1,0.4-1.7c0.1-0.3,0.2-0.6,0.3-0.9c0-0.1,0.1-0.3,0-0.3
		c-0.1-0.1-0.2,0-0.3,0.1c-0.6,0.4-1,0.9-1.2,1.6c-0.1,0.4-0.2,0.8-0.2,1.2c-0.1,0.4-0.6,0.7-1,0.5c-0.1-0.1-0.1-0.2-0.1-0.3
		c0.4-1.6,0.7-3.2,1.1-4.7c0.3-1.3,1.3-2,2.5-2c0.3,0,0.5,0,0.5,0.4c0,0.3-0.2,0.4-0.5,0.4c-0.1,0-0.2,0-0.3,0
		c-0.8-0.1-0.8-0.1-1,0.7c-0.2,0.7-0.3,1.3-0.5,2C47.8,42.3,47.9,42.3,47.9,42.4z"/>
	<path class="st13" d="M36.8,39.8c0.7,0.1,1.4,0.1,2.1,0.2c0.3,0,0.6,0,0.6-0.5c0-0.2,0-0.3,0.2-0.3c0.2,0,0.4-0.1,0.6,0.1
		c0.1,0.1,0.1,0.3,0.1,0.4c-0.1,0.4-0.4,0.5-0.8,0.6c-0.4,0.1-0.8,0.1-1.2,0.1c-0.3,0-0.5,0-0.5,0.4c-0.3,1.4-0.7,2.8-1.1,4.3
		c-0.2,0.6-0.1,0.6,0.5,0.6c0.2,0,0.6-0.1,0.6,0.1c0,0.3-0.3,0.3-0.6,0.3c-0.8,0-1.6-0.2-2.4-0.1c-0.1,0-0.2,0-0.2-0.1
		c0-0.1,0-0.2,0.1-0.2c0.9-0.1,1-0.8,1.1-1.5c0.3-1.1,0.5-2.2,0.8-3.3c0.1-0.3,0-0.4-0.3-0.4c-0.6,0-1.3,0.1-1.8,0.5
		c-0.6,0.4-0.7,1-0.2,1.6c0.1,0.2,0.2,0.4,0,0.6c-0.3,0.1-0.6,0.1-0.8-0.2c-0.3-0.5-0.2-1.1,0.1-1.6c0.5-0.9,1.3-1.4,2.4-1.4
		C36.3,39.8,36.5,39.8,36.8,39.8C36.8,39.8,36.8,39.8,36.8,39.8z"/>
	<path class="st13" d="M51.6,42.5c-0.2,0-0.2,0.1-0.3,0.3c-0.2,0.2-0.3,0.1-0.5,0c-0.1-0.1,0-0.3,0.1-0.4c0.4-0.4,0.8-0.8,1.4-0.8
		c0.4,0,0.6,0.1,0.4,0.5c0,0.1-0.1,0.2,0.1,0.3c0.2-0.2,0.5-0.3,0.7-0.5c0.3-0.2,0.5-0.3,0.8-0.3c0.6,0,0.7,0.2,0.6,0.8
		c-0.2,0.8-0.5,1.5-0.7,2.3c0,0.1-0.1,0.3,0,0.4c0.2,0.1,0.3-0.1,0.4-0.2c0.1-0.1,0.2-0.2,0.3-0.2c0.1,0,0.2,0,0.3,0
		c0.1,0.1,0.1,0.2,0,0.3c-0.4,0.4-0.8,0.8-1.4,0.9c-0.5,0.1-0.8-0.2-0.6-0.8c0.1-0.5,0.3-1,0.4-1.5c0.1-0.3,0.2-0.6,0.2-0.9
		c0-0.1,0-0.2,0-0.2c-0.1-0.1-0.2,0-0.3,0c-0.5,0.3-0.9,0.7-1.1,1.3c-0.1,0.5-0.3,1-0.4,1.5c-0.1,0.5-0.5,0.7-1,0.5
		c-0.2-0.1-0.1-0.2-0.1-0.3c0.2-0.8,0.4-1.7,0.6-2.5C51.6,42.8,51.7,42.6,51.6,42.5z"/>
	<path class="st13" d="M64.9,41.6c0.8,0,1.2,0.3,1.3,1c0.3,1.6-1.2,3.4-2.6,3.3c-0.7-0.1-1.1-0.4-1.2-1.1c-0.2-1.1,0.6-2.6,1.6-3.1
		C64.4,41.6,64.6,41.6,64.9,41.6z"/>
	<path class="st14" d="M59.4,43.1c0,1.4-1.2,2.8-2.5,2.8c-0.9,0-1.4-0.5-1.4-1.4c0.1-1.2,0.6-2.2,1.8-2.8c0.5-0.2,1-0.2,1.4,0
		C59.3,42,59.4,42.6,59.4,43.1z"/>
	<path class="st13" d="M60.8,45.2c0.4-0.2,0.6-0.4,0.8-0.7c0.1-0.2,0.3-0.3,0.5-0.1c0.2,0.2,0,0.3-0.1,0.5c-0.5,0.4-0.9,0.9-1.6,1
		c-0.5,0.1-0.7-0.1-0.6-0.6c0.2-1.2,0.5-2.4,0.8-3.6c0.1-0.5,0.2-1,0.5-1.5c0.4-0.9,1.3-1.5,2.4-1.4c0.3,0,0.4,0.1,0.4,0.4
		c0,0.3-0.2,0.4-0.4,0.4c-0.2,0-0.4,0-0.6,0c-0.4-0.1-0.7,0-0.8,0.4c-0.4,1.2-0.6,2.5-0.9,3.7C61,44.2,60.9,44.6,60.8,45.2z"/>
	<path class="st15" d="M38.8,45.1c0.1-1.3,0.5-2.2,1.2-3c0.5-0.5,1.1-0.5,1.8-0.4c0.4,0.1,0.5,0.8,0.2,1.2c-0.4,0.6-1.1,0.8-1.7,1.1
		c-0.2,0.1-0.5,0.2-0.4,0.5c0,0.2,0,0.5,0.2,0.6c0.2,0.1,0.4,0,0.6-0.2c0.2-0.2,0.4-0.3,0.6-0.5c0.1-0.1,0.3-0.1,0.4,0
		c0.1,0.1,0.1,0.2-0.1,0.4c-0.4,0.4-0.8,0.8-1.4,1C39.4,46.1,38.7,45.9,38.8,45.1z"/>
	<path class="st16" d="M112.5,42.8c0-0.5,0.4-0.8,0.6-1.1c0.1-0.3,0.3-0.5,0-0.8c0.3,0.1,0.4,0.1,0.6-0.2c0.2-0.6,0.6-1,0.7-1.7
		c0-0.2,0.3-0.5,0.5-0.8c0,0-0.1,0-0.1-0.1c-0.1,0-0.4,0.1-0.4-0.1c0-0.1,0.2-0.2,0.4-0.2c0.3,0,0.4-0.2,0.4-0.4
		c0.3-1,0.8-2,0.9-3.1c0.1-0.6,0.2-1.2,0.2-1.8c-0.1-0.6,0-1.1,0.1-1.7c0.1-0.8-0.2-1.7-0.1-2.5c0.1-0.7,0-1.4-0.1-2.1
		c-0.2-1.1-0.2-2.2-0.8-3.2c-0.2-0.4-0.2-0.9-0.4-1.3c-0.2-0.4-0.4-0.8-0.6-1.2c-0.1-0.2-0.2-0.6-0.3-0.9c-0.4-1.1-1.3-2-1.9-3
		c-0.1-0.2-0.2-0.1-0.4,0c0.2-0.5-0.1-0.7-0.3-0.9c-0.5-0.4-0.8-0.9-1.3-1.3c-0.2-0.2-0.4-0.5-0.5-0.9c0.7,0.6,1.3,1.3,1.9,2
		c2.6,3,4.2,6.5,4.9,10.5c0.9,5.6,0,10.9-2.9,15.8C113.1,42.1,112.9,42.5,112.5,42.8z"/>
	<path class="st17" d="M45,41.6c0.1,0,0.2,0,0.3,0c0.4,0,0.7,0.1,0.6,0.5c0,0.5-0.4,0.3-0.7,0.3c0,0-0.1,0-0.1-0.1
		c-0.8-0.2-1-0.2-1.3,0.6c-0.2,0.5-0.3,1-0.3,1.6c0,0.5,0.4,0.7,0.9,0.5c0.2-0.1,0.4-0.3,0.7-0.4c0.1-0.1,0.3-0.2,0.5,0
		c0.1,0.2,0,0.3-0.2,0.4c-0.6,0.4-1.2,0.8-2,0.8c-0.4,0-0.7-0.3-0.8-0.7c-0.2-1.1,0.5-2.8,1.5-3.4C44.3,41.7,44.7,41.6,45,41.6z"/>
	<path class="st18" d="M5,18.5c0.1,0.2,0.1,0.5,0,0.7c-0.2,0.5,0,1,0,1.5c0,1.2,0.1,2.4,0,3.6c-0.2,2.6,0,5.2-0.1,7.8
		c0,0.4,0,0.7,0,1c0,0.3,0,0.7,0.5,0.8c0.2,0,0.2,0.2,0.3,0.4c-0.1,0.1-0.1,0.1-0.2,0c-0.6-0.3-0.8-0.8-0.9-1.3
		c-0.1-2.3-0.1-4.6,0-7c0.1-2,0-3.9,0-5.9c0-0.2,0-0.4,0-0.6c0.1-0.2,0-0.4,0.1-0.6l0,0C4.9,18.8,4.8,18.5,5,18.5z"/>
	<path class="st17" d="M73.7,45.9c0,0.1,0,0.2-0.1,0.2c-0.3,0.3-0.4,0.3-0.8-0.3c0-0.3,0-0.5,0-0.8c0.1-0.1,0-0.2,0.2-0.3
		c0.4-0.4,0.4-0.4-0.1-1.1c-0.1,0.2,0,0.4-0.3,0.3c-0.1-0.5-0.2-1-0.5-1.4c-0.2-0.3-0.4-0.4-0.7-0.1c-0.2,0.1-0.3,0.1-0.5,0
		c-0.1-0.3,0.1-0.3,0.3-0.4c0.1-0.1,0.2-0.1,0.3-0.2c0.5-0.5,1.1-0.6,1.4,0.2c0.3,0.7,0.6,1.5,0.6,2.3c0,0.1,0,0.1,0,0.2
		c0,0,0,0.1,0,0.1c-0.1,0.1-0.1,0.2,0,0.3c0,0.1,0.2,0.3,0,0.4c-0.1,0.1-0.2,0-0.4-0.1C73.3,45.7,73.6,45.7,73.7,45.9z"/>
	<path class="st19" d="M111.8,20.7c0.2,0,0.3,0.1,0.4,0.2c0.4,1.1,0.9,2.1,1.3,3.3c0.2,0.8,0.3,1.7,0.4,2.5c0,0.3,0.1,0.5,0.1,0.8
		c0,0.2-0.2,0.5,0.3,0.5c0.1,0,0,0.3,0,0.3c-0.2,0.3-0.2,0.6-0.2,1c0,1.1,0.1,2.2-0.1,3.3c0,0.2-0.1,0.3-0.1,0.5
		c-0.1,0.2-0.1,0.5,0,0.6c0.5,0.4,0,0.7-0.2,0.9c-0.3,0.3-0.1,0.7-0.5,0.9c0.2-0.7,0.4-1.4,0.5-2.2c0.3-1.7,0.3-3.4,0.2-5.2
		c-0.1-1.6-0.4-3.2-0.9-4.7C112.7,22.4,112.2,21.6,111.8,20.7z"/>
	<path class="st17" d="M73.7,45.9c-0.6-0.2-0.7-0.3-0.6-0.7c0.2,0,0.2,0.4,0.4,0.3c0.2-0.1-0.2-0.2-0.1-0.4c0.1-0.1,0.1-0.3,0.2-0.4
		c0.1-0.1,0.1-0.1,0.2-0.2c0.3-0.8,0.5-1.5,0.3-2.3c-0.1-0.5,0-0.6,0.6-0.5c0.1,0.1,0.2,0.1,0.3,0.2c0.2,0.9-0.1,1.7-0.4,2.5
		C74.3,44.9,74.1,45.4,73.7,45.9z"/>
	<path class="st17" d="M72.8,45.8c0.1,0.2,0.5,0,0.4,0.4c0,0.1,0.2-0.2,0.3-0.1c-0.3,0.7-0.8,1.2-1.3,1.7c-0.6,0.6-1.4,0.6-2.1,0.5
		c-0.2,0-0.3-0.1-0.3-0.3c0-0.2,0-0.3,0.2-0.4c0.2-0.1,0.4-0.1,0.7,0c0.9,0.1,1.5-0.3,1.8-1.2C72.7,46.2,72.8,46,72.8,45.8z"/>
	<path class="st20" d="M69.6,27.5c0.5,0.3,1.2,0.3,1.7,0.3c0.4,0,0.8,0,1.3-0.1c0.2,0,0.4,0,0.4,0.2c0,0,0,0.1,0,0.1
		c0.9,0.1,0.2,0.7,0.3,1c0,0.2,0,0.4,0.1,0.7c0.2,0.4-0.2,0.4-0.4,0.5c-0.4-0.1-0.8,0-1.2-0.1c0.3-0.1,0.5-0.1,0.8-0.1
		c0.3,0,0.5-0.2,0.5-0.4c0.1-0.3,0.1-0.7,0-1.1c-0.1-0.4-0.4-0.5-0.8-0.5c-1,0-2,0-3-0.2c-0.7-0.1-1.3-0.4-1.8-0.9
		c0.2-0.1,0.3,0,0.5,0.1c0.4,0.1,0.6,0.5,0.9,0.6C69.2,27.7,69.5,27.9,69.6,27.5z"/>
	<path class="st21" d="M105.8,28.6c-0.3,0.1-0.6-0.1-0.7,0.3c0,0.1-0.1,0.1-0.2,0.1c-0.1-0.1-0.1-0.4,0-0.4c0.6-0.4,0.3-0.7,0-1.1
		c-0.3-0.3-0.6-0.7-0.9-1c-0.2-0.3-0.4-0.5-0.6-0.8c-0.1-0.2-0.2-0.5-0.5-0.5c-0.1,0-0.1-0.1-0.1-0.2c0.1-0.2-0.1-0.3-0.2-0.3
		c-0.4-0.1-0.5-0.6-0.9-0.7c-0.1,0-0.2-0.3-0.1-0.4c0.2,0,0.3,0.2,0.4,0.1c0.1,0.2,0.1,0.5,0.4,0.6c1.2,1.2,2.2,2.7,3.3,4.1
		C105.8,28.4,105.8,28.5,105.8,28.6z"/>
	<path class="st22" d="M35.9,33.2c-0.1-0.2,0-0.5,0-0.7c0-1.7-0.1-3.4-0.1-5.1c0-1.2,0-2.3,0-3.5c0-0.3,0-0.7-0.1-1
		c0-0.1-0.2-0.4,0.2-0.3c0.1,1.4,0.1,2.8,0.1,4.2c0.1,1.8,0.1,3.6,0.1,5.4C36.1,32.6,36,32.9,35.9,33.2z"/>
	<path class="st23" d="M100.2,52.1c-0.1,0.4-0.4,0.6-0.2,1c0,0.1-0.1,0.2-0.2,0.3c-0.4,0.1-0.5,0.4-0.7,0.8
		c-0.3,0.7-0.6,1.4-0.6,2.2c0,0.6,0.1,1.3,0,1.9c0,0.2,0.1,0.2,0.2,0.2c0,0.2-0.1,0.4-0.3,0.6c-0.4-2.6,0.2-5,1.7-7.1
		C100.1,52.1,100.1,52.1,100.2,52.1z"/>
	<path class="st24" d="M15,33.3c0.2-0.2,0.1-0.4,0.1-0.6c0-4.4,0-8.8,0-13.2c0-0.2-0.1-0.4,0.1-0.6c0.1,0.6,0.1,1.1,0.1,1.7
		c0,4.1,0,8.1,0,12.2c0,0.5,0,1-0.5,1.4c-0.1,0.1-0.1,0.1-0.2,0.1C14.7,33.9,15.1,33.7,15,33.3L15,33.3z"/>
	<path class="st25" d="M27.7,28.1c-0.1-0.2-0.1-0.3-0.1-0.5c0-2.1,0-4.2,0-6.3c0-0.7,0-1.5-0.1-2.2c0-0.6-0.7-1.1-1.3-1.2
		c-0.5-0.1-1,0.2-1.5,0.2c0.5-0.4,1.2-0.5,1.8-0.3c0.6,0.3,1.1,0.7,1.1,1.5C27.8,22.3,27.8,25.2,27.7,28.1z"/>
	<path class="st26" d="M99.7,7.9c-1,0-2-0.2-3-0.4c-0.1,0-0.3,0-0.4,0c-2,0-3.9,0-5.9,0c-0.4,0-0.7,0.1-1.1,0.2
		c-0.1-0.1-0.3,0-0.5-0.1c0.5-0.2,1.1-0.2,1.7-0.2c1.9,0,3.8,0,5.7,0C97.4,7.4,98.6,7.5,99.7,7.9z"/>
	<path class="st21" d="M105.9,31.4c0,0.1,0,0.2,0.1,0.4c0.2,0.6,0.2,0.6,0.7,0.4c0,0.4-0.3,0.4-0.5,0.5c-0.5-0.9-0.9-2-1.4-2.9
		c0-0.1-0.1-0.2-0.1-0.3c-0.1-0.1-0.1-0.3-0.3-0.2c-0.2,0-0.1,0.2-0.1,0.3c0,0.1,0,0.3,0,0.4c0,0-0.1,0-0.1,0c0,0-0.1-0.1-0.1-0.1
		c0.1-0.2,0.1-0.4,0-0.6c0-0.2,0.3-0.3,0.1-0.5c0,0-0.1-0.2,0.1-0.3c0.1,0,0.2,0,0.2,0.1c0,0.4,0.4,0.6,0.5,1.1
		c0.1-0.4,0.3-0.4,0.5-0.2c0,0,0,0,0,0.1c-0.2,0.3-0.2,0.6,0,0.9c0,0.2-0.1,0.4,0.2,0.4c0.2-0.1,0.2,0.1,0.3,0.2
		C105.9,31.3,105.9,31.4,105.9,31.4z"/>
	<path class="st27" d="M30.3,22c0.6-0.1,1.3,0.1,1.9-0.1c0.3-0.1,0.4,0.2,0.4,0.4c0.1,0.5,0,1,0,1.6c0,2.8,0,5.6,0,8.4
		c0,0.2,0,0.4,0,0.6c-0.1-0.2-0.1-0.3-0.1-0.5c0-3.2,0-6.3,0-9.5c0-0.8,0-0.8-0.8-0.8C31.3,22.1,30.8,22.2,30.3,22z"/>
	<path class="st28" d="M60.7,31.2c0.5-0.1,0.5,0.2,0.5,0.5c0,0.3,0,0.5,0.4,0.5c0.2,0,0.2,0.1,0.2,0.3c-0.1,0.1-0.3,0.2-0.2,0.3
		c0.2,0.3,0.1,0.7,0.4,1c0.3,0.3,0.7,0.4,1.1,0.7c0.1,0.1,0.2,0,0.3-0.1c0.2-0.1,0.4-0.1,0.6,0.1c-1,0.3-1.9-0.1-2.3-1.1
		c-0.2-0.5-0.4-1.1-0.5-1.6C60.9,31.5,60.8,31.3,60.7,31.2z"/>
	<path class="st29" d="M83.9,42.6c0.1,0,0.2,0,0.2,0.1c0.4,0.6,0.9,0.4,1.3,0.2c0.2-0.1,0.5-0.1,0.7,0c0.4,0.2,0.7,0.2,1.1,0.2
		c0.5,0,1,0.1,1.5,0.2c0.5,0.1,1.1,0.5,1.5,0.9c0,0,0,0.1,0,0.1c-1-0.4-2-0.9-3.1-1c-0.8-0.1-1.5-0.1-2.3,0
		C84.3,43.2,84.1,43,83.9,42.6z"/>
	<path class="st30" d="M51.1,23.8c-0.1-0.2-0.2-0.4-0.1-0.6c0.2-0.7,0-1.3-0.1-2c-0.2-0.9-0.5-1.8-1.4-2.2c-0.2-0.1-0.4-0.5-0.6-0.7
		c0.8,0.3,1.3,0.9,1.7,1.6C51.1,21.2,51.4,22.4,51.1,23.8z"/>
	<path class="st31" d="M20.2,23.4c-0.2,0-0.2-0.2-0.2-0.3c0-1-0.1-2,0.1-3c0.1-0.6-0.3-1.1-0.3-1.6c0.4,0.2,0.5,0.6,0.5,1
		C20.2,20.7,20.2,22.1,20.2,23.4z"/>
	<path class="st21" d="M107.2,30.6c-0.3-0.2-0.4-0.5-0.6-0.7c-0.2,0.3-0.2,0.5,0.1,0.7c0.2,0.2,0.2,0.4,0.4,0.5
		c0.2,0.3-0.1,0.2-0.2,0.2c-0.2,0-0.2-0.1-0.3-0.2c-0.1-0.1-0.2-0.3-0.3-0.4c0-0.4,0-0.8,0-1.2c0-0.1,0.1-0.1,0-0.2
		c-0.1-0.2-0.4-0.4-0.3-0.7c0.5,0.5,1,1,1.3,1.7C107.2,30.4,107.2,30.5,107.2,30.6z"/>
	<path class="st32" d="M99.6,38.4c0-0.3,0.1-0.5,0.5-0.6c0.2-0.1,0.2-0.3,0.3-0.5c0-0.2,0.1-0.4,0.3-0.4c0.6,0.1,0.9-0.4,1.2-0.7
		c0.2-0.1,0.3-0.3,0.5-0.3c-0.7,0.8-1.6,1.4-2.3,2.1C100,38.1,99.8,38.3,99.6,38.4z"/>
	<path class="st31" d="M21.8,30c-1,0.1-1.6-0.8-1.6-1.7c0-1.5,0-3,0-4.5c0.1,0.2,0.1,0.4,0.1,0.6c0,1.3,0,2.5,0.1,3.8
		c0.1,0.9,0.5,1.4,1.3,1.7C21.7,29.9,21.7,29.9,21.8,30z"/>
	<path class="st33" d="M71.8,30.1c0.4,0.1,0.8-0.1,1.2,0.1c-1.5-0.1-2.9,0.1-4.4,0.1c-0.4,0-0.8,0.1-1.3,0.1c0-0.1,0.1-0.1,0.2-0.1
		c0.1-0.1,0.3,0,0.5-0.1c0.5-0.1,1-0.1,1.5-0.1C70.3,30.1,71.1,30.1,71.8,30.1z"/>
	<path class="st34" d="M34.4,34.5c0.2-0.2,0.4-0.4,0.7-0.4c0.1,0,0.2-0.1,0.3-0.1c0.1-0.1,0.2-0.2,0.1-0.3c-0.1-0.1-0.2-0.1-0.3,0
		c-0.1,0.1-0.2,0.1-0.3,0c0,0-0.1-0.1,0-0.2c0-0.2,0.2-0.1,0.3-0.1c0.3,0,0.5,0,0.8,0C35.7,34,35.2,34.4,34.4,34.5z"/>
	<path class="st35" d="M77.9,16.8c0-0.3,0.2-0.4,0.3-0.6c0.2-0.2,0.5-0.5,0.6-0.8c0.2-0.4,0.6-0.5,1-0.6
		C79.1,15.5,78.5,16.2,77.9,16.8z"/>
	<path class="st36" d="M81.9,38.9c-0.2,0-0.4,0-0.4-0.3c0-0.3-0.2-0.5-0.7-0.4c0.2,0.3,0.3,0.5,0.3,0.8c-0.3-0.2-0.4-0.5-0.6-0.8
		c0.2-0.2,0.5-0.2,0.8-0.2c0.3,0,0.4,0.1,0.4,0.4C81.7,38.6,81.9,38.7,81.9,38.9z"/>
	<path class="st37" d="M72.6,44.1c0.2-0.1,0.2-0.3,0.2-0.5c0-0.1,0.1-0.1,0.1-0.1c0,0,0.1,0,0.1,0c-0.1,0.3,0.3,0.5,0.3,0.8
		c0,0.3,0,0.6-0.4,0.6c-0.1-0.1-0.1-0.2,0-0.4c-0.2,0.2-0.1,0.3-0.2,0.4C72.7,44.6,72.7,44.3,72.6,44.1z"/>
	<path class="st35" d="M75,33.5c0.1-0.5,0.4-0.8,0.6-1.3c0.1-0.3,0.2-0.7,0.3-1c0-0.2,0-0.4,0.2-0.5C76.1,31.8,75.9,32.8,75,33.5z"
		/>
	<path class="st38" d="M74.5,24.7c-0.5,0-1-0.2-1.5-0.3c-0.2-0.1-0.3-0.1-0.5-0.1c-0.6,0-1.2,0-1.7,0c-0.2,0-0.3,0.1-0.4-0.2
		c0.1,0,0.2,0,0.3,0c0.2,0.1,0.4,0,0.6,0.1c0.7,0,1.5,0,2.2,0.1C73.8,24.4,74.2,24.5,74.5,24.7z"/>
	<path class="st39" d="M96.2,7.3c-1.9,0.1-3.8,0.1-5.7,0C92.4,7.2,94.3,7.2,96.2,7.3z"/>
	<path class="st40" d="M111.8,39.1c0,0.2,0,0.5-0.3,0.5c-0.2,0-0.3-0.2-0.4-0.4c-0.2-0.3-0.3-0.7-0.3-1.1c0-0.3-0.4-0.6-0.2-1
		c0.3,0.6,0.4,1.2,0.5,1.8c0,0.2,0.1,0.4,0.3,0.4C111.7,39.5,111.7,39.2,111.8,39.1z"/>
	<path class="st41" d="M85.4,11.4c0-0.1,0-0.2,0.1-0.2c0.4-0.1,0.8-0.2,1-0.7c0.1-0.2,0.3-0.1,0.4-0.1v0c-0.2,0.2-0.2,0.2,0.2,0.4
		C86.6,11,86,11.3,85.4,11.4z"/>
	<path class="st42" d="M45,26.1c-0.1,1.1,0.3,2,0.7,3c0.1,0.2,0.2,0.4,0.1,0.6c-0.4-0.9-1-1.8-1-2.9C44.9,26.5,44.9,26.3,45,26.1z"
		/>
	<path class="st43" d="M92.5,9.7c-0.3,0-0.5,0-0.8,0c0,0,0-0.1,0-0.1c1.6,0,3.1,0,4.7,0c0,0,0,0.1,0,0.1c-0.3,0-0.6,0-0.9,0
		C94.5,9.7,93.5,9.7,92.5,9.7z"/>
	<path class="st44" d="M76.1,30.2c0-0.9,0-1.9,0-2.8C76.3,28.3,76.3,29.2,76.1,30.2C76.2,30.2,76.1,30.2,76.1,30.2z"/>
	<path class="st45" d="M91.9,15.8c-0.3,0.1-0.6,0.3-1,0.2c0-0.1,0.2,0,0.2-0.1c-0.3,0-0.6-0.1-0.8-0.4
		C90.9,15.6,91.4,15.6,91.9,15.8z"/>
	<path class="st46" d="M38.3,18c-1.3,0-2.5,0-3.8,0c-0.1,0-0.3,0-0.4-0.1c1.3,0,2.5,0,3.8,0C38.1,17.8,38.2,17.8,38.3,18z"/>
	<path class="st47" d="M98.7,38.9c0.2,0,0.3-0.2,0.4-0.3c0.1-0.1,0.2-0.3,0.5-0.3c-0.5,0.6-1,1.2-1.6,1.7c0-0.5,0.4-0.7,0.6-1
		C98.8,39,98.7,39,98.7,38.9z"/>
	<path class="st48" d="M52.6,33.3c0.3-0.1,0.3,0.3,0.5,0.4c0.3,0.3,0.7,0.4,1,0.7C53.4,34.3,52.9,33.9,52.6,33.3z"/>
	<path class="st49" d="M101.2,54.4c0.3-0.6,0.6-1.1,1.3-1.4C102,53.5,101.6,54,101.2,54.4z"/>
	<path class="st50" d="M93.2,20.8c0,0.7-0.6,1.5-1.2,1.6c0.2-0.3,0.5-0.5,0.7-0.7C92.9,21.4,93.1,21.2,93.2,20.8z"/>
	<path class="st41" d="M87.2,10.8c0.1-0.3,0.3-0.4,0.5-0.4c0.3,0,0.5,0,0.8,0C88.1,10.6,87.6,10.7,87.2,10.8z"/>
	<path class="st51" d="M100.2,52.1c0,0-0.1,0-0.1,0c0.2-0.4,0.5-0.8,0.8-1.2C100.8,51.4,100.6,51.8,100.2,52.1z"/>
	<path class="st17" d="M72.8,44.9c0-0.2,0.1-0.3,0.1-0.5c0-0.1,0.1-0.2,0.2-0.2c0.1,0,0.1,0.2,0.1,0.3c-0.1,0.1-0.2,0.2-0.2,0.4
		c-0.1,0.1-0.1,0.1-0.2,0.2C72.8,45,72.8,44.9,72.8,44.9z"/>
	<path class="st52" d="M104.2,30.1C104.2,30.1,104.2,30.1,104.2,30.1c0.3,0.5,0.1,0.9,0.1,1.4C104,31,104.3,30.5,104.2,30.1z"/>
	<path class="st53" d="M93.5,47.1c0.5,0.3,0.6,0.7,0.5,1.2C93.9,47.9,93.7,47.5,93.5,47.1z"/>
	<path class="st54" d="M107.2,30.6c0-0.1,0-0.1,0-0.2c0.3,0.2,0.4,0.5,0.6,0.8C107.4,31.1,107.3,30.8,107.2,30.6z"/>
	<path class="st55" d="M104.4,19.7c0,0.1-0.1,0.2-0.2,0.4c0-0.6,0-1,0-1.6c0.2,0.4,0,0.8,0.2,1.1C104.4,19.6,104.4,19.6,104.4,19.7z
		"/>
	<path class="st54" d="M108.7,32.7c-0.5-0.2-0.4-0.6-0.6-1C108.4,32,108.6,32.3,108.7,32.7z"/>
	<path class="st56" d="M32.6,33.3c0.4,0.1,0.3,0.6,0.6,0.8C32.8,33.9,32.7,33.6,32.6,33.3z"/>
	<path class="st57" d="M83.4,9.4c-0.1,0.4-0.4,0.4-0.8,0.4C82.8,9.6,83.1,9.5,83.4,9.4z"/>
	<path class="st50" d="M91.8,22.6c-0.1,0.3-0.3,0.5-0.7,0.6C91.4,23,91.5,22.7,91.8,22.6z"/>
	<path class="st58" d="M102.4,24.2c-0.3-0.1-0.4-0.3-0.4-0.6c0.1-0.1,0.2-0.1,0.3-0.2C102.1,23.7,102.1,23.9,102.4,24.2z"/>
	<path class="st59" d="M106.3,43.6c0,0.4-0.2,0.6-0.5,0.8C106,44.1,106.1,43.8,106.3,43.6z"/>
	<path class="st60" d="M76,26.9c-0.3-0.2-0.3-0.5-0.3-0.8C75.9,26.4,76.1,26.6,76,26.9z"/>
	<path class="st61" d="M55.2,34.3c0.1-0.2,0.3-0.5,0.6-0.6C55.7,34,55.5,34.2,55.2,34.3z"/>
	<path class="st54" d="M108.2,31.7c-0.3-0.1-0.4-0.3-0.4-0.6C108,31.3,108.1,31.5,108.2,31.7z"/>
	<path class="st62" d="M97.2,51.7c0,0.2,0.2,0.2,0.3,0.2c0,0.2-0.1,0.3-0.3,0.2C97,52.1,97,51.9,97.2,51.7z"/>
	<path class="st63" d="M19.8,18.4c-0.2-0.1-0.5-0.1-0.6-0.4C19.4,18,19.7,18.1,19.8,18.4z"/>
	<path class="st64" d="M79.9,33.5c0,0.3-0.1,0.4-0.4,0.4C79.6,33.7,79.7,33.6,79.9,33.5z"/>
	<path class="st65" d="M30.1,18c-0.1,0.2-0.2,0.4-0.5,0.4C29.7,18.2,29.8,18,30.1,18z"/>
	<path class="st66" d="M88.8,7.6c0.2,0,0.3-0.1,0.5,0.1c-0.3,0-0.7,0-1,0C88.5,7.6,88.6,7.5,88.8,7.6z"/>
	<path class="st67" d="M5,18.5c-0.2,0.1,0,0.4-0.3,0.4c0-0.2,0.1-0.4,0.3-0.6C5,18.4,5,18.5,5,18.5z"/>
	<path class="st68" d="M108.5,12.5c-0.3,0-0.4-0.3-0.6-0.5C108.2,12.1,108.4,12.3,108.5,12.5z"/>
	<path class="st46" d="M38.8,18.3c-0.2-0.1-0.4-0.2-0.5-0.4C38.6,18,38.7,18.2,38.8,18.3z"/>
	<path class="st69" d="M106.4,14.1c0.3,0,0.4,0.2,0.5,0.4C106.7,14.4,106.5,14.3,106.4,14.1z"/>
	<path class="st70" d="M82.6,31.2c-0.1,0.2-0.2,0.4-0.5,0.4C82.3,31.4,82.4,31.2,82.6,31.2z"/>
	<path class="st71" d="M70.9,42.6c0.2,0,0.3,0,0.5,0C71.3,42.8,71.1,42.9,70.9,42.6z"/>
	<path class="st72" d="M57.9,18c-0.1,0.2-0.3,0.4-0.5,0.5C57.5,18.3,57.7,18.1,57.9,18z"/>
	<path class="st73" d="M55.9,33.5c0-0.2-0.1-0.4,0.2-0.5C56.1,33.2,56,33.4,55.9,33.5z"/>
	<path class="st74" d="M64.3,34.2c0-0.2,0.1-0.4,0.4-0.4C64.5,34,64.4,34.2,64.3,34.2z"/>
	<path class="st75" d="M107.7,15.2c0.3,0,0.4,0.1,0.4,0.4C108,15.5,107.9,15.4,107.7,15.2z"/>
	<path class="st69" d="M105.9,13.7c0.3-0.1,0.4,0.1,0.4,0.3C106.1,14,106,13.9,105.9,13.7z"/>
	<path class="st64" d="M79.5,33.9c0,0.2-0.2,0.4-0.4,0.4C79.2,34.1,79.3,33.9,79.5,33.9z"/>
	<path class="st76" d="M87.1,16.4c0.3,0,0.4,0.1,0.5,0.4C87.4,16.7,87.3,16.6,87.1,16.4z"/>
	<path class="st77" d="M87.7,26.5c-0.1,0.2-0.1,0.4-0.4,0.4C87.4,26.7,87.4,26.5,87.7,26.5z"/>
	<path class="st78" d="M112.4,37.7c0.2,0.2,0,0.3-0.1,0.4c0,0,0-0.1-0.1-0.1C112.3,37.8,112.4,37.7,112.4,37.7z"/>
	<path class="st79" d="M67.2,26.5c0.3,0,0.3,0.2,0.3,0.4C67.3,26.8,67.2,26.7,67.2,26.5z"/>
	<path class="st67" d="M4.7,18.9c0.1,0.2,0,0.4-0.1,0.6C4.7,19.3,4.6,19.1,4.7,18.9z"/>
	<path class="st80" d="M64.7,31.2c-0.2-0.1-0.3-0.3-0.1-0.5C64.6,30.8,64.7,31,64.7,31.2z"/>
	<path class="st35" d="M76.1,30.2C76.1,30.2,76.2,30.2,76.1,30.2c0.1,0.2,0.1,0.4,0,0.6C76.1,30.6,76.1,30.4,76.1,30.2z"/>
	<path class="st8" d="M71.3,24.3c-0.2,0-0.4,0.1-0.6-0.1C70.9,24.2,71.1,24.2,71.3,24.3z"/>
	<path class="st81" d="M104.5,51.2c0.1-0.1,0.2-0.3,0.4-0.3C104.7,51.1,104.7,51.2,104.5,51.2z"/>
	<path class="st82" d="M102.5,39.4c-0.1,0.2-0.2,0.3-0.4,0.3C102.2,39.5,102.3,39.4,102.5,39.4z"/>
	<path class="st83" d="M82.7,41.1c0.2,0.1,0.3,0.2,0.3,0.4C82.9,41.4,82.7,41.2,82.7,41.1z"/>
	<path class="st71" d="M71.5,42c0,0.2-0.1,0.2-0.3,0.2C71.3,42.1,71.4,42,71.5,42z"/>
	<path class="st37" d="M73.8,44.5c0,0.1-0.1,0.2-0.2,0.2c0-0.1-0.1-0.1,0-0.2C73.7,44.5,73.7,44.5,73.8,44.5z"/>
	<path class="st69" d="M105.6,13.5c0.1,0,0.3,0,0.3,0.2C105.8,13.7,105.7,13.6,105.6,13.5z"/>
	<path class="st8" d="M68,30.2c-0.1,0.2-0.3,0.1-0.5,0.1C67.7,30.1,67.9,30.2,68,30.2z"/>
	<path class="st77" d="M87.3,26.9c0,0.2-0.1,0.2-0.3,0.2C87.1,27,87.1,26.9,87.3,26.9z"/>
	<path class="st84" d="M69.5,22.5c0-0.2,0.1-0.3,0.3-0.3C69.7,22.3,69.6,22.4,69.5,22.5z"/>
	<path class="st85" d="M5.5,34.3c0.1,0,0.1,0,0.2,0c0.1,0,0.1,0,0.2,0.1c0,0.1-0.1,0-0.2,0.1C5.7,34.3,5.6,34.3,5.5,34.3z"/>
	<path class="st86" d="M17.5,18.1c0,0.2-0.1,0.2-0.3,0.2C17.2,18.2,17.3,18.2,17.5,18.1z"/>
	<path class="st87" d="M81.4,10.4c0,0.2-0.2,0.2-0.3,0.2C81.2,10.5,81.3,10.4,81.4,10.4z"/>
	<path class="st88" d="M85.1,12.9c-0.1,0-0.2,0-0.3,0c0-0.1,0-0.2,0-0.2C85,12.7,85.1,12.8,85.1,12.9z"/>
	<path class="st89" d="M74.9,41.8c-0.1,0-0.3,0-0.3-0.2C74.8,41.6,74.9,41.7,74.9,41.8z"/>
	<path class="st90" d="M54.6,26.2c0.1,0.2,0.1,0.3-0.1,0.3C54.5,26.4,54.5,26.3,54.6,26.2z"/>
	<path class="st57" d="M83.7,9.2c0,0.2-0.2,0.2-0.3,0.2C83.4,9.3,83.6,9.2,83.7,9.2z"/>
	<path class="st87" d="M81.2,10.6c-0.1,0.2-0.2,0.2-0.4,0.2C80.9,10.7,81,10.6,81.2,10.6z"/>
	<path class="st21" d="M105.4,29.6c0-0.1-0.1-0.3,0.2-0.4c0.1,0,0.2,0,0.3,0.1c0.2,0.2,0,0.3-0.1,0.4c-0.1,0.3,0,0.6-0.4,0.7
		c-0.1-0.1-0.1-0.3,0-0.4C105.5,29.8,105.6,29.7,105.4,29.6z"/>
	<path class="st47" d="M98.7,38.9c-0.4,0-0.3-0.2-0.3-0.4c0-0.2,0.1-0.3,0.2-0.5c0.1-0.1,0.1,0,0.2,0c0.1,0.1,0.1,0.2,0,0.3
		C98.6,38.5,98.7,38.7,98.7,38.9z"/>
	<path class="st8" d="M105.4,29.6c0.2,0,0.2,0.2,0.1,0.3c-0.1,0.1-0.1,0.3-0.1,0.4c0,0.1,0,0.1,0,0.2
		C105.1,30.3,105.1,29.9,105.4,29.6z"/>
	<path class="st8" d="M106.2,30.8c0.2,0,0.3,0.2,0.3,0.4c-0.1,0-0.3,0-0.4,0.1C106.1,31.1,106.2,30.9,106.2,30.8z"/>
	<path class="st36" d="M82,38.9c0.3,0.2,0.2,0.3,0,0.5C82,39.2,82,39.1,82,38.9z"/>
	<path class="st8" d="M105.9,31.2c-0.2,0-0.2-0.1-0.3-0.2c0-0.1,0.1-0.1,0.1-0.1C105.9,30.9,105.9,31,105.9,31.2z"/>
	<path class="st52" d="M104.1,29.4c0.1,0.2,0.1,0.4,0,0.6C104.1,29.8,104.1,29.6,104.1,29.4z"/>
	<path class="st8" d="M106.2,29.4c0.1,0,0.2,0,0.1,0.1c0,0-0.1,0.1-0.1,0.1C106.1,29.5,106.2,29.5,106.2,29.4z"/>
	<path class="st54" d="M107.6,31.8c0.2,0.1,0.3,0.2,0.3,0.4c0,0.1-0.1,0.1-0.2,0.1C107.6,32.2,107.5,32,107.6,31.8z"/>
	<path class="st20" d="M69.6,27.5c-0.3-0.1-0.6,0.1-0.9-0.2C69.1,27.3,69.4,27.1,69.6,27.5z"/>
	<path class="st41" d="M87,10.4c0-0.3,0.2-0.2,0.4-0.2C87.3,10.4,87.1,10.4,87,10.4L87,10.4z"/>
	<path class="st51" d="M100.6,52.1C100.7,52.1,100.7,52.2,100.6,52.1c0.1,0.1,0.1,0.2,0,0.2C100.6,52.3,100.6,52.2,100.6,52.1
		C100.6,52.2,100.6,52.1,100.6,52.1z"/>
	<path class="st91" d="M14.9,20.1c0-0.2,0-0.3,0-0.5c0,0,0.1,0,0.1,0c0,4.6,0,9.1,0,13.7c0,0,0,0,0,0c-0.2-0.2-0.1-0.4-0.1-0.6
		c-0.1-0.1,0-0.3,0-0.4c0-4,0-7.9,0-11.9C14.9,20.3,14.9,20.2,14.9,20.1z"/>
	<path class="st92" d="M14.9,20.1c0,4.2,0,8.4,0,12.6c-0.2-0.1-0.1-0.3-0.1-0.5c0-3.9,0-7.7,0-11.6C14.8,20.4,14.8,20.2,14.9,20.1z"
		/>
	<path class="st93" d="M41,23.4c0.2,0,0.2,0.1,0.2,0.3c0,1.4,0,2.8,0,4.2c0,0.1,0,0.1-0.2,0.2C41,26.5,41,24.9,41,23.4L41,23.4z"/>
	<path class="st94" d="M41,23.4c0-0.1-0.1-0.1-0.1-0.2c0-1.4,0-2.8,0.1-4.2C41,20.5,41,21.9,41,23.4L41,23.4z"/>
	<path class="st95" d="M19.9,33.1c0,0.2-0.1,0.2-0.2,0.2c-0.2,0-0.3-0.1-0.2-0.2c0-0.1,0.1-0.2,0.3-0.2C19.8,32.9,19.9,33,19.9,33.1
		z"/>
	<path class="st96" d="M59,27.8c-1.3,0-1.3,0-0.9-1.1c0.2-0.5,0.3-1,0.5-1.6c0-0.1,0.1-0.3,0.2-0.3c0.2,0,0.2,0.2,0.2,0.3
		c0.3,0.7,0.5,1.5,0.8,2.3c0.1,0.4,0,0.4-0.3,0.4C59.3,27.8,59.1,27.8,59,27.8z"/>
	<path class="st28" d="M61.7,31.9c-0.2-0.1-0.3-0.3-0.3-0.4c0-0.1,0.1-0.1,0.2-0.1C61.8,31.5,61.7,31.7,61.7,31.9z"/>
	<path class="st28" d="M62.1,32.3c0,0.1,0,0.1-0.1,0.1c-0.1,0-0.1-0.1-0.1-0.2c0-0.1,0-0.1,0.1-0.1C62.1,32.2,62.1,32.2,62.1,32.3z"
		/>
	<path class="st97" d="M34.3,34c-0.3-0.3-0.3-0.3-0.2-0.7C34.3,33.7,34.3,33.7,34.3,34z"/>
	<path class="st96" d="M68.8,45.8c-0.1,0.6-0.1,1.2-0.5,1.7c-0.4,0.4-1,0.6-1.4,0.3c-0.3-0.3-0.4-0.6-0.2-1c0.5-0.7,1.2-1.1,1.9-1.5
		C69,45.2,68.7,45.7,68.8,45.8z"/>
	<path class="st98" d="M67.6,44.5c0.1-0.6,0.2-1.2,0.6-1.8c0.2-0.2,0.4-0.4,0.6-0.5c0.2-0.1,0.4-0.1,0.6,0c0.1,0.1,0,0.3,0,0.4
		c-0.1,0.5-0.3,1-0.4,1.5c-0.1,0.3-0.3,0.6-0.5,0.8c-0.2,0.1-0.4,0.3-0.6,0.2C67.6,45,67.6,44.8,67.6,44.5z"/>
	<path class="st99" d="M47.3,42.9c-0.1,0-0.1-0.1-0.1-0.1c0-0.1,0-0.1,0.1-0.1c0.1,0,0.1,0.1,0.1,0.1C47.4,42.9,47.4,42.9,47.3,42.9
		z"/>
	<path class="st100" d="M65.1,43.4c0,0.6-0.1,1.2-0.5,1.7c-0.2,0.2-0.3,0.4-0.6,0.4c-0.3,0-0.4-0.3-0.4-0.5
		c-0.2-0.9-0.1-1.8,0.5-2.6c0.4-0.5,0.7-0.4,0.9,0.2C65.2,42.8,65.1,43.1,65.1,43.4z"/>
	<path class="st101" d="M58.2,43.5c0,0.6-0.1,1.2-0.5,1.7c-0.3,0.4-0.7,0.4-0.9-0.1c-0.4-0.8-0.1-2.3,0.6-2.8
		c0.3-0.3,0.5-0.3,0.7,0.1C58.3,42.7,58.3,43.1,58.2,43.5z"/>
	<path class="st102" d="M41.2,42.5c0,0.4-0.6,1.1-0.9,1.1c-0.1,0-0.2-0.1-0.1-0.2c0.1-0.4,0.2-0.8,0.5-1.2c0.1-0.1,0.2-0.2,0.4-0.1
		C41.2,42.2,41.2,42.3,41.2,42.5z"/>
	<path class="st37" d="M73.6,44.7c0,0.2,0.1,0.4-0.2,0.4C73.4,45,73.3,44.8,73.6,44.7z"/>
</g>
</svg>
