<?xml version="1.0" encoding="utf-8"?>
<!-- Generator: Adobe Illustrator 26.5.0, SVG Export Plug-In . SVG Version: 6.00 Build 0)  -->
<svg version="1.1" id="Layer_1" xmlns="http://www.w3.org/2000/svg" xmlns:xlink="http://www.w3.org/1999/xlink" x="0px" y="0px"
	 viewBox="0 0 120 64" style="enable-background:new 0 0 120 64;" xml:space="preserve">
<style type="text/css">
	.st0{display:none;fill-rule:evenodd;clip-rule:evenodd;fill:#B3B7BC;}
	.st1{display:none;}
	.st2{fill:#FFFFFF;}
	.st3{display:inline;}
	.st4{display:inline;fill:#0B7B48;}
	.st5{fill:#D5A724;}
	.st6{display:inline;fill:#FFFFFF;}
	.st7{display:none;fill:#B3B7BC;}
	.st8{fill:#B3B7BC;}
</style>
<path class="st0" d="M12,0h10.1l5.6,38.6L33.2,0h69.3l-2.3,11.1H41.7l-8.9,50.7H22.7L12,0z"/>
<path class="st0" d="M104.3,47.5c0.3,6-3.1,15.2-10.7,15.2C84.9,62.6,83,51.8,83,47.3h7.1c0,2.6,2.2,5.2,3.8,5.2
	c1.6,0,3.3-2.1,3.3-3.4c0-1.4-0.5-3.4-3.1-5.2c-8.5-5.1-10.4-10.9-10.4-16c-0.3-6,2.6-14.9,10.1-14.9s9.6,10.5,9.6,14.9h-6.7
	c0-2.5-1.6-4.2-3.3-4.2c-1.6,0-2.7,1.6-2.7,3s0.3,2.6,2.9,4.4C97.1,32.7,104.3,38,104.3,47.5L104.3,47.5z M104.7,59.1
	c0.3,0,0.6,0.1,0.8,0.2c0.3,0.1,0.5,0.3,0.7,0.5s0.4,0.4,0.5,0.7s0.2,0.6,0.2,0.8c0,0.3-0.1,0.6-0.2,0.8c-0.1,0.3-0.3,0.5-0.5,0.7
	s-0.4,0.4-0.7,0.5c-0.3,0.1-0.6,0.2-0.8,0.2c-0.3,0-0.6-0.1-0.8-0.2c-0.3-0.1-0.5-0.3-0.7-0.5s-0.4-0.4-0.5-0.7s-0.2-0.6-0.2-0.8
	C102.5,60.1,103.5,59.1,104.7,59.1v-0.5c-1.5,0-2.7,1.2-2.7,2.7c0,0.4,0.1,0.7,0.2,1s0.3,0.6,0.6,0.9c0.3,0.3,0.6,0.5,0.9,0.6
	s0.7,0.2,1,0.2c1.5,0,2.7-1.2,2.7-2.7c0-0.7-0.3-1.4-0.8-1.9s-1.2-0.8-1.9-0.8C104.7,58.6,104.7,59.1,104.7,59.1z"/>
<path class="st0" d="M104.2,60.3h0.7c0.3,0,0.7,0,0.7,0.4s-0.2,0.4-0.6,0.4h-0.9v0.4h0.6l0.6,1.2h0.7l-0.7-1.2
	c0.5,0,0.8-0.3,0.8-0.8c0-0.3-0.1-0.6-0.3-0.8c-0.2-0.1-0.5-0.1-0.8-0.1h-1.4v2.9h0.6L104.2,60.3L104.2,60.3z M45.2,45.4L48,27.6
	l2.7,17.8H45.2z M43.6,55.4h8.5l1.1,6.4h13.5V36.4L75,61.8h7V14.5h-7.1v24.1L67,14.5h-7.4V59l-7.7-44.5H44l-8.2,47.3h7L43.6,55.4
	L43.6,55.4z"/>
<g class="st1">
	<path class="st2" d="M81.9,62.8c0,0.5,0,0.9,0,1.4c-16.9,0-33.9,0-50.8,0c0-21.3,0-42.7,0-64c16.9,0,33.9,0,50.8,0
		c0,20.8,0,41.6,0,62.4c-0.3,0-0.6,0-0.9,0c0-0.9,0-1.7,0-2.6c-0.2,0-0.3,0-0.4,0c0,1,0,2,0,3c0.4,0,0.8,0,1.2,0
		C81.8,63,81.9,62.9,81.9,62.8z M36.7,20c-0.1,10.6,8.5,19.7,19.6,19.8c11,0.1,19.9-8.8,19.9-19.7c0-11.2-9-19.7-19.5-19.8
		C45.6,0.1,36.6,9.2,36.7,20z M47,46C47,46,47,46,47,46c0.5,3.9,0.9,7.8,1.3,11.6c0.7,0,1.3,0,2,0c0-0.1,0-0.1,0-0.2
		c-0.1-1-0.2-2-0.2-3c-0.1-1.3-0.2-2.5-0.3-3.8c-0.1-1.5-0.2-3-0.4-4.5c-0.1-0.8-0.3-1.6-0.9-2.2c-0.7-0.8-1.6-0.9-2.5-0.3
		c-0.6,0.4-0.9,1-1.1,1.7c-0.7,2.5-1.4,5-2.1,7.6c-0.1,0.4-0.2,0.8-0.3,1.3c-0.1-0.1-0.1-0.2-0.1-0.3c-0.7-2.7-1.5-5.5-2.2-8.2
		c-0.2-0.7-0.5-1.3-1-1.8c-1-1-2.4-0.8-3.1,0.5c-0.1,0.2-0.2,0.4-0.2,0.6c-0.1,0.4-0.1,0.8-0.2,1.2c-0.1,1.3-0.3,2.6-0.4,3.8
		c-0.1,1.1-0.2,2.2-0.3,3.3c-0.1,1.4-0.3,2.8-0.4,4.3c0,0.1,0,0.1,0,0.2c0.6,0,1.3,0,1.9,0c0.2,0,0.2-0.1,0.2-0.2
		c0-0.3,0-0.5,0.1-0.8c0.2-1.8,0.4-3.5,0.5-5.3c0.2-1.6,0.3-3.2,0.5-4.8c0-0.2,0-0.4,0.1-0.6c0.1,0.1,0.1,0.1,0.1,0.2
		c0.8,3,1.6,6,2.5,8.9c0.2,0.6,0.4,1.1,0.8,1.6c0.6,0.7,1.4,0.8,2.1,0.3c0.6-0.4,1-1,1.2-1.7c0.6-2,1.1-4.1,1.7-6.1
		C46.4,48,46.7,47,47,46z M56,47.1c0,0,0.1,0,0.1,0c0,0.1,0.1,0.2,0.1,0.2c1.3,3,2.6,5.9,3.9,8.9c0.2,0.5,0.6,1,1.1,1.3
		c1.1,0.6,2.5,0.1,2.7-1.2c0.1-0.3,0-0.6,0-0.9c0-3.6,0-7.3,0-10.9c0-0.2,0-0.3,0-0.5c0-0.3,0-0.6,0-0.9c-0.8,0-1.5,0-2.3,0
		c0.1,3.8,0.1,7.5,0.2,11.3c0,0-0.1,0-0.1,0c-0.2-0.4-0.4-0.9-0.6-1.3c-1.1-2.6-2.3-5.2-3.4-7.8c-0.3-0.7-0.7-1.4-1.4-1.8
		c-0.7-0.5-1.4-0.4-2,0.2c-0.4,0.5-0.7,1-0.7,1.7c0,4,0,7.9,0,11.9c0,0.1,0,0.2,0,0.3c0.7,0,1.4,0,2.2,0C56,54.1,56,50.6,56,47.1z
		 M70.4,57.6c0-0.1,0-0.2,0-0.2c0-0.9,0-1.8,0-2.7c0-1.4,0-2.8,0-4.1c0-1,0-2,0-2.9c0-1.1,0.8-2.1,1.9-2.5c1.1-0.4,2.3-0.1,3,0.8
		c0.8,0.9,0.9,2,0.9,3.2c0,0.1-0.1,0.2-0.2,0.2c-1.6,0-3.3,0-4.9,0c-0.1,0-0.2,0-0.3,0c0,0.5,0,1,0,1.6c1.8,0,3.6,0,5.4,0
		c0,2.3,0,4.5,0,6.8c0.7,0,1.5,0,2.2,0c0-0.1,0-0.3,0-0.4c0-3,0-6.1,0-9.1c0-1.8-0.8-3.2-2.4-4.2c-2.5-1.5-5.7-1-7.1,1.7
		c-0.4,0.7-0.7,1.4-0.7,2.2c0,3.1,0,6.3,0,9.4c0,0.1,0,0.2,0,0.3C69,57.6,69.7,57.6,70.4,57.6z M77,62C77,62,77,62,77,62
		c-0.1-0.6-0.3-1.2-0.4-1.8c0-0.2-0.1-0.2-0.3-0.2c-0.2,0-0.3,0-0.5,0c0,1,0,2,0,3c0.1,0,0.3,0,0.4,0c0-0.8,0-1.6,0-2.3c0,0,0,0,0,0
		c0.1,0.8,0.3,1.6,0.4,2.3c0.2,0,0.3,0,0.5,0c0.1-0.8,0.3-1.6,0.4-2.4c0,0,0,0,0.1,0c0,0.8,0,1.6,0,2.3c0.1,0,0.3,0,0.4,0
		c0-1,0-2,0-2.9c-0.2,0-0.4,0-0.7,0C77.3,60.7,77.2,61.3,77,62z M74.4,60c-0.2,0-0.3,0-0.4,0c0,0.7,0,1.3,0,1.9
		c-0.2-0.5-0.4-1-0.5-1.6c-0.1-0.4-0.2-0.5-0.7-0.3c0,1,0,1.9,0,2.9c0.1,0,0.3,0,0.4,0c0-0.7,0-1.4,0-2c0.2,0.6,0.4,1.1,0.5,1.7
		c0.1,0.5,0.2,0.5,0.6,0.4C74.4,62,74.4,61,74.4,60z M69.2,60c0,0.7,0,1.3,0,1.9c-0.2-0.5-0.3-1-0.5-1.5C68.5,60,68.5,60,68,60
		c0,1,0,1.9,0,2.9c0.1,0,0.3,0,0.4,0c0-0.7,0-1.4,0-2.1c0,0,0,0,0,0c0.2,0.6,0.3,1.1,0.5,1.7c0.1,0.4,0.2,0.5,0.6,0.4
		c0-1,0-1.9,0-2.9C69.5,60,69.4,60,69.2,60z M36.5,63c0.1,0,0.3,0,0.4,0c0-0.7,0-1.4,0-2c0.2,0.6,0.4,1.1,0.5,1.7
		c0.1,0.5,0.2,0.5,0.6,0.4c0-1,0-1.9,0-2.9c-0.1,0-0.3,0-0.4,0c0,0.7,0,1.3,0,1.9c-0.2-0.5-0.4-1-0.5-1.6c-0.1-0.4-0.2-0.5-0.7-0.3
		C36.5,61,36.5,62,36.5,63z M54.8,63c0-0.7,0-1.4,0-2.1c0,0,0,0,0,0c0.2,0.7,0.4,1.4,0.6,2.1c0.2,0,0.4,0,0.5,0c0-1,0-2,0-2.9
		c-0.1,0-0.3,0-0.4,0c0,0.6,0,1.3,0,1.9c-0.1-0.1-0.1-0.2-0.1-0.2c-0.2-0.5-0.3-1-0.4-1.5c0-0.2-0.1-0.3-0.3-0.2c-0.1,0-0.2,0-0.3,0
		c0,1,0,2,0,3C54.6,63,54.7,63,54.8,63z M52.8,61.9C52.8,61.9,52.7,62,52.8,61.9c-0.2-0.6-0.4-1.1-0.6-1.7c0-0.2-0.1-0.2-0.3-0.2
		c-0.1,0-0.2,0-0.3,0c0,1,0,2,0,3c0.1,0,0.3,0,0.4,0c0-0.7,0-1.4,0-2.1c0,0,0,0,0,0c0.2,0.7,0.4,1.4,0.6,2.1c0.2,0,0.3,0,0.5,0
		c0-1,0-2,0-2.9c-0.1,0-0.3,0-0.4,0C52.8,60.7,52.8,61.3,52.8,61.9z M40.2,61.5C40.2,61.5,40.2,61.5,40.2,61.5c0-0.3,0-0.5,0-0.8
		c0-0.5-0.3-0.7-0.8-0.7c-0.5,0-0.8,0.2-0.9,0.7c0,0.6,0,1.2,0,1.8c0,0.4,0.3,0.7,0.8,0.6c0.5,0,0.8-0.2,0.8-0.7
		C40.2,62,40.2,61.8,40.2,61.5z M43.8,61.5c0-0.3,0-0.5,0-0.8c0-0.5-0.3-0.7-0.7-0.8c-0.5,0-0.9,0.2-0.9,0.7c0,0.6,0,1.1,0,1.7
		c0,0.5,0.3,0.7,0.8,0.7c0.5,0,0.8-0.3,0.8-0.7C43.8,62,43.8,61.8,43.8,61.5z M67.6,61.5C67.6,61.5,67.6,61.5,67.6,61.5
		c0-0.3,0-0.5,0-0.8c0-0.5-0.3-0.7-0.8-0.7c-0.5,0-0.8,0.2-0.9,0.7c0,0.6,0,1.1,0,1.7c0,0.5,0.3,0.7,0.8,0.7c0.5,0,0.8-0.2,0.8-0.7
		C67.6,62,67.6,61.8,67.6,61.5z M56.5,60c0,0.8,0,1.5,0,2.3c0,0.5,0.3,0.7,0.8,0.7c0.5,0,0.8-0.3,0.8-0.7c0-0.6,0-1.2,0-1.7
		c0-0.2,0-0.3,0-0.5c-0.2,0-0.3,0-0.5,0c0,0.1,0,0.2,0,0.3c0,0.6,0,1.3,0,1.9c0,0.2-0.1,0.4-0.3,0.4c-0.2,0-0.3-0.1-0.3-0.4
		c0-0.5,0-0.9,0-1.4c0-0.3,0-0.6,0-0.9C56.8,60,56.7,60,56.5,60z M45.3,61.7c0,0.2,0,0.4,0,0.6c0,0.2-0.1,0.3-0.3,0.3
		c-0.2,0-0.3-0.2-0.3-0.4c0-0.3,0-0.6,0-0.9c0-0.3,0-0.5,0-0.8c0-0.2,0.1-0.3,0.3-0.3c0.2,0,0.3,0.1,0.3,0.3c0,0.1,0,0.1,0,0.2
		c0.2,0,0.3,0,0.4,0c0-0.5-0.1-0.8-0.6-0.8c-0.5-0.1-0.9,0.1-1,0.6c0,0.7,0,1.3,0,2c0,0.3,0.2,0.5,0.5,0.5c0.2,0,0.4-0.1,0.6-0.1
		c0.2,0,0.3,0.1,0.5,0.1c0-0.6,0-1.1,0-1.6c-0.3,0-0.5,0-0.8,0c0,0.1,0,0.2,0,0.3C45.1,61.7,45.2,61.7,45.3,61.7z M60.3,63
		c0.2,0,0.3,0,0.5,0c0-0.5,0-0.9,0-1.3c0.5,0,0.6,0,0.6,0.5c0,0.3,0,0.6,0,0.8c0.2,0,0.3,0,0.5,0c-0.2-0.5,0.2-1.1-0.3-1.5
		c0.3-0.2,0.3-0.6,0.3-0.9c0-0.3-0.2-0.4-0.4-0.5c-0.3,0-0.7,0-1.1,0C60.3,61,60.3,62,60.3,63z M47.1,63c0.5,0.1,0.5,0.1,0.5-0.4
		c0-0.2,0.1-0.3,0.1-0.5c0.1,0,0.1,0,0.2,0c0.3,0,0.4,0,0.4,0.3c0,0.2,0.1,0.3,0.1,0.5c0.2,0,0.3,0,0.5,0c-0.2-1-0.4-2-0.6-2.9
		c-0.2,0-0.5,0-0.7,0C47.4,61,47.2,62,47.1,63z M78.9,60c-0.2,1-0.4,2-0.6,2.9c0.5,0.1,0.5,0.1,0.5-0.3c0-0.2,0.1-0.3,0.1-0.5
		c0.1,0,0.2,0,0.2,0c0.3,0,0.4,0.1,0.4,0.3c0,0.2,0.1,0.4,0.1,0.5c0.2,0,0.3,0,0.5,0c-0.2-0.8-0.3-1.6-0.5-2.4
		C79.6,60,79.6,60,78.9,60z M71.2,60c-0.2,1-0.4,2-0.6,2.9c0.2,0,0.3,0,0.5,0c0.1-0.3,0.1-0.6,0.2-0.8c0.1,0,0.1,0,0.2,0
		c0.3,0,0.4,0.1,0.4,0.3c0,0.2,0.1,0.3,0.1,0.5c0.2,0,0.3,0,0.5,0c-0.2-1-0.4-2-0.6-2.9C71.7,60,71.5,60,71.2,60z M36.2,60.8
		c0-0.6-0.2-0.9-0.7-0.9c-0.6,0-0.8,0.2-0.8,0.8c0,0.5,0,1,0,1.6c0,0.5,0.4,0.8,0.9,0.7c0.5-0.1,0.7-0.4,0.6-0.9c-0.1,0-0.3,0-0.4,0
		c0,0.1,0,0.2,0,0.3c-0.1,0.1-0.2,0.2-0.3,0.2c-0.1,0-0.3-0.1-0.3-0.2c0-0.6,0-1.2,0-1.8c0-0.1,0.2-0.2,0.3-0.2
		c0.1,0,0.2,0.1,0.3,0.2c0,0.1,0,0.2,0,0.3C35.9,60.8,36,60.8,36.2,60.8z M64.2,62.1c0,0.1,0,0.2,0,0.2c0,0.2-0.1,0.3-0.3,0.3
		c-0.2,0-0.3-0.1-0.3-0.3c0-0.6,0-1.2,0-1.8c0-0.1,0.1-0.2,0.3-0.3c0.2,0,0.3,0.1,0.3,0.3c0,0.1,0,0.2,0,0.2c0.2,0,0.3,0,0.4,0
		c0-0.6-0.2-0.9-0.7-0.9c-0.6,0-0.8,0.2-0.8,0.8c0,0.5,0,1,0,1.5c0,0.5,0.3,0.8,0.9,0.7c0.5-0.1,0.7-0.4,0.6-0.9
		C64.5,62.1,64.3,62.1,64.2,62.1z M51.1,61.6c0-0.1,0-0.2,0-0.4c-0.3,0-0.5,0-0.7,0c0-0.3,0-0.6,0-0.9c0.3,0,0.5,0,0.8,0
		c0-0.1,0-0.2,0-0.3c-0.4,0-0.8,0-1.3,0c0,1,0,2,0,2.9c0.4,0,0.9,0,1.3,0c0-0.1,0-0.2,0-0.3c-0.3,0-0.6,0-0.9,0c0-0.4,0-0.7,0-1
		C50.6,61.6,50.9,61.6,51.1,61.6z M34.2,61.2c-0.3,0-0.5,0-0.8,0c0-0.3,0-0.6,0-0.9c0.3,0,0.5,0,0.8,0c0-0.1,0-0.2,0-0.3
		c-0.4,0-0.8,0-1.3,0c0,1,0,2,0,2.9c0.4,0,0.9,0,1.3,0c0-0.1,0-0.2,0.1-0.3c-0.3,0-0.6,0-0.9,0c0-0.4,0-0.7,0-1c0.3,0,0.5,0,0.7,0
		C34.2,61.5,34.2,61.4,34.2,61.2z M32.7,60c-0.6,0-1.1,0-1.6,0c0,0.1,0,0.2,0,0.3c0.2,0,0.4,0,0.6,0c0,0.9,0,1.7,0,2.6
		c0.2,0,0.3,0,0.5,0c0-0.9,0-1.7,0-2.6c0.2,0,0.4,0,0.5,0C32.7,60.2,32.7,60.1,32.7,60z M59.5,63c0-0.9,0-1.7,0-2.6
		c0.2,0,0.4,0,0.5,0c0-0.1,0-0.2,0-0.3c-0.5,0-1.1,0-1.6,0c0,0.1,0,0.2,0,0.4c0.2,0,0.4,0,0.6,0c0,0.9,0,1.7,0,2.6
		C59.2,63,59.3,63,59.5,63z M40.7,60c0,1,0,2,0,3c0.4,0,0.9,0,1.3,0c0-0.1,0-0.2,0-0.4c-0.3,0-0.6,0-0.9,0c0-0.9,0-1.7,0-2.6
		C41,60,40.8,60,40.7,60z M62.7,63c0-1,0-2,0-2.9c-0.2,0-0.3,0-0.4,0c0,1,0,2,0,2.9C62.4,63,62.6,63,62.7,63z M65,60c0,1,0,2,0,2.9
		c0.2,0,0.3,0,0.4,0c0-1,0-2,0-2.9C65.3,60,65.2,60,65,60z M46.7,63c0-1,0-2,0-2.9c-0.2,0-0.3,0-0.4,0c0,1,0,2,0,2.9
		C46.4,63,46.6,63,46.7,63z M75.4,63c0-1,0-2,0-3c-0.2,0-0.3,0-0.4,0c0,1,0,2,0,3C75.1,63,75.2,63,75.4,63z M47.3,59.4
		c-0.6-0.1-0.8,0.1-1,0.4C46.7,59.9,47,59.6,47.3,59.4z M66.5,59.8c0.4,0.1,0.7-0.2,1-0.4C67.1,59.2,66.8,59.4,66.5,59.8z"/>
	<path class="st3" d="M81.9,62.8c-0.1,0.1-0.1,0.2-0.2,0.2c-0.4,0-0.8,0-1.2,0c0-1,0-2,0-3c0.2,0,0.3,0,0.4,0c0,0.9,0,1.7,0,2.6
		c0.3,0,0.6,0,0.9,0C81.9,62.7,81.9,62.8,81.9,62.8z"/>
	<path class="st4" d="M36.7,20c-0.1-10.9,8.9-19.9,20-19.8c10.5,0.1,19.5,8.6,19.5,19.8c0,11-8.9,19.8-19.9,19.7
		C45.2,39.8,36.6,30.7,36.7,20z M56.7,10.2c0-0.1,0-0.1,0-0.1c-0.2-1.3-0.4-2.5-0.6-3.8C56,6.1,56,6.1,55.9,6
		c-1.4-0.9-2.8-1.7-4.1-2.6c-0.1-0.1-0.2-0.1-0.3,0c-1.3,1-2.5,2-3.8,3c-0.1,0.1-0.2,0.2-0.1,0.4c0.4,1.6,0.8,3.2,1.2,4.8
		c0,0.1,0.1,0.2,0.2,0.3c0.8,0.6,1.6,1.2,2.4,1.8c0.1,0.1,0.2,0.1,0.3,0c1.6-1.1,3.3-2.3,4.9-3.4C56.6,10.3,56.6,10.2,56.7,10.2z
		 M61.9,28.8c0,0,0.1,0.1,0.1,0.2c1.3,0.9,2.5,1.8,3.8,2.7c0.1,0.1,0.2,0.1,0.3,0.1c1-0.2,2-0.3,2.9-0.5c0.1,0,0.3-0.1,0.4-0.3
		c0.6-1.1,1.1-2.2,1.6-3.2c0.1-0.2,0.1-0.3,0-0.4c-0.4-0.6-0.8-1.2-1.2-1.8c-0.1-0.1-0.2-0.2-0.3-0.3c-1.4-0.6-2.8-1.2-4.3-1.8
		c-0.1-0.1-0.3-0.1-0.4,0c-0.6,0.2-1.2,0.5-1.8,0.7c-0.4,0.1-0.6,0.3-0.6,0.8c0,0.2,0,0.4-0.1,0.5C62.3,26.5,62.1,27.6,61.9,28.8z
		 M55.6,32.7c0,0.7,0,1.3,0,2c0,0.1,0.1,0.3,0.2,0.3c1.1,0.8,2.3,1.5,3.4,2.3c0.1,0,0.2,0.1,0.3,0c1.6-0.8,3.2-1.7,4.8-2.6
		c0.2-0.1,0.2-0.2,0.2-0.4c-0.1-0.4-0.1-0.8-0.1-1.3c0-0.3-0.1-0.4-0.4-0.6c-1.1-0.7-2.2-1.4-3.2-2c-0.2-0.1-0.3-0.3-0.3-0.5
		c0-0.6,0-1.2,0-1.7c0-0.2-0.1-0.3-0.3-0.3c-0.4,0-0.7,0-1.1,0c-0.2,0-0.4,0.1-0.6,0.2c-0.9,0.7-1.9,1.5-2.8,2.2
		c-0.1,0.1-0.2,0.2-0.2,0.4C55.6,31.5,55.6,32.1,55.6,32.7z M71.5,23.9c0.1-0.1,0.2-0.1,0.3-0.2c1-0.9,2.1-1.8,3.1-2.7
		c0.1-0.1,0.2-0.2,0.1-0.4c-0.5-1.3-1-2.6-1.5-3.9c0-0.1-0.2-0.2-0.3-0.2c-1.4-0.3-2.7-0.5-4.1-0.7c-0.1,0-0.3,0-0.4,0.1
		c-0.9,0.9-1.9,1.9-2.8,2.8c-0.1,0.1-0.2,0.2-0.1,0.4c0.5,1.2,1.1,2.3,1.6,3.5c0,0.1,0.2,0.2,0.3,0.2c0.9,0.3,1.8,0.6,2.7,0.9
		C70.8,23.7,71.1,23.8,71.5,23.9z M49.3,28c0-0.6,0-1.1,0-1.7c0-0.1-0.1-0.2-0.1-0.3c-0.9-0.7-1.9-1.3-2.8-2C46.3,24,46.1,24,46,24
		c-1.2,0.4-2.4,0.9-3.6,1.3c-0.2,0.1-0.3,0.2-0.3,0.3c-0.3,1.2-0.6,2.4-0.9,3.6c-0.1,0.2,0,0.3,0.2,0.4c1.3,0.8,2.5,1.5,3.8,2.3
		c0.2,0.1,0.3,0.1,0.5,0c1.2-0.7,2.3-1.3,3.5-2c0.1-0.1,0.2-0.2,0.2-0.4C49.3,29.1,49.3,28.6,49.3,28z M56.5,3.7
		c0.4,0.4,0.7,0.7,1,1c0.1,0.1,0.1,0.2,0.2,0.3c0.1,0.6,0.1,1.3,0.2,1.9c0.1,1.5,0.2,3,0.4,4.5c0,0.2,0.1,0.3,0.3,0.3
		c1.1,0,2.3,0,3.4,0c0.2,0,0.3-0.1,0.4-0.2c0.7-1.2,1.4-2.4,2.2-3.6c0.1-0.2,0.1-0.3,0-0.5c-0.7-1.3-1.4-2.6-2-3.9
		c-0.1-0.2-0.3-0.3-0.5-0.3c-1,0.1-2,0.1-3,0.2C58.1,3.6,57.4,3.6,56.5,3.7z M48.2,17c0.5-0.9,1-1.7,1.5-2.5
		c0.1-0.2,0.1-0.3-0.1-0.5c-0.7-0.5-1.4-1.1-2.1-1.6c-0.2-0.1-0.3-0.3-0.4-0.5c-0.3-1-0.6-2-0.8-3c-0.1-0.2-0.2-0.3-0.4-0.3
		c-0.7,0-1.3,0-2,0c-0.2,0-0.4,0.1-0.5,0.3c-0.7,1.5-1.4,2.9-2.2,4.3c-0.1,0.2-0.1,0.3,0,0.5c0.3,0.6,0.6,1.3,0.9,1.9
		c0.1,0.2,0.2,0.3,0.4,0.3c1.3,0,2.6,0.1,3.9,0.1c0.4,0,0.7,0.1,0.9,0.3C47.7,16.6,47.9,16.8,48.2,17z M70.9,12.2c0-0.4,0-0.8,0-1.3
		c0-0.2-0.1-0.4-0.2-0.6c-0.6-0.7-1.3-1.5-1.9-2.2c-0.1-0.1-0.3-0.2-0.4-0.2c-0.6,0-1.2,0-1.9,0c-0.2,0-0.3,0.1-0.4,0.3
		c-0.8,1.5-1.5,3-2.3,4.5c-0.3,0.6-0.5,1.1-0.4,1.7c0,0.1,0.1,0.3,0.2,0.4c0.6,0.4,1.2,0.8,1.8,1.2c0.2,0.1,0.3,0.1,0.5,0
		c0.8-0.8,1.6-1.5,2.5-2.2c0.2-0.2,0.3-0.2,0.6-0.2c0.6,0.1,1.3,0.2,1.9,0.3c0.2,0,0.3,0,0.3-0.2C70.9,13.1,70.9,12.7,70.9,12.2z
		 M41.1,24.2c0.2-0.1,0.3-0.2,0.5-0.3c1.1-0.6,2.3-1.3,3.4-1.9c0.1-0.1,0.3-0.1,0.5-0.1c0.6,0.1,1.1,0.3,1.7,0.5
		c0.2,0.1,0.3,0,0.3-0.2c0.1-0.4,0.3-0.8,0.4-1.2c0-0.1,0-0.2,0-0.3c-0.7-1-1.4-2-2.1-3c-0.1-0.1-0.2-0.1-0.2-0.2
		c-1.2-0.1-2.5-0.2-3.7-0.2c-0.1,0-0.3,0.1-0.3,0.2c-0.8,1-1.5,1.9-2.2,2.9c-0.1,0.1-0.1,0.2,0,0.4c0.2,0.4,0.5,0.8,0.7,1.2
		C40.3,22.8,40.7,23.5,41.1,24.2z M48.3,33c0.1,0.1,0.1,0.2,0.2,0.3c0.5,0.7,0.9,1.3,1.4,2c0.1,0.2,0.3,0.3,0.5,0.3
		c1.2,0,2.4,0,3.7,0c0.4,0,0.4,0,0.4-0.4c0-1.7,0-3.3,0-5c0-0.2,0.1-0.4,0.3-0.5c0.3-0.2,0.6-0.4,1-0.6c0-0.1-0.1-0.1-0.1-0.2
		c-0.4-0.5-0.7-0.9-1.1-1.4c-0.1-0.1-0.2-0.1-0.4-0.2c-0.8,0-1.6,0-2.5,0c-0.4,0-0.5,0-0.5,0.4c-0.1,1.1-0.1,2.1-0.2,3.2
		c0,0.2-0.1,0.4-0.3,0.5C49.8,31.9,49.1,32.4,48.3,33z"/>
	<path class="st4" d="M47,46c-0.3,1-0.6,2.1-0.8,3.1c-0.6,2-1.1,4.1-1.7,6.1c-0.2,0.7-0.6,1.3-1.2,1.7c-0.7,0.5-1.5,0.4-2.1-0.3
		c-0.4-0.4-0.6-1-0.8-1.6c-0.8-3-1.6-6-2.5-8.9c0-0.1,0-0.1-0.1-0.2c0,0.2-0.1,0.4-0.1,0.6c-0.2,1.6-0.3,3.2-0.5,4.8
		c-0.2,1.8-0.4,3.5-0.5,5.3c0,0.3-0.1,0.5-0.1,0.8c0,0.1,0,0.2-0.2,0.2c-0.6,0-1.2,0-1.9,0c0-0.1,0-0.1,0-0.2
		c0.1-1.4,0.3-2.8,0.4-4.3c0.1-1.1,0.2-2.2,0.3-3.3c0.1-1.3,0.2-2.6,0.4-3.8c0-0.4,0.1-0.8,0.2-1.2c0-0.2,0.1-0.4,0.2-0.6
		c0.7-1.3,2.1-1.5,3.1-0.5c0.5,0.5,0.8,1.1,1,1.8c0.7,2.7,1.5,5.5,2.2,8.2c0,0.1,0.1,0.2,0.1,0.3c0.1-0.4,0.2-0.8,0.3-1.3
		c0.7-2.5,1.4-5,2.1-7.6c0.2-0.7,0.6-1.3,1.1-1.7c0.8-0.7,1.8-0.5,2.5,0.3c0.5,0.7,0.8,1.4,0.9,2.2c0.1,1.5,0.3,3,0.4,4.5
		c0.1,1.3,0.2,2.5,0.3,3.8c0.1,1,0.2,2,0.2,3c0,0,0,0.1,0,0.2c-0.7,0-1.3,0-2,0C47.8,53.7,47.4,49.8,47,46C47,46,47,46,47,46z"/>
	<path class="st4" d="M56,47.1c0,3.5,0,7,0,10.5c-0.8,0-1.5,0-2.2,0c0-0.1,0-0.2,0-0.3c0-4,0-7.9,0-11.9c0-0.7,0.2-1.2,0.7-1.7
		c0.6-0.6,1.3-0.6,2-0.2c0.6,0.5,1.1,1.1,1.4,1.8c1.1,2.6,2.3,5.2,3.4,7.8c0.2,0.4,0.4,0.9,0.6,1.3c0,0,0.1,0,0.1,0
		c-0.1-3.8-0.1-7.5-0.2-11.3c0.8,0,1.5,0,2.3,0c0,0.3,0,0.6,0,0.9c0,0.2,0,0.3,0,0.5c0,3.6,0,7.3,0,10.9c0,0.3,0,0.6,0,0.9
		c-0.3,1.2-1.6,1.8-2.7,1.2c-0.5-0.3-0.8-0.7-1.1-1.3c-1.3-3-2.6-5.9-3.9-8.9c0-0.1-0.1-0.2-0.1-0.2C56.1,47,56.1,47,56,47.1z"/>
	<path class="st4" d="M70.4,57.6c-0.7,0-1.4,0-2.1,0c0-0.1,0-0.2,0-0.3c0-3.1,0-6.3,0-9.4c0-0.8,0.3-1.5,0.7-2.2
		c1.5-2.7,4.6-3.2,7.1-1.7c1.5,0.9,2.4,2.3,2.4,4.2c0,3,0,6.1,0,9.1c0,0.1,0,0.2,0,0.4c-0.7,0-1.4,0-2.2,0c0-2.3,0-4.5,0-6.8
		c-1.8,0-3.6,0-5.4,0c0-0.6,0-1,0-1.6c0.1,0,0.2,0,0.3,0c1.6,0,3.3,0,4.9,0c0.1,0,0.2-0.1,0.2-0.2c0.1-1.2-0.1-2.3-0.9-3.2
		c-0.7-0.9-1.9-1.2-3-0.8c-1.1,0.4-1.9,1.4-1.9,2.5c0,1,0,2,0,2.9c0,1.4,0,2.8,0,4.1c0,0.9,0,1.8,0,2.7
		C70.4,57.4,70.4,57.5,70.4,57.6z"/>
	<path class="st3" d="M77,62c0.1-0.7,0.3-1.3,0.4-2c0.2,0,0.4,0,0.7,0c0,1,0,1.9,0,2.9c-0.1,0-0.2,0-0.4,0c0-0.8,0-1.6,0-2.3
		c0,0,0,0-0.1,0c-0.1,0.8-0.3,1.6-0.4,2.4c-0.1,0-0.3,0-0.5,0c-0.1-0.8-0.3-1.6-0.4-2.3c0,0,0,0,0,0c0,0.8,0,1.5,0,2.3
		c-0.1,0-0.3,0-0.4,0c0-1,0-2,0-3c0.2,0,0.3,0,0.5,0c0.2,0,0.2,0.1,0.3,0.2C76.7,60.8,76.9,61.4,77,62C77,62,77,62,77,62z"/>
	<path class="st3" d="M74.4,60c0,1,0,2,0,2.9c-0.5,0.1-0.5,0.1-0.6-0.4c-0.2-0.6-0.3-1.1-0.5-1.7c0,0.7,0,1.3,0,2
		c-0.1,0-0.3,0-0.4,0c0-1,0-1.9,0-2.9c0.4-0.1,0.5-0.1,0.7,0.3c0.2,0.5,0.3,1,0.5,1.6c0-0.6,0-1.3,0-1.9C74.1,60,74.2,60,74.4,60z"
		/>
	<path class="st3" d="M69.2,60c0.2,0,0.3,0,0.4,0c0,1,0,2,0,2.9c-0.5,0.1-0.5,0.1-0.6-0.4c-0.2-0.6-0.3-1.1-0.5-1.7c0,0,0,0,0,0
		c0,0.7,0,1.4,0,2.1c-0.1,0-0.3,0-0.4,0c0-1,0-2,0-2.9c0.5-0.1,0.5-0.1,0.7,0.4c0.2,0.5,0.3,1,0.5,1.5C69.2,61.3,69.2,60.7,69.2,60z
		"/>
	<path class="st3" d="M36.5,63c0-1,0-1.9,0-2.9c0.4-0.1,0.5-0.1,0.7,0.3c0.2,0.5,0.3,1,0.5,1.6c0-0.6,0-1.3,0-1.9c0.1,0,0.3,0,0.4,0
		c0,1,0,1.9,0,2.9c-0.5,0.1-0.5,0.1-0.6-0.4c-0.2-0.6-0.3-1.1-0.5-1.7c0,0.7,0,1.3,0,2C36.8,63,36.7,63,36.5,63z"/>
	<path class="st3" d="M54.8,63c-0.2,0-0.3,0-0.4,0c0-1,0-2,0-3c0.1,0,0.2,0,0.3,0c0.2,0,0.3,0.1,0.3,0.2c0.1,0.5,0.3,1,0.4,1.5
		c0,0.1,0.1,0.2,0.1,0.2c0-0.6,0-1.3,0-1.9c0.1,0,0.3,0,0.4,0c0,1,0,2,0,2.9c-0.2,0-0.3,0-0.5,0c-0.2-0.7-0.4-1.4-0.6-2.1
		c0,0,0,0,0,0C54.8,61.6,54.8,62.3,54.8,63z"/>
	<path class="st3" d="M52.8,61.9c0-0.6,0-1.3,0-1.9c0.1,0,0.3,0,0.4,0c0,1,0,2,0,2.9c-0.2,0-0.3,0-0.5,0c-0.2-0.7-0.4-1.4-0.6-2.1
		c0,0,0,0,0,0c0,0.7,0,1.4,0,2.1c-0.1,0-0.3,0-0.4,0c0-1,0-1.9,0-3c0.1,0,0.2,0,0.3,0c0.2,0,0.3,0.1,0.3,0.2
		C52.4,60.8,52.5,61.4,52.8,61.9C52.7,62,52.8,61.9,52.8,61.9z"/>
	<path class="st3" d="M40.2,61.5c0,0.3,0,0.6,0,0.8c0,0.5-0.3,0.7-0.8,0.7c-0.5,0-0.8-0.2-0.8-0.6c0-0.6,0-1.2,0-1.8
		c0-0.5,0.4-0.7,0.9-0.7c0.5,0,0.7,0.3,0.8,0.7C40.2,60.9,40.2,61.2,40.2,61.5C40.2,61.5,40.2,61.5,40.2,61.5z M39.1,61.5
		C39.1,61.5,39.1,61.5,39.1,61.5c0,0.3,0,0.5,0,0.8c0,0.2,0.1,0.3,0.3,0.4c0.2,0,0.4-0.1,0.4-0.3c0-0.6,0-1.1,0-1.7
		c0-0.2-0.1-0.3-0.3-0.3c-0.2,0-0.3,0.1-0.3,0.4C39,61,39.1,61.2,39.1,61.5z"/>
	<path class="st3" d="M43.8,61.5c0,0.3,0,0.5,0,0.8c0,0.5-0.3,0.7-0.8,0.7c-0.5,0-0.8-0.2-0.8-0.7c0-0.6,0-1.1,0-1.7
		c0-0.5,0.3-0.7,0.9-0.7c0.5,0,0.7,0.3,0.7,0.8C43.8,61,43.8,61.2,43.8,61.5z M42.7,61.5c0,0.3,0,0.6,0,0.8c0,0.2,0.1,0.4,0.3,0.4
		c0.2,0,0.3-0.1,0.3-0.3c0-0.6,0-1.1,0-1.7c0-0.2-0.1-0.3-0.3-0.3c-0.2,0-0.3,0.1-0.3,0.4C42.7,60.9,42.7,61.2,42.7,61.5z"/>
	<path class="st3" d="M67.6,61.5c0,0.3,0,0.6,0,0.8c0,0.5-0.3,0.7-0.8,0.7c-0.5,0-0.8-0.2-0.8-0.7c0-0.6,0-1.1,0-1.7
		c0-0.5,0.3-0.7,0.9-0.7c0.5,0,0.7,0.3,0.8,0.7C67.6,61,67.6,61.2,67.6,61.5C67.6,61.5,67.6,61.5,67.6,61.5z M66.4,61.5
		c0,0.3,0,0.5,0,0.8c0,0.2,0.1,0.4,0.3,0.4c0.2,0,0.3-0.1,0.3-0.3c0-0.5,0-1.1,0-1.6c0-0.2-0.1-0.3-0.4-0.3c-0.2,0-0.3,0.1-0.3,0.4
		C66.4,60.9,66.4,61.2,66.4,61.5z"/>
	<path class="st3" d="M56.5,60c0.2,0,0.3,0,0.5,0c0,0.3,0,0.6,0,0.9c0,0.5,0,0.9,0,1.4c0,0.2,0.1,0.4,0.3,0.4c0.2,0,0.3-0.2,0.3-0.4
		c0-0.6,0-1.3,0-1.9c0-0.1,0-0.2,0-0.3c0.2,0,0.3,0,0.5,0c0,0.2,0,0.3,0,0.5c0,0.6,0,1.2,0,1.7c0,0.5-0.3,0.7-0.8,0.7
		c-0.5,0-0.8-0.2-0.8-0.7C56.5,61.6,56.5,60.8,56.5,60z"/>
	<path class="st3" d="M45.3,61.7c-0.1,0-0.2,0-0.3,0c0-0.1,0-0.2,0-0.3c0.3,0,0.5,0,0.8,0c0,0.5,0,1.1,0,1.6c-0.2,0-0.3-0.1-0.5-0.1
		c-0.1,0-0.4,0.1-0.6,0.1c-0.3,0-0.5-0.2-0.5-0.5c0-0.7,0-1.3,0-2c0-0.4,0.4-0.6,1-0.6c0.4,0.1,0.6,0.3,0.6,0.8c-0.1,0-0.3,0-0.4,0
		c0-0.1,0-0.1,0-0.2c0-0.2-0.1-0.3-0.3-0.3c-0.2,0-0.3,0.1-0.3,0.3c0,0.3,0,0.5,0,0.8c0,0.3,0,0.6,0,0.9c0,0.2,0.1,0.4,0.3,0.4
		c0.2,0,0.3-0.1,0.3-0.3C45.3,62.1,45.3,61.9,45.3,61.7z"/>
	<path class="st3" d="M60.3,63c0-1,0-1.9,0-2.9c0.4,0,0.7,0,1.1,0c0.3,0,0.4,0.2,0.4,0.5c0,0.3,0.1,0.7-0.3,0.9
		c0.5,0.4,0.1,1,0.3,1.5c-0.2,0-0.3,0-0.5,0c0-0.3,0-0.6,0-0.8c0-0.5-0.1-0.5-0.6-0.5c0,0.4,0,0.9,0,1.3C60.6,63,60.5,63,60.3,63z
		 M60.8,61.4c0.2-0.1,0.4-0.1,0.5-0.2c0.1-0.2,0.1-0.4,0-0.6c0-0.1-0.3-0.1-0.5-0.2C60.8,60.7,60.8,61,60.8,61.4z"/>
	<path class="st3" d="M47.1,63c0.2-1,0.4-2,0.6-2.9c0.2,0,0.4,0,0.7,0c0.2,1,0.4,1.9,0.6,2.9c-0.2,0-0.3,0-0.5,0
		c0-0.2-0.1-0.3-0.1-0.5c0-0.3-0.2-0.4-0.4-0.3c-0.1,0-0.1,0-0.2,0c0,0.2-0.1,0.3-0.1,0.5C47.5,63,47.5,63,47.1,63z M47.7,61.7
		c0.2,0,0.3,0,0.4,0c-0.1-0.4-0.1-0.8-0.2-1.2c0,0,0,0-0.1,0C47.9,60.9,47.8,61.3,47.7,61.7z"/>
	<path class="st3" d="M78.9,60c0.7-0.1,0.7-0.1,0.8,0.6c0.2,0.8,0.3,1.6,0.5,2.4c-0.2,0-0.3,0-0.5,0c0-0.2-0.1-0.3-0.1-0.5
		c0-0.3-0.1-0.4-0.4-0.3c-0.1,0-0.1,0-0.2,0c0,0.2-0.1,0.3-0.1,0.5C78.8,63,78.8,63,78.4,63C78.6,62,78.7,61,78.9,60z M79.1,61.7
		c0.1,0,0.3,0,0.4,0c-0.1-0.4-0.1-0.8-0.2-1.2c0,0,0,0,0,0C79.2,60.9,79.1,61.3,79.1,61.7z"/>
	<path class="st3" d="M71.2,60c0.2,0,0.4,0,0.7,0c0.2,1,0.4,2,0.6,2.9c-0.2,0-0.3,0-0.5,0c0-0.2-0.1-0.3-0.1-0.5
		c0-0.3-0.1-0.4-0.4-0.3c-0.1,0-0.1,0-0.2,0c-0.1,0.3-0.1,0.5-0.2,0.8c-0.2,0-0.3,0-0.5,0C70.8,62,71,61,71.2,60z M71.6,60.6
		C71.6,60.6,71.6,60.6,71.6,60.6c-0.1,0.4-0.2,0.8-0.2,1.2c0.2,0,0.3,0,0.4,0C71.7,61.3,71.7,60.9,71.6,60.6z"/>
	<path class="st3" d="M36.2,60.8c-0.2,0-0.3,0-0.4,0c0-0.1,0-0.2,0-0.3c-0.1-0.1-0.2-0.2-0.3-0.2c-0.1,0-0.2,0.1-0.3,0.2
		c0,0.6,0,1.2,0,1.8c0,0.1,0.2,0.2,0.3,0.2c0.1,0,0.2-0.1,0.3-0.2c0-0.1,0-0.2,0-0.3c0.2,0,0.3,0,0.4,0c0.1,0.5-0.1,0.8-0.6,0.9
		c-0.5,0.1-0.9-0.2-0.9-0.7c0-0.5,0-1,0-1.6c0-0.6,0.3-0.8,0.8-0.8C36,60,36.2,60.2,36.2,60.8z"/>
	<path class="st3" d="M64.2,62.1c0.2,0,0.3,0,0.4,0c0.1,0.5-0.1,0.9-0.6,0.9c-0.5,0.1-0.9-0.2-0.9-0.7c0-0.5,0-1,0-1.5
		c0-0.6,0.3-0.8,0.8-0.8c0.5,0,0.7,0.3,0.7,0.9c-0.1,0-0.3,0-0.4,0c0-0.1,0-0.2,0-0.2c0-0.2-0.1-0.3-0.3-0.3c-0.1,0-0.2,0.2-0.3,0.3
		c0,0.6,0,1.2,0,1.8c0,0.2,0.1,0.3,0.3,0.3c0.2,0,0.3-0.1,0.3-0.3C64.2,62.3,64.2,62.2,64.2,62.1z"/>
	<path class="st3" d="M51.1,61.6c-0.3,0-0.5,0-0.8,0c0,0.3,0,0.7,0,1c0.3,0,0.6,0,0.9,0c0,0.1,0,0.2,0,0.3c-0.4,0-0.8,0-1.3,0
		c0-1,0-1.9,0-2.9c0.4,0,0.8,0,1.3,0c0,0.1,0,0.2,0,0.3c-0.3,0-0.5,0-0.8,0c0,0.3,0,0.6,0,0.9c0.2,0,0.5,0,0.7,0
		C51.1,61.4,51.1,61.4,51.1,61.6z"/>
	<path class="st3" d="M34.2,61.2c0,0.1,0,0.2,0,0.4c-0.2,0-0.5,0-0.7,0c0,0.3,0,0.7,0,1c0.3,0,0.6,0,0.9,0c0,0.1,0,0.2-0.1,0.3
		c-0.4,0-0.9,0-1.3,0c0-1,0-2,0-2.9c0.4,0,0.8,0,1.3,0c0,0.1,0,0.2,0,0.3c-0.3,0-0.5,0-0.8,0c0,0.3,0,0.6,0,0.9
		C33.7,61.2,34,61.2,34.2,61.2z"/>
	<path class="st3" d="M32.7,60c0,0.1,0,0.2,0,0.3c-0.2,0-0.3,0-0.5,0c0,0.9,0,1.7,0,2.6c-0.2,0-0.3,0-0.5,0c0-0.8,0-1.7,0-2.6
		c-0.2,0-0.4,0-0.6,0c0-0.1,0-0.2,0-0.3C31.7,60,32.2,60,32.7,60z"/>
	<path class="st3" d="M59.5,63c-0.2,0-0.3,0-0.5,0c0-0.9,0-1.7,0-2.6c-0.2,0-0.4,0-0.6,0c0-0.1,0-0.2,0-0.4c0.5,0,1,0,1.6,0
		c0,0.1,0,0.2,0,0.3c-0.2,0-0.3,0-0.5,0C59.5,61.2,59.5,62.1,59.5,63z"/>
	<path class="st3" d="M40.7,60c0.2,0,0.3,0,0.4,0c0,0.9,0,1.7,0,2.6c0.3,0,0.6,0,0.9,0c0,0.1,0,0.2,0,0.4c-0.4,0-0.9,0-1.3,0
		C40.7,62,40.7,61,40.7,60z"/>
	<path class="st3" d="M62.7,63c-0.2,0-0.3,0-0.4,0c0-1,0-1.9,0-2.9c0.1,0,0.3,0,0.4,0C62.7,61,62.7,62,62.7,63z"/>
	<path class="st3" d="M65,60c0.2,0,0.3,0,0.4,0c0,1,0,2,0,2.9c-0.1,0-0.3,0-0.4,0C65,62,65,61,65,60z"/>
	<path class="st3" d="M46.7,63c-0.2,0-0.3,0-0.4,0c0-1,0-2,0-2.9c0.1,0,0.3,0,0.4,0C46.7,61,46.7,62,46.7,63z"/>
	<path class="st3" d="M75.4,63c-0.1,0-0.3,0-0.4,0c0-1,0-2,0-3c0.1,0,0.3,0,0.4,0C75.4,61,75.4,62,75.4,63z"/>
	<path class="st3" d="M47.3,59.4c-0.3,0.2-0.6,0.5-1,0.4C46.5,59.4,46.8,59.3,47.3,59.4z"/>
	<path class="st3" d="M66.5,59.8c0.3-0.3,0.5-0.5,1-0.4C67.2,59.6,67,59.9,66.5,59.8z"/>
	<g class="st3">
		<path class="st5" d="M56.7,10.2c0,0-0.1,0.1-0.2,0.2c-1.6,1.1-3.3,2.3-4.9,3.4c-0.1,0-0.2,0-0.3,0c-0.8-0.6-1.6-1.2-2.4-1.8
			c-0.1-0.1-0.2-0.2-0.2-0.3c-0.4-1.6-0.8-3.2-1.2-4.8c0-0.2,0-0.3,0.1-0.4c1.3-1,2.5-2,3.8-3c0.1-0.1,0.2-0.1,0.3,0
			c1.4,0.9,2.8,1.7,4.1,2.6c0.1,0,0.2,0.1,0.2,0.2c0.2,1.3,0.4,2.5,0.6,3.8C56.7,10.1,56.7,10.1,56.7,10.2z"/>
		<path class="st5" d="M61.9,28.8c0.2-1.2,0.3-2.3,0.5-3.4c0-0.2,0.1-0.4,0.1-0.5c0-0.4,0.2-0.6,0.6-0.8c0.6-0.2,1.2-0.5,1.8-0.7
			c0.1,0,0.3,0,0.4,0c1.4,0.6,2.8,1.2,4.3,1.8c0.1,0.1,0.2,0.2,0.3,0.3c0.4,0.6,0.8,1.2,1.2,1.8c0.1,0.2,0.1,0.3,0,0.4
			c-0.5,1.1-1.1,2.2-1.6,3.2c-0.1,0.1-0.2,0.2-0.4,0.3c-1,0.2-2,0.3-2.9,0.5c-0.1,0-0.2,0-0.3-0.1c-1.3-0.9-2.5-1.8-3.8-2.7
			C62,28.9,61.9,28.8,61.9,28.8z"/>
		<path class="st5" d="M55.6,32.7c0-0.6,0-1.3,0-1.9c0-0.1,0.1-0.3,0.2-0.4c0.9-0.8,1.8-1.5,2.8-2.2c0.1-0.1,0.4-0.2,0.6-0.2
			c0.4,0,0.7,0,1.1,0c0.2,0,0.3,0.1,0.3,0.3c0,0.6,0,1.2,0,1.7c0,0.2,0.1,0.4,0.3,0.5c1.1,0.7,2.2,1.4,3.2,2
			c0.2,0.1,0.4,0.3,0.4,0.6c0,0.4,0.1,0.9,0.1,1.3c0,0.2,0,0.3-0.2,0.4c-1.6,0.9-3.2,1.7-4.8,2.6c-0.1,0-0.2,0-0.3,0
			c-1.1-0.7-2.3-1.5-3.4-2.3c-0.1-0.1-0.2-0.2-0.2-0.3C55.6,34,55.6,33.4,55.6,32.7z"/>
		<path class="st5" d="M71.5,23.9c-0.4-0.1-0.7-0.2-1-0.3c-0.9-0.3-1.8-0.6-2.7-0.9c-0.1,0-0.2-0.1-0.3-0.2
			c-0.5-1.2-1.1-2.3-1.6-3.5c-0.1-0.2,0-0.3,0.1-0.4c0.9-0.9,1.9-1.9,2.8-2.8c0.1-0.1,0.3-0.1,0.4-0.1c1.4,0.2,2.7,0.5,4.1,0.7
			c0.1,0,0.3,0.1,0.3,0.2c0.5,1.3,1,2.6,1.5,3.9c0.1,0.2,0,0.3-0.1,0.4c-1,0.9-2.1,1.8-3.1,2.7C71.7,23.8,71.6,23.8,71.5,23.9z"/>
		<path class="st5" d="M49.3,28c0,0.5,0,1.1,0,1.6c0,0.2-0.1,0.3-0.2,0.4c-1.2,0.7-2.3,1.3-3.5,2c-0.2,0.1-0.3,0.1-0.5,0
			c-1.3-0.8-2.5-1.5-3.8-2.3c-0.2-0.1-0.3-0.2-0.2-0.4c0.3-1.2,0.6-2.4,0.9-3.6c0-0.2,0.1-0.3,0.3-0.3c1.2-0.4,2.4-0.9,3.6-1.3
			c0.1,0,0.3,0,0.4,0c0.9,0.7,1.9,1.3,2.8,2c0.1,0.1,0.1,0.2,0.1,0.3C49.3,26.9,49.3,27.5,49.3,28z"/>
		<path class="st5" d="M56.5,3.7c0.8-0.1,1.6-0.1,2.4-0.2c1-0.1,2-0.1,3-0.2c0.2,0,0.4,0,0.5,0.3c0.7,1.3,1.3,2.6,2,3.9
			c0.1,0.2,0.1,0.3,0,0.5c-0.7,1.2-1.4,2.4-2.2,3.6c-0.1,0.2-0.2,0.2-0.4,0.2c-1.1,0-2.3,0-3.4,0c-0.2,0-0.3-0.1-0.3-0.3
			C58.1,10,58,8.5,57.8,7c-0.1-0.6-0.1-1.3-0.2-1.9c0-0.1-0.1-0.3-0.2-0.3C57.2,4.4,56.9,4.1,56.5,3.7z"/>
		<path class="st5" d="M48.2,17c-0.3-0.2-0.6-0.4-0.8-0.6c-0.3-0.3-0.6-0.3-0.9-0.3c-1.3,0-2.6-0.1-3.9-0.1c-0.2,0-0.4-0.1-0.4-0.3
			c-0.3-0.6-0.6-1.3-0.9-1.9c-0.1-0.2-0.1-0.3,0-0.5c0.7-1.4,1.5-2.9,2.2-4.3c0.1-0.2,0.2-0.3,0.5-0.3c0.7,0,1.3,0,2,0
			c0.2,0,0.3,0.1,0.4,0.3c0.3,1,0.6,2,0.8,3c0.1,0.2,0.2,0.4,0.4,0.5c0.7,0.5,1.4,1.1,2.1,1.6c0.2,0.2,0.2,0.3,0.1,0.5
			C49.2,15.4,48.7,16.2,48.2,17z"/>
		<path class="st5" d="M70.9,12.2c0,0.5,0,0.9,0,1.4c0,0.2,0,0.3-0.3,0.2c-0.6-0.1-1.3-0.2-1.9-0.3c-0.2,0-0.4,0-0.6,0.2
			c-0.8,0.7-1.6,1.5-2.5,2.2c-0.2,0.1-0.3,0.2-0.5,0c-0.6-0.4-1.2-0.8-1.8-1.2c-0.1-0.1-0.2-0.2-0.2-0.4c-0.1-0.6,0.1-1.2,0.4-1.7
			c0.8-1.5,1.6-3,2.3-4.5c0.1-0.2,0.2-0.3,0.4-0.3c0.6,0,1.2,0,1.9,0c0.1,0,0.3,0.1,0.4,0.2c0.6,0.7,1.3,1.5,1.9,2.2
			c0.2,0.2,0.2,0.4,0.2,0.6C70.9,11.4,70.9,11.8,70.9,12.2z"/>
		<path class="st5" d="M41.1,24.2c-0.4-0.7-0.8-1.4-1.2-2.1c-0.2-0.4-0.5-0.8-0.7-1.2c-0.1-0.2-0.1-0.3,0-0.4c0.7-1,1.5-1.9,2.2-2.9
			c0.1-0.1,0.2-0.2,0.3-0.2c1.2,0.1,2.5,0.1,3.7,0.2c0.1,0,0.2,0.1,0.2,0.2c0.7,1,1.4,2,2.1,3c0.1,0.1,0.1,0.2,0,0.3
			c-0.1,0.4-0.3,0.8-0.4,1.2c-0.1,0.2-0.2,0.2-0.3,0.2c-0.6-0.2-1.1-0.3-1.7-0.5c-0.2,0-0.4,0-0.5,0.1c-1.1,0.6-2.3,1.3-3.4,1.9
			C41.4,24,41.3,24.1,41.1,24.2z"/>
		<path class="st5" d="M48.3,33c0.8-0.6,1.6-1.1,2.4-1.6c0.2-0.1,0.3-0.3,0.3-0.5c0.1-1.1,0.1-2.1,0.2-3.2c0-0.4,0-0.4,0.5-0.4
			c0.8,0,1.6,0,2.5,0c0.1,0,0.3,0.1,0.4,0.2c0.4,0.4,0.8,0.9,1.1,1.4c0,0,0.1,0.1,0.1,0.2c-0.3,0.2-0.6,0.4-1,0.6
			c-0.2,0.1-0.3,0.3-0.3,0.5c0,1.7,0,3.3,0,5c0,0.4,0,0.4-0.4,0.4c-1.2,0-2.4,0-3.7,0c-0.2,0-0.4-0.1-0.5-0.3
			c-0.4-0.7-0.9-1.3-1.4-2C48.4,33.2,48.3,33.1,48.3,33z"/>
	</g>
	<path class="st6" d="M39.1,61.5c0-0.3,0-0.5,0-0.8c0-0.2,0.1-0.4,0.3-0.4c0.2,0,0.3,0.1,0.3,0.3c0,0.6,0,1.1,0,1.7
		c0,0.2-0.1,0.3-0.4,0.3c-0.2,0-0.3-0.2-0.3-0.4C39,62,39.1,61.8,39.1,61.5C39.1,61.5,39.1,61.5,39.1,61.5z"/>
	<path class="st6" d="M42.7,61.5c0-0.3,0-0.5,0-0.8c0-0.2,0.1-0.4,0.3-0.4c0.2,0,0.3,0.1,0.3,0.3c0,0.6,0,1.1,0,1.7
		c0,0.2-0.1,0.3-0.3,0.3c-0.2,0-0.3-0.2-0.3-0.4C42.7,62,42.7,61.7,42.7,61.5z"/>
	<path class="st6" d="M66.4,61.5c0-0.3,0-0.5,0-0.8c0-0.2,0.1-0.3,0.3-0.4c0.2,0,0.3,0.1,0.4,0.3c0,0.5,0,1.1,0,1.6
		c0,0.2-0.1,0.4-0.3,0.3c-0.2,0-0.3-0.2-0.3-0.4C66.4,62,66.4,61.8,66.4,61.5z"/>
	<path class="st6" d="M60.8,61.4c0-0.4,0-0.7,0-1.1c0.2,0.1,0.4,0.1,0.5,0.2c0.1,0.2,0.1,0.4,0,0.6C61.2,61.2,61,61.3,60.8,61.4z"/>
	<path class="st6" d="M47.7,61.7c0.1-0.4,0.1-0.8,0.2-1.2c0,0,0,0,0.1,0c0.1,0.4,0.1,0.8,0.2,1.2C48,61.7,47.9,61.7,47.7,61.7z"/>
	<path class="st6" d="M79.1,61.7c0.1-0.4,0.1-0.8,0.2-1.2c0,0,0,0,0,0c0.1,0.4,0.1,0.8,0.2,1.2C79.3,61.7,79.2,61.7,79.1,61.7z"/>
	<path class="st6" d="M71.6,60.6c0.1,0.4,0.1,0.8,0.2,1.2c-0.1,0-0.3,0-0.4,0C71.4,61.3,71.5,60.9,71.6,60.6
		C71.6,60.6,71.6,60.6,71.6,60.6z"/>
</g>
<g>
	<path class="st7" d="M81.4,63c0,0.5,0,0.9,0,1.4c-16.9,0-33.8,0-50.8,0c0-21.3,0-42.6,0-63.9c16.9,0,33.8,0,50.8,0
		c0,20.8,0,41.6,0,62.3c-0.3,0-0.6,0-0.9,0c0-0.9,0-1.7,0-2.6c-0.2,0-0.3,0-0.4,0c0,1,0,2,0,3c0.4,0,0.8,0,1.2,0
		C81.3,63.1,81.4,63,81.4,63z M36.2,20.3C36.2,30.9,44.7,40,55.8,40c11,0.1,19.9-8.8,19.9-19.7c0-11.2-9-19.7-19.5-19.8
		C45.2,0.4,36.2,9.4,36.2,20.3z M46.5,46.1C46.6,46.1,46.6,46.1,46.5,46.1c0.5,3.9,0.9,7.7,1.3,11.6c0.7,0,1.3,0,2,0
		c0-0.1,0-0.1,0-0.2c-0.1-1-0.2-2-0.2-3c-0.1-1.3-0.2-2.5-0.3-3.8c-0.1-1.5-0.2-3-0.4-4.5c-0.1-0.8-0.3-1.6-0.9-2.2
		c-0.7-0.8-1.6-0.9-2.5-0.3c-0.6,0.4-0.9,1-1.1,1.7c-0.7,2.5-1.4,5-2.1,7.6c-0.1,0.4-0.2,0.8-0.3,1.2c-0.1-0.1-0.1-0.2-0.1-0.3
		c-0.7-2.7-1.4-5.5-2.2-8.2c-0.2-0.7-0.5-1.3-1-1.8c-1-1-2.4-0.8-3.1,0.5c-0.1,0.2-0.2,0.4-0.2,0.6c-0.1,0.4-0.1,0.8-0.2,1.2
		c-0.1,1.3-0.3,2.6-0.4,3.8c-0.1,1.1-0.2,2.2-0.3,3.3c-0.1,1.4-0.3,2.8-0.4,4.2c0,0.1,0,0.1,0,0.2c0.6,0,1.3,0,1.9,0
		c0.2,0,0.2-0.1,0.2-0.2c0-0.3,0-0.5,0.1-0.8c0.2-1.8,0.4-3.5,0.5-5.3c0.2-1.6,0.3-3.2,0.5-4.8c0-0.2,0-0.4,0.1-0.6
		c0.1,0.1,0.1,0.1,0.1,0.2c0.8,3,1.6,5.9,2.4,8.9c0.2,0.6,0.4,1.1,0.8,1.5c0.6,0.7,1.4,0.8,2.1,0.3c0.6-0.4,1-1,1.2-1.7
		c0.6-2,1.1-4.1,1.7-6.1C46,48.2,46.2,47.2,46.5,46.1z M55.6,47.2c0,0,0.1,0,0.1,0c0,0.1,0.1,0.2,0.1,0.2c1.3,3,2.6,5.9,3.9,8.9
		c0.2,0.5,0.6,1,1.1,1.3c1.1,0.6,2.5,0.1,2.7-1.2c0.1-0.3,0-0.6,0-0.9c0-3.6,0-7.2,0-10.9c0-0.2,0-0.3,0-0.5c0-0.3,0-0.6,0-0.9
		c-0.8,0-1.5,0-2.3,0c0.1,3.8,0.1,7.5,0.2,11.3c0,0-0.1,0-0.1,0c-0.2-0.4-0.4-0.9-0.6-1.3c-1.1-2.6-2.3-5.2-3.4-7.8
		c-0.3-0.7-0.7-1.4-1.4-1.8c-0.7-0.5-1.4-0.4-2,0.2c-0.4,0.5-0.7,1-0.7,1.7c0,4,0,7.9,0,11.9c0,0.1,0,0.2,0,0.3c0.7,0,1.4,0,2.2,0
		C55.6,54.2,55.6,50.7,55.6,47.2z M69.9,57.8c0-0.1,0-0.2,0-0.2c0-0.9,0-1.8,0-2.7c0-1.4,0-2.8,0-4.1c0-1,0-2,0-2.9
		c0-1.1,0.8-2.1,1.9-2.5c1.1-0.4,2.3-0.1,3,0.8c0.8,0.9,0.9,2,0.9,3.2c0,0.1-0.1,0.2-0.2,0.2c-1.6,0-3.3,0-4.9,0c-0.1,0-0.2,0-0.3,0
		c0,0.5,0,1,0,1.6c1.8,0,3.5,0,5.3,0c0,2.3,0,4.5,0,6.8c0.7,0,1.5,0,2.2,0c0-0.1,0-0.3,0-0.4c0-3,0-6.1,0-9.1c0-1.8-0.8-3.2-2.4-4.2
		c-2.5-1.5-5.6-1-7.1,1.7c-0.4,0.7-0.7,1.4-0.7,2.2c0,3.1,0,6.3,0,9.4c0,0.1,0,0.2,0,0.3C68.5,57.8,69.2,57.8,69.9,57.8z M76.5,62.2
		C76.5,62.2,76.5,62.2,76.5,62.2c-0.1-0.6-0.3-1.2-0.4-1.8c0-0.2-0.1-0.2-0.3-0.2c-0.2,0-0.3,0-0.5,0c0,1,0,2,0,3c0.1,0,0.3,0,0.4,0
		c0-0.8,0-1.6,0-2.3c0,0,0,0,0,0c0.1,0.8,0.3,1.6,0.4,2.3c0.2,0,0.3,0,0.5,0c0.1-0.8,0.3-1.6,0.4-2.4c0,0,0,0,0.1,0
		c0,0.8,0,1.6,0,2.3c0.1,0,0.3,0,0.4,0c0-1,0-2,0-2.9c-0.2,0-0.4,0-0.7,0C76.8,60.8,76.7,61.5,76.5,62.2z M73.9,60.2
		c-0.2,0-0.3,0-0.4,0c0,0.7,0,1.3,0,1.9c-0.2-0.5-0.4-1-0.5-1.6c-0.1-0.4-0.2-0.5-0.7-0.3c0,1,0,1.9,0,2.9c0.1,0,0.3,0,0.4,0
		c0-0.7,0-1.4,0-2c0.2,0.6,0.4,1.1,0.5,1.7c0.1,0.5,0.2,0.5,0.6,0.4C73.9,62.1,73.9,61.2,73.9,60.2z M68.7,60.2c0,0.7,0,1.3,0,1.9
		c-0.2-0.5-0.3-1-0.5-1.5c-0.1-0.5-0.1-0.4-0.7-0.4c0,1,0,1.9,0,2.9c0.1,0,0.3,0,0.4,0c0-0.7,0-1.4,0-2c0,0,0,0,0,0
		c0.2,0.6,0.3,1.1,0.5,1.7c0.1,0.4,0.2,0.5,0.6,0.4c0-1,0-1.9,0-2.9C69,60.2,68.9,60.2,68.7,60.2z M36.1,63.1c0.1,0,0.3,0,0.4,0
		c0-0.7,0-1.4,0-2c0.2,0.6,0.4,1.1,0.5,1.7c0.1,0.5,0.2,0.5,0.6,0.4c0-1,0-1.9,0-2.9c-0.1,0-0.3,0-0.4,0c0,0.7,0,1.3,0,1.9
		c-0.2-0.5-0.4-1-0.5-1.6c-0.1-0.4-0.2-0.5-0.7-0.3C36.1,61.2,36.1,62.1,36.1,63.1z M54.4,63.1c0-0.7,0-1.4,0-2.1c0,0,0,0,0,0
		c0.2,0.7,0.4,1.4,0.6,2.1c0.2,0,0.3,0,0.5,0c0-1,0-2,0-2.9c-0.1,0-0.3,0-0.4,0c0,0.6,0,1.3,0,1.9c-0.1-0.1-0.1-0.2-0.1-0.2
		c-0.1-0.5-0.3-1-0.4-1.5c0-0.2-0.1-0.3-0.3-0.2c-0.1,0-0.2,0-0.3,0c0,1,0,2,0,3C54.1,63.1,54.3,63.1,54.4,63.1z M52.3,62.1
		C52.3,62.1,52.3,62.1,52.3,62.1c-0.2-0.6-0.4-1.1-0.6-1.7c0-0.2-0.1-0.2-0.3-0.2c-0.1,0-0.2,0-0.3,0c0,1,0,2,0,3c0.1,0,0.3,0,0.4,0
		c0-0.7,0-1.4,0-2c0,0,0,0,0,0c0.2,0.7,0.4,1.4,0.6,2.1c0.2,0,0.3,0,0.5,0c0-1,0-2,0-2.9c-0.1,0-0.3,0-0.4,0
		C52.3,60.8,52.3,61.5,52.3,62.1z M39.8,61.6C39.8,61.6,39.8,61.6,39.8,61.6c0-0.3,0-0.5,0-0.8c0-0.5-0.3-0.7-0.8-0.7
		c-0.5,0-0.8,0.2-0.9,0.7c0,0.6,0,1.2,0,1.8c0,0.4,0.3,0.7,0.8,0.6c0.5,0,0.8-0.2,0.8-0.7C39.8,62.2,39.8,61.9,39.8,61.6z
		 M43.4,61.7c0-0.3,0-0.5,0-0.8c0-0.5-0.3-0.7-0.7-0.8c-0.5,0-0.9,0.2-0.9,0.7c0,0.6,0,1.1,0,1.7c0,0.5,0.3,0.7,0.8,0.7
		c0.5,0,0.8-0.3,0.8-0.7C43.4,62.2,43.4,61.9,43.4,61.7z M67.1,61.6C67.1,61.6,67.1,61.6,67.1,61.6c0-0.3,0-0.5,0-0.8
		c0-0.5-0.3-0.7-0.8-0.7c-0.5,0-0.8,0.2-0.9,0.7c0,0.6,0,1.1,0,1.7c0,0.5,0.3,0.7,0.8,0.7c0.5,0,0.8-0.2,0.8-0.7
		C67.1,62.2,67.1,61.9,67.1,61.6z M56.1,60.2c0,0.8,0,1.5,0,2.3c0,0.5,0.3,0.7,0.8,0.7c0.5,0,0.8-0.3,0.8-0.7c0-0.6,0-1.2,0-1.7
		c0-0.2,0-0.3,0-0.5c-0.2,0-0.3,0-0.5,0c0,0.1,0,0.2,0,0.3c0,0.6,0,1.3,0,1.9c0,0.2-0.1,0.4-0.3,0.4c-0.2,0-0.3-0.1-0.3-0.4
		c0-0.5,0-0.9,0-1.4c0-0.3,0-0.6,0-0.9C56.4,60.2,56.2,60.2,56.1,60.2z M44.9,61.9c0,0.2,0,0.4,0,0.6c0,0.2-0.1,0.3-0.3,0.3
		c-0.2,0-0.3-0.2-0.3-0.4c0-0.3,0-0.6,0-0.9c0-0.3,0-0.5,0-0.8c0-0.2,0.1-0.3,0.3-0.3c0.2,0,0.3,0.1,0.3,0.3c0,0.1,0,0.1,0,0.2
		c0.2,0,0.3,0,0.4,0c0-0.5-0.1-0.8-0.6-0.8c-0.5-0.1-0.9,0.1-1,0.6c0,0.7,0,1.3,0,2c0,0.3,0.2,0.5,0.5,0.5c0.2,0,0.4-0.1,0.6-0.1
		c0.2,0,0.3,0.1,0.5,0.1c0-0.6,0-1.1,0-1.6c-0.3,0-0.5,0-0.8,0c0,0.1,0,0.2,0,0.3C44.7,61.8,44.8,61.8,44.9,61.9z M59.9,63.1
		c0.2,0,0.3,0,0.5,0c0-0.4,0-0.9,0-1.3c0.5,0,0.6,0,0.6,0.5c0,0.3,0,0.6,0,0.8c0.2,0,0.3,0,0.5,0c-0.2-0.5,0.2-1.1-0.3-1.5
		c0.3-0.2,0.3-0.6,0.3-0.9c0-0.3-0.2-0.4-0.4-0.5c-0.3,0-0.7,0-1.1,0C59.9,61.2,59.9,62.1,59.9,63.1z M46.6,63.1
		c0.5,0.1,0.5,0.1,0.5-0.4c0-0.2,0.1-0.3,0.1-0.5c0.1,0,0.1,0,0.2,0c0.3,0,0.4,0,0.4,0.3c0,0.2,0.1,0.3,0.1,0.5c0.2,0,0.3,0,0.5,0
		c-0.2-1-0.4-2-0.6-2.9c-0.2,0-0.5,0-0.7,0C47,61.2,46.8,62.1,46.6,63.1z M78.5,60.2c-0.2,1-0.4,2-0.6,2.9c0.5,0.1,0.5,0.1,0.5-0.3
		c0-0.2,0.1-0.3,0.1-0.5c0.1,0,0.2,0,0.2,0c0.3,0,0.4,0.1,0.4,0.3c0,0.2,0.1,0.4,0.1,0.5c0.2,0,0.3,0,0.5,0
		c-0.2-0.8-0.3-1.6-0.5-2.4C79.1,60.1,79.1,60.1,78.5,60.2z M70.8,60.2c-0.2,1-0.4,2-0.6,2.9c0.2,0,0.3,0,0.5,0
		c0.1-0.3,0.1-0.6,0.2-0.8c0.1,0,0.1,0,0.2,0c0.3,0,0.4,0.1,0.4,0.3c0,0.2,0.1,0.3,0.1,0.5c0.2,0,0.3,0,0.5,0c-0.2-1-0.4-2-0.6-2.9
		C71.2,60.2,71,60.2,70.8,60.2z M35.8,61c0-0.6-0.2-0.9-0.7-0.9c-0.6,0-0.8,0.2-0.8,0.8c0,0.5,0,1,0,1.6c0,0.5,0.4,0.8,0.9,0.7
		c0.5-0.1,0.7-0.4,0.6-0.9c-0.1,0-0.3,0-0.4,0c0,0.1,0,0.2,0,0.3c-0.1,0.1-0.2,0.2-0.3,0.2c-0.1,0-0.3-0.1-0.3-0.2
		c0-0.6,0-1.2,0-1.8c0-0.1,0.2-0.2,0.3-0.2c0.1,0,0.2,0.1,0.3,0.2c0,0.1,0,0.2,0,0.3C35.5,61,35.6,61,35.8,61z M63.7,62.3
		c0,0.1,0,0.2,0,0.2c0,0.2-0.1,0.3-0.3,0.3c-0.2,0-0.3-0.1-0.3-0.3c0-0.6,0-1.2,0-1.8c0-0.1,0.1-0.2,0.3-0.3c0.2,0,0.3,0.1,0.3,0.3
		c0,0.1,0,0.2,0,0.2c0.2,0,0.3,0,0.4,0c0-0.6-0.2-0.9-0.7-0.9c-0.6,0-0.8,0.2-0.8,0.8c0,0.5,0,1,0,1.5c0,0.5,0.3,0.8,0.9,0.7
		c0.5-0.1,0.7-0.4,0.6-0.9C64,62.3,63.9,62.3,63.7,62.3z M50.7,61.7c0-0.1,0-0.2,0-0.4c-0.3,0-0.5,0-0.7,0c0-0.3,0-0.6,0-0.9
		c0.3,0,0.5,0,0.8,0c0-0.1,0-0.2,0-0.3c-0.4,0-0.8,0-1.3,0c0,1,0,2,0,2.9c0.4,0,0.9,0,1.3,0c0-0.1,0-0.2,0-0.3c-0.3,0-0.6,0-0.9,0
		c0-0.4,0-0.7,0-1C50.2,61.7,50.4,61.7,50.7,61.7z M33.8,61.4c-0.3,0-0.5,0-0.8,0c0-0.3,0-0.6,0-0.9c0.3,0,0.5,0,0.8,0
		c0-0.1,0-0.2,0-0.3c-0.4,0-0.8,0-1.3,0c0,1,0,2,0,2.9c0.4,0,0.9,0,1.3,0c0-0.1,0-0.2,0.1-0.3c-0.3,0-0.6,0-0.9,0c0-0.4,0-0.7,0-1
		c0.3,0,0.5,0,0.7,0C33.8,61.6,33.8,61.5,33.8,61.4z M32.3,60.2c-0.6,0-1.1,0-1.6,0c0,0.1,0,0.2,0,0.3c0.2,0,0.4,0,0.6,0
		c0,0.9,0,1.7,0,2.6c0.2,0,0.3,0,0.5,0c0-0.9,0-1.7,0-2.6c0.2,0,0.4,0,0.5,0C32.3,60.4,32.3,60.3,32.3,60.2z M59,63.1
		c0-0.9,0-1.7,0-2.6c0.2,0,0.4,0,0.5,0c0-0.1,0-0.2,0-0.3c-0.5,0-1.1,0-1.6,0c0,0.1,0,0.2,0,0.3c0.2,0,0.4,0,0.6,0
		c0,0.9,0,1.7,0,2.6C58.7,63.1,58.9,63.1,59,63.1z M40.3,60.2c0,1,0,2,0,2.9c0.4,0,0.9,0,1.3,0c0-0.1,0-0.2,0-0.4
		c-0.3,0-0.6,0-0.9,0c0-0.9,0-1.7,0-2.6C40.6,60.2,40.4,60.2,40.3,60.2z M62.3,63.1c0-1,0-2,0-2.9c-0.2,0-0.3,0-0.4,0c0,1,0,2,0,2.9
		C62,63.1,62.1,63.1,62.3,63.1z M64.6,60.2c0,1,0,2,0,2.9c0.2,0,0.3,0,0.4,0c0-1,0-2,0-2.9C64.8,60.2,64.7,60.2,64.6,60.2z
		 M46.3,63.1c0-1,0-2,0-2.9c-0.2,0-0.3,0-0.4,0c0,1,0,2,0,2.9C46,63.1,46.1,63.1,46.3,63.1z M74.9,63.1c0-1,0-2,0-2.9
		c-0.2,0-0.3,0-0.4,0c0,1,0,2,0,2.9C74.6,63.1,74.8,63.1,74.9,63.1z M46.9,59.5c-0.5-0.1-0.8,0.1-1,0.4C46.3,60,46.5,59.7,46.9,59.5
		z M66.1,59.9c0.4,0.1,0.7-0.2,1-0.4C66.6,59.4,66.3,59.6,66.1,59.9z"/>
	<path class="st8" d="M81.4,63c0,0.1-0.1,0.2-0.2,0.2c-0.4,0-0.8,0-1.2,0c0-1,0-2,0-3c0.2,0,0.3,0,0.4,0c0,0.9,0,1.7,0,2.6
		c0.3,0,0.6,0,0.9,0C81.4,62.9,81.4,62.9,81.4,63z"/>
	<path class="st8" d="M36.2,20.3c-0.1-10.9,8.9-19.9,20-19.7c10.5,0.1,19.5,8.6,19.5,19.8c0,10.9-8.9,19.8-19.9,19.7
		C44.7,40,36.2,30.9,36.2,20.3z M56.2,10.4c0-0.1,0-0.1,0-0.1C56,9,55.8,7.7,55.6,6.5c0-0.1-0.1-0.2-0.2-0.2
		c-1.4-0.9-2.8-1.7-4.1-2.6c-0.1-0.1-0.2-0.1-0.3,0c-1.3,1-2.5,2-3.8,3C47,6.8,47,6.9,47,7.1c0.4,1.6,0.8,3.2,1.2,4.8
		c0,0.1,0.1,0.2,0.2,0.3c0.8,0.6,1.6,1.2,2.4,1.8c0.1,0.1,0.2,0.1,0.3,0c1.6-1.1,3.3-2.3,4.9-3.4C56.1,10.5,56.2,10.4,56.2,10.4z
		 M61.5,29c0,0,0.1,0.1,0.1,0.2c1.3,0.9,2.5,1.8,3.8,2.7c0.1,0.1,0.2,0.1,0.3,0.1c1-0.2,2-0.3,2.9-0.5c0.1,0,0.3-0.1,0.4-0.3
		c0.6-1.1,1.1-2.2,1.6-3.2c0.1-0.2,0.1-0.3,0-0.4c-0.4-0.6-0.8-1.2-1.2-1.8c-0.1-0.1-0.2-0.2-0.3-0.3c-1.4-0.6-2.8-1.2-4.3-1.8
		c-0.1-0.1-0.3-0.1-0.4,0c-0.6,0.2-1.2,0.5-1.8,0.7C62.3,24.4,62,24.6,62,25c0,0.2,0,0.3-0.1,0.5C61.8,26.7,61.6,27.8,61.5,29z
		 M55.2,32.9c0,0.7,0,1.3,0,2c0,0.1,0.1,0.3,0.2,0.3c1.1,0.8,2.3,1.5,3.4,2.3c0.1,0,0.2,0.1,0.3,0c1.6-0.8,3.2-1.7,4.8-2.6
		c0.2-0.1,0.2-0.2,0.2-0.4C64,34.2,64,33.7,64,33.3c0-0.3-0.1-0.4-0.4-0.6c-1.1-0.7-2.2-1.4-3.2-2c-0.2-0.1-0.3-0.3-0.3-0.5
		c0-0.6,0-1.2,0-1.7c0-0.2-0.1-0.3-0.3-0.3c-0.4,0-0.7,0-1.1,0c-0.2,0-0.4,0.1-0.5,0.2c-0.9,0.7-1.9,1.5-2.8,2.2
		c-0.1,0.1-0.2,0.2-0.2,0.4C55.2,31.7,55.2,32.3,55.2,32.9z M71.1,24.1c0.1-0.1,0.2-0.1,0.3-0.2c1-0.9,2.1-1.8,3.1-2.7
		c0.1-0.1,0.2-0.2,0.1-0.4c-0.5-1.3-1-2.6-1.5-3.9c0-0.1-0.2-0.2-0.3-0.2c-1.4-0.3-2.7-0.5-4.1-0.7c-0.1,0-0.3,0-0.4,0.1
		c-0.9,0.9-1.9,1.9-2.8,2.8c-0.1,0.1-0.2,0.2-0.1,0.4c0.5,1.2,1.1,2.3,1.6,3.5c0,0.1,0.2,0.2,0.3,0.2c0.9,0.3,1.8,0.6,2.7,0.9
		C70.4,23.9,70.7,24,71.1,24.1z M48.9,28.2c0-0.6,0-1.1,0-1.7c0-0.1-0.1-0.2-0.1-0.3c-0.9-0.7-1.9-1.3-2.8-2c-0.1-0.1-0.3-0.1-0.4,0
		c-1.2,0.4-2.4,0.9-3.6,1.3c-0.2,0.1-0.3,0.2-0.3,0.3c-0.3,1.2-0.6,2.4-0.9,3.6c-0.1,0.2,0,0.3,0.2,0.4c1.3,0.8,2.5,1.5,3.8,2.3
		c0.2,0.1,0.3,0.1,0.5,0c1.2-0.7,2.3-1.3,3.5-2c0.1-0.1,0.2-0.2,0.2-0.4C48.9,29.3,48.9,28.8,48.9,28.2z M56.1,4
		c0.4,0.4,0.7,0.7,1,1c0.1,0.1,0.1,0.2,0.2,0.3c0.1,0.6,0.1,1.3,0.2,1.9c0.1,1.5,0.2,3,0.4,4.5c0,0.2,0.1,0.3,0.3,0.3
		c1.1,0,2.3,0,3.4,0c0.2,0,0.3-0.1,0.4-0.2c0.7-1.2,1.4-2.4,2.2-3.6c0.1-0.2,0.1-0.3,0-0.5c-0.7-1.3-1.4-2.6-2-3.9
		c-0.1-0.2-0.3-0.3-0.5-0.3c-1,0.1-2,0.1-3,0.2C57.7,3.8,56.9,3.9,56.1,4z M47.8,17.3c0.5-0.9,1-1.7,1.5-2.5
		c0.1-0.2,0.1-0.3-0.1-0.5c-0.7-0.5-1.4-1.1-2.1-1.6c-0.2-0.1-0.3-0.3-0.4-0.5c-0.3-1-0.6-2-0.8-3c-0.1-0.2-0.2-0.3-0.4-0.3
		c-0.7,0-1.3,0-2,0c-0.2,0-0.4,0.1-0.5,0.3c-0.7,1.5-1.4,2.9-2.2,4.3c-0.1,0.2-0.1,0.3,0,0.5c0.3,0.6,0.6,1.3,0.9,1.9
		c0.1,0.2,0.2,0.3,0.4,0.3c1.3,0,2.6,0.1,3.8,0.1c0.4,0,0.7,0.1,0.9,0.3C47.2,16.8,47.5,17,47.8,17.3z M70.4,12.4c0-0.4,0-0.8,0-1.3
		c0-0.2-0.1-0.4-0.2-0.6c-0.6-0.7-1.3-1.5-1.9-2.2c-0.1-0.1-0.3-0.2-0.4-0.2c-0.6,0-1.2,0-1.9,0c-0.2,0-0.3,0.1-0.4,0.3
		c-0.8,1.5-1.5,3-2.3,4.5c-0.3,0.6-0.5,1.1-0.4,1.7c0,0.1,0.1,0.3,0.2,0.4c0.6,0.4,1.2,0.8,1.8,1.2c0.2,0.1,0.3,0.1,0.5,0
		c0.8-0.7,1.6-1.5,2.5-2.2c0.2-0.2,0.3-0.2,0.6-0.2c0.6,0.1,1.3,0.2,1.9,0.3c0.2,0,0.3,0,0.3-0.2C70.4,13.4,70.4,12.9,70.4,12.4z
		 M40.7,24.4c0.2-0.1,0.3-0.2,0.5-0.3c1.1-0.6,2.3-1.3,3.4-1.9c0.1-0.1,0.3-0.1,0.5-0.1c0.6,0.1,1.1,0.3,1.7,0.5
		c0.2,0.1,0.3,0,0.3-0.2c0.1-0.4,0.3-0.8,0.4-1.2c0-0.1,0-0.2,0-0.3c-0.7-1-1.4-2-2.1-3c-0.1-0.1-0.2-0.1-0.2-0.2
		c-1.2-0.1-2.5-0.2-3.7-0.2c-0.1,0-0.3,0.1-0.3,0.2c-0.8,1-1.5,1.9-2.2,2.9c-0.1,0.1-0.1,0.2,0,0.4c0.2,0.4,0.5,0.8,0.7,1.2
		C39.9,23,40.3,23.7,40.7,24.4z M47.8,33.2c0.1,0.1,0.1,0.2,0.2,0.3c0.5,0.6,0.9,1.3,1.4,1.9c0.1,0.2,0.3,0.3,0.5,0.3
		c1.2,0,2.4,0,3.7,0c0.4,0,0.4,0,0.4-0.4c0-1.6,0-3.3,0-4.9c0-0.2,0.1-0.4,0.3-0.5c0.3-0.2,0.6-0.4,1-0.6c0-0.1-0.1-0.1-0.1-0.2
		c-0.4-0.5-0.7-0.9-1.1-1.4c-0.1-0.1-0.2-0.1-0.4-0.2c-0.8,0-1.6,0-2.5,0c-0.4,0-0.4,0-0.5,0.4c-0.1,1-0.1,2.1-0.2,3.1
		c0,0.2-0.1,0.4-0.3,0.5C49.4,32.1,48.6,32.6,47.8,33.2z"/>
	<path class="st8" d="M46.5,46.1c-0.3,1-0.6,2.1-0.8,3.1c-0.6,2-1.1,4.1-1.7,6.1c-0.2,0.7-0.6,1.3-1.2,1.7c-0.7,0.5-1.5,0.4-2.1-0.3
		c-0.4-0.4-0.6-1-0.8-1.5c-0.8-3-1.6-5.9-2.4-8.9c0-0.1,0-0.1-0.1-0.2c0,0.2-0.1,0.4-0.1,0.6c-0.2,1.6-0.3,3.2-0.5,4.8
		c-0.2,1.8-0.4,3.5-0.5,5.3c0,0.3-0.1,0.5-0.1,0.8c0,0.1,0,0.2-0.2,0.2c-0.6,0-1.2,0-1.9,0c0-0.1,0-0.1,0-0.2
		c0.1-1.4,0.3-2.8,0.4-4.2c0.1-1.1,0.2-2.2,0.3-3.3c0.1-1.3,0.2-2.6,0.4-3.8c0-0.4,0.1-0.8,0.2-1.2c0-0.2,0.1-0.4,0.2-0.6
		c0.7-1.3,2.1-1.5,3.1-0.5c0.5,0.5,0.8,1.1,1,1.8c0.7,2.7,1.5,5.5,2.2,8.2c0,0.1,0.1,0.2,0.1,0.3c0.1-0.4,0.2-0.8,0.3-1.2
		c0.7-2.5,1.4-5,2.1-7.6c0.2-0.7,0.6-1.3,1.1-1.7c0.8-0.7,1.8-0.5,2.5,0.3c0.5,0.7,0.8,1.4,0.9,2.2c0.1,1.5,0.2,3,0.4,4.5
		c0.1,1.3,0.2,2.5,0.3,3.8c0.1,1,0.2,2,0.2,3c0,0,0,0.1,0,0.2c-0.7,0-1.3,0-2,0C47.4,53.9,47,50,46.5,46.1
		C46.6,46.1,46.6,46.1,46.5,46.1z"/>
	<path class="st8" d="M55.6,47.2c0,3.5,0,7,0,10.5c-0.8,0-1.5,0-2.2,0c0-0.1,0-0.2,0-0.3c0-4,0-7.9,0-11.9c0-0.6,0.2-1.2,0.7-1.7
		c0.6-0.6,1.3-0.6,2-0.2c0.6,0.5,1.1,1.1,1.4,1.8c1.1,2.6,2.3,5.2,3.4,7.8c0.2,0.4,0.4,0.9,0.6,1.3c0,0,0.1,0,0.1,0
		c-0.1-3.8-0.1-7.5-0.2-11.3c0.8,0,1.5,0,2.3,0c0,0.3,0,0.6,0,0.9c0,0.2,0,0.3,0,0.5c0,3.6,0,7.2,0,10.9c0,0.3,0,0.6,0,0.9
		c-0.3,1.2-1.6,1.8-2.7,1.2c-0.5-0.3-0.8-0.7-1.1-1.3c-1.3-3-2.6-5.9-3.9-8.9c0-0.1-0.1-0.2-0.1-0.2C55.7,47.2,55.6,47.2,55.6,47.2z
		"/>
	<path class="st8" d="M69.9,57.8c-0.7,0-1.4,0-2.1,0c0-0.1,0-0.2,0-0.3c0-3.1,0-6.3,0-9.4c0-0.8,0.3-1.5,0.7-2.2
		c1.5-2.7,4.6-3.2,7.1-1.7c1.5,0.9,2.4,2.3,2.4,4.2c0,3,0,6.1,0,9.1c0,0.1,0,0.2,0,0.4c-0.7,0-1.4,0-2.2,0c0-2.2,0-4.5,0-6.8
		c-1.8,0-3.6,0-5.3,0c0-0.6,0-1,0-1.6c0.1,0,0.2,0,0.3,0c1.6,0,3.3,0,4.9,0c0.1,0,0.2-0.1,0.2-0.2c0.1-1.2-0.1-2.3-0.9-3.2
		c-0.7-0.9-1.9-1.2-3-0.8c-1.1,0.4-1.9,1.4-1.9,2.5c0,1,0,2,0,2.9c0,1.4,0,2.8,0,4.1c0,0.9,0,1.8,0,2.7
		C69.9,57.6,69.9,57.7,69.9,57.8z"/>
	<path class="st8" d="M76.5,62.2c0.1-0.7,0.3-1.3,0.4-2c0.2,0,0.4,0,0.7,0c0,1,0,1.9,0,2.9c-0.1,0-0.2,0-0.4,0c0-0.8,0-1.6,0-2.3
		c0,0,0,0-0.1,0c-0.1,0.8-0.3,1.6-0.4,2.4c-0.1,0-0.3,0-0.5,0c-0.1-0.8-0.3-1.6-0.4-2.3c0,0,0,0,0,0c0,0.8,0,1.5,0,2.3
		c-0.1,0-0.3,0-0.4,0c0-1,0-2,0-3c0.2,0,0.3,0,0.5,0c0.2,0,0.2,0.1,0.3,0.2C76.3,61,76.4,61.6,76.5,62.2
		C76.5,62.2,76.5,62.2,76.5,62.2z"/>
	<path class="st8" d="M73.9,60.2c0,1,0,1.9,0,2.9c-0.5,0.1-0.5,0.1-0.6-0.4c-0.2-0.6-0.3-1.1-0.5-1.7c0,0.7,0,1.3,0,2
		c-0.1,0-0.3,0-0.4,0c0-1,0-1.9,0-2.9c0.4-0.1,0.5-0.1,0.7,0.3c0.2,0.5,0.3,1,0.5,1.6c0-0.6,0-1.3,0-1.9
		C73.6,60.2,73.8,60.2,73.9,60.2z"/>
	<path class="st8" d="M68.7,60.2c0.2,0,0.3,0,0.4,0c0,1,0,1.9,0,2.9c-0.5,0.1-0.5,0.1-0.6-0.4c-0.2-0.6-0.3-1.1-0.5-1.7c0,0,0,0,0,0
		c0,0.7,0,1.4,0,2c-0.1,0-0.3,0-0.4,0c0-1,0-2,0-2.9c0.5-0.1,0.5-0.1,0.7,0.4c0.2,0.5,0.3,1,0.5,1.5C68.7,61.5,68.7,60.8,68.7,60.2z
		"/>
	<path class="st8" d="M36.1,63.1c0-1,0-1.9,0-2.9c0.4-0.1,0.5-0.1,0.7,0.3c0.2,0.5,0.3,1,0.5,1.6c0-0.6,0-1.3,0-1.9
		c0.1,0,0.3,0,0.4,0c0,1,0,1.9,0,2.9c-0.5,0.1-0.5,0.1-0.6-0.4c-0.2-0.6-0.3-1.1-0.5-1.7c0,0.7,0,1.3,0,2
		C36.4,63.1,36.3,63.1,36.1,63.1z"/>
	<path class="st8" d="M54.4,63.1c-0.2,0-0.3,0-0.4,0c0-1,0-2,0-3c0.1,0,0.2,0,0.3,0c0.2,0,0.3,0.1,0.3,0.2c0.1,0.5,0.3,1,0.4,1.5
		c0,0.1,0.1,0.2,0.1,0.2c0-0.6,0-1.3,0-1.9c0.1,0,0.3,0,0.4,0c0,1,0,2,0,2.9c-0.2,0-0.3,0-0.5,0c-0.2-0.7-0.4-1.4-0.6-2.1
		c0,0,0,0,0,0C54.4,61.7,54.4,62.4,54.4,63.1z"/>
	<path class="st8" d="M52.3,62.1c0-0.6,0-1.3,0-1.9c0.1,0,0.3,0,0.4,0c0,1,0,2,0,2.9c-0.2,0-0.3,0-0.5,0c-0.2-0.7-0.4-1.4-0.6-2.1
		c0,0,0,0,0,0c0,0.7,0,1.4,0,2c-0.1,0-0.3,0-0.4,0c0-1,0-1.9,0-3c0.1,0,0.2,0,0.3,0c0.2,0,0.3,0.1,0.3,0.2
		C51.9,61,52.1,61.5,52.3,62.1C52.3,62.1,52.3,62.1,52.3,62.1z"/>
	<path class="st8" d="M39.8,61.6c0,0.3,0,0.6,0,0.8c0,0.5-0.3,0.7-0.8,0.7c-0.5,0-0.8-0.2-0.8-0.6c0-0.6,0-1.2,0-1.8
		c0-0.5,0.4-0.7,0.9-0.7c0.5,0,0.7,0.3,0.8,0.7C39.8,61.1,39.8,61.4,39.8,61.6C39.8,61.6,39.8,61.6,39.8,61.6z M38.6,61.6
		C38.6,61.6,38.6,61.6,38.6,61.6c0,0.3,0,0.5,0,0.8c0,0.2,0.1,0.3,0.3,0.4c0.2,0,0.4-0.1,0.4-0.3c0-0.6,0-1.1,0-1.7
		c0-0.2-0.1-0.3-0.3-0.3c-0.2,0-0.3,0.1-0.3,0.4C38.6,61.1,38.6,61.4,38.6,61.6z"/>
	<path class="st8" d="M43.4,61.7c0,0.3,0,0.5,0,0.8c0,0.5-0.3,0.7-0.8,0.7c-0.5,0-0.8-0.2-0.8-0.7c0-0.6,0-1.1,0-1.7
		c0-0.5,0.3-0.7,0.9-0.7c0.5,0,0.7,0.3,0.7,0.8C43.4,61.1,43.4,61.4,43.4,61.7z M42.3,61.6c0,0.3,0,0.6,0,0.8c0,0.2,0.1,0.4,0.3,0.4
		c0.2,0,0.3-0.1,0.3-0.3c0-0.6,0-1.1,0-1.7c0-0.2-0.1-0.3-0.3-0.3c-0.2,0-0.3,0.1-0.3,0.4C42.3,61.1,42.3,61.4,42.3,61.6z"/>
	<path class="st8" d="M67.1,61.6c0,0.3,0,0.6,0,0.8c0,0.5-0.3,0.7-0.8,0.7c-0.5,0-0.8-0.2-0.8-0.7c0-0.6,0-1.1,0-1.7
		c0-0.5,0.3-0.7,0.9-0.7c0.5,0,0.7,0.3,0.8,0.7C67.1,61.1,67.1,61.4,67.1,61.6C67.1,61.6,67.1,61.6,67.1,61.6z M65.9,61.6
		c0,0.3,0,0.5,0,0.8c0,0.2,0.1,0.4,0.3,0.4c0.2,0,0.3-0.1,0.3-0.3c0-0.5,0-1.1,0-1.6c0-0.2-0.1-0.3-0.4-0.3c-0.2,0-0.3,0.1-0.3,0.4
		C65.9,61.1,65.9,61.4,65.9,61.6z"/>
	<path class="st8" d="M56.1,60.2c0.2,0,0.3,0,0.5,0c0,0.3,0,0.6,0,0.9c0,0.5,0,0.9,0,1.4c0,0.2,0.1,0.4,0.3,0.4
		c0.2,0,0.3-0.2,0.3-0.4c0-0.6,0-1.3,0-1.9c0-0.1,0-0.2,0-0.3c0.2,0,0.3,0,0.5,0c0,0.2,0,0.3,0,0.5c0,0.6,0,1.2,0,1.7
		c0,0.5-0.3,0.7-0.8,0.7c-0.5,0-0.8-0.2-0.8-0.7C56.1,61.7,56.1,61,56.1,60.2z"/>
	<path class="st8" d="M44.9,61.9c-0.1,0-0.2,0-0.3,0c0-0.1,0-0.2,0-0.3c0.3,0,0.5,0,0.8,0c0,0.5,0,1.1,0,1.6c-0.2,0-0.3-0.1-0.5-0.1
		c-0.1,0-0.4,0.1-0.6,0.1c-0.3,0-0.5-0.2-0.5-0.5c0-0.7,0-1.3,0-2c0-0.4,0.4-0.6,1-0.6c0.4,0.1,0.6,0.3,0.6,0.8c-0.1,0-0.3,0-0.4,0
		c0-0.1,0-0.1,0-0.2c0-0.2-0.1-0.3-0.3-0.3c-0.2,0-0.3,0.1-0.3,0.3c0,0.3,0,0.5,0,0.8c0,0.3,0,0.6,0,0.9c0,0.2,0.1,0.4,0.3,0.4
		c0.2,0,0.3-0.1,0.3-0.3C44.9,62.3,44.9,62.1,44.9,61.9z"/>
	<path class="st8" d="M59.9,63.1c0-1,0-1.9,0-2.9c0.4,0,0.7,0,1.1,0c0.3,0,0.4,0.2,0.4,0.5c0,0.3,0.1,0.7-0.3,0.9
		c0.5,0.4,0.1,1,0.3,1.5c-0.2,0-0.3,0-0.5,0c0-0.3,0-0.6,0-0.8c0-0.5-0.1-0.5-0.6-0.5c0,0.4,0,0.9,0,1.3
		C60.2,63.1,60,63.1,59.9,63.1z M60.3,61.5c0.2-0.1,0.4-0.1,0.5-0.2c0.1-0.2,0.1-0.4,0-0.6c0-0.1-0.3-0.1-0.5-0.2
		C60.3,60.8,60.3,61.1,60.3,61.5z"/>
	<path class="st8" d="M46.6,63.1c0.2-1,0.4-1.9,0.6-2.9c0.2,0,0.4,0,0.7,0c0.2,1,0.4,1.9,0.6,2.9c-0.2,0-0.3,0-0.5,0
		c0-0.2-0.1-0.3-0.1-0.5c0-0.3-0.2-0.4-0.4-0.3c-0.1,0-0.1,0-0.2,0c0,0.2-0.1,0.3-0.1,0.5C47.1,63.2,47.1,63.2,46.6,63.1z
		 M47.3,61.9c0.2,0,0.3,0,0.4,0c-0.1-0.4-0.1-0.8-0.2-1.2c0,0,0,0-0.1,0C47.4,61.1,47.4,61.5,47.3,61.9z"/>
	<path class="st8" d="M78.5,60.2c0.7-0.1,0.7-0.1,0.8,0.6c0.2,0.8,0.3,1.6,0.5,2.4c-0.2,0-0.3,0-0.5,0c0-0.2-0.1-0.3-0.1-0.5
		c0-0.3-0.1-0.4-0.4-0.3c-0.1,0-0.1,0-0.2,0c0,0.2-0.1,0.3-0.1,0.5c-0.1,0.4-0.1,0.4-0.5,0.3C78.1,62.1,78.3,61.2,78.5,60.2z
		 M78.6,61.9c0.1,0,0.3,0,0.4,0c-0.1-0.4-0.1-0.8-0.2-1.2c0,0,0,0,0,0C78.7,61.1,78.7,61.5,78.6,61.9z"/>
	<path class="st8" d="M70.8,60.2c0.2,0,0.4,0,0.7,0c0.2,1,0.4,1.9,0.6,2.9c-0.2,0-0.3,0-0.5,0c0-0.2-0.1-0.3-0.1-0.5
		c0-0.3-0.1-0.4-0.4-0.3c-0.1,0-0.1,0-0.2,0c-0.1,0.3-0.1,0.5-0.2,0.8c-0.2,0-0.3,0-0.5,0C70.4,62.1,70.6,61.2,70.8,60.2z
		 M71.1,60.7C71.1,60.7,71.1,60.7,71.1,60.7c-0.1,0.4-0.2,0.8-0.2,1.2c0.2,0,0.3,0,0.4,0C71.2,61.5,71.2,61.1,71.1,60.7z"/>
	<path class="st8" d="M35.8,61c-0.2,0-0.3,0-0.4,0c0-0.1,0-0.2,0-0.3c-0.1-0.1-0.2-0.2-0.3-0.2c-0.1,0-0.2,0.1-0.3,0.2
		c0,0.6,0,1.2,0,1.8c0,0.1,0.2,0.2,0.3,0.2c0.1,0,0.2-0.1,0.3-0.2c0-0.1,0-0.2,0-0.3c0.2,0,0.3,0,0.4,0c0.1,0.5-0.1,0.8-0.6,0.9
		c-0.5,0.1-0.9-0.2-0.9-0.7c0-0.5,0-1,0-1.6c0-0.6,0.3-0.8,0.8-0.8C35.6,60.1,35.8,60.4,35.8,61z"/>
	<path class="st8" d="M63.7,62.3c0.2,0,0.3,0,0.4,0c0.1,0.5-0.1,0.9-0.6,0.9c-0.5,0.1-0.8-0.2-0.9-0.7c0-0.5,0-1,0-1.5
		c0-0.6,0.3-0.8,0.8-0.8c0.5,0,0.7,0.3,0.7,0.9c-0.1,0-0.3,0-0.4,0c0-0.1,0-0.2,0-0.2c0-0.2-0.1-0.3-0.3-0.3c-0.1,0-0.2,0.2-0.3,0.3
		c0,0.6,0,1.2,0,1.8c0,0.2,0.1,0.3,0.3,0.3c0.2,0,0.3-0.1,0.3-0.3C63.7,62.4,63.7,62.4,63.7,62.3z"/>
	<path class="st8" d="M50.7,61.7c-0.3,0-0.5,0-0.8,0c0,0.3,0,0.7,0,1c0.3,0,0.6,0,0.9,0c0,0.1,0,0.2,0,0.3c-0.4,0-0.8,0-1.3,0
		c0-1,0-1.9,0-2.9c0.4,0,0.8,0,1.3,0c0,0.1,0,0.2,0,0.3c-0.3,0-0.5,0-0.8,0c0,0.3,0,0.6,0,0.9c0.2,0,0.5,0,0.7,0
		C50.7,61.5,50.7,61.6,50.7,61.7z"/>
	<path class="st8" d="M33.8,61.4c0,0.1,0,0.2,0,0.4c-0.2,0-0.5,0-0.7,0c0,0.3,0,0.7,0,1c0.3,0,0.6,0,0.9,0c0,0.1,0,0.2-0.1,0.3
		c-0.4,0-0.9,0-1.3,0c0-1,0-2,0-2.9c0.4,0,0.8,0,1.3,0c0,0.1,0,0.2,0,0.3c-0.3,0-0.5,0-0.8,0c0,0.3,0,0.6,0,0.9
		C33.3,61.4,33.6,61.4,33.8,61.4z"/>
	<path class="st8" d="M32.3,60.2c0,0.1,0,0.2,0,0.3c-0.2,0-0.3,0-0.5,0c0,0.9,0,1.7,0,2.6c-0.2,0-0.3,0-0.5,0c0-0.8,0-1.7,0-2.6
		c-0.2,0-0.4,0-0.6,0c0-0.1,0-0.2,0-0.3C31.3,60.2,31.8,60.2,32.3,60.2z"/>
	<path class="st8" d="M59,63.1c-0.2,0-0.3,0-0.5,0c0-0.9,0-1.7,0-2.6c-0.2,0-0.4,0-0.6,0c0-0.1,0-0.2,0-0.3c0.5,0,1,0,1.6,0
		c0,0.1,0,0.2,0,0.3c-0.2,0-0.3,0-0.5,0C59,61.4,59,62.2,59,63.1z"/>
	<path class="st8" d="M40.3,60.2c0.2,0,0.3,0,0.4,0c0,0.9,0,1.7,0,2.6c0.3,0,0.6,0,0.9,0c0,0.1,0,0.2,0,0.4c-0.4,0-0.9,0-1.3,0
		C40.3,62.1,40.3,61.2,40.3,60.2z"/>
	<path class="st8" d="M62.3,63.1c-0.2,0-0.3,0-0.4,0c0-1,0-1.9,0-2.9c0.1,0,0.3,0,0.4,0C62.3,61.2,62.3,62.1,62.3,63.1z"/>
	<path class="st8" d="M64.6,60.2c0.2,0,0.3,0,0.4,0c0,1,0,2,0,2.9c-0.1,0-0.3,0-0.4,0C64.6,62.1,64.6,61.2,64.6,60.2z"/>
	<path class="st8" d="M46.3,63.1c-0.2,0-0.3,0-0.4,0c0-1,0-1.9,0-2.9c0.1,0,0.3,0,0.4,0C46.3,61.2,46.3,62.1,46.3,63.1z"/>
	<path class="st8" d="M74.9,63.1c-0.1,0-0.3,0-0.4,0c0-1,0-2,0-2.9c0.1,0,0.3,0,0.4,0C74.9,61.2,74.9,62.1,74.9,63.1z"/>
	<path class="st8" d="M46.9,59.5c-0.3,0.2-0.6,0.5-1,0.4C46.1,59.6,46.3,59.5,46.9,59.5z"/>
	<path class="st8" d="M66.1,59.9c0.3-0.3,0.5-0.5,1-0.4C66.7,59.7,66.5,60,66.1,59.9z"/>
	<g>
		<path class="st2" d="M56.2,10.4c0,0-0.1,0.1-0.2,0.2c-1.6,1.1-3.3,2.3-4.9,3.4c-0.1,0-0.2,0-0.3,0c-0.8-0.6-1.6-1.2-2.4-1.8
			c-0.1-0.1-0.2-0.2-0.2-0.3c-0.4-1.6-0.8-3.2-1.2-4.8c0-0.2,0-0.3,0.1-0.4c1.3-1,2.5-2,3.8-3c0.1-0.1,0.2-0.1,0.3,0
			c1.4,0.9,2.8,1.7,4.1,2.6c0.1,0,0.2,0.1,0.2,0.2c0.2,1.3,0.4,2.5,0.6,3.8C56.2,10.3,56.2,10.3,56.2,10.4z"/>
		<path class="st2" d="M61.5,29c0.2-1.2,0.3-2.3,0.5-3.4c0-0.2,0.1-0.4,0.1-0.5c0-0.4,0.2-0.6,0.6-0.8c0.6-0.2,1.2-0.5,1.8-0.7
			c0.1,0,0.3,0,0.4,0c1.4,0.6,2.8,1.2,4.3,1.8c0.1,0.1,0.2,0.2,0.3,0.3c0.4,0.6,0.8,1.2,1.2,1.8c0.1,0.2,0.1,0.3,0,0.4
			c-0.5,1.1-1.1,2.2-1.6,3.2c-0.1,0.1-0.2,0.2-0.4,0.3c-1,0.2-2,0.3-2.9,0.5c-0.1,0-0.2,0-0.3-0.1c-1.3-0.9-2.5-1.8-3.8-2.7
			C61.5,29.1,61.5,29,61.5,29z"/>
		<path class="st2" d="M55.2,32.9c0-0.6,0-1.3,0-1.9c0-0.1,0.1-0.3,0.2-0.4c0.9-0.8,1.8-1.5,2.8-2.2c0.1-0.1,0.4-0.2,0.5-0.2
			c0.4,0,0.7,0,1.1,0c0.2,0,0.3,0.1,0.3,0.3c0,0.6,0,1.2,0,1.7c0,0.2,0.1,0.4,0.3,0.5c1.1,0.7,2.2,1.4,3.2,2
			c0.2,0.1,0.4,0.3,0.4,0.6c0,0.4,0.1,0.9,0.1,1.3c0,0.2,0,0.3-0.2,0.4c-1.6,0.8-3.2,1.7-4.8,2.6c-0.1,0-0.2,0-0.3,0
			c-1.1-0.7-2.3-1.5-3.4-2.3c-0.1-0.1-0.2-0.2-0.2-0.3C55.2,34.2,55.2,33.6,55.2,32.9z"/>
		<path class="st2" d="M71.1,24.1c-0.4-0.1-0.7-0.2-1-0.3c-0.9-0.3-1.8-0.6-2.7-0.9c-0.1,0-0.2-0.1-0.3-0.2
			c-0.5-1.2-1.1-2.3-1.6-3.5c-0.1-0.2,0-0.3,0.1-0.4c0.9-0.9,1.9-1.9,2.8-2.8c0.1-0.1,0.3-0.1,0.4-0.1c1.4,0.2,2.7,0.5,4.1,0.7
			c0.1,0,0.3,0.1,0.3,0.2c0.5,1.3,1,2.6,1.5,3.9c0.1,0.2,0,0.3-0.1,0.4c-1,0.9-2.1,1.8-3.1,2.7C71.2,24,71.1,24,71.1,24.1z"/>
		<path class="st2" d="M48.9,28.2c0,0.5,0,1.1,0,1.6c0,0.2-0.1,0.3-0.2,0.4c-1.2,0.7-2.3,1.3-3.5,2c-0.2,0.1-0.3,0.1-0.5,0
			c-1.3-0.8-2.5-1.5-3.8-2.3c-0.2-0.1-0.3-0.2-0.2-0.4c0.3-1.2,0.6-2.4,0.9-3.6c0-0.2,0.1-0.3,0.3-0.3c1.2-0.4,2.4-0.9,3.6-1.3
			c0.1,0,0.3,0,0.4,0c0.9,0.7,1.9,1.3,2.8,2c0.1,0.1,0.1,0.2,0.1,0.3C48.9,27.1,48.9,27.7,48.9,28.2z"/>
		<path class="st2" d="M56.1,4c0.8-0.1,1.6-0.1,2.4-0.2c1-0.1,2-0.1,3-0.2c0.2,0,0.4,0,0.5,0.3c0.7,1.3,1.3,2.6,2,3.9
			c0.1,0.2,0.1,0.3,0,0.5c-0.7,1.2-1.4,2.4-2.2,3.6c-0.1,0.2-0.2,0.2-0.4,0.2c-1.1,0-2.3,0-3.4,0c-0.2,0-0.3-0.1-0.3-0.3
			c-0.1-1.5-0.2-3-0.4-4.5c-0.1-0.6-0.1-1.3-0.2-1.9c0-0.1-0.1-0.3-0.2-0.3C56.8,4.7,56.4,4.3,56.1,4z"/>
		<path class="st2" d="M47.8,17.3c-0.3-0.2-0.6-0.4-0.8-0.6c-0.3-0.3-0.6-0.3-0.9-0.3c-1.3,0-2.6-0.1-3.8-0.1
			c-0.2,0-0.3-0.1-0.4-0.3c-0.3-0.6-0.6-1.3-0.9-1.9c-0.1-0.2-0.1-0.3,0-0.5c0.7-1.4,1.5-2.9,2.2-4.3c0.1-0.2,0.2-0.3,0.5-0.3
			c0.7,0,1.3,0,2,0c0.2,0,0.3,0.1,0.4,0.3c0.3,1,0.6,2,0.8,3c0.1,0.2,0.2,0.4,0.4,0.5c0.7,0.5,1.4,1.1,2.1,1.6
			c0.2,0.2,0.2,0.3,0.1,0.5C48.8,15.6,48.3,16.4,47.8,17.3z"/>
		<path class="st2" d="M70.4,12.4c0,0.5,0,0.9,0,1.4c0,0.2,0,0.3-0.3,0.2c-0.6-0.1-1.3-0.2-1.9-0.3c-0.2,0-0.4,0-0.6,0.2
			c-0.8,0.7-1.6,1.5-2.5,2.2c-0.2,0.1-0.3,0.2-0.5,0c-0.6-0.4-1.2-0.8-1.8-1.2c-0.1-0.1-0.2-0.2-0.2-0.4c-0.1-0.6,0.1-1.2,0.4-1.7
			c0.8-1.5,1.6-3,2.3-4.5c0.1-0.2,0.2-0.3,0.4-0.3c0.6,0,1.2,0,1.9,0c0.1,0,0.3,0.1,0.4,0.2c0.6,0.7,1.3,1.5,1.9,2.2
			c0.2,0.2,0.2,0.4,0.2,0.6C70.4,11.6,70.4,12,70.4,12.4z"/>
		<path class="st2" d="M40.7,24.4c-0.4-0.7-0.8-1.4-1.2-2.1c-0.2-0.4-0.5-0.8-0.7-1.2c-0.1-0.2-0.1-0.3,0-0.4c0.7-1,1.5-1.9,2.2-2.9
			c0.1-0.1,0.2-0.2,0.3-0.2c1.2,0.1,2.5,0.1,3.7,0.2c0.1,0,0.2,0.1,0.2,0.2c0.7,1,1.4,2,2.1,3c0.1,0.1,0.1,0.2,0,0.3
			c-0.1,0.4-0.3,0.8-0.4,1.2c-0.1,0.2-0.2,0.2-0.3,0.2c-0.6-0.2-1.1-0.3-1.7-0.5c-0.2,0-0.4,0-0.5,0.1c-1.1,0.6-2.3,1.3-3.4,1.9
			C41,24.3,40.9,24.3,40.7,24.4z"/>
		<path class="st2" d="M47.8,33.2c0.8-0.6,1.6-1.1,2.4-1.6c0.2-0.1,0.3-0.3,0.3-0.5c0.1-1,0.1-2.1,0.2-3.1c0-0.4,0-0.4,0.5-0.4
			c0.8,0,1.6,0,2.5,0c0.1,0,0.3,0.1,0.4,0.2c0.4,0.4,0.8,0.9,1.1,1.4c0,0,0.1,0.1,0.1,0.2c-0.3,0.2-0.6,0.4-1,0.6
			c-0.2,0.1-0.3,0.3-0.3,0.5c0,1.6,0,3.3,0,4.9c0,0.4,0,0.4-0.4,0.4c-1.2,0-2.4,0-3.7,0c-0.2,0-0.4-0.1-0.5-0.3
			c-0.4-0.7-0.9-1.3-1.4-1.9C47.9,33.4,47.9,33.3,47.8,33.2z"/>
	</g>
	<path class="st8" d="M38.6,61.6c0-0.3,0-0.5,0-0.8c0-0.2,0.1-0.4,0.3-0.4c0.2,0,0.3,0.1,0.3,0.3c0,0.6,0,1.1,0,1.7
		c0,0.2-0.1,0.3-0.4,0.3c-0.2,0-0.3-0.2-0.3-0.4C38.6,62.2,38.6,61.9,38.6,61.6C38.6,61.6,38.6,61.6,38.6,61.6z"/>
	<path class="st8" d="M42.3,61.6c0-0.3,0-0.5,0-0.8c0-0.2,0.1-0.4,0.3-0.4c0.2,0,0.3,0.1,0.3,0.3c0,0.6,0,1.1,0,1.7
		c0,0.2-0.1,0.3-0.3,0.3c-0.2,0-0.3-0.2-0.3-0.4C42.3,62.2,42.3,61.9,42.3,61.6z"/>
	<path class="st8" d="M65.9,61.6c0-0.3,0-0.5,0-0.8c0-0.2,0.1-0.3,0.3-0.4c0.2,0,0.3,0.1,0.4,0.3c0,0.5,0,1.1,0,1.6
		c0,0.2-0.1,0.4-0.3,0.3c-0.2,0-0.3-0.2-0.3-0.4C65.9,62.2,65.9,61.9,65.9,61.6z"/>
	<path class="st8" d="M60.3,61.5c0-0.4,0-0.7,0-1.1c0.2,0.1,0.4,0.1,0.5,0.2c0.1,0.2,0.1,0.4,0,0.6C60.8,61.4,60.5,61.4,60.3,61.5z"
		/>
	<path class="st8" d="M47.3,61.9c0.1-0.4,0.1-0.8,0.2-1.2c0,0,0,0,0.1,0c0.1,0.4,0.1,0.8,0.2,1.2C47.6,61.9,47.5,61.9,47.3,61.9z"/>
	<path class="st8" d="M78.6,61.9c0.1-0.4,0.1-0.8,0.2-1.2c0,0,0,0,0,0c0.1,0.4,0.1,0.8,0.2,1.2C78.9,61.9,78.7,61.9,78.6,61.9z"/>
	<path class="st8" d="M71.1,60.7c0.1,0.4,0.1,0.8,0.2,1.2c-0.1,0-0.3,0-0.4,0C70.9,61.5,71,61.1,71.1,60.7
		C71.1,60.7,71.1,60.7,71.1,60.7z"/>
</g>
<image style="display:none;overflow:visible;" width="908" height="1143" xlink:href="../../../../../../../../Pictures/Diseos Personales/Diseo de tarjeta de Presentacion/MNA.png"  transform="matrix(0.1171 0 0 0.1171 120 -21.5436)">
</image>
</svg>
