<?xml version="1.0" encoding="utf-8"?>
<!-- Generator: Adobe Illustrator 26.5.0, SVG Export Plug-In . SVG Version: 6.00 Build 0)  -->
<svg version="1.1" id="Capa_1" xmlns="http://www.w3.org/2000/svg" xmlns:xlink="http://www.w3.org/1999/xlink" x="0px" y="0px"
	 viewBox="0 0 512 512" style="enable-background:new 0 0 512 512;" xml:space="preserve">
<style type="text/css">
	.st0{display:none;}
	.st1{display:inline;}
	.st2{fill:#F86C00;}
	.st3{fill:#FECD01;}
	.st4{fill:#FECD00;}
	.st5{fill:#EF5300;}
	.st6{fill:#F05201;}
	.st7{fill:#F05301;}
	.st8{fill:#EE5301;}
	.st9{fill:#EF5301;}
	.st10{fill:#F27003;}
	.st11{fill:#F15301;}
	.st12{fill:#F17002;}
	.st13{fill:#EE7003;}
	.st14{fill:#F07003;}
	.st15{fill:#F36E01;}
	.st16{fill:#E57000;}
	.st17{fill:#ED7106;}
	.st18{fill:#E36C01;}
	.st19{fill:#ED750B;}
	.st20{fill:#E67006;}
	.st21{fill:#EE730C;}
	.st22{fill:#F17004;}
	.st23{fill:#EA7309;}
	.st24{fill:#EC7209;}
	.st25{fill:#F07105;}
	.st26{fill:#EC7005;}
	.st27{fill:#DA6A01;}
	.st28{fill:#F16F03;}
	.st29{fill:#EB7309;}
	.st30{fill:#F27002;}
	.st31{fill:#EB5701;}
	.st32{fill:#DC6B05;}
	.st33{fill:#EF7600;}
	.st34{fill:#E57608;}
	.st35{fill:#EF7106;}
	.st36{fill:#E7750C;}
	.st37{fill:#D86904;}
	.st38{fill:#E46F00;}
	.st39{fill:#ED7207;}
	.st40{fill:#DB8026;}
	.st41{fill:#EF7004;}
	.st42{fill:#E7770E;}
	.st43{fill:#E37812;}
	.st44{fill:#E8710D;}
	.st45{fill:#EE7209;}
	.st46{fill:#E06903;}
	.st47{fill:#EC760D;}
	.st48{fill:#ED7208;}
	.st49{fill:#E76900;}
	.st50{fill:#E87611;}
	.st51{fill:#E6760F;}
	.st52{fill:#ED8123;}
	.st53{fill:#E47817;}
	.st54{fill:#E47916;}
	.st55{fill:#DF7F2A;}
	.st56{fill:#EED558;}
	.st57{fill:#DE7E20;}
	.st58{fill:#E9750D;}
	.st59{fill:#DD7A1C;}
	.st60{fill:#CE6C0B;}
	.st61{fill:#E7750E;}
	.st62{fill:#DF8D34;}
	.st63{fill:#E77B17;}
	.st64{fill:#E48026;}
	.st65{fill:#E85E12;}
	.st66{fill:#E08428;}
	.st67{fill:#D36A00;}
	.st68{fill:#DE8128;}
	.st69{fill:#E57817;}
	.st70{fill:#E37E23;}
	.st71{fill:#E47F25;}
	.st72{fill:#D56100;}
	.st73{fill:#E07B23;}
	.st74{fill:#D26C00;}
	.st75{fill:#E5852A;}
	.st76{fill:#FCDD60;}
	.st77{fill:#E58634;}
	.st78{fill:#E7944F;}
	.st79{fill:#D2680A;}
	.st80{fill:#E37915;}
	.st81{fill:#E47E24;}
	.st82{fill:#CD9150;}
	.st83{fill:#E0592F;}
	.st84{fill:#D06300;}
	.st85{fill:#FC7200;}
	.st86{fill:#E96B00;}
	.st87{fill:#FE6700;}
	.st88{fill:#E76600;}
	.st89{fill:#EB7300;}
	.st90{fill:#FEFDFC;}
	.st91{fill:#EC7100;}
	.st92{fill:#FEFDFD;}
	.st93{fill:#DF5A00;}
	.st94{fill:#FEFEFD;}
	.st95{fill:#FEFEFE;}
	.st96{fill:#FDFBF9;}
</style>
<g transform="translate(0.000000,512.000000) scale(0.100000,-0.100000)" class="st0">
	<path class="st1" d="M490,4825c-120-32-224-116-278-226c-41-85-52-140-48-241c7-144,16-161,258-486c330-444,406-546,440-592
		c18-25,35-47,38-50s17-21,30-40c23-33,368-498,393-530c44-56,67-90,67-100c0-9-23-45-63-95c-13-17-283-380-510-686
		c-9-13-62-84-116-157c-55-74-107-144-115-155c-9-12-92-124-185-249c-94-124-179-244-190-265c-51-101-62-255-27-369
		c95-303,495-404,717-180c22,23,120,145,217,273c300,393,714,933,756,988c13,17,41,53,62,80c21,28,58,77,84,110
		c25,33,84,110,130,170c146,191,176,229,208,263c58,62,85,136,89,239c4,138-23,209-136,359c-25,33-47,61-50,64c-5,4-68,86-103,135
		c-4,5-18,24-31,40c-27,33-218,284-318,415c-35,46-70,91-76,100c-20,24-170,219-190,247c-10,13-25,33-33,43s-60,77-115,150
		c-99,131-245,321-268,350c-7,8-53,69-102,134c-50,66-107,136-127,156C798,4818,627,4862,490,4825z"/>
	<path class="st1" d="M4392,4819c-76-26-124-54-170-101c-35-35-201-248-436-558c-22-30-46-61-53-70c-24-29-204-265-221-288
		c-9-13-24-32-32-42s-23-29-32-42c-10-13-47-61-83-108s-92-119-123-160c-210-275-279-366-401-523c-96-124-112-149-141-217
		c-32-76-39-207-15-281c18-56,68-144,90-157c7-4,146-182,310-397c164-214,338-442,387-505c48-63,203-266,344-450s263-344,272-355
		s37-47,61-80c57-77,102-118,171-154c249-130,545,1,621,274c32,117,15,263-42,362c-13,23-109,156-212,295c-104,139-240,323-303,408
		s-120,162-127,170s-50,67-97,130c-131,179-410,553-424,570c-10,13-9,20,3,41c14,21,91,126,114,154c5,5,80,107,167,225
		c88,118,163,220,168,225c4,6,39,53,77,105c62,84,161,218,182,245c5,6,33,44,63,85s58,80,63,85c8,10,105,140,142,191
		c11,15,47,62,80,106c129,171,155,231,161,364c3,99-7,149-48,234C4818,4785,4585,4884,4392,4819z"/>
</g>
<g>
	<path class="st2" d="M379.4,209c4.7-4.7,9.8-9.4,15-14.1c1.3-0.9,2.1-1.7,3-2.6c0.4,0,0.4-0.9,0.9-0.9c2.6-1.7,4.7-3.4,5.1-6.9
		c0-5.6-3-8.6-8.1-9.8c-5.6-1.7-10.7-3.4-15.4-6.9c0,0,0,0-0.4-0.4c-0.4-0.9-1.3-1.3-2.1-1.7c-5.1-3.9-9-8.6-9.8-15
		c0.4-0.4,0.9-0.4,1.3,0c6.9,5.1,14.6,8.6,22.3,10.7c0.9,0.4,1.7,0.9,3,1.3c0.4,0,0.9,0,0.9,0.9s-0.9,0-0.9,0.4
		c1.3,0,2.6-1.3,3.9-0.9c4.3,0.4,8.1,2.1,11.6,4.3c4.3,2.1,8.1,5.1,10.7,9c0.9,1.3,1.7,1.3,3,0.9c2.6-0.9,5.1-1.3,8.1-1.3
		c6,0,12-0.9,18-2.6c2.6-0.9,2.6-0.4,2.6,2.1c0,1.3,0,2.1,0,3.4c-0.9-0.4-0.4-1.3-0.4-1.7c0-0.4,0-1.3,0-2.1c0,1.3,0,3,0,4.3
		c0,0.4,0,0.4,0.4,0.4c0.4,2.6-0.4,5.1-2.1,7.7c-1.7,3-4.3,5.6-6.9,8.1c-0.4,0.4-0.9,0.9-1.3,1.3c-0.4,0-0.9,0-1.3,0
		c0.9,1.3,1.7,1.7,2.6,2.6c4.7,4.3,8.1,9.8,12,14.6c1.3,1.7,0.4,3-0.9,4.3c1.3-0.4,2.6-1.3,3.4-0.4l0.4,0.4c0,1.3,1.3,1.7,1.7,3
		c0,0.4-0.4,0.9,0,1.3c0.4,1.3,0,2.6,0,4.3c0,0.9-1.3,1.7,0.9,1.7c0.4,0.4,0.9,0.4,1.3,1.3c0.4,0.4,0.4,1.3,0,1.7
		c-0.4,0.9-0.9,1.3-1.3,0.4c-0.9-1.3-2.1-0.9-3-1.7c-0.4-0.4-0.4-0.9-0.4-1.3c0-0.9-0.4-1.3-1.3-0.9c-0.9-0.4-0.4-1.3-0.9-1.7
		c0-0.4,0-0.4,0-0.9c0.9-0.9,1.7-1.7,1.7-2.6c0-0.4,0.9-1.3,0-1.3c-0.9-0.4-0.9,0.4-1.3,0.9c-0.9,0-1.7,1.3-2.1,0.9
		c-0.9-0.4-0.9-1.7-1.7-2.6c-0.4-0.4-0.4-1.3-0.9-1.7c0.4,0.9-0.4,1.7-0.4,2.6s0,1.3,0,2.1c0,0.4,0,0.4,0,0.9c0.9,1.7-0.4,3.9,0,5.6
		c-0.9,6.9-2.1,13.7-7.7,18.8c-1.7,0.9-3,3-4.7,4.3c-0.4,0.4-0.9,0.9-1.3,0.4c-1.3,0-1.7,0.4-2.1,1.7c0,0.9-0.9,1.7-1.3,2.1
		c-1.3,0.4-1.7,1.3-2.6,2.6l0,0c-0.9,0.4-1.3,0.9-2.1,1.7c-0.4-0.4-0.4,0.4-1.3,0c-0.9-0.9-0.9-1.7-0.4-3c-0.9,0.9-0.9,1.7,0,3
		c0.9,0.4,0.4,0.9,0,1.3c-0.9,1.3-2.1,2.1-3,3.9c-3.4,4.7-6,9.4-7.7,14.6c-2.1,5.6-3.4,11.1-4.3,17.1c-0.9,6.4-1.3,12.8-2.1,19.3
		c0,0.4-0.4,0.9-0.4,1.3c0,0.4-0.4,0.9-0.9,0.9c-0.4,0-0.9-0.4-0.9-0.9c0-0.4,0-0.9,0-0.9c0.9-4.7,0-9.4-0.9-14.1c0-0.9,0-1.3,0-2.1
		c-0.4-1.7-0.9-3.9-2.1-5.1c-3-5.1-7.7-8.6-12.8-11.6c-0.4-0.4-1.3-0.9-1.7-1.3c-3-1.7-5.6-3.4-9-3.9c-3-0.4-6-0.4-9-1.3
		c-1.3-0.4-2.6,0.4-3.9,0.4c-2.1,0-3.9,0-5.1-1.7c-1.7-1.3-2.6-3.4-3.9-5.1c-0.4-0.4-0.9-1.3-1.3-1.7c-2.6-3-4.7-6-6.9-9
		c-0.4-0.4-0.4-1.3-0.9-1.7c-0.4-0.4-0.9-1.3-0.4-1.7c0.4-0.4,1.3-0.4,2.1,0c0.9,0.4,1.3,1.3,1.3,2.1c0,0.9,0.4,0.9,0.9,1.3
		c1.3,0,1.3,0.4,1.3,1.3c0-0.4-0.4-0.9-0.9-1.3c-0.4-0.4-0.9-0.9-1.3-1.3c-0.4-2.1-1.3-2.6-3.4-2.1c-0.4,0-0.9,0.4-1.3,0.4
		c-2.6-3.4-5.1-6.9-7.7-10.3c-1.3-2.1-0.9-3.9,1.3-6.4c0.9-0.4,1.3-1.3,1.7-1.7l0,0c0.9-0.4,1.3-0.9,1.7-1.7
		c2.1-2.6,5.1-4.7,7.7-6.9c0.4-0.4,1.3-0.9,1.7-1.3c0.9-0.4,1.3-1.3,2.1-1.7c2.1-2.6,4.7-4.3,7.3-6.9c3.9-3.4,7.7-7.3,11.6-10.7
		c0.4-0.4,0.9-0.4,1.3-0.9l0,0C378.6,210.3,378.6,209.4,379.4,209z"/>
	<path class="st2" d="M457.4,230c1.7-0.4,2.6,0.4,3.4,2.1c0.9-0.9,0.4-1.7,0.4-2.6c0.4-0.9,0-1.7-0.9-2.6c-0.4-0.4-0.9-0.9-1.3-1.7
		c0-0.9,0-1.7,0.4-2.1c0.9-0.4,1.3,0.4,1.7,0.9c0.4,0.9,0.9,1.3,1.3,2.1c0.9,0.9,1.3,2.1,2.6,2.6l0,0c0.4,0.9,0.9,1.7,1.7,2.6l0,0
		c0.9,1.3,1.3,3,2.6,4.3c3.9,6,6.4,12.4,8.1,18.8c0.4,3,1.3,5.6,2.1,8.6c0.4,0.9,0.4,1.7,1.3,1.7c0.9,0,0.9-0.9,1.3-1.7
		c0.9-1.7,1.3-3.4,2.1-5.1c0.4-0.4,0.4-0.9,0.4-1.3c0.9-3,2.1-6.4,3-9.4c0.9-1.7,1.3-3.9,2.6-5.6c0.4-0.9-0.4-1.7-0.4-2.6
		c0-1.3,0.9-2.6,0.9-3.9c0.9-5.1,0.4-9.8,0.4-15c0-0.9,0-2.1,0.4-3c0-0.4,0.4-0.4,0-0.9c-1.7-4.3-1.3-8.6-2.1-12.8
		c-1.3-5.6-3-11.1-5.6-16.3c-0.4-1.3-0.9-2.6-2.1-3.4c-4.7-7.7-9.4-15-15.8-21.8c-0.4-0.4-0.9-1.3-1.7-1.7c-1.3-1.3-2.6-2.1-3.9-3.4
		c-0.4-0.9-1.3-1.3-2.1-1.7h-0.4c-0.4-0.4-0.9-1.3-1.7-1.3l0,0c-0.4-0.4-0.9-0.4-1.3-0.9c-4.3-2.6-8.1-5.1-12.4-7.7
		c-9-5.1-18.8-7.7-29.1-8.1c-0.4,0-1.3,0-1.7-0.4c0,0,0.4-0.4,0.9-0.4c0.9,0,1.7,0,2.6,0c-6,0-12,0-18,0c0.4,0,1.3-0.4,2.1,0.4
		c-4.3,0.4-8.6,0.9-12.8,2.1c-1.3,0.4-3,0.4-4.3,0.9c-1.7,0.4-3.9,0-5.6,1.7l0,0c-0.4,0.4-0.9,0-1.3,0c-0.4-0.4-0.9-0.4-0.9-0.9
		c0-0.4,0.9,0,1.3-0.4c0.4-0.4,0.4-0.4,0.9-0.4c-0.4,0-0.9,0.4-0.9,0.4c-0.4,0-0.9,0-0.9,0c-0.9,2.6-3.4,2.6-5.6,3.9
		c-3,1.3-6,3-9,4.3c-4.7,3-9.4,6.9-13.7,10.7c0,0-0.4,0.4-0.9,0.4c-3.9,1.7-6,5.1-8.1,8.1c-4.7,5.6-8.6,12-11.1,18.4
		c-1.3,3-3.4,4.3-6.9,4.3c-5.6,0-11.1,0-16.3,0c-0.4,0.4-0.9,0.9-1.3,1.3c-1.3,4.3-0.4,6,3.9,6.9c1.7,0.9,3.9,0.4,6,0.4
		c3.9,0,7.7,0.4,11.6,1.7c2.1,1.7,4.3,3.4,5.1,6c0.4,1.3,0.4,2.1,1.3,3.4c0,0.9,0,1.3,0.4,2.1c0.4,3.9,0.4,8.1,0,12
		c0,0.9,0,1.7,0,2.6l0,0c-0.4,4.3-2.1,8.1-4.7,11.6c-1.3,2.1-3.4,2.6-5.6,3c-8.1,1.7-16.7,1.7-24.8,0.9c-3.9-0.4-5.1-2.1-6-6
		c-0.4-3-0.4-5.6,0.9-8.6c0.4-1.3,1.3-2.1,2.6-2.6c1.7-0.4,3.9-0.9,5.6-0.9c6,0,12-0.4,18-0.4c1.3-0.4,1.7-0.9,1.7-2.1
		c0-0.9,0-1.7,0-2.6c0.4-3.4-0.9-4.7-4.3-4.7c-2.6,0-5.1,0.4-8.1,0c-1.3-0.4-2.6-0.4-3.4-1.3c-0.9-0.9-2.1,0-3.4-0.9
		c0.9,0.9,2.1,0,3,0.4c0.9,0.9,0.9,1.3-0.4,1.3c-1.7,0.4-3-0.4-4.7-1.3c-1.3-0.9-2.1-1.7-3.9-2.1l-0.4-0.4c-0.4-0.9-0.9-1.3-1.3-1.7
		c-2.6-4.3-3-9-3.4-13.7c-0.4-5.6,0.9-10.3,3-15.4c2.6-5.6,7.3-8.6,13.3-8.6c3.4,0,6.9,0,10.3,0c0.9,0,1.7-0.4,2.1-1.3
		c3.9-7.3,9.4-12.4,15.8-17.1c5.1-3.9,10.3-7.3,15.8-10.7c0.4,0,0.4-0.4,0.9-0.4c0.4-0.4,1.3-0.4,1.7-0.9l0,0
		c0.4-0.4,0.9-0.4,1.3-0.9c1.7-0.9,3-2.1,4.7-2.6c1.3-0.4,2.6-0.9,3.4-1.7l0,0c0.4,0,0.9-0.4,1.3-0.9c6.4-3,12.8-5.6,19.7-6.9
		c1.3-0.4,3-0.4,4.3-0.4c2.1-0.4,4.3-0.9,6.4-0.9c6,0,12,0,18,0c5.6,0,11.1,0.4,16.3,1.7c1.3,0.4,2.6,0,3.9,0.4
		c3.9,0.4,7.3,1.7,10.7,3.4c8.1,3.4,15.8,7.3,22.7,12.8c0.4,0.4,1.3,0.9,1.7,1.3c0.9,0.9,1.7,1.7,2.6,2.1c1.3,1.3,3,2.6,4.3,4.3
		c2.6,3.4,6,6.4,9,9.8c4.7,5.6,9,11.6,12,18.4c1.3,3,3,6,3.9,9.4c0.9,3.4,2.1,6.4,3,9.8c0.4,2.6,0.9,5.1,1.3,7.7
		c0.4,3,0.9,5.6,0.4,8.6c-0.4,2.1,0.4,4.3,0.4,6c0,8.6,0,17.1-2.6,25.3c-0.9,2.1-1.3,4.3-2.1,6.4c-0.4,1.3-0.9,2.6-3,3
		c0.4,0.9,1.7,0.4,0.9,1.7c-2.1,3.4-3,7.3-5.1,10.7c-1.7,2.6-3,5.6-4.7,8.1c-7.3,10.7-17.1,18.8-25.7,27.8c-2.1,2.6-4.7,4.7-7.3,6.9
		c-0.4,0.4-0.9,0.9-1.7,1.3c-2.6,3-5.6,5.1-8.6,8.1c-2.6,1.3-4.3,3.4-5.6,6c-4.3,5.6-7.7,11.6-10.7,17.6c-0.9,0.4-1.3,0-1.3-0.9
		c0-6.9,0-13.3,3.4-19.3c0-0.4,0,0,0,0c2.6-1.3,2.1-4.7,3.9-6.9c1.3-1.7,2.1-3.4,3-5.1c3.4-5.6,8.1-10.7,12-16.3c3-3.9,6-8.1,9-12
		c0.9-0.9,1.7-2.1,2.1-3.4c2.1-3.9,4.7-7.3,5.6-11.6c1.3-6.9,0.4-13.3-1.3-19.7c-0.9-5.1-3-9.8-4.7-15c-0.4-1.3,1.3-0.4,1.3-1.3
		c-0.4,0.4-0.9,0.4-1.3,0C457.8,233.4,456.5,232.1,457.4,230z"/>
	<path class="st2" d="M25.3,173.9c3-3.9,9.4-3.9,12,0.4c2.1,3.9,4.3,7.7,6.4,11.6c2.6,5.1,5.6,10.3,8.1,15.4
		c0.4,0.4,0.4,1.3,1.3,0.9c0.9-0.4,0.4-0.9,0.4-1.7c0-6-0.4-12.4-0.4-18.4c0-2.1,0-4.3,0.9-6.4c1.3-3.9,5.6-5.1,9.8-4.3
		c2.6,0.9,4.3,2.1,4.7,4.7c-0.4,2.1,0,4.3,0,6.4c0,17.6,0,35.1,0,53.1c0,0.9,0.4,1.7-0.4,2.1c-0.4-1.3-0.4-3-0.4-4.3
		c0-16.7,0-33.4,0-50.1c0-0.4,0-1.3,0-1.7l0,0l0,0c0,3.9,0,7.3,0,11.1c0,14.1,0,28.3,0,42.4c0.4,0.9,0,1.7,0.4,3
		c0.9,2.1-0.9,3-2.1,4.3c-3,2.1-7.3,1.7-9.8-1.3c-5.1-7.7-9.4-15.8-13.7-24.4c-0.4-0.9-0.9-2.1-1.7-3c0-0.4-0.4-0.9-0.9-0.4
		c-0.4,0-0.4,0.4-0.9,0.9c0,0.9,0,1.7,0,2.6c0,6,0,11.6,0,17.6c0,0.4,0,1.3,0,1.7c-0.4,5.6-5.6,8.6-10.7,6.4c0-0.4-0.4-0.4-0.9-0.9
		c-2.6-1.3-3-3-3-5.6c-0.4-10.7-0.4-21.4,0-32.1c0-6.4,0.4-12.4,0.4-18.8c0-3.4,0-6.9,0.4-10.3C25.3,174.7,25.3,174.3,25.3,173.9z"
		/>
	<path class="st2" d="M196.6,207.3c0.4-2.1,2.1-4.3,4.3-4.7c1.7-0.4,3.4-0.9,5.1-1.7c3.4-1.7,4.3-6,2.6-9c-0.9-1.3-1.7-2.1-3.4-2.1
		c-3.4-0.4-6.4,0-9.8,0c-1.3,0-1.7,0.9-1.7,2.1c0,13.3,0,27,0,40.2c0,1.7,0,3.9-0.4,5.6c-0.4,3-3,5.6-6,5.6c-1.3,0-2.6,0-3.9,0
		c-3.4-0.9-4.7-2.6-5.1-6.4c-0.4-7.7-0.4-15,0-22.7c0.4-11.6,0-23.1,0-34.7c0-4.7,1.7-7.3,6.4-7.3c7.7,0,15.4-0.4,23.1,0.4
		c1.7,0,3.4,0.9,4.7,2.1c6.4,4.3,9.4,10.7,9.8,18.4c0,1.7-0.4,3.4,0,5.1c-0.4,4.7-3,8.1-5.1,11.6c-0.4,0.9-1.3,1.7-2.1,2.6
		c-1.3,0.4-1.3,1.7-0.4,3c2.1,5.1,4.7,9.8,6.9,15c2.1,4.3-0.4,9.8-4.7,12c-2.6,1.3-5.6,0.4-7.3-1.7c-2.6-3.4-4.3-7.7-6-11.6
		c-0.9-2.1-2.1-4.7-3-6.9c-0.4-2.6-2.1-4.7-3-7.3C196.6,212.4,196.2,209.8,196.6,207.3z"/>
	<path class="st2" d="M90.4,195.7c0,0.4,0,0.9,0,1.7c0.4,5.6,0,11.1,0,16.7c0,1.3,0,3,0.4,4.3c0.9,3.4,3,5.1,6.4,6
		c2.6,0,5.1,0.4,7.7-1.3c1.3-0.9,2.1-2.1,2.1-3.9c0.4-5.1,0.4-10.3,0.4-15c0-7.7,0-15.4,0-22.7c0-3,0.4-5.6,3-7.7
		c1.7-0.9,3.4-1.3,5.6-1.3c3.4,0,6.4,3,6.4,6.4c0.9,12.4,0.4,24.4,0.4,36.8c0,0.4,0,0.9,0,0.9c0,6.9-1.3,13.7-5.6,19.7
		c-3.4,4.7-7.7,7.3-13.3,7.7c-4.7,0.4-9.4,0.4-13.7-1.3c-6.9-3.4-10.7-9-12.8-15.8c-1.7-5.6-1.3-11.1-1.3-16.7c-0.4-9,0-18,0-27
		c0-2.6,0-5.6,2.1-8.1c0.4-0.4,0.9-0.4,1.3-0.9c1.7-2.1,4.7-2.1,7.7-0.9c0.9,0.4,1.7,0.9,2.6,1.7c0,0,0,0,0,0.4
		c1.7,2.6,1.7,5.1,1.7,8.1c-0.4,3.9,0,7.7-0.4,11.6C90,194.8,90,195.3,90.4,195.7z"/>
	<path class="st2" d="M263.8,229.1c-4.7,0-9.8,0-14.6,0c-1.7,0-2.6,0.9-2.6,2.1c-0.4,2.1-1.3,3.9-2.1,5.6c-0.9,0.4-0.4,1.3-0.9,2.1
		c0,0.4,0,0.9-0.4,0.9c-0.9,0.9-1.7,1.7-2.6,2.6c-1.7,0.9-3,1.3-5.1,0.9c-2.6-0.9-4.7-2.6-6.4-5.1c-0.9-1.3-0.9-2.6-0.4-3.9
		c1.7-8.1,4.7-15.4,7.7-23.1c0.4-0.9,0.4-1.7,0.9-2.1c0.4-0.4,0.4-0.9,0.4-1.3c2.6-6.9,5.1-13.7,7.7-20.6c1.7-4.3,2.6-8.6,4.7-12.4
		c0.4-0.9,1.3-1.3,2.1-2.1c1.3-0.9,2.6-1.3,3.9-1.7c3.9-0.4,6,1.3,7.3,5.1c4.3,12.8,8.6,25.7,13.3,38.5c1.3,3.9,2.6,8.1,3.9,12
		c0,0.9,0,1.3,0.4,2.1c1.7,3.9,2.1,7.7,0,11.6c-0.9,0.4-1.3,0.9-1.7,1.7c-0.4,0.4-1.3,0.9-2.1,0.9c-0.4,0-1.3-0.4-1.7-0.4
		c-3,0.9-4.7-0.9-6.4-3c-1.3-1.3-2.1-3.4-1.7-5.6c0-0.4,0-0.9-0.4-0.9c-1.3-0.4-1.3-1.3-1.7-2.6C265.1,230,264.7,229.1,263.8,229.1z
		"/>
	<path class="st3" d="M177.3,247.1c33,0,65.9,0,99.3,0c17.6,0,34.7,0,52.2,0c2.1,0,2.6,0.4,2.6,2.6c0,3.9,0,3.9-3.9,3.9
		c-100.2,0-200.4,0-300.6,0c-0.9,0-2.1,0.4-2.6-0.9c-0.4-1.7-0.4-3.4,0-5.1c0.4-0.9,0.9-0.4,1.3-0.4c12,0,24,0,36,0c15,0,30,0,45,0
		c14.1,0,28.7,0,42.8,0C158.9,247.1,167.9,247.1,177.3,247.1L177.3,247.1z"/>
	<path class="st2" d="M157.6,237.7C157.6,237.7,157.6,238.1,157.6,237.7c-1.3,1.3-2.6,0.4-3.9,0.9c0.9,0,2.1-0.4,2.1,0.9
		c0.4,1.3-0.9,1.7-1.7,2.1c-1.3,0.4-2.6,0.9-3.4,1.3c-2.1,0.4-3.4-0.4-5.1-1.7c-1.3-0.9-1.3-2.6-2.6-3.4c0-0.4,0-0.9,0-1.3
		c-0.4-0.9,0-1.7,0-2.1c0-12,0-24.4,0-36.4c0-1.7,0.4-3.9,0-5.6c0-1.7-0.4-2.1-2.6-2.1c-2.6,0-5.1,0.4-7.3,0c-1.7-0.4-2.6-1.3-3.4-3
		c-1.7-4.3-2.6-8.6,0.4-12.8c0.9-0.4,1.3-1.3,2.1-1.7c0.4,0,0.4-0.4,0.9-0.4c5.6,0,11.1-0.9,16.7-0.4c0.4,0.4,1.3,0.4,2.1,0.4
		c4.7,0,9.4,0,13.7,0c0.9,0,1.3,0,2.1,0l0,0c0.9,0.4,1.3,1.3,2.1,1.7c2.6,3.4,2.6,11.1,0,14.6c-0.9,1.3-2.1,1.7-3.9,1.7
		c-2.1,0-3.9,0-5.6-0.4c-2.1-0.4-3,0.4-3,2.1c-0.4,0.4-0.4,0.9-0.4,1.3c0.9,7.7,0.4,15.4,0.4,23.1c0,5.1,0.4,9.8,0.4,15
		C158.1,233.8,158.1,235.5,157.6,237.7z"/>
	<path class="st4" d="M442.8,264.2c3.4-3.4,7.3-7.3,9.8-11.6c0.4-0.4,0.9-1.3,1.3-1.3c0.9,0,0.4,1.3,0.4,1.7c0.4,3.9,0.9,8.1,0,12
		c-0.9,5.1-3.4,9.4-5.6,14.1c-4.3,8.1-11.1,14.6-17.1,21.4c-3,3.4-4.3,7.3-6.9,11.1c-1.3,2.1-2.6,4.3-3.4,6.9
		c-0.9,0.4-1.7,0.4-1.3-0.9c0.9-6.4,0.9-12.8,2.1-18.8c1.7-10.3,6-19.3,13.3-26.5c2.1-1.7,3.9-3.9,6-6
		C441.9,265.1,442.4,264.6,442.8,264.2z"/>
	<path class="st5" d="M291.2,292c-2.1-0.9-2.6-2.6-2.1-4.7c1.3-5.6,3.9-10.3,9-12.8c0.9-0.4,2.1-0.4,3.4-0.4c0.9,0,1.7,0,2.6-0.4
		c0.4-0.4,1.7-0.4,2.1,0c0.9,0.4,0,1.3,0,1.7c-1.7,6.4-3.9,12.8-3.9,19.3c0,5.1-4.7,8.6-8.6,8.1c-1.3,0-2.6,0-3.9,0
		c-1.7,0-3.4-0.9-3.9-2.6c-0.9-1.3-0.4-3,0.9-4.3C287.8,293.8,289.9,293.3,291.2,292z"/>
	<path class="st6" d="M209,277.1c0.9,0,1.3-0.9,2.1-1.3c0.9-0.4,1.7-1.3,3-1.7c1.3-0.9,3-0.9,3.9,0c1.3,0.9,0.9,2.1,0.4,3.4
		c-0.9,2.6-1.7,5.6-2.6,8.1c-0.4,0.9-0.4,2.1-0.4,3c1.3,0,1.3-1.3,2.1-1.7c0.4-0.4,1.3-0.4,1.7,0c0.4,0.4,0.4,1.3-0.4,1.7
		c-1.7,1.3-3.4,3-5.6,3.4c-1.7,0-2.6-0.9-2.6-2.6c0-2.6,0.9-4.7,1.7-7.3c0.4-1.3,0.9-2.6,1.3-3.9c0-0.4,0.4-1.3,0-1.3
		c-0.4-0.4-0.9,0-1.3,0.4c-2.6,1.7-4.3,3.9-5.1,6.9c-0.4,1.7-0.9,3.4-0.9,5.1c-0.4,1.7-2.6,3-4.3,2.1c-0.4-0.4-0.4-0.9-0.4-1.3
		c1.7-6.9,3-13.7,4.7-20.1c1.3-5.6,5.6-8.6,10.7-8.6c1.3,0,2.1,0,2.1,1.7c0,1.3-0.9,1.7-2.1,1.7c-0.4,0-0.9,0-1.3,0
		c-3.4-0.4-3.4-0.4-4.3,3c-0.9,3-1.3,5.6-2.1,8.6C208.6,276.6,209,276.6,209,277.1z"/>
	<path class="st7" d="M161.5,265.9c3,0.4,6,0.4,9,0.9c1.3,0,2.6,0,2.6-2.1c0-0.9,0-1.3,0.9-1.3s1.7-0.4,2.6,0.4
		c0.4,0.4,0.4,1.3,0.4,1.7c-0.4,1.7-1.7,2.1-3.4,2.6c-1.7,0.4-3.4,0.4-5.1,0.4c-1.3,0-2.1,0-2.1,1.7c-1.3,6-3,12-4.7,18.4
		c-0.9,2.6-0.4,2.6,2.1,2.6c0.9,0,2.6-0.4,2.6,0.4c0,1.3-1.3,1.3-2.6,1.3c-3.4,0-6.9-0.9-10.3-0.4c-0.4,0-0.9,0-0.9-0.4
		c0-0.4,0-0.9,0.4-0.9c3.9-0.4,4.3-3.4,4.7-6.4c1.3-4.7,2.1-9.4,3.4-14.1c0.4-1.3,0-1.7-1.3-1.7c-2.6,0-5.6,0.4-7.7,2.1
		c-2.6,1.7-3,4.3-0.9,6.9c0.4,0.9,0.9,1.7,0,2.6c-1.3,0.4-2.6,0.4-3.4-0.9c-1.3-2.1-0.9-4.7,0.4-6.9c2.1-3.9,5.6-6,10.3-6
		C159.4,265.9,160.2,265.9,161.5,265.9L161.5,265.9z"/>
	<path class="st7" d="M224.9,277.5c-0.9,0-0.9,0.4-1.3,1.3c-0.9,0.9-1.3,0.4-2.1,0c-0.4-0.4,0-1.3,0.4-1.7c1.7-1.7,3.4-3.4,6-3.4
		c1.7,0,2.6,0.4,1.7,2.1c0,0.4-0.4,0.9,0.4,1.3c0.9-0.9,2.1-1.3,3-2.1c1.3-0.9,2.1-1.3,3.4-1.3c2.6,0,3,0.9,2.6,3.4
		c-0.9,3.4-2.1,6.4-3,9.8c0,0.4-0.4,1.3,0,1.7c0.9,0.4,1.3-0.4,1.7-0.9c0.4-0.4,0.9-0.9,1.3-0.9s0.9,0,1.3,0c0.4,0.4,0.4,0.9,0,1.3
		c-1.7,1.7-3.4,3.4-6,3.9c-2.1,0.4-3.4-0.9-2.6-3.4c0.4-2.1,1.3-4.3,1.7-6.4c0.4-1.3,0.9-2.6,0.9-3.9c0-0.4,0-0.9,0-0.9
		c-0.4-0.4-0.9,0-1.3,0c-2.1,1.3-3.9,3-4.7,5.6c-0.4,2.1-1.3,4.3-1.7,6.4c-0.4,2.1-2.1,3-4.3,2.1c-0.9-0.4-0.4-0.9-0.4-1.3
		c0.9-3.4,1.7-7.3,2.6-10.7C224.9,278.8,225.3,277.9,224.9,277.5z"/>
	<path class="st7" d="M281.8,273.6c3.4,0,5.1,1.3,5.6,4.3c1.3,6.9-5.1,14.6-11.1,14.1c-3-0.4-4.7-1.7-5.1-4.7
		c-0.9-4.7,2.6-11.1,6.9-13.3C279.7,273.6,280.5,273.6,281.8,273.6z"/>
	<path class="st8" d="M258.3,280.1c0,6-5.1,12-10.7,12c-3.9,0-6-2.1-6-6c0.4-5.1,2.6-9.4,7.7-12c2.1-0.9,4.3-0.9,6,0
		C257.8,275.3,258.3,277.9,258.3,280.1z"/>
	<path class="st7" d="M264.3,289c1.7-0.9,2.6-1.7,3.4-3c0.4-0.9,1.3-1.3,2.1-0.4c0.9,0.9,0,1.3-0.4,2.1c-2.1,1.7-3.9,3.9-6.9,4.3
		c-2.1,0.4-3-0.4-2.6-2.6c0.9-5.1,2.1-10.3,3.4-15.4c0.4-2.1,0.9-4.3,2.1-6.4c1.7-3.9,5.6-6.4,10.3-6c1.3,0,1.7,0.4,1.7,1.7
		c0,1.3-0.9,1.7-1.7,1.7s-1.7,0-2.6,0c-1.7-0.4-3,0-3.4,1.7c-1.7,5.1-2.6,10.7-3.9,15.8C265.1,284.8,264.7,286.5,264.3,289z"/>
	<path class="st9" d="M170.1,288.6c0.4-5.6,2.1-9.4,5.1-12.8c2.1-2.1,4.7-2.1,7.7-1.7c1.7,0.4,2.1,3.4,0.9,5.1
		c-1.7,2.6-4.7,3.4-7.3,4.7c-0.9,0.4-2.1,0.9-1.7,2.1c0,0.9,0,2.1,0.9,2.6c0.9,0.4,1.7,0,2.6-0.9c0.9-0.9,1.7-1.3,2.6-2.1
		c0.4-0.4,1.3-0.4,1.7,0c0.4,0.4,0.4,0.9-0.4,1.7c-1.7,1.7-3.4,3.4-6,4.3C172.6,292.9,169.6,292,170.1,288.6z"/>
	<path class="st10" d="M485.6,278.8c0-2.1,1.7-3.4,2.6-4.7c0.4-1.3,1.3-2.1,0-3.4c1.3,0.4,1.7,0.4,2.6-0.9c0.9-2.6,2.6-4.3,3-7.3
		c0-0.9,1.3-2.1,2.1-3.4c0,0-0.4,0-0.4-0.4c-0.4,0-1.7,0.4-1.7-0.4c0-0.4,0.9-0.9,1.7-0.9c1.3,0,1.7-0.9,1.7-1.7
		c1.3-4.3,3.4-8.6,3.9-13.3c0.4-2.6,0.9-5.1,0.9-7.7c-0.4-2.6,0-4.7,0.4-7.3c0.4-3.4-0.9-7.3-0.4-10.7c0.4-3,0-6-0.4-9
		c-0.9-4.7-0.9-9.4-3.4-13.7c-0.9-1.7-0.9-3.9-1.7-5.6c-0.9-1.7-1.7-3.4-2.6-5.1c-0.4-0.9-0.9-2.6-1.3-3.9
		c-1.7-4.7-5.6-8.6-8.1-12.8c-0.4-0.9-0.9-0.4-1.7,0c0.9-2.1-0.4-3-1.3-3.9c-2.1-1.7-3.4-3.9-5.6-5.6c-0.9-0.9-1.7-2.1-2.1-3.9
		c3,2.6,5.6,5.6,8.1,8.6c11.1,12.8,18,27.8,21,45c3.9,24,0,46.7-12.4,67.6C488.2,275.8,487.3,277.5,485.6,278.8z"/>
	<path class="st11" d="M196.6,273.6c0.4,0,0.9,0,1.3,0c1.7,0,3,0.4,2.6,2.1c0,2.1-1.7,1.3-3,1.3c0,0-0.4,0-0.4-0.4
		c-3.4-0.9-4.3-0.9-5.6,2.6c-0.9,2.1-1.3,4.3-1.3,6.9c0,2.1,1.7,3,3.9,2.1c0.9-0.4,1.7-1.3,3-1.7c0.4-0.4,1.3-0.9,2.1,0
		c0.4,0.9,0,1.3-0.9,1.7c-2.6,1.7-5.1,3.4-8.6,3.4c-1.7,0-3-1.3-3.4-3c-0.9-4.7,2.1-12,6.4-14.6
		C193.6,274.1,195.3,273.6,196.6,273.6z"/>
	<path class="st12" d="M25.3,174.7c0.4,0.9,0.4,2.1,0,3c-0.9,2.1,0,4.3,0,6.4c0,5.1,0.4,10.3,0,15.4c-0.9,11.1,0,22.3-0.4,33.4
		c0,1.7,0,3,0,4.3s0,3,2.1,3.4c0.9,0,0.9,0.9,1.3,1.7c-0.4,0.4-0.4,0.4-0.9,0c-2.6-1.3-3.4-3.4-3.9-5.6c-0.4-9.8-0.4-19.7,0-30
		c0.4-8.6,0-16.7,0-25.3c0-0.9,0-1.7,0-2.6c0.4-0.9,0-1.7,0.4-2.6l0,0C24.9,176,24.5,174.7,25.3,174.7z"/>
	<path class="st11" d="M319.5,292c0,0.4,0,0.9-0.4,0.9c-1.3,1.3-1.7,1.3-3.4-1.3c0-1.3,0-2.1,0-3.4c0.4-0.4,0-0.9,0.9-1.3
		c1.7-1.7,1.7-1.7-0.4-4.7c-0.4,0.9,0,1.7-1.3,1.3c-0.4-2.1-0.9-4.3-2.1-6c-0.9-1.3-1.7-1.7-3-0.4c-0.9,0.4-1.3,0.4-2.1,0
		c-0.4-1.3,0.4-1.3,1.3-1.7c0.4-0.4,0.9-0.4,1.3-0.9c2.1-2.1,4.7-2.6,6,0.9c1.3,3,2.6,6.4,2.6,9.8c0,0.4,0,0.4,0,0.9v0.4
		c-0.4,0.4-0.4,0.9,0,1.3c0,0.4,0.9,1.3,0,1.7c-0.4,0.4-0.9,0-1.7-0.4C317.8,291.2,319.1,291.2,319.5,292z"/>
	<path class="st13" d="M482.6,184.1c0.9,0,1.3,0.4,1.7,0.9c1.7,4.7,3.9,9,5.6,14.1c0.9,3.4,1.3,7.3,1.7,10.7c0,1.3,0.4,2.1,0.4,3.4
		c0,0.9-0.9,2.1,1.3,2.1c0.4,0,0,1.3,0,1.3c-0.9,1.3-0.9,2.6-0.9,4.3c0,4.7,0.4,9.4-0.4,14.1c0,0.9-0.4,1.3-0.4,2.1
		c-0.4,0.9-0.4,2.1,0,2.6c2.1,1.7,0,3-0.9,3.9c-1.3,1.3-0.4,3-2.1,3.9c0.9-3,1.7-6,2.1-9.4c1.3-7.3,1.3-14.6,0.9-22.3
		c-0.4-6.9-1.7-13.7-3.9-20.1C486.5,191.4,484.3,188,482.6,184.1z"/>
	<path class="st11" d="M319.5,292c-2.6-0.9-3-1.3-2.6-3c0.9,0,0.9,1.7,1.7,1.3c0.9-0.4-0.9-0.9-0.4-1.7c0.4-0.4,0.4-1.3,0.9-1.7
		c0.4-0.4,0.4-0.4,0.9-0.9c1.3-3.4,2.1-6.4,1.3-9.8c-0.4-2.1,0-2.6,2.6-2.1c0.4,0.4,0.9,0.4,1.3,0.9c0.9,3.9-0.4,7.3-1.7,10.7
		C322.1,287.8,321.2,289.9,319.5,292z"/>
	<path class="st11" d="M315.6,291.6c0.4,0.9,2.1,0,1.7,1.7c0,0.4,0.9-0.9,1.3-0.4c-1.3,3-3.4,5.1-5.6,7.3c-2.6,2.6-6,2.6-9,2.1
		c-0.9,0-1.3-0.4-1.3-1.3s0-1.3,0.9-1.7s1.7-0.4,3,0c3.9,0.4,6.4-1.3,7.7-5.1C315.2,293.3,315.6,292.5,315.6,291.6z"/>
	<path class="st14" d="M301.9,213.3c2.1,1.3,5.1,1.3,7.3,1.3c1.7,0,3.4,0,5.6-0.4c0.9,0,1.7,0,1.7,0.9v0.4c3.9,0.4,0.9,3,1.3,4.3
		c0,0.9,0,1.7,0.4,3c0.9,1.7-0.9,1.7-1.7,2.1c-1.7-0.4-3.4,0-5.1-0.4c1.3-0.4,2.1-0.4,3.4-0.4s2.1-0.9,2.1-1.7c0.4-1.3,0.4-3,0-4.7
		c-0.4-1.7-1.7-2.1-3.4-2.1c-4.3,0-8.6,0-12.8-0.9c-3-0.4-5.6-1.7-7.7-3.9c0.9-0.4,1.3,0,2.1,0.4c1.7,0.4,2.6,2.1,3.9,2.6
		S301.5,215,301.9,213.3z"/>
	<path class="st15" d="M456.9,218c-1.3,0.4-2.6-0.4-3,1.3c0,0.4-0.4,0.4-0.9,0.4c-0.4-0.4-0.4-1.7,0-1.7c2.6-1.7,1.3-3,0-4.7
		c-1.3-1.3-2.6-3-3.9-4.3c-0.9-1.3-1.7-2.1-2.6-3.4c-0.4-0.9-0.9-2.1-2.1-2.1c-0.4,0-0.4-0.4-0.4-0.9c0.4-0.9-0.4-1.3-0.9-1.3
		c-1.7-0.4-2.1-2.6-3.9-3c-0.4,0-0.9-1.3-0.4-1.7c0.9,0,1.3,0.9,1.7,0.4c0.4,0.9,0.4,2.1,1.7,2.6c5.1,5.1,9.4,11.6,14.1,17.6
		C456.9,217.1,456.9,217.5,456.9,218z"/>
	<path class="st16" d="M157.6,237.7c-0.4-0.9,0-2.1,0-3c0-7.3-0.4-14.6-0.4-21.8c0-5.1,0-9.8,0-15c0-1.3,0-3-0.4-4.3
		c0-0.4-0.9-1.7,0.9-1.3c0.4,6,0.4,12,0.4,18c0.4,7.7,0.4,15.4,0.4,23.1C158.5,235.1,158.1,236.4,157.6,237.7z"/>
	<path class="st17" d="M433,318.6c-0.4,1.7-1.7,2.6-0.9,4.3c0,0.4-0.4,0.9-0.9,1.3c-1.7,0.4-2.1,1.7-3,3.4c-1.3,3-2.6,6-2.6,9.4
		c0,2.6,0.4,5.6,0,8.1c0,0.9,0.4,0.9,0.9,0.9c0,0.9-0.4,1.7-1.3,2.6c-1.7-11.1,0.9-21.4,7.3-30.4C432.5,318.6,432.5,318.6,433,318.6
		z"/>
	<path class="st18" d="M68.2,238.1c0.9-0.9,0.4-1.7,0.4-2.6c0-18.8,0-37.7,0-56.5c0-0.9-0.4-1.7,0.4-2.6c0.4,2.6,0.4,4.7,0.4,7.3
		c0,17.6,0,34.7,0,52.2c0,2.1,0,4.3-2.1,6c-0.4,0.4-0.4,0.4-0.9,0.4C66.9,240.7,68.6,239.8,68.2,238.1L68.2,238.1z"/>
	<path class="st19" d="M122.5,215.8c-0.4-0.9-0.4-1.3-0.4-2.1c0-9,0-18,0-27c0-3,0-6.4-0.4-9.4c0-2.6-3-4.7-5.6-5.1
		c-2.1-0.4-4.3,0.9-6.4,0.9c2.1-1.7,5.1-2.1,7.7-1.3c2.6,1.3,4.7,3,4.7,6.4C123,191,123,203.4,122.5,215.8z"/>
	<path class="st20" d="M430.8,129.3c-4.3,0-8.6-0.9-12.8-1.7c-0.4,0-1.3,0-1.7,0c-8.6,0-16.7,0-25.3,0c-1.7,0-3,0.4-4.7,0.9
		c-0.4-0.4-1.3,0-2.1-0.4c2.1-0.9,4.7-0.9,7.3-0.9c8.1,0,16.3,0,24.4,0C421,127.2,426.1,127.6,430.8,129.3z"/>
	<path class="st15" d="M457.4,230c0,0.4,0,0.9,0.4,1.7c0.9,2.6,0.9,2.6,3,1.7c0,1.7-1.3,1.7-2.1,2.1c-2.1-3.9-3.9-8.6-6-12.4
		c0-0.4-0.4-0.9-0.4-1.3c-0.4-0.4-0.4-1.3-1.3-0.9c-0.9,0-0.4,0.9-0.4,1.3c0,0.4,0,1.3,0,1.7h-0.4l-0.4-0.4c0.4-0.9,0.4-1.7,0-2.6
		c0-0.9,1.3-1.3,0.4-2.1c0,0-0.4-0.9,0.4-1.3c0.4,0,0.9,0,0.9,0.4c0,1.7,1.7,2.6,2.1,4.7c0.4-1.7,1.3-1.7,2.1-0.9c0,0,0,0,0,0.4
		c-0.9,1.3-0.9,2.6,0,3.9c0,0.9-0.4,1.7,0.9,1.7c0.9-0.4,0.9,0.4,1.3,0.9C457.4,229.5,457.4,230,457.4,230z"/>
	<path class="st21" d="M133.7,189.7c2.6-0.4,5.6,0.4,8.1-0.4c1.3-0.4,1.7,0.9,1.7,1.7c0.4,2.1,0,4.3,0,6.9c0,12,0,24,0,36
		c0,0.9,0,1.7,0,2.6c-0.4-0.9-0.4-1.3-0.4-2.1c0-13.7,0-27,0-40.7c0-3.4,0-3.4-3.4-3.4C138,190.1,135.8,190.6,133.7,189.7z"/>
	<path class="st22" d="M263.8,229.1c2.1-0.4,2.1,0.9,2.1,2.1s0,2.1,1.7,2.1c0.9,0,0.9,0.4,0.9,1.3c-0.4,0.4-1.3,0.9-0.9,1.3
		c0.9,1.3,0.4,3,1.7,4.3c1.3,1.3,3,1.7,4.7,3c0.4,0.4,0.9,0,1.3-0.4c0.9-0.4,1.7-0.4,2.6,0.4c-4.3,1.3-8.1-0.4-9.8-4.7
		c-0.9-2.1-1.7-4.7-2.1-6.9C264.7,230.4,264.3,229.5,263.8,229.1z"/>
	<path class="st23" d="M363.2,277.9c0.4,0,0.9,0,0.9,0.4c1.7,2.6,3.9,1.7,5.6,0.9c0.9-0.4,2.1-0.4,3,0c1.7,0.9,3,0.9,4.7,0.9
		c2.1,0,4.3,0.4,6.4,0.9c2.1,0.4,4.7,2.1,6.4,3.9v0.4c-4.3-1.7-8.6-3.9-13.3-4.3c-3.4-0.4-6.4-0.4-9.8,0
		C364.9,280.5,364,279.6,363.2,277.9z"/>
	<path class="st24" d="M222.7,197.4c-0.4-0.9-0.9-1.7-0.4-2.6c0.9-3,0-5.6-0.4-8.6c-0.9-3.9-2.1-7.7-6-9.4c-0.9-0.4-1.7-2.1-2.6-3
		c3.4,1.3,5.6,3.9,7.3,6.9C222.7,186.3,224,191.4,222.7,197.4z"/>
	<path class="st25" d="M90.4,195.7c-0.9,0-0.9-0.9-0.9-1.3c0-4.3-0.4-8.6,0.4-12.8c0.4-2.6-1.3-4.7-1.3-6.9c1.7,0.9,2.1,2.6,2.1,4.3
		C90.4,184.1,90.4,190.1,90.4,195.7z"/>
	<path class="st15" d="M462.9,226.5c-1.3-0.9-1.7-2.1-2.6-3c-0.9,1.3-0.9,2.1,0.4,3c0.9,0.9,0.9,1.7,1.7,2.1
		c0.9,1.3-0.4,0.9-0.9,0.9c-0.9,0-0.9-0.4-1.3-0.9c-0.4-0.4-0.9-1.3-1.3-1.7c0-1.7,0-3.4,0-5.1c0-0.4,0.4-0.4,0-0.9
		c-0.4-0.9-1.7-1.7-1.3-3c2.1,2.1,4.3,4.3,5.6,7.3C462.9,225.7,462.9,226.1,462.9,226.5z"/>
	<path class="st26" d="M430.4,259.9c0-1.3,0.4-2.1,2.1-2.6c0.9-0.4,0.9-1.3,1.3-2.1c0-0.9,0.4-1.7,1.3-1.7c2.6,0.4,3.9-1.7,5.1-3
		c0.9-0.4,1.3-1.3,2.1-1.3c-3,3.4-6.9,6-9.8,9C432.1,258.6,431.2,259.5,430.4,259.9z"/>
	<path class="st25" d="M97.3,224c-4.3,0.4-6.9-3.4-6.9-7.3c0-6.4,0-12.8,0-19.3c0.4,0.9,0.4,1.7,0.4,2.6c0,5.6,0,10.7,0.4,16.3
		c0.4,3.9,2.1,6,5.6,7.3C96.9,223.5,96.9,223.5,97.3,224z"/>
	<path class="st27" d="M311.4,224.4c1.7,0.4,3.4-0.4,5.1,0.4c-6.4-0.4-12.4,0.4-18.8,0.4c-1.7,0-3.4,0.4-5.6,0.4
		c0-0.4,0.4-0.4,0.9-0.4c0.4-0.4,1.3,0,2.1-0.4c2.1-0.4,4.3-0.4,6.4-0.4C304.9,224.4,308.4,224.4,311.4,224.4z"/>
	<path class="st28" d="M151.2,243.2c0.9-0.9,1.7-1.7,3-1.7c0.4,0,0.9-0.4,1.3-0.4c0.4-0.4,0.9-0.9,0.4-1.3c-0.4-0.4-0.9-0.4-1.3,0
		c-0.4,0.4-0.9,0.4-1.3,0c0,0-0.4-0.4,0-0.9c0-0.9,0.9-0.4,1.3-0.4c1.3,0,2.1,0,3.4,0C156.8,241.1,154.7,242.8,151.2,243.2z"/>
	<path class="st29" d="M337.5,167.4c0-1.3,0.9-1.7,1.3-2.6c0.9-0.9,2.1-2.1,2.6-3.4c0.9-1.7,2.6-2.1,4.3-2.6
		C342.6,161.9,340,164.9,337.5,167.4z"/>
	<path class="st30" d="M354.6,262.1c-0.9,0-1.7,0-1.7-1.3s-0.9-2.1-3-1.7c0.9,1.3,1.3,2.1,1.3,3.4c-1.3-0.9-1.7-2.1-2.6-3.4
		c0.9-0.9,2.1-0.9,3.4-0.9c1.3,0,1.7,0.4,1.7,1.7C353.7,260.8,354.6,261.2,354.6,262.1z"/>
	<path class="st31" d="M314.8,284.3c0.9-0.4,0.9-1.3,0.9-2.1c0-0.4,0.4-0.4,0.4-0.4h0.4c-0.4,1.3,1.3,2.1,1.3,3.4s0,2.6-1.7,2.6
		c-0.4-0.4-0.4-0.9,0-1.7c-0.9,0.9-0.4,1.3-0.9,1.7C315.2,286.5,315.2,285.2,314.8,284.3z"/>
	<path class="st29" d="M325.1,238.9c0.4-2.1,1.7-3.4,2.6-5.6c0.4-1.3,0.9-3,1.3-4.3c0-0.9,0-1.7,0.9-2.1
		C329.8,231.7,328.9,236,325.1,238.9z"/>
	<path class="st32" d="M322.9,201.3c-2.1,0-4.3-0.9-6.4-1.3c-0.9-0.4-1.3-0.4-2.1-0.4c-2.6,0-5.1,0-7.3,0c-0.9,0-1.3,0.4-1.7-0.9
		c0.4,0,0.9,0,1.3,0c0.9,0.4,1.7,0,2.6,0.4c3,0,6.4,0,9.4,0.4C319.9,200,321.6,200.4,322.9,201.3z"/>
	<path class="st33" d="M415.8,126.8c-8.1,0.4-16.3,0.4-24.4,0C399.6,126.3,407.7,126.3,415.8,126.8z"/>
	<path class="st34" d="M482.6,262.9c0,0.9,0,2.1-1.3,2.1c-0.9,0-1.3-0.9-1.7-1.7c-0.9-1.3-1.3-3-1.3-4.7c0-1.3-1.7-2.6-0.9-4.3
		c1.3,2.6,1.7,5.1,2.1,7.7c0,0.9,0.4,1.7,1.3,1.7C482.2,264.6,482.2,263.4,482.6,262.9z"/>
	<path class="st35" d="M369.6,144.3c0-0.4,0-0.9,0.4-0.9c1.7-0.4,3.4-0.9,4.3-3c0.4-0.9,1.3-0.4,1.7-0.4l0,0
		c-0.9,0.9-0.9,0.9,0.9,1.7C374.7,142.6,372.2,143.9,369.6,144.3z"/>
	<path class="st36" d="M196.6,207.3c-0.4,4.7,1.3,8.6,3,12.8c0.4,0.9,0.9,1.7,0.4,2.6c-1.7-3.9-4.3-7.7-4.3-12.4
		C196.2,209,196.2,208.1,196.6,207.3z"/>
	<path class="st37" d="M400,137c-1.3,0-2.1,0-3.4,0v-0.4c6.9,0,13.3,0,20.1,0v0.4c-1.3,0-2.6,0-3.9,0C408.5,137,404.3,137,400,137z"
		/>
	<path class="st38" d="M329.8,224.8c0-3.9,0-8.1,0-12C330.6,216.7,330.6,220.5,329.8,224.8C330.2,224.8,329.8,224.8,329.8,224.8z"/>
	<path class="st39" d="M397.4,163.2c-1.3,0.4-2.6,1.3-4.3,0.9c0-0.4,0.9,0,0.9-0.4c-1.3,0-2.6-0.4-3.4-1.7
		C393.1,162.3,395.3,162.3,397.4,163.2z"/>
	<path class="st40" d="M167.9,172.6c-5.6,0-10.7,0-16.3,0c-0.4,0-1.3,0-1.7-0.4c5.6,0,10.7,0,16.3,0
		C167.1,171.7,167.5,171.7,167.9,172.6z"/>
	<path class="st41" d="M426.5,262.1c0.9,0,1.3-0.9,1.7-1.3c0.4-0.4,0.9-1.3,2.1-1.3c-2.1,2.6-4.3,5.1-6.9,7.3c0-2.1,1.7-3,2.6-4.3
		C427,262.5,426.5,262.5,426.5,262.1z"/>
	<path class="st42" d="M229.2,238.1c1.3-0.4,1.3,1.3,2.1,1.7c1.3,1.3,3,1.7,4.3,3C232.6,242.4,230.4,240.7,229.2,238.1z"/>
	<path class="st43" d="M437.2,328.4c1.3-2.6,2.6-4.7,5.6-6C440.7,324.6,438.9,326.7,437.2,328.4z"/>
	<path class="st44" d="M403,184.6c0,3-2.6,6.4-5.1,6.9c0.9-1.3,2.1-2.1,3-3C401.7,187.1,402.6,186.3,403,184.6z"/>
	<path class="st35" d="M377.3,141.8c0.4-1.3,1.3-1.7,2.1-1.7c1.3,0,2.1,0,3.4,0C381.1,140.9,379,141.3,377.3,141.8z"/>
	<path class="st45" d="M433,318.6h-0.4c0.9-1.7,2.1-3.4,3.4-5.1C435.5,315.6,434.7,317.3,433,318.6z"/>
	<path class="st11" d="M315.6,287.8c0-0.9,0.4-1.3,0.4-2.1c0-0.4,0.4-0.9,0.9-0.9c0.4,0,0.4,0.9,0.4,1.3c-0.4,0.4-0.9,0.9-0.9,1.7
		c-0.4,0.4-0.4,0.4-0.9,0.9C315.6,288.2,315.6,287.8,315.6,287.8z"/>
	<path class="st46" d="M450.1,224.4L450.1,224.4c1.3,2.1,0.4,3.9,0.4,6C449.2,228.2,450.5,226.1,450.1,224.4z"/>
	<path class="st47" d="M404.3,297.2c2.1,1.3,2.6,3,2.1,5.1C406,300.6,405.1,298.9,404.3,297.2z"/>
	<path class="st48" d="M462.9,226.5c0-0.4,0-0.4,0-0.9c1.3,0.9,1.7,2.1,2.6,3.4C463.8,228.7,463.4,227.4,462.9,226.5z"/>
	<path class="st49" d="M450.9,179.9c0,0.4-0.4,0.9-0.9,1.7c0-2.6,0-4.3,0-6.9c0.9,1.7,0,3.4,0.9,4.7
		C450.9,179.4,450.9,179.4,450.9,179.9z"/>
	<path class="st48" d="M469.3,235.5c-2.1-0.9-1.7-2.6-2.6-4.3C468.1,232.5,468.9,233.8,469.3,235.5z"/>
	<path class="st50" d="M143.5,238.1c1.7,0.4,1.3,2.6,2.6,3.4C144.4,240.7,143.9,239.4,143.5,238.1z"/>
	<path class="st51" d="M361,135.8c-0.4,1.7-1.7,1.7-3.4,1.7C358.5,136.6,359.7,136.2,361,135.8z"/>
	<path class="st44" d="M397,192.3c-0.4,1.3-1.3,2.1-3,2.6C395.3,194,395.7,192.7,397,192.3z"/>
	<path class="st52" d="M442.4,199.1c-1.3-0.4-1.7-1.3-1.7-2.6c0.4-0.4,0.9-0.4,1.3-0.9C441.1,197,441.1,197.8,442.4,199.1z"/>
	<path class="st53" d="M459.1,282.2c0,1.7-0.9,2.6-2.1,3.4C457.8,284.3,458.2,283,459.1,282.2z"/>
	<path class="st54" d="M329.3,210.7c-1.3-0.9-1.3-2.1-1.3-3.4C328.9,208.5,329.8,209.4,329.3,210.7z"/>
	<path class="st55" d="M240.3,242.4c0.4-0.9,1.3-2.1,2.6-2.6C242.4,241.1,241.6,241.9,240.3,242.4z"/>
	<path class="st48" d="M467.2,231.2c-1.3-0.4-1.7-1.3-1.7-2.6C466.3,229.5,466.8,230.4,467.2,231.2z"/>
	<path class="st56" d="M420.1,316.9c0,0.9,0.9,0.9,1.3,0.9c0,0.9-0.4,1.3-1.3,0.9C419.3,318.6,419.3,317.7,420.1,316.9z"/>
	<path class="st57" d="M88.7,174.3c-0.9-0.4-2.1-0.4-2.6-1.7C87,172.6,88.3,173,88.7,174.3z"/>
	<path class="st58" d="M346,238.9c0,1.3-0.4,1.7-1.7,1.7C344.8,239.8,345.2,239.4,346,238.9z"/>
	<path class="st59" d="M132.8,172.6c-0.4,0.9-0.9,1.7-2.1,1.7C131.1,173.4,131.5,172.6,132.8,172.6z"/>
	<path class="st60" d="M384.1,128.1c0.9,0,1.3-0.4,2.1,0.4c-1.3,0-3,0-4.3,0C382.9,128.1,383.3,127.6,384.1,128.1z"/>
	<path class="st61" d="M25.3,174.7c-0.9,0.4,0,1.7-1.3,1.7c0-0.9,0.4-1.7,1.3-2.6C25.3,174.3,25.3,174.7,25.3,174.7z"/>
	<path class="st62" d="M468.5,149c-1.3,0-1.7-1.3-2.6-2.1C467.2,147.3,468.1,148.2,468.5,149z"/>
	<path class="st40" d="M170.1,173.9c-0.9-0.4-1.7-0.9-2.1-1.7C169.2,172.6,169.6,173.4,170.1,173.9z"/>
	<path class="st63" d="M459.5,155.9c1.3,0,1.7,0.9,2.1,1.7C460.8,157.2,459.9,156.7,459.5,155.9z"/>
	<path class="st64" d="M357.6,229.1c-0.4,0.9-0.9,1.7-2.1,1.7C356.3,230,356.7,229.1,357.6,229.1z"/>
	<path class="st65" d="M307.5,277.9c0.9,0,1.3,0,2.1,0C309.2,278.8,308.4,279.2,307.5,277.9z"/>
	<path class="st66" d="M251.8,172.6c-0.4,0.9-1.3,1.7-2.1,2.1C250.1,173.9,251,173,251.8,172.6z"/>
	<path class="st67" d="M243.3,238.9c0-0.9-0.4-1.7,0.9-2.1C244.1,237.7,243.7,238.5,243.3,238.9z"/>
	<path class="st68" d="M279.2,241.9c0-0.9,0.4-1.7,1.7-1.7C280.1,241.1,279.7,241.9,279.2,241.9z"/>
	<path class="st69" d="M465.1,160.6c1.3,0,1.7,0.4,1.7,1.7C466.3,161.9,465.9,161.5,465.1,160.6z"/>
	<path class="st63" d="M457.4,154.2c1.3-0.4,1.7,0.4,1.7,1.3C458.2,155.5,457.8,155,457.4,154.2z"/>
	<path class="st58" d="M344.3,240.7c0,0.9-0.9,1.7-1.7,1.7C343,241.5,343.5,240.7,344.3,240.7z"/>
	<path class="st70" d="M376.9,165.7c1.3,0,1.7,0.4,2.1,1.7C378.1,167,377.7,166.6,376.9,165.7z"/>
	<path class="st71" d="M379.4,209c-0.4,0.9-0.4,1.7-1.7,1.7C378.1,209.8,378.1,209,379.4,209z"/>
	<path class="st72" d="M485.2,256.9c0.9,0.9,0,1.3-0.4,1.7c0,0,0-0.4-0.4-0.4C484.8,257.4,485.2,256.9,485.2,256.9z"/>
	<path class="st73" d="M291.7,209c1.3,0,1.3,0.9,1.3,1.7C292.1,210.3,291.7,209.8,291.7,209z"/>
	<path class="st61" d="M24.1,176.4c0.4,0.9,0,1.7-0.4,2.6C24.1,178.1,23.6,177.3,24.1,176.4z"/>
	<path class="st74" d="M281,229.1c-0.9-0.4-1.3-1.3-0.4-2.1C280.5,227.4,281,228.2,281,229.1z"/>
	<path class="st29" d="M329.8,224.8C329.8,224.8,330.2,224.8,329.8,224.8c0.4,0.9,0.4,1.7,0,2.6
		C329.8,226.5,329.8,225.7,329.8,224.8z"/>
	<path class="st2" d="M309.2,199.6c-0.9,0-1.7,0.4-2.6-0.4C307.5,199.1,308.4,199.1,309.2,199.6z"/>
	<path class="st75" d="M451.4,314.7c0.4-0.4,0.9-1.3,1.7-1.3C452.2,314.3,452.2,314.7,451.4,314.7z"/>
	<path class="st76" d="M442.8,264.2c-0.4,0.9-0.9,1.3-1.7,1.3C441.5,264.6,441.9,264.2,442.8,264.2z"/>
	<path class="st77" d="M358,271.5c0.9,0.4,1.3,0.9,1.3,1.7C358.9,272.8,358,271.9,358,271.5z"/>
	<path class="st65" d="M310.1,275.3c0,0.9-0.4,0.9-1.3,0.9C309.2,275.8,309.6,275.3,310.1,275.3z"/>
	<path class="st31" d="M319.9,286c0,0.4-0.4,0.9-0.9,0.9c0-0.4-0.4-0.4,0-0.9C319.5,286,319.5,286,319.9,286z"/>
	<path class="st63" d="M456.1,153.3c0.4,0,1.3,0,1.3,0.9C456.9,154.2,456.5,153.7,456.1,153.3z"/>
	<path class="st2" d="M295.1,224.8c-0.4,0.9-1.3,0.4-2.1,0.4C293.8,224.4,294.7,224.8,295.1,224.8z"/>
	<path class="st71" d="M377.7,210.7c0,0.9-0.4,0.9-1.3,0.9C376.9,211.1,376.9,210.7,377.7,210.7z"/>
	<path class="st78" d="M301.5,191.9c0-0.9,0.4-1.3,1.3-1.3C302.4,191,301.9,191.4,301.5,191.9z"/>
	<path class="st79" d="M27.5,242.4c0.4,0,0.4,0,0.9,0c0.4,0,0.4,0,0.9,0.4c0,0.4-0.4,0-0.9,0.4C28.3,242.4,27.9,242.4,27.5,242.4z"
		/>
	<path class="st80" d="M78.9,173c0,0.9-0.4,0.9-1.3,0.9C77.6,173.4,78,173.4,78.9,173z"/>
	<path class="st81" d="M352.5,140c0,0.9-0.9,0.9-1.3,0.9C351.6,140.5,352,140,352.5,140z"/>
	<path class="st82" d="M368.3,150.7c-0.4,0-0.9,0-1.3,0c0-0.4,0-0.9,0-0.9C367.9,149.9,368.3,150.3,368.3,150.7z"/>
	<path class="st83" d="M324.6,274.5c-0.4,0-1.3,0-1.3-0.9C324.2,273.6,324.6,274.1,324.6,274.5z"/>
	<path class="st84" d="M237.7,207.7c0.4,0.9,0.4,1.3-0.4,1.3C237.3,208.5,237.3,208.1,237.7,207.7z"/>
	<path class="st51" d="M362.3,134.9c0,0.9-0.9,0.9-1.3,0.9C361,135.3,361.9,134.9,362.3,134.9z"/>
	<path class="st81" d="M351.6,140.9c-0.4,0.9-0.9,0.9-1.7,0.9C350.3,141.3,350.7,140.9,351.6,140.9z"/>
	<path class="st15" d="M455.2,222.2c0-0.4-0.4-1.3,0.9-1.7c0.4,0,0.9,0,1.3,0.4c0.9,0.9,0,1.3-0.4,1.7c-0.4,1.3,0,2.6-1.7,3
		c-0.4-0.4-0.4-1.3,0-1.7C455.6,223.1,456.1,222.7,455.2,222.2z"/>
	<path class="st41" d="M426.5,262.1c-1.7,0-1.3-0.9-1.3-1.7c0-0.9,0.4-1.3,0.9-2.1c0.4-0.4,0.4,0,0.9,0c0.4,0.4,0.4,0.9,0,1.3
		C426.1,260.4,426.5,261.2,426.5,262.1z"/>
	<path class="st2" d="M455.2,222.2c0.9,0,0.9,0.9,0.4,1.3c-0.4,0.4-0.4,1.3-0.4,1.7c0,0.4,0,0.4,0,0.9
		C453.9,225.2,453.9,223.5,455.2,222.2z"/>
	<path class="st2" d="M458.6,227.4c0.9,0,1.3,0.9,1.3,1.7c-0.4,0-1.3,0-1.7,0.4C458.2,228.7,458.6,227.8,458.6,227.4z"/>
	<path class="st30" d="M355,262.1c1.3,0.9,0.9,1.3,0,2.1C355,263.4,355,262.9,355,262.1z"/>
	<path class="st2" d="M457.4,229.1c-0.9,0-0.9-0.4-1.3-0.9c0-0.4,0.4-0.4,0.4-0.4C457.4,227.8,457.4,228.2,457.4,229.1z"/>
	<path class="st46" d="M449.6,221.4c0.4,0.9,0.4,1.7,0,2.6C449.6,223.1,449.6,222.2,449.6,221.4z"/>
	<path class="st2" d="M458.6,221.4c0.4,0,0.9,0,0.4,0.4l-0.4,0.4C458.2,221.8,458.6,221.8,458.6,221.4z"/>
	<path class="st48" d="M464.6,231.7c0.9,0.4,1.3,0.9,1.3,1.7c0,0.4-0.4,0.4-0.9,0.4C464.6,233.4,464.2,232.5,464.6,231.7z"/>
	<path class="st14" d="M301.9,213.3c-1.3-0.4-2.6,0.4-3.9-0.9C299.8,212.4,301.1,211.5,301.9,213.3z"/>
	<path class="st35" d="M376.4,140c0-1.3,0.9-0.9,1.7-0.9C377.7,140,376.9,140,376.4,140L376.4,140z"/>
	<path class="st45" d="M434.7,318.6C435.1,318.6,435.1,319,434.7,318.6c0.4,0.4,0.4,0.9,0,0.9C434.7,319.4,434.7,319,434.7,318.6
		C434.7,319,434.7,318.6,434.7,318.6z"/>
	<path class="st85" d="M67.7,181.6c0-0.9,0-1.3,0-2.1h0.4c0,19.7,0,39,0,58.7l0,0c-0.9-0.9-0.4-1.7-0.4-2.6c-0.4-0.4,0-1.3,0-1.7
		c0-17.1,0-33.8,0-51C67.7,182.4,67.7,182,67.7,181.6z"/>
	<path class="st86" d="M67.7,181.6c0,18,0,36,0,53.9c-0.9-0.4-0.4-1.3-0.4-2.1c0-16.7,0-33,0-49.7C67.3,182.9,67.3,182,67.7,181.6z"
		/>
	<path class="st87" d="M179.5,195.7c0.9,0,0.9,0.4,0.9,1.3c0,6,0,12,0,18c0,0.4,0,0.4-0.9,0.9C179.5,209,179.5,202.1,179.5,195.7
		L179.5,195.7z"/>
	<path class="st88" d="M179.5,195.7c0-0.4-0.4-0.4-0.4-0.9c0-6,0-12,0.4-18C179.5,183.3,179.5,189.3,179.5,195.7L179.5,195.7z"/>
	<path class="st89" d="M89.1,237.2c0,0.9-0.4,0.9-0.9,0.9c-0.9,0-1.3-0.4-0.9-0.9c0-0.4,0.4-0.9,1.3-0.9
		C88.7,236.4,89.1,236.8,89.1,237.2z"/>
	<path class="st90" d="M256.6,214.5c-5.6,0-5.6,0-3.9-4.7c0.9-2.1,1.3-4.3,2.1-6.9c0-0.4,0.4-1.3,0.9-1.3c0.9,0,0.9,0.9,0.9,1.3
		c1.3,3,2.1,6.4,3.4,9.8c0.4,1.7,0,1.7-1.3,1.7C257.8,214.5,257,214.5,256.6,214.5z"/>
	<path class="st22" d="M268.1,232.1c-0.9-0.4-1.3-1.3-1.3-1.7s0.4-0.4,0.9-0.4C268.5,230.4,268.1,231.2,268.1,232.1z"/>
	<path class="st22" d="M269.8,233.8c0,0.4,0,0.4-0.4,0.4c-0.4,0-0.4-0.4-0.4-0.9c0-0.4,0-0.4,0.4-0.4
		C269.8,233.4,269.8,233.4,269.8,233.8z"/>
	<path class="st91" d="M150.8,241.1c-1.3-1.3-1.3-1.3-0.9-3C150.8,239.8,150.8,239.8,150.8,241.1z"/>
	<path class="st90" d="M298.5,291.6c-0.4,2.6-0.4,5.1-2.1,7.3c-1.7,1.7-4.3,2.6-6,1.3c-1.3-1.3-1.7-2.6-0.9-4.3
		c2.1-3,5.1-4.7,8.1-6.4C299.4,289,298.1,291.2,298.5,291.6z"/>
	<path class="st92" d="M293.4,286c0.4-2.6,0.9-5.1,2.6-7.7c0.9-0.9,1.7-1.7,2.6-2.1c0.9-0.4,1.7-0.4,2.6,0c0.4,0.4,0,1.3,0,1.7
		c-0.4,2.1-1.3,4.3-1.7,6.4c-0.4,1.3-1.3,2.6-2.1,3.4c-0.9,0.4-1.7,1.3-2.6,0.9C293.4,288.2,293.4,287.3,293.4,286z"/>
	<path class="st93" d="M206.5,279.2c-0.4,0-0.4-0.4-0.4-0.4c0-0.4,0-0.4,0.4-0.4s0.4,0.4,0.4,0.4
		C206.9,279.2,206.9,279.2,206.5,279.2z"/>
	<path class="st94" d="M282.7,281.3c0,2.6-0.4,5.1-2.1,7.3c-0.9,0.9-1.3,1.7-2.6,1.7s-1.7-1.3-1.7-2.1c-0.9-3.9-0.4-7.7,2.1-11.1
		c1.7-2.1,3-1.7,3.9,0.9C283.1,278.8,282.7,280.1,282.7,281.3z"/>
	<path class="st95" d="M253.1,281.8c0,2.6-0.4,5.1-2.1,7.3c-1.3,1.7-3,1.7-3.9-0.4c-1.7-3.4-0.4-9.8,2.6-12c1.3-1.3,2.1-1.3,3,0.4
		C253.6,278.3,253.6,280.1,253.1,281.8z"/>
	<path class="st96" d="M180.3,277.5c0,1.7-2.6,4.7-3.9,4.7c-0.4,0-0.9-0.4-0.4-0.9c0.4-1.7,0.9-3.4,2.1-5.1c0.4-0.4,0.9-0.9,1.7-0.4
		C180.3,276.2,180.3,276.6,180.3,277.5z"/>
	<path class="st31" d="M319.1,286.9c0,0.9,0.4,1.7-0.9,1.7C318.2,288.2,317.8,287.3,319.1,286.9z"/>
</g>
</svg>
